<svg xmlns="http://www.w3.org/2000/svg" width="446" height="533.64" viewBox="0 0 446 533.64">
  <g id="グループ_65" data-name="グループ 65" transform="translate(-869.036 -4714)">
    <path id="パス_1819" data-name="パス 1819" d="M-63.92-188.64c-44.64,0-68.88,33.6-68.88,96.24,0,64.32,23.28,97.68,68.64,97.68,44.16,0,68.4-33.6,68.4-97.2C4.24-156.72-20.24-188.64-63.92-188.64Zm0,20.64c30.48,0,45.12,26.16,45.12,75.84,0,50.64-14.88,76.8-45.36,76.8s-45.6-26.16-45.6-76.8C-109.76-142.56-94.16-168-63.92-168ZM27.68-27.36H80.72V-5.2c0,3.04-.56,3.52-5.12,3.52a54.25,54.25,0,0,1-8.64-.8,2.215,2.215,0,0,0-.72-.08A2.507,2.507,0,0,0,63.68-.24a3.282,3.282,0,0,0-.08.88,2.72,2.72,0,0,0,2.48,2.8,63.559,63.559,0,0,0,10.72.8c6.96,0,10.16-2.08,10.16-7.76V-56.24c0-5.04-3.04-7.76-8.24-7.76H29.44c-5.28,0-8.16,2.64-8.16,7.76V3.6c0,1.44,1.36,2.4,3.2,2.4s3.2-.96,3.2-2.4Zm22.8-5.84H27.68V-55.52c0-1.92.96-2.56,2.8-2.56h20Zm6.24,0V-58.08H77.76c2,0,2.96.64,2.96,2.56V-33.2ZM102.8-17.6c0,1.84,1.52,2.72,3.2,2.72a2.911,2.911,0,0,0,3.2-2.72l1.12-40.96c.08-2.24-1.68-3.68-4.24-3.68-2.64,0-4.4,1.44-4.4,3.68ZM106-10a5.292,5.292,0,0,0-5.52,5.52A5.292,5.292,0,0,0,106,1.04a5.381,5.381,0,0,0,5.52-5.52A5.381,5.381,0,0,0,106-10Zm20.96-7.6c0,1.84,1.52,2.72,3.2,2.72a2.911,2.911,0,0,0,3.2-2.72l1.12-40.96c.08-2.24-1.68-3.68-4.24-3.68-2.64,0-4.4,1.44-4.4,3.68Zm3.2,7.6a5.292,5.292,0,0,0-5.52,5.52,5.292,5.292,0,0,0,5.52,5.52,5.381,5.381,0,0,0,5.52-5.52A5.381,5.381,0,0,0,130.16-10Z" transform="translate(1155 5241.64)" fill="#ff5c97"/>
    <g id="グループ_47" data-name="グループ 47" transform="translate(-191 -200)">
      <g id="グループ_37" data-name="グループ 37">
        <path id="多角形_2" data-name="多角形 2" d="M38.5,0,77,67H0Z" transform="translate(1301.798 5134.229) rotate(60)" fill="#fcdd44"/>
        <ellipse id="楕円形_6" data-name="楕円形 6" cx="223" cy="129" rx="223" ry="129" transform="translate(1060.036 4914)" fill="#fcdd44"/>
      </g>
      <g id="グループ_38" data-name="グループ 38" transform="translate(-96.859 65)">
        <path id="パス_1816" data-name="パス 1816" d="M-109.55-7.175h2.415c.56,0,.91-.49.91-1.155,0-.63-.35-1.085-.91-1.085h-2.415V-11.1c0-1.925-.84-2.66-2.94-2.66h-9.03v-2.1h8.575c1.925,0,2.8-.56,2.8-2.17v-2.38c0-1.61-.875-2.2-2.8-2.2h-8.575v-1.925h14c.6,0,.945-.49.945-1.155a.961.961,0,0,0-.945-1.085h-14V-28.63c0-.63-.385-.98-1.225-.98-.77,0-1.225.35-1.225.98v1.855h-13.65c-.6,0-.91.455-.91,1.085,0,.665.315,1.155.91,1.155h13.65v1.925H-132.2c-1.89,0-2.765.6-2.765,2.2v2.38c0,1.61.875,2.17,2.765,2.17h8.225v2.1h-11.165a.937.937,0,0,0-.875,1.05c0,.6.315,1.12.875,1.12h11.165v2.17H-137.9c-.56,0-.875.49-.875,1.12s.315,1.12.875,1.12h13.93V-4.69h-11.585a.937.937,0,0,0-.875,1.05c0,.6.315,1.12.875,1.12h11.585V-.7c0,.945-.455,1.19-1.96,1.19A14.311,14.311,0,0,1-128.8.14a.969.969,0,0,0-.315-.035,1.068,1.068,0,0,0-1.12.945.87.87,0,0,0-.035.28,1.178,1.178,0,0,0,1.05,1.19,17.407,17.407,0,0,0,3.5.35c3.29,0,4.2-.91,4.2-3.22V-2.52h9.03c2.1,0,2.94-.735,2.94-2.625Zm-2.52,0v1.61c0,.665-.315.875-1.015.875h-8.435V-7.175Zm0-2.24h-9.45v-2.17h8.435c.7,0,1.015.14,1.015.805Zm-9.45-8.47v-2.7h7.945c.665,0,.98.14.98.735v1.225c0,.6-.315.735-.98.735Zm-2.45-2.7v2.7h-7.525c-.7,0-1.015-.14-1.015-.735v-1.225c0-.6.315-.735,1.015-.735Zm33.775-3.955a27.73,27.73,0,0,0-3.15-4.655,1.269,1.269,0,0,0-1.015-.455,2.389,2.389,0,0,0-.805.175,1.123,1.123,0,0,0-.805.98.858.858,0,0,0,.21.56,31.71,31.71,0,0,1,2.52,3.395h-9.24c-.63,0-.945.49-.945,1.19,0,.735.315,1.225.945,1.225h30c.63,0,.945-.49.945-1.225,0-.7-.315-1.19-.945-1.19H-81.76A27.077,27.077,0,0,0-79-28.07a.673.673,0,0,0,.14-.42,1.235,1.235,0,0,0-.945-1.05,1.78,1.78,0,0,0-.7-.14,1.343,1.343,0,0,0-1.225.7,27.669,27.669,0,0,1-3.115,4.445ZM-98.6-5.11h7.56V-.98c0,.945-.28,1.19-1.365,1.19A9.694,9.694,0,0,1-94.255,0h-.14A1.036,1.036,0,0,0-95.41.945a.969.969,0,0,0-.035.315,1.073,1.073,0,0,0,.805,1.085,11.082,11.082,0,0,0,2.625.21c2.31,0,3.535-.945,3.535-2.94v-16.31c0-1.89-.945-2.73-2.87-2.73h-7.035c-1.925,0-2.835.84-2.835,2.73V1.925c0,.63.525.98,1.295.98.735,0,1.33-.35,1.33-.98Zm0-5.985h7.56v3.64H-98.6Zm7.56-2.345H-98.6v-2.835c0-.665.315-.84.945-.84h5.635c.665,0,.98.175.98.84Zm9.59-4.655c0-.595-.665-.945-1.365-.945-.805,0-1.365.35-1.365.945V-5.11c0,.63.56.98,1.365.98.7,0,1.365-.35,1.365-.98Zm7.56-.875c0-.665-.63-1.05-1.435-1.05s-1.295.385-1.295,1.05V-1.3c0,1.12-.28,1.365-1.68,1.365a11.411,11.411,0,0,1-2.45-.245.771.771,0,0,0-.28-.035A1.1,1.1,0,0,0-82.11.84a1.313,1.313,0,0,0-.035.35A1.124,1.124,0,0,0-81.2,2.38a18.59,18.59,0,0,0,3.36.245c2.695,0,3.955-1.05,3.955-3.255Zm22.96-4.515c6.195.21,10.08,4.515,10.08,10.43A9.944,9.944,0,0,1-44.66-4.9a16.068,16.068,0,0,1-7,2.52,1.364,1.364,0,0,0-1.26,1.365,1.191,1.191,0,0,0,.035.35A1.355,1.355,0,0,0-51.415.56,1.57,1.57,0,0,0-51.03.525,18.846,18.846,0,0,0-43.68-2,12.381,12.381,0,0,0-37.9-12.985c0-7.7-5.46-13.09-13.72-13.09-9.555,0-15.645,6.3-15.645,15.015,0,5.88,2.9,9.415,6.545,9.415A5.708,5.708,0,0,0-56.7-3.185c1.225-1.155,2.24-2.73,3.465-6.335A57.73,57.73,0,0,0-50.925-23.485Zm-2.905.105a52.5,52.5,0,0,1-2.2,12.88c-.84,2.555-1.645,4.06-2.415,4.8A3.218,3.218,0,0,1-60.795-4.69c-1.855,0-3.64-2.2-3.64-6.405C-64.435-17.885-60.235-22.785-53.83-23.38Zm25.97,3.22v7.49c-1.645.42-3.325.805-4.935,1.12a1.147,1.147,0,0,0-.98,1.19.969.969,0,0,0,.035.315,1.2,1.2,0,0,0,1.26,1.12.969.969,0,0,0,.315-.035c1.4-.28,2.835-.6,4.305-.98v8.75c0,.91-.315,1.155-1.5,1.155A10.36,10.36,0,0,1-31.4-.28a.969.969,0,0,0-.315-.035c-.49,0-.91.315-1.015,1.015a.969.969,0,0,0-.035.315,1.18,1.18,0,0,0,.945,1.225,13.005,13.005,0,0,0,2.8.245c2.765,0,3.815-.77,3.815-3.22v-9.94c1.715-.49,3.36-1.05,4.9-1.61a1.092,1.092,0,0,0,.735-1.085,3.106,3.106,0,0,0-.07-.525,1.08,1.08,0,0,0-1.05-.875,1.4,1.4,0,0,0-.525.1c-1.26.455-2.59.875-3.99,1.3v-6.79h4.445c.63,0,.98-.525.98-1.225s-.35-1.225-.98-1.225H-25.2v-5.915c0-.735-.49-1.155-1.33-1.155s-1.33.42-1.33,1.155v5.915h-4.62c-.63,0-.98.525-.98,1.225s.35,1.225.98,1.225ZM-9.94-24.4v22.47c0,1.26-.455,1.47-2.24,1.47a16.459,16.459,0,0,1-3.465-.42A.969.969,0,0,0-15.96-.91,1.133,1.133,0,0,0-17.08.14a1.7,1.7,0,0,0-.035.42,1.2,1.2,0,0,0,1.05,1.225A21.555,21.555,0,0,0-12,2.2c3.71,0,4.9-.945,4.9-3.675V-24.4H-2.17c.63,0,.98-.525.98-1.3,0-.735-.35-1.26-.98-1.26h-17.5c-.63,0-1.015.525-1.015,1.3,0,.735.385,1.26,1.015,1.26Zm19.7,13.37a53.723,53.723,0,0,0,4.48-9.1A123.474,123.474,0,0,0,28.1-21.21a1.3,1.3,0,0,0,1.225-1.4v-.245a1.259,1.259,0,0,0-1.3-1.12.969.969,0,0,0-.315.035c-3.465.455-8.155.875-12.495,1.015.42-1.225.84-2.625,1.225-3.99a2.7,2.7,0,0,0,.07-.525,1.16,1.16,0,0,0-1.12-1.19,1.191,1.191,0,0,0-.35-.035,1.284,1.284,0,0,0-1.4,1.19c-.42,1.61-.84,3.15-1.33,4.62-2.9,0-5.425-.07-7.56-.175H4.62a1.235,1.235,0,0,0-1.225,1.295v.105a1.277,1.277,0,0,0,1.19,1.4c1.435.1,3.255.14,5.11.14h1.68A66.928,66.928,0,0,1,6.16-9.555,2.069,2.069,0,0,0,5.81-8.47a1.4,1.4,0,0,0,.735,1.225,1.534,1.534,0,0,0,.8.21,3.078,3.078,0,0,0,1.75-.77,19.328,19.328,0,0,1,11.375-4.06c4.655,0,7.07,1.54,7.07,4.41,0,3.675-3.955,5.6-9.59,5.6A29.512,29.512,0,0,1,10.08-2.87a1.741,1.741,0,0,0-.56-.105,1.341,1.341,0,0,0-1.33,1.05,1.4,1.4,0,0,0-.1.525A1.431,1.431,0,0,0,9.17-.035a31.708,31.708,0,0,0,8.855,1.05c8.82,0,12.53-3.78,12.53-8.47,0-4.06-3.22-6.965-9.73-6.965A19.273,19.273,0,0,0,9.94-10.955ZM50.4-28.49A36.185,36.185,0,0,1,36.89-17.675a1.426,1.426,0,0,0-.875,1.3,1.373,1.373,0,0,0,.14.63,1.38,1.38,0,0,0,1.26.84,1.57,1.57,0,0,0,.665-.175A38.685,38.685,0,0,0,52.01-26.32a.6.6,0,0,1,.42-.28c.14,0,.28.1.455.315a41.967,41.967,0,0,0,14.07,11.2,1.517,1.517,0,0,0,.665.14,1.5,1.5,0,0,0,1.33-.875,1.78,1.78,0,0,0,.14-.7,1.345,1.345,0,0,0-.84-1.26A36.508,36.508,0,0,1,54.425-28.49a2.565,2.565,0,0,0-2-.84A2.64,2.64,0,0,0,50.4-28.49ZM45.43-18.445c-.665,0-1.015.595-1.015,1.3,0,.735.35,1.295,1.015,1.295H59.6c.63,0,1.015-.56,1.015-1.295,0-.7-.385-1.3-1.015-1.3Zm-1.26,6.51c-2.135,0-3.115.91-3.115,3.01v7.7c0,2.135.98,3.01,3.115,3.01H60.9c2.135,0,3.115-.875,3.115-3.01v-7.7c0-2.1-.98-3.01-3.115-3.01Zm.77,11.2c-.735,0-1.085-.21-1.085-.98v-6.72c0-.77.35-.98,1.085-.98H60.1c.735,0,1.12.21,1.12.98v6.72c0,.77-.385.98-1.12.98Zm36.925-19.11a2.009,2.009,0,0,0,.665-1.4,1.17,1.17,0,0,0-1.295-1.19c.07-1.645.14-3.325.245-5v-.07a1.214,1.214,0,0,0-1.33-1.26c-.945,0-1.4.385-1.435,1.225-.1,1.82-.175,3.535-.21,5.285-1.575.1-3.395.28-5.18.455A1.244,1.244,0,0,0,72.17-20.44v.105a1.182,1.182,0,0,0,1.155,1.225H73.5c1.575-.14,3.29-.385,4.935-.49-.035,1.715-.1,3.745-.1,5.355a72.4,72.4,0,0,0-6.195,7.42,1.8,1.8,0,0,0-.35,1.05,1.455,1.455,0,0,0,.49,1.12,1.511,1.511,0,0,0,.945.35,1.289,1.289,0,0,0,1.085-.63c.98-1.435,2.1-2.94,2.73-3.71a18.2,18.2,0,0,0,1.4-2.1,26.157,26.157,0,0,0-.14,2.975c-.035,1.015-.035,2.38-.035,3.885s0,3.15.035,4.8A1.316,1.316,0,0,0,79.66,2.24,1.281,1.281,0,0,0,81.1.91c-.035-3.4-.105-6.65-.105-9.94,0-1.33,0-2.7.035-4.1A36.826,36.826,0,0,1,84.14-15.89a13.688,13.688,0,0,1,8.435-3.325c3.955,0,6.72,2.835,6.72,6.965,0,3.64-1.19,5.81-3.64,7.28a17.2,17.2,0,0,1-7.77,1.785,1.351,1.351,0,0,0-1.435,1.47,1.415,1.415,0,0,0,1.47,1.54A19.592,19.592,0,0,0,97.09-2.31c3.605-2.1,5.215-5.39,5.215-9.835,0-5.6-3.71-9.765-9.52-9.765-3.325,0-6.265,1.225-9.345,3.5A10.174,10.174,0,0,0,82.145-17.4c-.455.455-.735.77-1.085,1.12.035-.525.07-1.12.105-1.61a4.691,4.691,0,0,0,.035-.7v-.595Zm49.35,2.03c2.03-.035,4.06-.1,6.02-.1.945,0,1.33-.525,1.33-1.4,0-.805-.385-1.3-1.365-1.3-1.96.035-4.06.07-5.95.14.035-1.155.035-2.205.035-3.255v-3.08a1.308,1.308,0,0,0-1.47-1.225,1.253,1.253,0,0,0-1.4,1.26c0,1.33.035,2.73.035,4.165,0,.735,0,1.47-.035,2.2-2,.07-3.85.175-5.355.245-2.275.1-4.48.245-6.615.385.035-2.135.035-4.27.035-6.335,0-.8-.56-1.26-1.47-1.295a1.289,1.289,0,0,0-1.435,1.295c0,1.925,0,4.34-.035,6.51-1.96.175-3.885.315-5.775.455a1.206,1.206,0,0,0-1.19,1.3v.1a1.226,1.226,0,0,0,1.225,1.26h.21c1.855-.14,3.745-.315,5.53-.42,0,1.4-.035,2.73-.035,4.025v.945c0,6.02.315,7.735,1.26,9.2,1.26,2.205,4.2,3.115,9.73,3.115a54.5,54.5,0,0,0,9.66-.805,1.432,1.432,0,0,0,1.295-1.5.969.969,0,0,0-.035-.315,1.25,1.25,0,0,0-1.33-1.155,2.479,2.479,0,0,0-.49.035,48.893,48.893,0,0,1-9.205.84c-4.445,0-6.4-.455-7.28-2.065-.525-.875-.7-2.345-.7-8.645v-3.85c2.275-.175,4.515-.28,6.755-.42,1.645-.105,3.395-.14,5.25-.21a38.127,38.127,0,0,1-.385,5.6c-.28,1.435-.805,1.96-1.855,1.96a5.865,5.865,0,0,1-3.325-1.3,1.357,1.357,0,0,0-.91-.35,1.461,1.461,0,0,0-1.12.56,1.508,1.508,0,0,0-.28.84,1.435,1.435,0,0,0,.49,1.085,8.893,8.893,0,0,0,5.425,2c2.485,0,3.78-1.47,4.27-4.095A36.687,36.687,0,0,0,131.215-17.815Z" transform="translate(1380 4944)"/>
        <path id="パス_1817" data-name="パス 1817" d="M-122.36-14.665a15.824,15.824,0,0,1-2.1,8.505,11.357,11.357,0,0,1-7.1,4.97A1.388,1.388,0,0,0-132.58.21a1.982,1.982,0,0,0,.1.63,1.228,1.228,0,0,0,1.295.84,3.121,3.121,0,0,0,.77-.105,14.1,14.1,0,0,0,8.435-5.915,18.693,18.693,0,0,0,2.73-10.325h11.1a1.2,1.2,0,0,0,1.225-1.365c0-.84-.385-1.435-1.26-1.435h-27.3a1.223,1.223,0,0,0-1.26,1.365c0,.805.42,1.435,1.225,1.435Zm-10.15-11.62a1.263,1.263,0,0,0-1.26,1.435,1.331,1.331,0,0,0,1.26,1.47h18.655a1.236,1.236,0,0,0,1.26-1.4c0-.875-.385-1.5-1.26-1.5Zm19.915-1.89a1.154,1.154,0,0,0,.315.84,21.908,21.908,0,0,1,2.415,4.025.946.946,0,0,0,.945.63,1.078,1.078,0,0,0,1.19-.98,2.115,2.115,0,0,0-.175-.84,17.713,17.713,0,0,0-2.66-4.13,1.4,1.4,0,0,0-.98-.49A1.037,1.037,0,0,0-112.6-28.175Zm4.165-1.68a1.288,1.288,0,0,0,.35.875,21.52,21.52,0,0,1,2.345,3.92.989.989,0,0,0,.98.7,1.028,1.028,0,0,0,1.085-.98,2.04,2.04,0,0,0-.175-.875,16.819,16.819,0,0,0-2.59-4.025,1.438,1.438,0,0,0-1.015-.455A.982.982,0,0,0-108.43-29.855ZM-95.62-21h-5.355a1.2,1.2,0,0,0-1.33,1.33,1.241,1.241,0,0,0,1.295,1.4h5.39v8.61c0,.875.56,1.33,1.47,1.33.875,0,1.54-.455,1.54-1.33v-8.61h11.445v3.15c0,4.13-.665,6.9-2.065,8.925a13.534,13.534,0,0,1-8.47,5.11A1.31,1.31,0,0,0-92.96.245a1.313,1.313,0,0,0,.035.35A1.254,1.254,0,0,0-91.56,1.68a2.153,2.153,0,0,0,.455-.035,15.865,15.865,0,0,0,10.36-6.16c1.68-2.45,2.555-5.775,2.555-10.01V-18.27h5.39a1.241,1.241,0,0,0,1.295-1.4,1.224,1.224,0,0,0-1.33-1.365H-78.19V-26.6a1.368,1.368,0,0,0-1.54-1.33,1.264,1.264,0,0,0-1.435,1.33v5.565H-92.61V-26.6a1.368,1.368,0,0,0-1.54-1.33,1.292,1.292,0,0,0-1.47,1.33Zm19.32-6.86a24.757,24.757,0,0,1,1.54,4.13.958.958,0,0,0,.945.735,1.009,1.009,0,0,0,1.12-.91,3.162,3.162,0,0,0-.14-.98,21.342,21.342,0,0,0-1.575-3.92A1.2,1.2,0,0,0-75.5-29.47a.928.928,0,0,0-1.015.875A1.782,1.782,0,0,0-76.3-27.86Zm4.06-1.085a20.455,20.455,0,0,1,1.505,3.85c.175.63.42.91.945.91a.939.939,0,0,0,1.05-.98,2.642,2.642,0,0,0-.105-.805,20.3,20.3,0,0,0-1.61-3.885,1.017,1.017,0,0,0-.98-.56.9.9,0,0,0-.945.84A1.285,1.285,0,0,0-72.24-28.945Zm21.49,11.2a49.175,49.175,0,0,0,8.785-7.665,1.566,1.566,0,0,0,.385-.945,1.451,1.451,0,0,0-.63-1.155,1.625,1.625,0,0,0-1.015-.35,1.662,1.662,0,0,0-1.19.56,42.933,42.933,0,0,1-9.52,8.085A58.08,58.08,0,0,1-67.41-12.7a1.5,1.5,0,0,0-1.05,1.4,2.7,2.7,0,0,0,.07.525A1.351,1.351,0,0,0-67.1-9.8a2.117,2.117,0,0,0,.77-.14,63.511,63.511,0,0,0,12.46-5.775V.07c0,.945.665,1.365,1.575,1.365.875,0,1.54-.455,1.54-1.33Zm21.77-7.595a1.886,1.886,0,0,0-1.05-.35,1.369,1.369,0,0,0-1.12.525,1.594,1.594,0,0,0-.385,1.015,1.36,1.36,0,0,0,.56,1.12,41.567,41.567,0,0,1,7.315,6.4,1.8,1.8,0,0,0,1.3.665,1.435,1.435,0,0,0,1.085-.49,1.794,1.794,0,0,0,.49-1.19,1.786,1.786,0,0,0-.42-1.12A34.5,34.5,0,0,0-28.98-25.34Zm23.45,2.555a2.7,2.7,0,0,0-.525-.07c-.63,0-1.155.385-1.4,1.33a24.929,24.929,0,0,1-8.4,13.475c-3.5,2.7-9.45,4.725-14.63,4.97a1.437,1.437,0,0,0-1.4,1.54v.175A1.511,1.511,0,0,0-30.24.035h.07a30.827,30.827,0,0,0,16.135-5.46A27.227,27.227,0,0,0-4.41-20.72a3.856,3.856,0,0,0,.07-.63A1.454,1.454,0,0,0-5.53-22.785Zm23.2-.7c6.195.21,10.08,4.515,10.08,10.43A9.944,9.944,0,0,1,23.94-4.9a16.068,16.068,0,0,1-7,2.52,1.364,1.364,0,0,0-1.26,1.365,1.191,1.191,0,0,0,.035.35A1.355,1.355,0,0,0,17.185.56,1.57,1.57,0,0,0,17.57.525,18.846,18.846,0,0,0,24.92-2a12.381,12.381,0,0,0,5.775-10.99c0-7.7-5.46-13.09-13.72-13.09-9.555,0-15.645,6.3-15.645,15.015,0,5.88,2.9,9.415,6.545,9.415A5.708,5.708,0,0,0,11.9-3.185c1.225-1.155,2.24-2.73,3.465-6.335A57.73,57.73,0,0,0,17.675-23.485Zm-2.905.105A52.5,52.5,0,0,1,12.565-10.5c-.84,2.555-1.645,4.06-2.415,4.8A3.218,3.218,0,0,1,7.8-4.69c-1.855,0-3.64-2.2-3.64-6.405C4.165-17.885,8.365-22.785,14.77-23.38Zm40.88.525c-2.17.945-4.13,1.855-5.67,2.66a1.213,1.213,0,0,0-.665,1.085,1.417,1.417,0,0,0,.245.735,1.227,1.227,0,0,0,.98.49,2.354,2.354,0,0,0,1.085-.315c2.66-1.435,5.565-3.15,8.155-4.48a1.5,1.5,0,0,0,.945-1.435,3.9,3.9,0,0,0-.07-.595,1.5,1.5,0,0,0-1.54-1.085H58.94c-2.17.14-5.39.28-8.855.28-3.29,0-6.4-.1-8.61-.28H41.3a1.281,1.281,0,0,0-1.4,1.225v.245a1.286,1.286,0,0,0,1.19,1.365c2.1.21,4.97.28,7.8.28,2.205,0,4.655-.14,6.685-.35Zm-17.6,16.1c0,2.66,1.4,4.445,3.99,5.53A25.4,25.4,0,0,0,50.82.035,45.023,45.023,0,0,0,61.88-1.05c.875-.245,1.4-.77,1.4-1.54a2.746,2.746,0,0,0-.07-.49A1.322,1.322,0,0,0,61.845-4.2a3.448,3.448,0,0,0-.595.07,48.577,48.577,0,0,1-10.5,1.12,22.415,22.415,0,0,1-6.93-.84c-1.89-.63-2.835-1.645-2.835-3.325,0-1.435.945-2.94,2.52-4.41a1.276,1.276,0,0,0,.455-.945,1.161,1.161,0,0,0-.49-.945,1.571,1.571,0,0,0-.945-.35,1.794,1.794,0,0,0-1.19.49A8.85,8.85,0,0,0,38.045-6.755ZM57.75-17.57a1.292,1.292,0,0,0,.35.84,23.068,23.068,0,0,1,2.765,3.815.931.931,0,0,0,.91.6,1.072,1.072,0,0,0,1.155-.98,1.776,1.776,0,0,0-.245-.91,21.719,21.719,0,0,0-3.01-3.92,1.145,1.145,0,0,0-.91-.385A1.029,1.029,0,0,0,57.75-17.57Zm3.85-2.275a1.076,1.076,0,0,0,.42.91,21.244,21.244,0,0,1,2.625,3.71.985.985,0,0,0,.91.56,1.075,1.075,0,0,0,1.085-.98,1.888,1.888,0,0,0-.21-.875,20.544,20.544,0,0,0-2.87-3.815,1.306,1.306,0,0,0-.945-.42A1.054,1.054,0,0,0,61.6-19.845ZM89.845-1.435a10.045,10.045,0,0,1-4.9-4.1,33.1,33.1,0,0,0,.91-3.185.444.444,0,0,0,.035-.21c0-.56-.525-.91-1.12-1.015a.771.771,0,0,0-.28-.035A1.027,1.027,0,0,0,83.4-9.1,23.047,23.047,0,0,1,78.715.6a1.322,1.322,0,0,0-.315.84,1.194,1.194,0,0,0,.455.98A1.338,1.338,0,0,0,80.78,2.2,23.868,23.868,0,0,0,84-3.185c2.52,3.64,6.265,4.9,11.97,5.11.945.035,1.82.035,2.695.035s1.715,0,2.485-.035A1.2,1.2,0,0,0,102.375.56c-.035-.805-.42-1.225-1.155-1.225h-.1c-1.26.07-2.555.1-3.92.1-.735,0-1.47,0-2.24-.035A20.878,20.878,0,0,1,92.33-.84V-5.53h7.105c.6,0,.91-.56.91-1.225,0-.63-.315-1.19-.91-1.19H92.33v-3.64h8.68c.63,0,.945-.525.945-1.225,0-.665-.315-1.19-.945-1.19H82.11a1.065,1.065,0,0,0-1.015,1.19c0,.7.385,1.225,1.015,1.225h7.735Zm-12.67-21.42V-28.63c0-.665-.455-1.015-1.26-1.015s-1.33.35-1.33,1.015v5.775H70.91c-.665,0-.98.49-.98,1.19,0,.735.315,1.225.98,1.225h3.675v7.245c-1.225.525-2.625,1.05-4.06,1.54a.95.95,0,0,0-.7.98,1.741,1.741,0,0,0,.105.56,1.057,1.057,0,0,0,1.015.91,2.409,2.409,0,0,0,.455-.07c1.085-.35,2.17-.77,3.185-1.155v9.345c0,.98-.245,1.155-1.365,1.155A9.625,9.625,0,0,1,71.4-.14a.683.683,0,0,0-.245-.035c-.455,0-.84.245-.98.945a2.1,2.1,0,0,0-.07.42,1.106,1.106,0,0,0,.84,1.12,10.507,10.507,0,0,0,2.765.28c2.345,0,3.465-.875,3.465-3.115V-11.55c1.05-.49,2.03-1.015,2.94-1.505a1.14,1.14,0,0,0,.6-.945,1.451,1.451,0,0,0-.21-.7,1.145,1.145,0,0,0-.98-.665,1.731,1.731,0,0,0-.84.245c-.455.245-.945.49-1.505.77v-6.09H80.15c.7,0,1.05-.525,1.05-1.225s-.35-1.19-1.05-1.19Zm8.4-5.6c-1.995,0-2.94.735-2.94,2.66v6.965c0,1.855.945,2.59,2.94,2.59h11.27c2,0,2.94-.735,2.94-2.59V-25.8c0-1.925-.945-2.66-2.94-2.66Zm11.76,5.04H85.085v-2.1c0-.63.315-.805.945-.805H96.425c.6,0,.91.175.91.805Zm0,2.065v2.2c0,.63-.315.805-.91.805H86.03c-.63,0-.945-.175-.945-.805v-2.2Zm38.255,2.59c.6,0,.91-.525.91-1.19,0-.63-.315-1.085-.91-1.085H119.14c.455-.63.91-1.225,1.33-1.82a1.043,1.043,0,0,0,.175-.49c0-.385-.35-.7-.91-.84a2.353,2.353,0,0,0-.63-.105,1.2,1.2,0,0,0-1.12.77,24.672,24.672,0,0,1-1.82,2.485h-9.52a.961.961,0,0,0-.945,1.085c0,.665.35,1.19.945,1.19H114.1c-.455.455-.875.875-1.295,1.26a1.916,1.916,0,0,0-.735,1.33c0,.525.42.91,1.33,1.085,1.785.28,3.675.63,5.53,1.015-.175.07-.385.105-.56.175a45.23,45.23,0,0,1-11.095,1.435,1.094,1.094,0,0,0-1.12,1.155v.07a1.223,1.223,0,0,0,1.26,1.225,49.241,49.241,0,0,0,12-1.925A26.2,26.2,0,0,0,122.6-13.16,77.49,77.49,0,0,1,132.58-9.9a1.778,1.778,0,0,0,.6.1,1.24,1.24,0,0,0,1.19-.77,1.4,1.4,0,0,0,.1-.525,1.121,1.121,0,0,0-.735-1.12,85.319,85.319,0,0,0-8.365-2.52,14.942,14.942,0,0,0,4.1-4.025Zm-9.03,0a12.912,12.912,0,0,1-4.2,3.325c-2.135-.49-4.515-.91-6.51-1.225q-.42-.052-.42-.21c0-.105.07-.21.245-.35.49-.455,1.015-.98,1.54-1.54Zm-4.34-8.4v-1.68c0-.665-.385-1.05-1.3-1.05-.875,0-1.365.385-1.365,1.05v1.68H109.025c-2,0-2.975.8-2.975,2.835v1.47c0,.7.56,1.05,1.33,1.05.805,0,1.4-.35,1.4-1.05V-24.01c0-.735.35-.945,1.085-.945h22.4c.735,0,1.085.21,1.085.945v1.155c0,.7.6,1.05,1.4,1.05.77,0,1.33-.35,1.33-1.05v-1.47c0-2.03-.945-2.835-2.975-2.835Zm-4.9,21.21A31.2,31.2,0,0,1,105.91-.28,1.189,1.189,0,0,0,105,.875a1.551,1.551,0,0,0,.1.525,1.17,1.17,0,0,0,1.155.91,1.741,1.741,0,0,0,.56-.105c4.655-1.5,9.59-4.1,12.88-7.455a9.762,9.762,0,0,0-.245,2.24V2.24c0,.6.525.98,1.26.98.805,0,1.33-.385,1.33-.98V-3.08a10.376,10.376,0,0,0-.21-2.17,32.808,32.808,0,0,0,13.44,7.49,2.363,2.363,0,0,0,.49.07,1.262,1.262,0,0,0,1.26-.945,1.585,1.585,0,0,0,.1-.56,1.119,1.119,0,0,0-.875-1.12,37.459,37.459,0,0,1-12.18-5.635H135.94c.6,0,.98-.455.98-1.155s-.385-1.155-.98-1.155H122.045v-1.855c0-.6-.525-.945-1.33-.945-.735,0-1.26.35-1.26.945V-8.26H106.26c-.6,0-.98.455-.98,1.155s.385,1.155.98,1.155Z" transform="translate(1381 5005)"/>
        <path id="パス_1818" data-name="パス 1818" d="M-76.475-12.74a16.675,16.675,0,0,0-7.14,5,5.115,5.115,0,0,0-1.05,2.94,5.405,5.405,0,0,0,2.8,4.375A7.622,7.622,0,0,0-77.7,1.05c2.59,0,3.955-1.33,3.955-4.025V-10.92a22.816,22.816,0,0,1,7.35-1.33c4.655,0,7,2.135,7,5.495,0,3.045-2.03,4.8-4.41,4.8A4.289,4.289,0,0,1-67.48-3.885a1.362,1.362,0,0,0-1.155-.63,1.716,1.716,0,0,0-.98.315,1.411,1.411,0,0,0-.595,1.155,1.8,1.8,0,0,0,.315.98A7.047,7.047,0,0,0-63.735.91c4.2,0,7.28-3.01,7.28-7.7,0-4.97-3.675-8.015-9.835-8.015a26.5,26.5,0,0,0-7.455,1.19V-19.74a65.8,65.8,0,0,0,6.72-.875,1.223,1.223,0,0,0,1.085-1.26,1.57,1.57,0,0,0-.035-.385A1.179,1.179,0,0,0-67.2-23.31a1.313,1.313,0,0,0-.35.035,55.925,55.925,0,0,1-6.195.805v-5.32a1.208,1.208,0,0,0-1.365-1.26,1.2,1.2,0,0,0-1.365,1.225v5.565c-2.31.175-4.62.245-6.58.245-.77,0-1.19.525-1.19,1.365a1.235,1.235,0,0,0,1.225,1.365c1.995,0,4.34-.07,6.545-.21Zm0,9.135c0,1.33-.455,1.785-1.5,1.785a4.711,4.711,0,0,1-2.345-.8,2.883,2.883,0,0,1-1.505-2.17A2.968,2.968,0,0,1-81.2-6.51,12.827,12.827,0,0,1-76.475-9.9Zm14.35-22.225a1.727,1.727,0,0,0-.805-.21,1.377,1.377,0,0,0-1.12.525,1.511,1.511,0,0,0-.35.945,1.163,1.163,0,0,0,.6.98,31.408,31.408,0,0,1,6.58,5.67,1.42,1.42,0,0,0,1.085.49,1.543,1.543,0,0,0,1.05-.42,1.482,1.482,0,0,0,.42-1.05,1.766,1.766,0,0,0-.385-1.05A29.166,29.166,0,0,0-62.125-25.83Zm21.77,18.2C-40.985-3.01-44.24-.665-49.91.35a1.14,1.14,0,0,0-1.05,1.225,2.409,2.409,0,0,0,.07.455,1.286,1.286,0,0,0,1.365,1.05,1.57,1.57,0,0,0,.385-.035C-42.455,1.68-38.29-1.47-37.555-7.63h4.34V-.735c0,2.45.875,2.94,6.545,2.94,4.9,0,5.985-.63,6.65-2.135a13.482,13.482,0,0,0,.98-4.235V-4.27c0-.665-.385-1.085-1.225-1.155a.771.771,0,0,0-.28-.035c-.665,0-1.085.35-1.155,1.19a9.915,9.915,0,0,1-.665,3.01c-.385.735-.945,1.015-4.55,1.015-3.255,0-3.57-.175-3.57-1.295V-7.63H-26.6c2.2,0,3.185-.8,3.185-2.975v-14.77c0-2.24-.98-3.08-3.185-3.08H-43.47c-2.17,0-3.185.84-3.185,3.08v14.77c0,2.17,1.015,2.975,3.185,2.975Zm14.28-14.7h-17.92V-25.1c0-.735.315-.945,1.05-.945h15.82c.7,0,1.05.21,1.05.945Zm0,6.055h-17.92v-3.71h17.92Zm0,2.345v3.045c0,.735-.35.945-1.05.945h-15.82c-.735,0-1.05-.21-1.05-.945V-13.93Zm29.75-5.39H-4.06c-.56,0-.875.35-.875.98a.859.859,0,0,0,.875.98H15.225c.6,0,.875-.385.875-.98,0-.63-.28-.98-.875-.98H6.055v-2H13.3a.868.868,0,0,0,.84-.98c0-.56-.28-.945-.84-.945H6.055V-25.1H14.28a.924.924,0,0,0,.875-1.015c0-.595-.315-1.05-.875-1.05H6.055v-1.68c0-.63-.385-.91-1.155-.91s-1.225.28-1.225.91v1.68H-3.64c-.56,0-.875.455-.875,1.05A.924.924,0,0,0-3.64-25.1H3.675v1.855h-6.51c-.525,0-.805.385-.805.945,0,.525.28.98.805.98h6.51Zm-12.425-1.3V-25.9a21.4,21.4,0,0,0,3.115-1.225,1.234,1.234,0,0,0,.805-1.12,1.046,1.046,0,0,0-.175-.6,1.123,1.123,0,0,0-1.05-.6,2.263,2.263,0,0,0-.7.14,32.123,32.123,0,0,1-8.26,2.485,1.047,1.047,0,0,0-.945,1.12.6.6,0,0,0,.035.245,1,1,0,0,0,1.085.98.969.969,0,0,0,.315-.035,32.839,32.839,0,0,0,3.325-.665v4.55h-4.06c-.63,0-.98.49-.98,1.19s.35,1.19.98,1.19h3.745A25.984,25.984,0,0,1-16.38-7.84a1.77,1.77,0,0,0-.42,1.085,1.169,1.169,0,0,0,.525.98,1.21,1.21,0,0,0,.735.315,1.265,1.265,0,0,0,1.015-.595,26.156,26.156,0,0,0,3.85-8.715A43.234,43.234,0,0,0-11.2-9.1V2.135c0,.63.455,1.015,1.225,1.015.805,0,1.225-.385,1.225-1.015v-12.53a38.029,38.029,0,0,0-.42-4.9,21.07,21.07,0,0,0,2.31,4.55,1.1,1.1,0,0,0,.91.49.953.953,0,0,0,.735-.315,1.233,1.233,0,0,0,.315-.805,1.414,1.414,0,0,0-.315-.875,18.638,18.638,0,0,1-3.5-5.985H-6.65a1.071,1.071,0,0,0,1.05-1.19,1.053,1.053,0,0,0-1.05-1.19Zm7.735,4.9c-1.89,0-2.765.77-2.765,2.625V-4.9c0,1.855.875,2.625,2.765,2.625h12.18c1.89,0,2.765-.77,2.765-2.625v-8.19c0-1.855-.875-2.625-2.765-2.625Zm-.315,3.85V-12.95c0-.6.245-.77.875-.77H10.6c.595,0,.875.175.875.77v1.085Zm0,3.78v-1.89H11.48v1.89Zm0,1.89H11.48V-5.04c0,.63-.28.77-.875.77H-.455c-.63,0-.875-.14-.875-.77ZM.63-1.365A21.324,21.324,0,0,1-5.88.875,1.028,1.028,0,0,0-6.72,1.96a1.757,1.757,0,0,0,.07.42,1.2,1.2,0,0,0,1.19.98,1.57,1.57,0,0,0,.385-.035A26.589,26.589,0,0,0,2.1.665,1.175,1.175,0,0,0,2.7-.35a1.168,1.168,0,0,0-.315-.8,1.382,1.382,0,0,0-.98-.42A1.411,1.411,0,0,0,.63-1.365ZM15.715.805A26.12,26.12,0,0,1,9.52-1.365a1.5,1.5,0,0,0-.77-.21,1.4,1.4,0,0,0-1.05.49,1.192,1.192,0,0,0-.28.805.859.859,0,0,0,.42.8,23.1,23.1,0,0,0,7.07,2.7,1.7,1.7,0,0,0,.42.035,1.127,1.127,0,0,0,1.155-.91,2.746,2.746,0,0,0,.07-.49A.975.975,0,0,0,15.715.805ZM30.8-14.035c.28-1.89.63-3.955,1.015-5.88.84.035,1.715.035,2.555.035,2.03,0,4.06-.1,6.055-.28.77-.07,1.085-.63,1.085-1.4v-.14a1.2,1.2,0,0,0-1.26-1.19h-.14c-2.205.21-4.305.28-6.3.28H32.375c.28-1.47.6-2.975.91-4.41a1.191,1.191,0,0,0,.035-.35,1.2,1.2,0,0,0-1.155-1.26,1.313,1.313,0,0,0-.35-.035,1.236,1.236,0,0,0-1.3,1.155c-.28,1.54-.63,3.185-.91,4.76-2.52-.14-4.55-.385-6.265-.63H23.1A1.181,1.181,0,0,0,21.91-22.3a.969.969,0,0,0-.035.315,1.194,1.194,0,0,0,1.015,1.26c1.96.315,4.025.56,6.23.7-.385,1.89-.735,3.92-1.015,5.845-2.1-.175-4.06-.42-5.775-.735a.87.87,0,0,0-.28-.035,1.221,1.221,0,0,0-1.225,1.155.771.771,0,0,0-.035.28,1.318,1.318,0,0,0,1.085,1.33,56.949,56.949,0,0,0,5.81.77,34.207,34.207,0,0,0-.35,4.55c0,2.94.875,4.865,2.555,6.195,1.75,1.4,4.305,2.03,7.525,2.03,6.685,0,11.06-3.185,11.06-8.855a11.271,11.271,0,0,0-2.73-6.93,1.564,1.564,0,0,0-1.19-.63,1.548,1.548,0,0,0-.84.245,1.436,1.436,0,0,0-.63,1.12,1.322,1.322,0,0,0,.315.84,8.493,8.493,0,0,1,2.135,5.5c0,3.675-3.08,5.915-8.225,5.915-2.45,0-4.34-.455-5.565-1.47a4.811,4.811,0,0,1-1.61-3.85,28.027,28.027,0,0,1,.385-4.515c1.155.035,2.275.07,3.36.07a55.766,55.766,0,0,0,5.705-.245A1.281,1.281,0,0,0,40.88-12.81v-.21a1.158,1.158,0,0,0-1.26-1.19h-.245a51.046,51.046,0,0,1-5.425.245C32.935-13.965,31.885-14,30.8-14.035Zm30.87-.175c.14-1.19.28-2.485.385-3.605a63.294,63.294,0,0,1,1.855-9.24,1.941,1.941,0,0,0,.1-.6,1.131,1.131,0,0,0-1.12-1.155,1.079,1.079,0,0,0-.35-.035c-.665,0-1.155.385-1.4,1.225a53.568,53.568,0,0,0-1.925,12.74,39.356,39.356,0,0,0,.49,6.195,1.577,1.577,0,0,0,1.575,1.47h.07c.98-.07,1.435-.7,1.435-1.715a22.292,22.292,0,0,1,2.135-8.855c1.68-3.6,4.165-5.635,6.965-5.635,3.465,0,6.09,3.01,6.09,8.785,0,4.865-1.4,8.26-4.235,10.43A18.453,18.453,0,0,1,65.1-1.085a1.364,1.364,0,0,0-1.33,1.4A1.57,1.57,0,0,0,63.805.7a1.456,1.456,0,0,0,1.54,1.19h.245a22.051,22.051,0,0,0,9.73-3.465c3.71-2.66,5.67-6.86,5.67-12.95,0-8.05-4.06-11.655-8.89-11.655-3.185,0-6.23,2.03-8.26,5.985a24.627,24.627,0,0,0-1.96,6.02Z" transform="translate(1381 5066)"/>
      </g>
    </g>
  </g>
</svg>
