<svg xmlns="http://www.w3.org/2000/svg" width="332" height="100.077" viewBox="0 0 332 100.077">
  <g id="グループ_63" data-name="グループ 63" transform="translate(-548 -5753.263)">
    <rect id="長方形_13" data-name="長方形 13" width="332" height="62" rx="10" transform="translate(548 5791.34)" fill="#d74e7f"/>
    <rect id="長方形_12" data-name="長方形 12" width="332" height="62" rx="10" transform="translate(548 5787.34)" fill="#ff5c97"/>
    <g id="グループ_9" data-name="グループ 9" transform="translate(589.022 5812.301)">
      <text id="見積もり_構成案の無料依頼はこちら" data-name="見積もり•構成案の無料依頼はこちら" transform="translate(-0.022 14.038)" fill="#fff" font-size="13" font-family="HiraginoSans-W6, Hiragino Sans" letter-spacing="-0.095em"><tspan x="0" y="0">見積もり•構成案の</tspan><tspan y="0" fill="#fffc01">無料依頼はこちら</tspan></text>
      <g id="Icon_ionic-ios-mail" data-name="Icon ionic-ios-mail" transform="translate(219.826 0)">
        <path id="パス_5" data-name="パス 5" d="M32.771,10.358,25.1,18.166a.138.138,0,0,0,0,.2l5.365,5.714a.925.925,0,0,1,0,1.311.929.929,0,0,1-1.311,0L23.815,19.7a.146.146,0,0,0-.207,0l-1.3,1.325a5.736,5.736,0,0,1-4.089,1.724,5.851,5.851,0,0,1-4.175-1.774L12.786,19.7a.146.146,0,0,0-.207,0L7.236,25.39a.929.929,0,0,1-1.311,0,.925.925,0,0,1,0-1.311l5.365-5.714a.152.152,0,0,0,0-.2L3.617,10.358a.14.14,0,0,0-.242.1V26.081a2.287,2.287,0,0,0,2.28,2.28H30.733a2.287,2.287,0,0,0,2.28-2.28V10.457A.143.143,0,0,0,32.771,10.358Z" transform="translate(-3.375 -7.843)" fill="#fff"/>
        <path id="パス_6" data-name="パス 6" d="M18.183,20.92a3.873,3.873,0,0,0,2.786-1.168L32.147,8.374a2.239,2.239,0,0,0-1.411-.5H5.636a2.224,2.224,0,0,0-1.411.5L15.4,19.752A3.874,3.874,0,0,0,18.183,20.92Z" transform="translate(-3.364 -7.875)" fill="#fff"/>
      </g>
    </g>
    <g id="グループ_62" data-name="グループ 62" transform="translate(559.574 5753.263)">
      <g id="freepik--Device--inject-67" transform="translate(0)">
        <g id="freepik--device--inject-67-2" data-name="freepik--device--inject-67">
          <path id="パス_103" data-name="パス 103" d="M171.607,301.388l5.533-3.2A1.45,1.45,0,0,0,178,297v-.77l-5.74-3.238a1.22,1.22,0,0,1-.552-.955V285.21L162.04,290.8v6.824a1.214,1.214,0,0,0,.55.954l4.889,2.808A4.564,4.564,0,0,0,171.607,301.388Z" transform="translate(-146.539 -245.706)" fill="#93d7d3"/>
          <g id="グループ_14" data-name="グループ 14" transform="translate(15.501 39.504)" opacity="0.6">
            <path id="パス_104" data-name="パス 104" d="M171.607,301.388l5.533-3.2A1.45,1.45,0,0,0,178,297v-.77l-5.74-3.238a1.22,1.22,0,0,1-.552-.955V285.21L162.04,290.8v6.824a1.214,1.214,0,0,0,.55.954l4.889,2.808A4.564,4.564,0,0,0,171.607,301.388Z" transform="translate(-162.04 -285.21)"/>
          </g>
          <path id="パス_105" data-name="パス 105" d="M164.386,325.086v.774l-1.766-1.021a1.221,1.221,0,0,1-.55-.954v-6.83L163.907,316c.037.467.079.951.118,1.422l-1.292.748v5.33a1.205,1.205,0,0,0,.55.954Z" transform="translate(-146.564 -271.964)" opacity="0.3"/>
          <path id="パス_106" data-name="パス 106" d="M166.57,303.648a1.214,1.214,0,0,0,.55.954l4.222,2.43a4.569,4.569,0,0,0,4.132,0l5.536-3.2a1.259,1.259,0,0,0,0-2.386l-4.224-2.43a1.219,1.219,0,0,1-.55-.955V292.73l-9.666,5.592Z" transform="translate(-150.402 -252.119)" fill="#93d7d3"/>
          <path id="パス_107" data-name="パス 107" d="M166.57,303.648a1.214,1.214,0,0,0,.55.954l4.222,2.43a4.569,4.569,0,0,0,4.132,0l5.536-3.2a1.259,1.259,0,0,0,0-2.386l-4.224-2.43a1.219,1.219,0,0,1-.55-.955V292.73l-9.666,5.592Z" transform="translate(-150.402 -252.119)" opacity="0.3"/>
          <path id="パス_108" data-name="パス 108" d="M177.918,299.664h0l-1.121-.648a1.219,1.219,0,0,1-.55-.955V292.73l-9.666,5.592v5.332a1.214,1.214,0,0,0,.55.954l1.1.637Z" transform="translate(-150.411 -252.119)" opacity="0.5"/>
          <path id="パス_109" data-name="パス 109" d="M222.013,360.06v.77a1.472,1.472,0,0,1-.856,1.194l-5.535,3.2a4.146,4.146,0,0,1-1.972.49v-.767a4.146,4.146,0,0,0,1.972-.49l5.535-3.2A1.453,1.453,0,0,0,222.013,360.06Z" transform="translate(-190.554 -309.54)" fill="#93d7d3"/>
          <path id="パス_110" data-name="パス 110" d="M222.013,360.06v.77a1.472,1.472,0,0,1-.856,1.194l-5.535,3.2a4.146,4.146,0,0,1-1.972.49v-.767a4.146,4.146,0,0,0,1.972-.49l5.535-3.2A1.453,1.453,0,0,0,222.013,360.06Z" transform="translate(-190.554 -309.54)" opacity="0.5"/>
          <path id="パス_111" data-name="パス 111" d="M57.365,74.942a1.472,1.472,0,0,0,1.335-.025L96.08,53.333a1.522,1.522,0,0,0,.687-1.192V18.094a1.293,1.293,0,0,0-1.979-1.143L57.409,38.534a1.519,1.519,0,0,0-.689,1.192V73.764A1.472,1.472,0,0,0,57.365,74.942Z" transform="translate(-56.719 -16.778)" fill="#93d7d3"/>
          <path id="パス_112" data-name="パス 112" d="M66.179,79.677l37.38-21.583a1.523,1.523,0,0,0,.689-1.194V22.86c0-.441-.309-.617-.689-.4L66.179,44.046a1.519,1.519,0,0,0-.689,1.192v34.04C65.49,79.718,65.8,79.9,66.179,79.677Z" transform="translate(-64.198 -21.546)" fill="#93d7d3"/>
          <path id="パス_113" data-name="パス 113" d="M66.179,79.677l37.38-21.583a1.523,1.523,0,0,0,.689-1.194V22.86c0-.441-.309-.617-.689-.4L66.179,44.046a1.519,1.519,0,0,0-.689,1.192v34.04C65.49,79.718,65.8,79.9,66.179,79.677Z" transform="translate(-64.198 -21.546)" opacity="0.5"/>
          <path id="パス_114" data-name="パス 114" d="M58.589,394.23a1.288,1.288,0,0,1-1.879-1.2V390.28l1.292.748v2.753C58,394.181,58.257,394.359,58.589,394.23Z" transform="translate(-56.71 -335.313)" fill="#93d7d3"/>
          <path id="パス_115" data-name="パス 115" d="M58.589,394.23a1.288,1.288,0,0,1-1.879-1.2V390.28l1.292.748v2.753C58,394.181,58.257,394.359,58.589,394.23Z" transform="translate(-56.71 -335.313)" opacity="0.5"/>
          <path id="パス_116" data-name="パス 116" d="M65.49,265.644V268.4c0,.441.309.618.689.4l37.38-21.582a1.523,1.523,0,0,0,.689-1.193V243.26Z" transform="translate(-64.198 -209.929)" fill="#93d7d3"/>
          <path id="パス_117" data-name="パス 117" d="M65.49,265.638V268.4c0,.441.309.618.689.4l37.38-21.582a1.523,1.523,0,0,0,.689-1.193V243.26Z" transform="translate(-64.198 -209.929)" opacity="0.3"/>
          <path id="パス_118" data-name="パス 118" d="M74.27,86.077V57.941a.917.917,0,0,1,.414-.717l35.349-20.409c.228-.131.414-.025.414.238V65.2a.914.914,0,0,1-.414.715l-35.349,20.4C74.455,86.448,74.27,86.341,74.27,86.077Z" transform="translate(-71.686 -33.818)" fill="#93d7d3"/>
          <path id="パス_119" data-name="パス 119" d="M74.27,86.077V57.941a.917.917,0,0,1,.414-.717l35.349-20.409c.228-.131.414-.025.414.238V65.2a.914.914,0,0,1-.414.715l-35.349,20.4C74.455,86.448,74.27,86.341,74.27,86.077Z" transform="translate(-71.686 -33.818)" fill="#263238"/>
          <path id="パス_120" data-name="パス 120" d="M58.205,168.833a1.472,1.472,0,0,0-.2.681v32.022l-1.292-.748V168.77a1.426,1.426,0,0,1,.2-.68Z" transform="translate(-56.71 -145.822)" opacity="0.7"/>
          <path id="パス_121" data-name="パス 121" d="M97.942,18.02c-.049-.355-.336-.483-.683-.284L59.879,39.319a1.4,1.4,0,0,0-.487.512L58.1,39.085a1.422,1.422,0,0,1,.487-.512L95.969,17a1.287,1.287,0,0,1,1.974,1.021Z" transform="translate(-57.895 -16.819)" opacity="0.3"/>
        </g>
      </g>
      <g id="freepik--Window--inject-67" transform="translate(5.147 3.023)">
        <g id="freepik--window--inject-67-2" data-name="freepik--window--inject-67" transform="translate(0 0)">
          <path id="パス_122" data-name="パス 122" d="M92.695,234.421a.589.589,0,0,1-.269.081.669.669,0,0,1-.394-.069.736.736,0,0,1-.321-.589V207.56l.646.372v26.29c0,.156.078.246.19.246A.349.349,0,0,0,92.695,234.421Z" transform="translate(-91.707 -182.506)" fill="#f0f0f0"/>
          <path id="パス_123" data-name="パス 123" d="M131.952,82.781a.756.756,0,0,1-.343.589L96.421,103.69c-.188.109-.341.021-.341-.2V74.981l.943-.545c.188-.109.5-1.766.686-1.882l8.182-4.724c.19-.109.636,1.12.824,1.01l25.236-14.57Z" transform="translate(-95.433 -51.775)" fill="#fafafa"/>
          <path id="パス_124" data-name="パス 124" d="M131.793,54.514V82.755a.6.6,0,0,1-.263.456L96.342,103.528a.166.166,0,0,1-.072.025c-.032,0-.032-.082-.032-.087V75.045l.865-.5c.137-.079.222-.346.415-1.03a5.12,5.12,0,0,1,.283-.857l8.109-4.681a3.18,3.18,0,0,1,.258.411c.221.389.344.589.524.589a.2.2,0,0,0,.1-.029l25-14.433M105.97,67.94h0m25.982-13.7L106.716,68.81a.05.05,0,0,1-.025.007c-.191,0-.589-1.03-.774-1.03a.049.049,0,0,0-.025,0l-8.182,4.724c-.19.11-.5,1.766-.686,1.882l-.943.562v28.511c0,.156.077.246.19.246a.294.294,0,0,0,.147-.047l35.192-20.321a.756.756,0,0,0,.343-.589Z" transform="translate(-95.433 -51.75)" fill="#e0e0e0"/>
          <path id="パス_125" data-name="パス 125" d="M92.022,61.58a.736.736,0,0,1-.322-.589V58.32a.758.758,0,0,1,.338-.589l35.188-20.309a.642.642,0,0,1,.985.57V40.66a.753.753,0,0,1-.343.589L92.686,61.568A.736.736,0,0,1,92.022,61.58Z" transform="translate(-91.698 -37.322)" fill="#93d7d3"/>
          <path id="パス_126" data-name="パス 126" d="M128.792,37.921c-.024-.178-.168-.243-.338-.147L93.266,58.1a.746.746,0,0,0-.243.258l-.643-.372a.715.715,0,0,1,.238-.252L127.806,37.42a.639.639,0,0,1,.982.514Z" transform="translate(-92.278 -37.319)" fill="#fff" opacity="0.4"/>
          <path id="パス_127" data-name="パス 127" d="M92.431,178.074a.694.694,0,0,0-.1.337v4.063l-.646-.372v-4.063a.387.387,0,0,1,0-.041.7.7,0,0,1,.013-.085.819.819,0,0,1,.085-.212Z" transform="translate(-91.686 -157.041)" opacity="0.1"/>
          <path id="パス_128" data-name="パス 128" d="M131.95,40.389v1.834l-25.236,14.57c-.188.11-.341.021-.341-.2V55.9c0-.218-.147-.308-.344-.2l-8.321,4.8a.758.758,0,0,0-.343.589v.693a.761.761,0,0,1-.343.589l-.942.561V61.1a.761.761,0,0,1,.341-.589l35.188-20.309C131.8,40.082,131.95,40.172,131.95,40.389Z" transform="translate(-95.433 -39.733)" fill="#93d7d3"/>
          <path id="パス_129" data-name="パス 129" d="M326.393,49.252c.238-.137.431-.025.431.25a.955.955,0,0,1-.431.748c-.238.137-.433.025-.433-.25A.957.957,0,0,1,326.393,49.252Z" transform="translate(-291.483 -47.446)" fill="#fff"/>
          <path id="パス_130" data-name="パス 130" d="M315.841,55.34c.238-.137.431-.026.431.249a.952.952,0,0,1-.431.748c-.238.138-.431.026-.431-.249A.955.955,0,0,1,315.841,55.34Z" transform="translate(-282.485 -52.638)" fill="#fff"/>
          <path id="パス_131" data-name="パス 131" d="M305.281,61.426c.238-.138.431-.026.431.249a.955.955,0,0,1-.431.748c-.238.137-.431.026-.431-.249a.952.952,0,0,1,.431-.748Z" transform="translate(-273.479 -57.828)" fill="#fff"/>
          <path id="パス_132" data-name="パス 132" d="M131.952,54.24v2.23L96.08,77.183V74.955l.7-.408c.188-.109.252-.275.341-.589l.24-.83c.075-.294.147-.484.343-.589l8.182-4.724a.3.3,0,0,1,.483.118l.294.533c.107.185.162.294.35.185Z" transform="translate(-95.433 -51.75)" fill="#e6e6e6"/>
          <path id="パス_133" data-name="パス 133" d="M92.336,192.839v2.231l-.646-.372V192.47Z" transform="translate(-91.689 -169.637)" fill="#e0e0e0"/>
          <path id="パス_134" data-name="パス 134" d="M102.709,194.986l-.539.311.2-.394a.1.1,0,0,0,0-.1c-.016-.019-.043,0-.062.029l-.294.561h0a.033.033,0,0,1-.007.021h0a.182.182,0,0,0,0,.028.106.106,0,0,0,0,.025h0l.007.012h0l.294.224a.024.024,0,0,0,.029,0,.081.081,0,0,0,.032-.041.1.1,0,0,0,0-.091l-.2-.159.539-.311a.113.113,0,0,0,.043-.091A.028.028,0,0,0,102.709,194.986Z" transform="translate(-100.489 -171.622)" fill="#455a64" opacity="0.5"/>
          <path id="パス_135" data-name="パス 135" d="M109.573,190.8l.539-.311-.206-.157a.087.087,0,0,1,0-.093c.015-.037.043-.054.06-.041l.294.225h0a.026.026,0,0,1,.009.012h0a.07.07,0,0,1,0,.025.1.1,0,0,1,0,.029h0l-.009.022h0l-.294.562a.069.069,0,0,1-.028.032.024.024,0,0,1-.032,0,.1.1,0,0,1,0-.1l.206-.394-.539.311c-.024.013-.043,0-.043-.041A.116.116,0,0,1,109.573,190.8Z" transform="translate(-106.904 -167.693)" fill="#455a64" opacity="0.5"/>
          <path id="パス_136" data-name="パス 136" d="M118.338,183.646c0-.032-.031-.029-.046,0l-.074.181c-.127-.013-.278.109-.381.327a.726.726,0,0,0,0,.745.19.19,0,0,0,.241.015.671.671,0,0,0,.243-.294.1.1,0,0,0,0-.094c-.018-.016-.044,0-.062.035-.1.21-.262.3-.361.209a.546.546,0,0,1,0-.556c.071-.147.172-.238.26-.244l-.054.137c-.015.035,0,.068.021.053l.219-.147a.063.063,0,0,0,.025-.059Z" transform="translate(-113.904 -162.091)" fill="#455a64" opacity="0.5"/>
          <path id="パス_137" data-name="パス 137" d="M158.929,150.1l.2-.415a.133.133,0,0,0,0-.13c-.024-.022-.062,0-.084.049l-.2.415-.2-.188c-.024-.022-.06,0-.084.049a.125.125,0,0,0,0,.129l.2.193-.2.415a.125.125,0,0,0,0,.13.031.031,0,0,0,.041,0,.11.11,0,0,0,.043-.051l.2-.415.2.188a.031.031,0,0,0,.041,0,.11.11,0,0,0,.043-.052.133.133,0,0,0,0-.13Z" transform="translate(-148.708 -133.035)" fill="#455a64" opacity="0.5"/>
          <path id="パス_138" data-name="パス 138" d="M126.68,83.348v-.695a.756.756,0,0,1,.343-.589l28.752-16.6c.19-.11.343-.021.343.2v.695a.757.757,0,0,1-.343.589l-28.753,16.6C126.833,83.656,126.68,83.566,126.68,83.348Z" transform="translate(-121.53 -61.283)" fill="#fafafa"/>
          <path id="パス_139" data-name="パス 139" d="M319.956,69.016a.1.1,0,0,1-.031,0,.093.093,0,0,1-.051-.1l.034-.281-.132-.1a.093.093,0,0,1-.035-.077.147.147,0,0,1,.056-.119l.2-.156a.047.047,0,0,0,.009-.016l.09-.294a.125.125,0,0,1,.1-.1.077.077,0,0,1,.079.047h0l.075.16.171-.065a.077.077,0,0,1,.09.021.122.122,0,0,1,0,.138l-.147.274a.065.065,0,0,0,0,.016l.035.247a.147.147,0,0,1-.044.124.09.09,0,0,1-.079.031l-.157-.025-.178.227A.1.1,0,0,1,319.956,69.016Zm-.1-.574.132.1a.1.1,0,0,1,.035.094l-.024.188.119-.147a.1.1,0,0,1,.091-.044l.165.021a.056.056,0,0,0,0-.019l-.035-.247a.159.159,0,0,1,.018-.088l.128-.24-.122.049a.081.081,0,0,1-.1-.041l-.059-.127-.081.263a.147.147,0,0,1-.05.075l-.2.147A.043.043,0,0,0,319.859,68.442ZM319.921,68.634ZM320.169,67.868Z" transform="translate(-286.178 -63.294)" fill="#e0e0e0"/>
          <g id="グループ_15" data-name="グループ 15" transform="translate(34.871 3.299)" opacity="0.5">
            <path id="パス_140" data-name="パス 140" d="M328.758,60.535a.118.118,0,0,1-.06-.221l.965-.558a.119.119,0,1,1,.119.206l-.965.556A.107.107,0,0,1,328.758,60.535Z" transform="translate(-328.637 -59.737)" fill="#455a64"/>
            <path id="パス_141" data-name="パス 141" d="M328.771,64.393a.118.118,0,0,1-.1-.059.121.121,0,0,1,.043-.163l.965-.556a.119.119,0,0,1,.163.043.118.118,0,0,1-.044.162l-.965.558A.107.107,0,0,1,328.771,64.393Z" transform="translate(-328.65 -63.03)" fill="#455a64"/>
            <path id="パス_142" data-name="パス 142" d="M328.767,68.13a.119.119,0,0,1-.06-.222l.965-.558a.121.121,0,0,1,.163.044.118.118,0,0,1-.044.162l-.965.558A.122.122,0,0,1,328.767,68.13Z" transform="translate(-328.646 -66.216)" fill="#455a64"/>
          </g>
          <g id="freepik--Search--inject-67" transform="translate(1.584 6.864)">
            <g id="グループ_16" data-name="グループ 16" transform="translate(0 18.402)" opacity="0.5">
              <path id="パス_143" data-name="パス 143" d="M102.568,209.794a.118.118,0,0,1-.06-.221l.965-.558a.119.119,0,0,1,.119.206l-.965.556A.112.112,0,0,1,102.568,209.794Z" transform="translate(-102.447 -209.003)" fill="#455a64"/>
              <path id="パス_144" data-name="パス 144" d="M102.578,213.564a.118.118,0,0,1-.1-.059.119.119,0,0,1,.043-.163l.965-.556a.118.118,0,0,1,.162.043.119.119,0,0,1-.043.163l-.965.556A.112.112,0,0,1,102.578,213.564Z" transform="translate(-102.457 -212.215)" fill="#455a64"/>
              <path id="パス_145" data-name="パス 145" d="M102.577,217.391a.119.119,0,0,1-.06-.222l.965-.556a.116.116,0,0,1,.162.043.118.118,0,0,1-.043.162l-.965.558A.127.127,0,0,1,102.577,217.391Z" transform="translate(-102.456 -215.478)" fill="#455a64"/>
            </g>
            <path id="パス_146" data-name="パス 146" d="M161.45,139.8v.855c0,.175.124.246.275.159l11.469-6.631V132.69l-11.467,6.631A.609.609,0,0,0,161.45,139.8Z" transform="translate(-152.767 -125.518)" fill="#e6e6e6"/>
            <path id="パス_147" data-name="パス 147" d="M242.7,126.781c.147-.088.275-.016.275.159v.855a.611.611,0,0,1-.275.477l-1.445.834v-1.488Z" transform="translate(-220.823 -120.447)" fill="#93d7d3"/>
            <path id="パス_148" data-name="パス 148" d="M245.465,131.348l-.16-.052a.9.9,0,0,0,.025-.208.378.378,0,0,0-.147-.344.228.228,0,0,0-.234.012.824.824,0,0,0-.322.671.378.378,0,0,0,.147.344.2.2,0,0,0,.1.026.257.257,0,0,0,.132-.038.674.674,0,0,0,.26-.349l.162.05a.037.037,0,0,0,.018,0,.059.059,0,0,0,.018-.116Zm-.517.309a.113.113,0,0,1-.116.01.28.28,0,0,1-.087-.24.724.724,0,0,1,.262-.568.155.155,0,0,1,.074-.022.075.075,0,0,1,.043.012.28.28,0,0,1,.087.24.724.724,0,0,1-.262.567Z" transform="translate(-223.7 -123.837)" fill="#fafafa"/>
            <path id="パス_149" data-name="パス 149" d="M117.871,197.311l-1.656.952a.6.6,0,0,0-.275.474v.852c0,.175.124.246.275.159l1.656-.958a.6.6,0,0,0,.274-.475v-.846C118.145,197.295,118.022,197.223,117.871,197.311Z" transform="translate(-113.954 -180.597)" fill="#93d7d3"/>
            <path id="パス_150" data-name="パス 150" d="M320.974,84.048a1.428,1.428,0,0,0-.645,1.117c0,.412.294.578.645.374a1.429,1.429,0,0,0,.646-1.118C321.621,84.008,321.331,83.842,320.974,84.048Z" transform="translate(-288.265 -83.959)" fill="#93d7d3"/>
            <path id="パス_151" data-name="パス 151" d="M323.507,86.3a.112.112,0,0,1-.057-.015.147.147,0,0,1-.062-.13.371.371,0,0,1,.169-.294h0a.128.128,0,0,1,.206.119.374.374,0,0,1-.171.294.181.181,0,0,1-.085.025Z" transform="translate(-290.873 -85.557)" fill="#fff"/>
            <path id="パス_152" data-name="パス 152" d="M322.875,89.175a.221.221,0,0,0-.227.018l-.094.054a.636.636,0,0,0-.294.5v.068a.363.363,0,0,0,.356-.038,1.03,1.03,0,0,0,.356-.374v-.016a.234.234,0,0,0-.1-.213Z" transform="translate(-289.911 -88.388)" fill="#fff"/>
            <path id="パス_153" data-name="パス 153" d="M304.254,95.011v-.228c0-.259-.157-.378-.352-.266h0a.845.845,0,0,0-.353.674v.2a.812.812,0,0,1-.119.4h0a.218.218,0,0,0-.029.1h0c0,.066.04.1.088.068l.826-.475a.216.216,0,0,0,.088-.171h0a.087.087,0,0,0-.027-.069h0A.24.24,0,0,1,304.254,95.011Z" transform="translate(-273.826 -92.927)" fill="#93d7d3"/>
            <path id="パス_154" data-name="パス 154" d="M306.03,102.8a.408.408,0,0,1-.169.324c-.094.053-.171,0-.171-.128Z" transform="translate(-275.779 -100.027)" fill="#93d7d3"/>
            <path id="パス_155" data-name="パス 155" d="M286.327,105.182a.378.378,0,0,1,.147-.05.194.194,0,0,1,.118.024.2.2,0,0,1,.078.09.374.374,0,0,1,.022.16.619.619,0,0,1-.016.147.907.907,0,0,1-.041.127,1.161,1.161,0,0,1-.054.113l-.059.106c-.018.034-.035.069-.05.1a.472.472,0,0,0-.031.1.169.169,0,0,1-.012.049.069.069,0,0,1-.024.029l-.166.1h-.025a.044.044,0,0,1-.012-.034.462.462,0,0,1,.019-.134.976.976,0,0,1,.044-.125c.019-.04.038-.079.06-.116s.04-.074.059-.106a.82.82,0,0,0,.046-.1.247.247,0,0,0,.018-.087c0-.041-.01-.068-.029-.078s-.052,0-.093.018a.231.231,0,0,0-.087.079.427.427,0,0,0-.04.084l-.021.074a.079.079,0,0,1-.034.049l-.166.1a.018.018,0,0,1-.021,0,.04.04,0,0,1-.009-.029.721.721,0,0,1,.026-.169,1.12,1.12,0,0,1,.074-.19.919.919,0,0,1,.118-.18A.61.61,0,0,1,286.327,105.182Zm.118,1.36a.108.108,0,0,1-.01.046.071.071,0,0,1-.027.031l-.171.1a.018.018,0,0,1-.025,0,.044.044,0,0,1-.012-.034v-.21a.1.1,0,0,1,.012-.046.065.065,0,0,1,.025-.032l.171-.1a.021.021,0,0,1,.027,0,.041.041,0,0,1,.01.032Z" transform="translate(-258.943 -102.015)" fill="#93d7d3"/>
          </g>
          <path id="パス_156" data-name="パス 156" d="M108.988,204.3l6.536-3.775c.177-.1.319-.019.319.184v20.162a.7.7,0,0,1-.319.552l-6.536,3.773c-.175.1-.318.019-.318-.184V204.853A.706.706,0,0,1,108.988,204.3Z" transform="translate(-106.171 -176.472)" fill="#f0f0f0"/>
          <path id="パス_157" data-name="パス 157" d="M117.158,216.978l4.144-2.394c.177-.1.319-.029.319.162a.683.683,0,0,1-.319.53l-4.144,2.393c-.175.1-.318.029-.318-.162A.683.683,0,0,1,117.158,216.978Z" transform="translate(-113.138 -188.457)" fill="#fafafa"/>
          <path id="パス_158" data-name="パス 158" d="M116.79,240.456v.249c0,.122.085.171.191.11l.215-.125a.421.421,0,0,0,.191-.331v-.249c0-.122-.085-.171-.191-.11l-.215.125A.421.421,0,0,0,116.79,240.456Z" transform="translate(-113.096 -210.15)" fill="#93d7d3"/>
          <path id="パス_159" data-name="パス 159" d="M124.91,226.2c0,.191.147.263.319.162l2.943-1.7a.683.683,0,0,0,.319-.53c0-.19-.147-.262-.319-.16l-2.943,1.7A.683.683,0,0,0,124.91,226.2Z" transform="translate(-120.021 -196.465)" fill="#fafafa"/>
          <path id="パス_160" data-name="パス 160" d="M116.79,249.846v.249c0,.122.085.171.191.11l.215-.125a.421.421,0,0,0,.191-.331V249.5c0-.122-.085-.171-.191-.11l-.215.125A.421.421,0,0,0,116.79,249.846Z" transform="translate(-113.096 -218.158)" fill="#93d7d3"/>
          <path id="パス_161" data-name="パス 161" d="M124.91,235.594c0,.191.147.263.319.162l2.943-1.7a.683.683,0,0,0,.319-.53c0-.19-.147-.262-.319-.16l-2.943,1.7A.683.683,0,0,0,124.91,235.594Z" transform="translate(-120.021 -204.473)" fill="#fafafa"/>
          <path id="パス_162" data-name="パス 162" d="M116.79,259.211v.249c0,.122.085.172.191.11l.215-.124a.422.422,0,0,0,.191-.331v-.249c0-.122-.085-.172-.191-.11l-.215.124A.422.422,0,0,0,116.79,259.211Z" transform="translate(-113.096 -226.145)" fill="#93d7d3"/>
          <path id="パス_163" data-name="パス 163" d="M124.91,244.966c0,.19.147.262.319.16l2.943-1.7a.683.683,0,0,0,.319-.528c0-.191-.147-.263-.319-.162l-2.943,1.7A.683.683,0,0,0,124.91,244.966Z" transform="translate(-120.021 -212.464)" fill="#fafafa"/>
          <path id="パス_164" data-name="パス 164" d="M116.79,268.557v.249c0,.122.085.172.191.11l.215-.124a.422.422,0,0,0,.191-.331v-.255c0-.122-.085-.172-.191-.11l-.215.124A.422.422,0,0,0,116.79,268.557Z" transform="translate(-113.096 -234.111)" fill="#93d7d3"/>
          <path id="パス_165" data-name="パス 165" d="M124.91,254.336c0,.19.147.262.319.16l2.943-1.7a.683.683,0,0,0,.319-.528c0-.191-.147-.263-.319-.162l-2.943,1.7A.683.683,0,0,0,124.91,254.336Z" transform="translate(-120.021 -220.455)" fill="#fafafa"/>
          <path id="パス_166" data-name="パス 166" d="M116.938,268.668l4.153-2.394c.177-.1.318-.029.318.162a.68.68,0,0,1-.318.528l-4.153,2.394c-.175.1-.318.029-.318-.162A.684.684,0,0,1,116.938,268.668Z" transform="translate(-112.951 -232.54)" fill="#fafafa"/>
          <path id="パス_167" data-name="パス 167" d="M116.62,292.146v.249c0,.122.085.171.191.11l.215-.125a.421.421,0,0,0,.191-.331V291.8c0-.122-.085-.171-.191-.11l-.215.125A.421.421,0,0,0,116.62,292.146Z" transform="translate(-112.951 -254.233)" fill="#93d7d3"/>
          <path id="パス_168" data-name="パス 168" d="M124.74,277.886c0,.191.147.263.319.162l2.943-1.7a.687.687,0,0,0,.318-.53c0-.191-.147-.263-.318-.162l-2.943,1.7A.683.683,0,0,0,124.74,277.886Z" transform="translate(-119.876 -240.539)" fill="#fafafa"/>
          <path id="パス_169" data-name="パス 169" d="M116.62,301.553v.246c0,.122.085.171.191.11l.215-.125a.421.421,0,0,0,.191-.331v-.243c0-.122-.085-.171-.191-.11l-.215.125A.421.421,0,0,0,116.62,301.553Z" transform="translate(-112.951 -262.258)" fill="#93d7d3"/>
          <path id="パス_170" data-name="パス 170" d="M124.74,287.272c0,.191.147.263.319.162l2.957-1.7a.684.684,0,0,0,.318-.53c0-.19-.147-.263-.318-.16l-2.943,1.7A.683.683,0,0,0,124.74,287.272Z" transform="translate(-119.876 -248.543)" fill="#fafafa"/>
          <path id="パス_171" data-name="パス 171" d="M116.62,310.911v.249c0,.122.085.172.191.11l.215-.124a.422.422,0,0,0,.191-.331v-.249c0-.122-.085-.172-.191-.11l-.215.124A.422.422,0,0,0,116.62,310.911Z" transform="translate(-112.951 -270.237)" fill="#93d7d3"/>
          <path id="パス_172" data-name="パス 172" d="M124.74,296.656c0,.19.147.262.319.16l2.943-1.7a.684.684,0,0,0,.318-.53c0-.19-.147-.262-.318-.16l-2.943,1.7A.683.683,0,0,0,124.74,296.656Z" transform="translate(-119.876 -256.547)" fill="#fafafa"/>
          <path id="パス_173" data-name="パス 173" d="M116.62,320.281v.249c0,.122.085.172.191.11l.215-.124a.422.422,0,0,0,.191-.331v-.249c0-.122-.085-.172-.191-.11l-.215.124A.422.422,0,0,0,116.62,320.281Z" transform="translate(-112.951 -278.228)" fill="#93d7d3"/>
          <path id="パス_174" data-name="パス 174" d="M124.74,306.026c0,.19.147.262.319.16l2.943-1.7a.684.684,0,0,0,.318-.528c0-.191-.147-.263-.318-.162l-2.943,1.7A.683.683,0,0,0,124.74,306.026Z" transform="translate(-119.876 -264.538)" fill="#fafafa"/>
          <path id="パス_175" data-name="パス 175" d="M182.222,180.122l2.905-1.678c.147-.082.26-.024.26.132a.556.556,0,0,1-.26.433l-2.907,1.678c-.147.084-.26.025-.26-.131A.564.564,0,0,1,182.222,180.122Z" transform="translate(-168.675 -157.644)" fill="#455a64"/>
          <path id="パス_176" data-name="パス 176" d="M182.177,187.825l2.611-1.506c.106-.06.191-.044.191.038a.375.375,0,0,1-.19.262l-2.609,1.548c-.1.062-.19.035-.19-.06A.38.38,0,0,1,182.177,187.825Z" transform="translate(-168.7 -164.361)" fill="#455a64"/>
          <path id="パス_177" data-name="パス 177" d="M171.414,194.4c.334-.184.589,0,.567.391a1.411,1.411,0,0,1-.642,1.057c-.333.182-.589.007-.567-.393A1.408,1.408,0,0,1,171.414,194.4Z" transform="translate(-159.132 -171.225)" fill="#93d7d3"/>
          <path id="パス_178" data-name="パス 178" d="M173.936,196.565c.085-.05.156-.01.156.09a.347.347,0,0,1-.156.269c-.085.05-.156.009-.156-.09A.344.344,0,0,1,173.936,196.565Z" transform="translate(-161.699 -173.111)" fill="#fff"/>
          <path id="パス_179" data-name="パス 179" d="M173.449,199.461c0-.163-.115-.235-.255-.155l-.088.051a.564.564,0,0,0-.256.441v.044s.06.124.294-.018a.67.67,0,0,0,.294-.328Z" transform="translate(-160.905 -175.439)" fill="#fff"/>
          <path id="パス_180" data-name="パス 180" d="M172.48,160.945c0,.147.115.206.255.125l14.436-8.334a.543.543,0,0,0,.255-.419c0-.147-.113-.206-.255-.124l-14.434,8.328A.54.54,0,0,0,172.48,160.945Z" transform="translate(-160.59 -135.255)" fill="#e0e0e0"/>
          <path id="パス_181" data-name="パス 181" d="M172.48,187.348c0,.147.115.2.255.124l8.652-4.992a.542.542,0,0,0,.255-.419c0-.147-.113-.2-.255-.124l-8.645,4.992A.543.543,0,0,0,172.48,187.348Z" transform="translate(-160.59 -160.622)" fill="#e0e0e0"/>
          <path id="パス_182" data-name="パス 182" d="M172.48,176.458l14.945-8.628V176.8l-14.945,8.628Z" transform="translate(-160.59 -148.623)" fill="#93d7d3"/>
          <path id="パス_183" data-name="パス 183" d="M172.48,176.458l14.945-8.628V176.8l-14.945,8.628Z" transform="translate(-160.59 -148.623)" fill="#fff" opacity="0.7"/>
          <path id="パス_184" data-name="パス 184" d="M172.48,219.435v-2.761l5.38-7.248,4.77,2.078-1.569-1.043,2.18-2.761,4.184,1.573v1.533Z" transform="translate(-160.59 -182.626)" fill="#93d7d3"/>
          <path id="パス_185" data-name="パス 185" d="M254.565,187.331c.467-.269.845-.052.845.487a1.866,1.866,0,0,1-.845,1.463c-.467.269-.845.052-.845-.487A1.866,1.866,0,0,1,254.565,187.331Z" transform="translate(-229.874 -165.156)" fill="#93d7d3"/>
          <path id="パス_186" data-name="パス 186" d="M182.222,281.056l2.905-1.678c.147-.084.26-.025.26.131a.559.559,0,0,1-.26.434l-2.907,1.678c-.147.082-.26.024-.26-.132a.558.558,0,0,1,.262-.433Z" transform="translate(-168.675 -243.723)" fill="#455a64"/>
          <path id="パス_187" data-name="パス 187" d="M182.151,288.76l2.611-1.5c.106-.062.191-.044.191.038a.374.374,0,0,1-.191.26L182.15,289.1c-.1.063-.19.035-.19-.06A.384.384,0,0,1,182.151,288.76Z" transform="translate(-168.675 -250.442)" fill="#455a64"/>
          <path id="パス_188" data-name="パス 188" d="M171.414,295.332c.334-.182.589-.007.567.393a1.408,1.408,0,0,1-.642,1.055c-.333.184-.589.007-.567-.391A1.411,1.411,0,0,1,171.414,295.332Z" transform="translate(-159.132 -257.299)" fill="#93d7d3"/>
          <path id="パス_189" data-name="パス 189" d="M173.936,297.5c.085-.049.156-.009.156.09a.343.343,0,0,1-.156.269c-.085.05-.156.01-.156-.09A.347.347,0,0,1,173.936,297.5Z" transform="translate(-161.699 -259.192)" fill="#fff"/>
          <path id="パス_190" data-name="パス 190" d="M173.449,300.407c0-.163-.115-.235-.255-.147l-.088.05a.567.567,0,0,0-.256.441v.044s.06.124.294-.018a.669.669,0,0,0,.294-.328Z" transform="translate(-160.905 -261.531)" fill="#fff"/>
          <path id="パス_191" data-name="パス 191" d="M172.48,261.856c0,.147.115.2.255.124l14.436-8.338a.539.539,0,0,0,.255-.418c0-.147-.113-.206-.255-.125l-14.434,8.343A.543.543,0,0,0,172.48,261.856Z" transform="translate(-160.59 -221.312)" fill="#e0e0e0"/>
          <path id="パス_192" data-name="パス 192" d="M172.48,288.28c0,.147.115.206.255.125l8.652-4.993a.539.539,0,0,0,.255-.418c0-.147-.113-.206-.255-.125l-8.65,4.992A.54.54,0,0,0,172.48,288.28Z" transform="translate(-160.59 -246.701)" fill="#e0e0e0"/>
          <path id="パス_193" data-name="パス 193" d="M294.412,116.366c.441-.246.79-.01.762.525a1.891,1.891,0,0,1-.862,1.417c-.441.246-.789.01-.761-.525A1.894,1.894,0,0,1,294.412,116.366Z" transform="translate(-263.842 -104.65)" fill="#455a64"/>
          <path id="パス_194" data-name="パス 194" d="M297.542,118.33c.138-.081.252-.015.252.147a.556.556,0,0,1-.252.441c-.138.079-.252.015-.252-.147A.556.556,0,0,1,297.542,118.33Z" transform="translate(-267.032 -106.378)" fill="#fff"/>
          <path id="パス_195" data-name="パス 195" d="M296.731,123.005c0-.263-.184-.38-.412-.249l-.147.082a.911.911,0,0,0-.412.715v.075s.1.2.483-.029a1.077,1.077,0,0,0,.484-.53Z" transform="translate(-265.727 -110.137)" fill="#fff"/>
          <path id="パス_196" data-name="パス 196" d="M301.773,124.194c.134-.074.235,0,.227.156a.562.562,0,0,1-.256.421c-.134.074-.235,0-.227-.156A.565.565,0,0,1,301.773,124.194Z" transform="translate(-270.636 -111.384)" fill="#93d7d3"/>
          <path id="パス_197" data-name="パス 197" d="M308.529,108.5l2.83-1.639c.088-.052.159-.015.159.081a.338.338,0,0,1-.159.263l-2.83,1.635c-.087.05-.159.015-.159-.081A.346.346,0,0,1,308.529,108.5Z" transform="translate(-276.481 -96.61)" fill="#e0e0e0"/>
          <path id="パス_198" data-name="パス 198" d="M294.412,135.126c.441-.246.79-.01.762.527a1.891,1.891,0,0,1-.862,1.416c-.441.247-.789.01-.761-.525A1.894,1.894,0,0,1,294.412,135.126Z" transform="translate(-263.842 -120.649)" fill="#455a64"/>
          <path id="パス_199" data-name="パス 199" d="M297.542,137.094c.138-.079.252-.015.252.147a.556.556,0,0,1-.252.434c-.138.079-.252.015-.252-.147A.556.556,0,0,1,297.542,137.094Z" transform="translate(-267.032 -122.381)" fill="#fff"/>
          <path id="パス_200" data-name="パス 200" d="M296.731,141.765c0-.263-.184-.38-.412-.249l-.147.082a.913.913,0,0,0-.412.715v.071s.1.2.483-.028a1.083,1.083,0,0,0,.484-.53Z" transform="translate(-265.727 -126.136)" fill="#fff"/>
          <path id="パス_201" data-name="パス 201" d="M301.773,142.954c.134-.074.235,0,.227.156a.568.568,0,0,1-.256.422c-.134.072-.235,0-.227-.157A.568.568,0,0,1,301.773,142.954Z" transform="translate(-270.636 -127.383)" fill="#93d7d3"/>
          <path id="パス_202" data-name="パス 202" d="M308.529,127.3l2.83-1.634c.088-.05.159-.015.159.081a.341.341,0,0,1-.159.265l-2.83,1.634c-.087.05-.159.015-.159-.081A.346.346,0,0,1,308.529,127.3Z" transform="translate(-276.481 -112.647)" fill="#e0e0e0"/>
          <path id="パス_203" data-name="パス 203" d="M294.412,153.886c.441-.246.79-.01.762.527a1.9,1.9,0,0,1-.862,1.417c-.441.246-.789.01-.761-.527A1.894,1.894,0,0,1,294.412,153.886Z" transform="translate(-263.842 -136.648)" fill="#455a64"/>
          <path id="パス_204" data-name="パス 204" d="M297.542,155.854c.138-.079.252-.015.252.147a.553.553,0,0,1-.252.442c-.138.081-.252.016-.252-.147a.559.559,0,0,1,.252-.441Z" transform="translate(-267.032 -138.38)" fill="#fff"/>
          <path id="パス_205" data-name="パス 205" d="M296.731,160.525c0-.263-.184-.38-.412-.249l-.147.082a.913.913,0,0,0-.412.715v.071s.1.2.483-.028a1.083,1.083,0,0,0,.484-.53Z" transform="translate(-265.727 -142.135)" fill="#fff"/>
          <path id="パス_206" data-name="パス 206" d="M301.773,161.714c.134-.074.235,0,.227.156a.568.568,0,0,1-.256.422c-.134.074-.235,0-.227-.157A.568.568,0,0,1,301.773,161.714Z" transform="translate(-270.636 -143.382)" fill="#93d7d3"/>
          <path id="パス_207" data-name="パス 207" d="M308.529,146.062l2.83-1.634c.088-.05.159-.015.159.081a.341.341,0,0,1-.159.265l-2.83,1.632c-.087.05-.159.015-.159-.081A.346.346,0,0,1,308.529,146.062Z" transform="translate(-276.481 -128.646)" fill="#e0e0e0"/>
          <path id="パス_208" data-name="パス 208" d="M294.412,172.646c.441-.246.79-.01.762.527a1.891,1.891,0,0,1-.862,1.417c-.441.246-.789.01-.761-.527A1.9,1.9,0,0,1,294.412,172.646Z" transform="translate(-263.842 -152.647)" fill="#455a64"/>
          <path id="パス_209" data-name="パス 209" d="M297.542,174.614c.138-.079.252-.015.252.147a.553.553,0,0,1-.252.434c-.138.081-.252.016-.252-.147A.559.559,0,0,1,297.542,174.614Z" transform="translate(-267.032 -154.379)" fill="#fff"/>
          <path id="パス_210" data-name="パス 210" d="M296.731,179.25c0-.262-.184-.38-.412-.247l-.147.082a.908.908,0,0,0-.412.714v.071s.1.2.483-.028a1.077,1.077,0,0,0,.484-.53Z" transform="translate(-265.727 -158.105)" fill="#fff"/>
          <path id="パス_211" data-name="パス 211" d="M301.773,180.477c.134-.072.235,0,.227.157a.568.568,0,0,1-.256.421c-.134.074-.235,0-.227-.156A.568.568,0,0,1,301.773,180.477Z" transform="translate(-270.636 -159.385)" fill="#93d7d3"/>
          <path id="パス_212" data-name="パス 212" d="M308.529,164.824l2.83-1.635c.088-.05.159-.015.159.081a.341.341,0,0,1-.159.265l-2.83,1.634c-.087.052-.159.015-.159-.081A.343.343,0,0,1,308.529,164.824Z" transform="translate(-276.481 -144.645)" fill="#e0e0e0"/>
          <path id="パス_213" data-name="パス 213" d="M294.412,191.436c.441-.246.79-.01.762.527a1.891,1.891,0,0,1-.862,1.417c-.441.246-.789.01-.761-.527A1.9,1.9,0,0,1,294.412,191.436Z" transform="translate(-263.842 -168.672)" fill="#455a64"/>
          <path id="パス_214" data-name="パス 214" d="M297.542,193.378c.138-.081.252-.016.252.147a.559.559,0,0,1-.252.442c-.138.079-.252.015-.252-.147A.553.553,0,0,1,297.542,193.378Z" transform="translate(-267.032 -170.382)" fill="#fff"/>
          <path id="パス_215" data-name="パス 215" d="M296.731,198.052c0-.263-.184-.381-.412-.249l-.147.082a.908.908,0,0,0-.412.714v.069s.1.2.483-.028a1.077,1.077,0,0,0,.484-.53Z" transform="translate(-265.727 -174.138)" fill="#fff"/>
          <path id="パス_216" data-name="パス 216" d="M301.773,199.237c.134-.072.235,0,.227.157a.568.568,0,0,1-.256.421c-.134.074-.235,0-.227-.156A.568.568,0,0,1,301.773,199.237Z" transform="translate(-270.636 -175.385)" fill="#93d7d3"/>
          <path id="パス_217" data-name="パス 217" d="M308.529,183.588l2.83-1.634c.088-.052.159-.015.159.079a.34.34,0,0,1-.159.265l-2.83,1.634c-.087.052-.159.015-.159-.081a.343.343,0,0,1,.159-.263Z" transform="translate(-276.481 -160.649)" fill="#e0e0e0"/>
          <path id="パス_218" data-name="パス 218" d="M294.412,210.176c.441-.246.79-.01.762.525a1.891,1.891,0,0,1-.862,1.417c-.441.246-.789.01-.761-.525A1.894,1.894,0,0,1,294.412,210.176Z" transform="translate(-263.842 -184.654)" fill="#455a64"/>
          <path id="パス_219" data-name="パス 219" d="M297.542,212.138c.138-.081.252-.016.252.147a.559.559,0,0,1-.252.441c-.138.079-.252.015-.252-.147A.553.553,0,0,1,297.542,212.138Z" transform="translate(-267.032 -186.381)" fill="#fff"/>
          <path id="パス_220" data-name="パス 220" d="M296.731,216.815c0-.263-.184-.38-.412-.249l-.147.082a.909.909,0,0,0-.412.714v.072s.1.2.483-.029a1.077,1.077,0,0,0,.484-.53Z" transform="translate(-265.727 -190.141)" fill="#fff"/>
          <path id="パス_221" data-name="パス 221" d="M301.773,218c.134-.074.235,0,.227.156a.565.565,0,0,1-.256.421c-.134.074-.235,0-.227-.156a.565.565,0,0,1,.256-.421Z" transform="translate(-270.636 -191.388)" fill="#93d7d3"/>
          <path id="パス_222" data-name="パス 222" d="M308.529,202.4l2.83-1.634c.088-.052.159-.015.159.081a.338.338,0,0,1-.159.263l-2.83,1.634c-.087.052-.159.015-.159-.079A.343.343,0,0,1,308.529,202.4Z" transform="translate(-276.481 -176.691)" fill="#e0e0e0"/>
        </g>
      </g>
      <g id="freepik--dark-window--inject-67" transform="translate(11.454 10.873)">
        <g id="freepik--dark-window--inject-67-2" data-name="freepik--dark-window--inject-67" transform="translate(0)">
          <path id="パス_223" data-name="パス 223" d="M135.12,258.64V238.281h0v-5.3a.918.918,0,0,1,.135-.45l-.578-.333a.934.934,0,0,0-.137.453v1.472h0v24.188a.3.3,0,0,0,.174.278l.016.009.54.3A.3.3,0,0,1,135.12,258.64Z" transform="translate(-134.54 -211.37)" fill="#37474f" opacity="0.9"/>
          <path id="パス_224" data-name="パス 224" d="M174.789,93.18a.217.217,0,0,0-.007-.043.01.01,0,0,0,0-.009.158.158,0,0,0-.01-.04.2.2,0,0,0-.026-.057.087.087,0,0,0-.015-.025.071.071,0,0,0-.013-.016.147.147,0,0,0-.031-.029h0a.2.2,0,0,0-.038-.022.331.331,0,0,0-.3.038l-35.419,20.434a1,1,0,0,0-.455.786v25.659a.309.309,0,0,0,.453.272h0l.736-.428h0l34.673-20.015a1,1,0,0,0,.453-.786V93.236A.115.115,0,0,0,174.789,93.18Z" transform="translate(-137.892 -92.586)" fill="#455a64" opacity="0.8"/>
          <g id="グループ_17" data-name="グループ 17" transform="translate(0.137)" opacity="0.5">
            <path id="パス_225" data-name="パス 225" d="M171.779,91.049l-35.413,20.437a.928.928,0,0,0-.319.337l-.577-.334a.9.9,0,0,1,.316-.331L171.2,90.721a.319.319,0,0,1,.33-.026c.081.05.458.263.553.315A.333.333,0,0,0,171.779,91.049Z" transform="translate(-135.47 -90.66)" fill="#37474f"/>
          </g>
          <path id="パス_226" data-name="パス 226" d="M378.047,99.1l.2-.415a.125.125,0,0,0,0-.13c-.024-.022-.06,0-.084.049l-.2.415-.2-.188c-.022-.022-.06,0-.084.049a.133.133,0,0,0,0,.13l.2.188-.2.416a.133.133,0,0,0,0,.13.035.035,0,0,0,.043,0,.121.121,0,0,0,.041-.05l.2-.416.2.19a.035.035,0,0,0,.043,0,.12.12,0,0,0,.041-.05.125.125,0,0,0,0-.13Z" transform="translate(-341.885 -97.39)" fill="#fafafa"/>
        </g>
        <g id="freepik--Comments--inject-67" transform="translate(27.154 3.136)">
          <path id="パス_227" data-name="パス 227" d="M326.82,111.97l-7.77,4.486v22.78l7.77-4.487Z" transform="translate(-319.05 -111.97)" fill="#f5f5f5"/>
          <path id="パス_228" data-name="パス 228" d="M331.908,133.779l2.082-1.2c.1-.059.187-.018.187.1a.4.4,0,0,1-.187.311l-2.082,1.2c-.1.06-.188.018-.188-.094A.4.4,0,0,1,331.908,133.779Z" transform="translate(-329.855 -129.52)" fill="#455a64"/>
          <path id="パス_229" data-name="パス 229" d="M331.878,139.3l1.869-1.08c.075-.043.137-.031.137.028a.274.274,0,0,1-.137.188l-1.871,1.11c-.075.044-.137.025-.137-.043A.271.271,0,0,1,331.878,139.3Z" transform="translate(-329.872 -134.337)" fill="#455a64"/>
          <path id="パス_230" data-name="パス 230" d="M324.184,144.021c.24-.132.422,0,.408.281a1.011,1.011,0,0,1-.461.756c-.24.131-.421,0-.406-.281a1.01,1.01,0,0,1,.459-.756Z" transform="translate(-323.036 -139.26)" fill="#93d7d3"/>
          <path id="パス_231" data-name="パス 231" d="M325.992,145.579a.068.068,0,0,1,.11.063.244.244,0,0,1-.11.194.069.069,0,0,1-.112-.065A.246.246,0,0,1,325.992,145.579Z" transform="translate(-324.875 -140.621)" fill="#fff"/>
          <path id="パス_232" data-name="パス 232" d="M325.64,147.644c0-.116-.082-.168-.182-.11l-.063.037a.4.4,0,0,0-.184.318v.031s.044.09.215-.012a.477.477,0,0,0,.215-.235Z" transform="translate(-324.303 -142.28)" fill="#fff"/>
          <path id="パス_233" data-name="パス 233" d="M325,137.363c0,.107.081.147.182.09l5.163-2.99a.391.391,0,0,0,.182-.294c0-.107-.082-.147-.182-.09l-5.163,2.99A.389.389,0,0,0,325,137.363Z" transform="translate(-324.124 -130.802)" opacity="0.3"/>
          <path id="パス_234" data-name="パス 234" d="M325,145.144c0,.107.081.147.182.088l4.356-2.518a.39.39,0,0,0,.182-.294c0-.107-.082-.147-.182-.088l-4.356,2.518A.386.386,0,0,0,325,145.144Z" transform="translate(-324.124 -137.841)" opacity="0.3"/>
          <path id="パス_235" data-name="パス 235" d="M326.183,168.174a.11.11,0,0,1-.041.072.1.1,0,0,1,0,.035.1.1,0,0,1-.053.082l-.238.138v-.318h0s.066-.147.072-.171a.705.705,0,0,0,0-.112.057.057,0,0,1,.063-.029h0a.035.035,0,0,1,.015.015.147.147,0,0,1,.013.05.229.229,0,0,1,0,.088l.147-.082a.029.029,0,0,1,.028,0,.035.035,0,0,1,.015.031.1.1,0,0,1-.022.062.028.028,0,0,1,.028.031.1.1,0,0,1-.035.071A.059.059,0,0,1,326.183,168.174Z" transform="translate(-324.849 -159.644)" fill="#e0e0e0"/>
          <path id="パス_236" data-name="パス 236" d="M325.055,170.371v.066a.026.026,0,0,1-.015.024l-.077.046h-.013v-.359l.063-.035h0l.037-.022a.048.048,0,0,1,0,.013Z" transform="translate(-324.082 -161.537)" fill="#e0e0e0"/>
          <path id="パス_237" data-name="パス 237" d="M330.32,164.9l.415-.24c.078-.044.14-.013.14.069a.294.294,0,0,1-.14.231l-.415.24c-.078.044-.14.013-.14-.071A.294.294,0,0,1,330.32,164.9Z" transform="translate(-328.542 -156.891)" fill="#ebebeb"/>
          <path id="パス_238" data-name="パス 238" d="M345.01,156.428l.415-.238c.077-.046.14-.013.14.069a.294.294,0,0,1-.14.231l-.415.243c-.078.046-.14.013-.14-.069A.294.294,0,0,1,345.01,156.428Z" transform="translate(-341.07 -149.664)" fill="#ebebeb"/>
          <path id="パス_239" data-name="パス 239" d="M359.2,148.262l.417-.238c.077-.044.147-.013.147.069a.294.294,0,0,1-.147.231l-.417.24c-.076.044-.138.013-.138-.071A.294.294,0,0,1,359.2,148.262Z" transform="translate(-353.172 -142.7)" fill="#ebebeb"/>
          <path id="パス_240" data-name="パス 240" d="M339.412,158.782c0-.054-.037-.075-.084-.049l-.5.294a.182.182,0,0,0-.084.147v.347c0,.053.037.075.084.049l.14-.081v.121a.009.009,0,0,0,.015,0l.206-.25.147-.084a.183.183,0,0,0,.084-.147Z" transform="translate(-335.842 -151.842)" fill="#e0e0e0"/>
          <path id="パス_241" data-name="パス 241" d="M353.718,151.2l-.333-.1v.177a.777.777,0,0,0-.33.265c-.184.275-.052.431.01.441,0,0-.1-.066.01-.263a.6.6,0,0,1,.309-.231v.2Z" transform="translate(-347.971 -145.341)" fill="#e0e0e0"/>
          <g id="freepik--comments--inject-67-2" data-name="freepik--comments--inject-67" transform="translate(0.788 6.669)">
            <path id="パス_242" data-name="パス 242" d="M324.864,177.321c.24-.132.422,0,.408.281a1.014,1.014,0,0,1-.461.756c-.24.131-.421,0-.406-.281A1.01,1.01,0,0,1,324.864,177.321Z" transform="translate(-324.404 -174.328)" fill="#93d7d3"/>
            <path id="パス_243" data-name="パス 243" d="M326.672,178.908c.062-.037.11-.007.11.063a.243.243,0,0,1-.11.193c-.062.037-.112.007-.112-.063A.244.244,0,0,1,326.672,178.908Z" transform="translate(-326.243 -175.712)" fill="#fff"/>
            <path id="パス_244" data-name="パス 244" d="M326.32,180.944c0-.116-.082-.168-.182-.11l-.063.037a.4.4,0,0,0-.184.318v.031s.043.088.215-.013a.477.477,0,0,0,.215-.234Z" transform="translate(-325.671 -177.348)" fill="#fff"/>
            <path id="パス_245" data-name="パス 245" d="M333.2,160.06V161.2c0,.162.113.228.255.147l3.984-2.3a.564.564,0,0,0,.255-.442v-1.138c0-.163-.115-.228-.255-.147l-3.984,2.3A.561.561,0,0,0,333.2,160.06Z" transform="translate(-331.906 -157.283)" fill="#fff"/>
            <path id="パス_246" data-name="パス 246" d="M335.1,168.052l2.131-1.227c.085-.05.156-.037.156.031a.306.306,0,0,1-.156.215l-2.131,1.261c-.087.052-.156.029-.156-.049A.312.312,0,0,1,335.1,168.052Z" transform="translate(-333.389 -165.395)" fill="#455a64"/>
            <path id="パス_247" data-name="パス 247" d="M335.037,167.911l3.4-1.979c.077-.043.137-.031.137.028a.271.271,0,0,1-.135.188l-3.4,2.009c-.075.044-.135.025-.135-.043A.274.274,0,0,1,335.037,167.911Z" transform="translate(-333.355 -164.637)" fill="#e0e0e0"/>
            <path id="パス_248" data-name="パス 248" d="M324.864,193.794c.24-.131.422,0,.408.281a1.017,1.017,0,0,1-.461.758c-.24.131-.421,0-.406-.281A1.016,1.016,0,0,1,324.864,193.794Z" transform="translate(-324.404 -188.378)" fill="#93d7d3"/>
            <path id="パス_249" data-name="パス 249" d="M326.672,195.349a.068.068,0,0,1,.11.065.244.244,0,0,1-.11.193.069.069,0,0,1-.112-.065A.246.246,0,0,1,326.672,195.349Z" transform="translate(-326.243 -189.735)" fill="#fff"/>
            <path id="パス_250" data-name="パス 250" d="M326.32,197.419c0-.118-.082-.169-.182-.11l-.063.037a.4.4,0,0,0-.184.316v.032s.043.088.215-.013a.477.477,0,0,0,.215-.235Z" transform="translate(-325.671 -191.397)" fill="#fff"/>
            <path id="パス_251" data-name="パス 251" d="M333.2,176.54v1.139c0,.162.113.228.255.147l3.984-2.3a.566.566,0,0,0,.255-.441v-1.138c0-.162-.115-.228-.255-.147l-3.984,2.3A.565.565,0,0,0,333.2,176.54Z" transform="translate(-331.906 -171.34)" fill="#fff"/>
            <path id="パス_252" data-name="パス 252" d="M335.1,184.491l2.137-1.233c.085-.05.156-.035.156.032a.3.3,0,0,1-.156.213l-2.137,1.269c-.087.052-.156.029-.156-.049A.318.318,0,0,1,335.1,184.491Z" transform="translate(-333.389 -179.41)" fill="#455a64"/>
            <path id="パス_253" data-name="パス 253" d="M335.838,194.8h-.01l-.06-.032-.018-.009a.157.157,0,0,1-.11-.175.188.188,0,0,1,.084-.166.075.075,0,0,1,.107.056.268.268,0,0,1,.068-.159.087.087,0,0,1,.091-.016.091.091,0,0,1,.049.081.471.471,0,0,1-.1.277l-.021.034-.06.1A.019.019,0,0,1,335.838,194.8Z" transform="translate(-333.984 -188.849)" fill="#93d7d3"/>
            <path id="パス_254" data-name="パス 254" d="M339.829,192.525h-.01l-.06-.032-.018-.009a.157.157,0,0,1-.112-.175.2.2,0,0,1,.084-.166.075.075,0,0,1,.109.056.268.268,0,0,1,.066-.159.087.087,0,0,1,.091-.016.09.09,0,0,1,.049.081.465.465,0,0,1-.1.277l-.019.034-.06.1A.022.022,0,0,1,339.829,192.525Z" transform="translate(-337.387 -186.905)" fill="#93d7d3"/>
            <path id="パス_255" data-name="パス 255" d="M343.709,190.251h-.01l-.06-.032-.018-.009a.158.158,0,0,1-.112-.175.2.2,0,0,1,.084-.166.074.074,0,0,1,.109.056.268.268,0,0,1,.068-.159.09.09,0,0,1,.091-.018.1.1,0,0,1,.049.082.489.489,0,0,1-.1.277l-.021.034-.06.1A.022.022,0,0,1,343.709,190.251Z" transform="translate(-340.696 -184.965)" fill="#93d7d3"/>
          </g>
        </g>
      </g>
      <g id="freepik--Characters--inject-67" transform="translate(10.735 21.06)">
        <g id="freepik--Photo--inject-67">
          <path id="パス_256" data-name="パス 256" d="M134.453,191.484v-7.4c-.268-.23-.545-.471-.824-.72-.4-.361-.789-.736-1.07-1.02-.1-.1-.18-.18-.249-.246v-2.852a1.153,1.153,0,0,1,.525.506,6.3,6.3,0,0,0,.425.549,2.667,2.667,0,0,1,.019-.277.534.534,0,0,1,.456-.48c.163,0,.193.159.221.306a1.929,1.929,0,0,0,.077.3c.032.085.065.162.1.237a2.371,2.371,0,0,1,.208.718v.065a.767.767,0,0,0,.109.4v-6.664L157.62,161.53V176.8l.025-.041a12.889,12.889,0,0,0,1-1.831,2.028,2.028,0,0,0-.037-.718,2.522,2.522,0,0,1-.132-.8c0-.09-.009-.182-.018-.284a1.979,1.979,0,0,0-.065-.334c-.04-.147-.077-.294.041-.378a.412.412,0,0,1,.235-.066.537.537,0,0,1,.441.23,2.321,2.321,0,0,1,.147.258,8.532,8.532,0,0,0,.172-.849c.038-.278.128-.932.575-.932a1.207,1.207,0,0,1,.736.424c.2.191.809.773.265,2.4-.035.107-.078.241-.128.393-.147.441-.337,1.045-.561,1.639a20.081,20.081,0,0,1-1.4,3.174,1.247,1.247,0,0,1-1.064.743h0a1.324,1.324,0,0,1-.233-.022v2.085l-23.176,13.377Z" transform="translate(-131.919 -161.287)" opacity="0.2"/>
          <path id="パス_257" data-name="パス 257" d="M149.68,173.087l22.88-13.207v20.015L149.68,193.1Z" transform="translate(-146.733 -159.88)" fill="#93d7d3"/>
          <path id="パス_258" data-name="パス 258" d="M149.68,173.087l22.88-13.207v20.015L149.68,193.1Z" transform="translate(-146.733 -159.88)" fill="#fff" opacity="0.8"/>
          <path id="パス_259" data-name="パス 259" d="M149.68,268.1l22.88-13.207v6.032l-22.88,13.207Z" transform="translate(-146.733 -240.908)" fill="#ffbda7"/>
          <path id="パス_260" data-name="パス 260" d="M149.68,247.756a4.877,4.877,0,0,1,1.361-.933,15.609,15.609,0,0,0,2.06-.883,7.419,7.419,0,0,0,.811-.675,15.563,15.563,0,0,1,4.422-2.3,13.814,13.814,0,0,0,2.293-1.052c1.442-.9,2.185-2.221,3.8-2.951.842-.38,1.787-.531,2.649-.883a12.289,12.289,0,0,0,3.082-2.106,7.064,7.064,0,0,1,1.263-.895,4.066,4.066,0,0,1,1.142-.327v-5.48L149.68,242.475Z" transform="translate(-146.733 -219.058)" fill="#93d7d3" opacity="0.5"/>
          <path id="パス_261" data-name="パス 261" d="M149.68,248.4a4.877,4.877,0,0,1,1.361-.933,15.8,15.8,0,0,0,2.06-.883,7.414,7.414,0,0,0,.811-.675,15.563,15.563,0,0,1,4.422-2.3,13.812,13.812,0,0,0,2.293-1.052c1.442-.9,2.185-2.221,3.8-2.943.842-.38,1.787-.531,2.649-.883a12.289,12.289,0,0,0,3.082-2.106c.459-.371.188-.3.756-.611a6.4,6.4,0,0,1,1.648-.612V229.27L149.68,242.475Z" transform="translate(-146.733 -219.058)" fill="#93d7d3" opacity="0.3"/>
          <path id="パス_262" data-name="パス 262" d="M149.68,247.756a4.877,4.877,0,0,1,1.361-.933,15.609,15.609,0,0,0,2.06-.883,7.419,7.419,0,0,0,.811-.675,15.563,15.563,0,0,1,4.422-2.3,13.814,13.814,0,0,0,2.293-1.052c1.442-.9,2.185-2.221,3.8-2.951.842-.38,1.787-.531,2.649-.883a12.289,12.289,0,0,0,3.082-2.106,7.064,7.064,0,0,1,1.263-.895,4.066,4.066,0,0,1,1.142-.327v-5.48L149.68,242.475Z" transform="translate(-146.733 -219.058)" fill="#93d7d3" opacity="0.4"/>
          <path id="パス_263" data-name="パス 263" d="M149.68,247a4.877,4.877,0,0,1,1.361-.933,15.809,15.809,0,0,0,2.06-.883,7.419,7.419,0,0,0,.811-.676,15.562,15.562,0,0,1,4.422-2.3,13.815,13.815,0,0,0,2.293-1.052c1.442-.9,2.185-2.219,3.8-2.943.842-.381,1.787-.533,2.649-.883a12.288,12.288,0,0,0,3.082-2.106,4.228,4.228,0,0,1,.965-.718,5.174,5.174,0,0,1,1.439-.5V229.27L149.68,242.475Z" transform="translate(-146.733 -219.058)" fill="#93d7d3"/>
          <path id="パス_264" data-name="パス 264" d="M149.68,242.477v2.263l22.88-13.208V229.27Z" transform="translate(-146.733 -219.058)" opacity="0.03"/>
          <path id="パス_265" data-name="パス 265" d="M149.68,242.477v1.508l22.88-13.207V229.27Z" transform="translate(-146.733 -219.058)" opacity="0.03"/>
          <path id="パス_266" data-name="パス 266" d="M188.36,306.4a14.452,14.452,0,0,1,1.86-.9,25.224,25.224,0,0,0,3.138-1.325,9.741,9.741,0,0,0,1.57-1.177,6.074,6.074,0,0,1-1.578,1.245A24.092,24.092,0,0,1,190.4,305.5a17.629,17.629,0,0,0-2.04.9Z" transform="translate(-179.72 -281.937)" fill="#fff"/>
          <path id="パス_267" data-name="パス 267" d="M247.55,278.359a5.2,5.2,0,0,1,1.051-.468c.559-.169,1.414-.4,1.975-.633a10.123,10.123,0,0,0,1.881-1.108,6.45,6.45,0,0,1-1.856,1.155c-.664.268-1.6.506-2.026.64A5.954,5.954,0,0,0,247.55,278.359Z" transform="translate(-230.199 -259.039)" fill="#fff"/>
          <path id="パス_268" data-name="パス 268" d="M158.57,337.256a10.876,10.876,0,0,1,1.286-.534,3.336,3.336,0,0,0,1.021-.57,10.049,10.049,0,0,1,1.117-.873,6.408,6.408,0,0,0-.905.805,2.9,2.9,0,0,1-1.263.718C159.3,336.987,158.928,337.1,158.57,337.256Z" transform="translate(-154.314 -309.467)" fill="#fff"/>
          <path id="パス_269" data-name="パス 269" d="M186.18,316.633a12.28,12.28,0,0,1,1.79-.945c.462-.187,1.9-.726,2.449-.961a9.3,9.3,0,0,0,2.53-1.578,6.894,6.894,0,0,1-2.543,1.659c-.7.275-2.109.823-2.6,1.039A16.5,16.5,0,0,0,186.18,316.633Z" transform="translate(-177.861 -290.594)" fill="#fff" opacity="0.6"/>
          <path id="パス_270" data-name="パス 270" d="M234.8,292.778a9.52,9.52,0,0,1,1.233-1.142,5.84,5.84,0,0,1,1.5-.755c.537-.157,1.445-.39,1.594-.441-.452.193-1.35.421-1.642.511a6.035,6.035,0,0,0-1.561.84A10.583,10.583,0,0,0,234.8,292.778Z" transform="translate(-219.326 -271.226)" fill="#fff"/>
          <path id="パス_271" data-name="パス 271" d="M276,273.852a12.527,12.527,0,0,0,1.585-1.28,7.253,7.253,0,0,1,1.194-.939,3.684,3.684,0,0,1,1.272-.422c-.467.272-.687.124-1.394.62a11.237,11.237,0,0,0-1.472,1.177A6.67,6.67,0,0,1,276,273.852Z" transform="translate(-254.463 -254.826)" fill="#fff"/>
          <path id="パス_272" data-name="パス 272" d="M149.68,242.477v.755l22.88-13.208v-.753Z" transform="translate(-146.733 -219.058)" opacity="0.03"/>
          <g id="freepik--characters--inject-67-2" data-name="freepik--characters--inject-67" transform="translate(0 6.729)">
            <path id="パス_273" data-name="パス 273" d="M223.415,263.026c-.278-.836-.565-.758-1-.069a9.919,9.919,0,0,1-.727.971,2.96,2.96,0,0,0,0-.648.315.315,0,0,0-.315-.294c-.069.013-.063.259-.163.53a3.72,3.72,0,0,0-.308.955,1.487,1.487,0,0,1-.272.589c-.6.609-2.6,2.244-2.6,2.244-.218-.23-.908-.911-1.818-1.84-.811-.83-1.085-1.085-1.974-1.132l-.072,2.758c.926.514,1.581.943,3.2,1.791.789.415,1.067.325,1.506-.062s1.506-1.332,2.487-2.327c.552-.559,1.067-1.151,1.347-1.455C223.667,263.986,223.515,263.327,223.415,263.026Z" transform="translate(-201.723 -254.059)" fill="#ffa8a7"/>
            <g id="freepik--Arm--inject-67" transform="translate(9.807 6.973)">
              <path id="パス_274" data-name="パス 274" d="M201.053,263.1c-.7.484-1.444,1.04-1.987,1.354-1.3.745-1.837.924-2.312.553-.758-.589-.511-.895.243-1.118a3.666,3.666,0,0,0,.911-.4,1.617,1.617,0,0,1-.472-.053.325.325,0,0,1-.238-.389c.022-.075.19-.018.484-.079a3.217,3.217,0,0,1,.985-.222c.147.009.508-.253.974-.662.441-.383,1.23-1.26,1.638-1.691.11-1.848.128-2.343.21-4.234.035-.809.219-2.455,1.757-2.487,0,0,.492.621.266,3.486,0,0-.112,2.92-.162,3.154l-.049.581c-.028.259.032.461-.589.927C202.16,262.238,201.749,262.616,201.053,263.1Z" transform="translate(-196.294 -253.57)" fill="#b16668"/>
              <path id="パス_275" data-name="パス 275" d="M230.26,258.616a2.747,2.747,0,0,1,2.247.26s.521-5.547-.325-5.887a1.938,1.938,0,0,0-1.324.514,3.246,3.246,0,0,0-.528,1.845C230.282,256.117,230.26,258.616,230.26,258.616Z" transform="translate(-225.261 -252.99)" fill="#37474f"/>
              <path id="パス_276" data-name="パス 276" d="M230.175,297.654l-.015.247a1.479,1.479,0,0,1,1.177.181S231.114,297.627,230.175,297.654Z" transform="translate(-225.176 -291.08)" fill="#9a4a4d"/>
            </g>
            <path id="パス_277" data-name="パス 277" d="M188.153,321.151c.071.339.147.689.215,1.045l-6.74,3.893c-.062-.6-.107-1.186-.118-1.647a8.187,8.187,0,0,1,.281-2.49c.147-.555.365-1.164.656-1.948l1.987-.355,3.238-.578c.025.094.05.193.075.294C187.875,319.879,188.013,320.492,188.153,321.151Z" transform="translate(-173.872 -302.372)" fill="#93d7d3"/>
            <path id="パス_278" data-name="パス 278" d="M188.153,321.151c.071.339.147.689.215,1.045l-6.74,3.893c-.062-.6-.107-1.186-.118-1.647a8.187,8.187,0,0,1,.281-2.49c.147-.555.365-1.164.656-1.948l1.987-.355,3.238-.578c.025.094.05.193.075.294C187.875,319.879,188.013,320.492,188.153,321.151Z" transform="translate(-173.872 -302.372)" opacity="0.3"/>
            <path id="パス_279" data-name="パス 279" d="M188.782,279.187l.074,1.548c.181.868.659,2.986.659,2.986-.883,1.816-6.371,1.971-6.455.721.022-.085.044-.169.071-.252.131-.427.35-1.086.5-1.433a4.7,4.7,0,0,0,.468-1.308l-1.046-2.581a4.309,4.309,0,0,0,.353-2.834l1.511-.465.155-.051,1.619-.2h.062a5.75,5.75,0,0,1,.943-.013,3.632,3.632,0,0,1,1.653,2.649A1.862,1.862,0,0,1,188.782,279.187Z" transform="translate(-175.192 -265.03)" fill="#455a64"/>
            <path id="パス_280" data-name="パス 280" d="M138.175,279.458c-1.077.166-1.273.474-1.865,1.7-.55,1.143-1.015,2.06-1.223,2.453-.414-.284-2.153-1.413-2.678-1.844a.855.855,0,0,1-.218-.614,3.316,3.316,0,0,0-.294-.92c-.1-.258-.088-.509-.156-.511a.389.389,0,0,0-.313.355,3.066,3.066,0,0,0,0,.656,7.835,7.835,0,0,1-.708-.87c-.424-.628-.706-.662-.989.231-.1.321-.259,1.014.686,1.928.272.263.776.781,1.314,1.26a24.8,24.8,0,0,0,2.943,2.355c.746.419,1.092.022,1.5-.509,1.085-1.422,1.082-1.67,1.844-2.784C138.5,281.356,138.715,279.975,138.175,279.458Z" transform="translate(-129.653 -268.55)" fill="#ffa8a7"/>
            <path id="パス_281" data-name="パス 281" d="M166.58,306.874c.409.191.589.871.589.871a1.224,1.224,0,0,0-.489-1.065Z" transform="translate(-161.146 -291.805)" fill="#f28f8f"/>
            <path id="パス_282" data-name="パス 282" d="M187.635,232.047a.477.477,0,0,0-.125-.359c-.112-.127-.157-.132-.118-.319a1,1,0,0,0,.022-.827c-.131-.241-.318-.534-1.177-.826a3.806,3.806,0,0,0-2.8.341c-.912.494-1.27,1-1.177,1.87a1.214,1.214,0,0,0-.578,1.42,1.338,1.338,0,0,1,.1.425,1.24,1.24,0,0,1-.191.474,1.41,1.41,0,0,0-.109,1.126.852.852,0,0,0,.883.549.415.415,0,0,1-.181-.517,1.233,1.233,0,0,0,1.4.637c.11-.029.079-.184.147-.274.106-.147.224-.294.336-.434l.883-1.151,1.433-1.856c0-.009.044-.047.044-.057l.193.358s.306.38.62.349a.325.325,0,0,0,.327-.284.137.137,0,0,1-.252-.088C187.343,232.456,187.616,232.342,187.635,232.047Z" transform="translate(-173.797 -226.049)" fill="#263238"/>
            <path id="パス_283" data-name="パス 283" d="M207.6,249.768c.312-.054.905.472,1.1,1.077.178.55.2,1.339-.34,1.61a.913.913,0,0,0,.022-.571,1.35,1.35,0,0,1-.655.905,2.2,2.2,0,0,1-1.389.369C205.411,253.085,207.6,249.768,207.6,249.768Z" transform="translate(-194.856 -243.265)" fill="#263238"/>
            <path id="パス_284" data-name="パス 284" d="M191.272,239.12c.411.112.831.662.939,2.371.091,1.447-.328,1.881-.546,2.024a2.363,2.363,0,0,1-1.089.147l.057.831s.883,1.3.539,2.04a4.479,4.479,0,0,1-2.381-1.8l-.088-1.875a.534.534,0,0,1-.62.035.923.923,0,0,1-.394-1.188c.249-.334.562-.312.895-.032a4.854,4.854,0,0,0,1.472-.678A2.876,2.876,0,0,0,191.272,239.12Z" transform="translate(-179.062 -234.188)" fill="#ffa8a7"/>
            <path id="パス_285" data-name="パス 285" d="M194.26,254.885l.059.8a.421.421,0,0,0,.361-.442.375.375,0,0,0-.419-.361Z" transform="translate(-184.752 -247.63)" fill="#263238"/>
            <path id="パス_286" data-name="パス 286" d="M213.78,251.356a.177.177,0,0,0,.2.177.219.219,0,0,0,.187-.224.177.177,0,0,0-.2-.177A.222.222,0,0,0,213.78,251.356Z" transform="translate(-201.399 -244.431)" fill="#263238"/>
            <path id="パス_287" data-name="パス 287" d="M203.4,253.451a.188.188,0,0,0,.212.19.237.237,0,0,0,.2-.24.19.19,0,0,0-.213-.19A.234.234,0,0,0,203.4,253.451Z" transform="translate(-192.546 -246.204)" fill="#263238"/>
            <path id="パス_288" data-name="パス 288" d="M206.971,262.46l.721.054a.4.4,0,0,1-.4.364.361.361,0,0,1-.316-.418Z" transform="translate(-195.588 -254.093)" fill="#b16668"/>
            <path id="パス_289" data-name="パス 289" d="M207.5,263.611a.315.315,0,0,0-.39-.259.352.352,0,0,0-.056.019.343.343,0,0,0,.3.259A.335.335,0,0,0,207.5,263.611Z" transform="translate(-195.66 -254.846)" fill="#f28f8f"/>
            <path id="パス_290" data-name="パス 290" d="M213.921,245.886l-.531-.013a.286.286,0,0,1,.294-.263.25.25,0,0,1,.237.277Z" transform="translate(-201.067 -239.722)" fill="#263238"/>
            <path id="パス_291" data-name="パス 291" d="M209.44,252l.147,1.189.608-.3Z" transform="translate(-197.698 -245.172)" fill="#f28f8f"/>
            <path id="パス_292" data-name="パス 292" d="M199.038,266.955c-.452.018-1.352-.174-1.528-.525a.945.945,0,0,0,.375.462,4.566,4.566,0,0,0,1.177.343Z" transform="translate(-187.524 -257.479)" fill="#f28f8f"/>
            <g id="freepik--Character--inject-67" transform="translate(14.822)">
              <path id="パス_293" data-name="パス 293" d="M243.277,311.81l-2.041,1.179h0l-1.77,1.024-.252.146-1.841,1.063.565-2.974.075-.393Z" transform="translate(-236.339 -296.18)" fill="#37474f"/>
              <path id="パス_294" data-name="パス 294" d="M246.951,322.516l-.252.147a2.559,2.559,0,0,1-.549-.883A3.851,3.851,0,0,0,246.951,322.516Z" transform="translate(-243.827 -304.683)" fill="#263238"/>
              <path id="パス_295" data-name="パス 295" d="M243.918,258.76l-1.13.652-2.041,1.177h0a6.476,6.476,0,0,1-3.3-.736l-.056-.04c-.007-.316-.01-.612-.012-.9v-.04c0-.615,0-1.192-.043-1.845-.015-.231-.035-.471-.062-.726-.06-.561-.156-1.192-.309-1.946-.255-1.26-.337-2.849.562-3.475a1.325,1.325,0,0,1,.228-.128l.082-.034a2.909,2.909,0,0,1,.468-.113c.24-.043.452-.063.452-.063l1.3-.175h.325a16.625,16.625,0,0,1,1.687.1h0l.147.021a.69.69,0,0,1,.079.018c.577.166.9,1.145,1.177,3.038a.536.536,0,0,0,.012.081c.035.241.071.5.1.768A40.837,40.837,0,0,1,243.918,258.76Z" transform="translate(-235.85 -243.782)" fill="#f0f0f0"/>
              <path id="パス_296" data-name="パス 296" d="M273.647,227.893a4.284,4.284,0,0,1,2.617.96c1.095.655,1.485.831,1.931,1.077a19.135,19.135,0,0,0,1.313-2.355,2.08,2.08,0,0,0-.035-.82,3.845,3.845,0,0,1-.147-1.051c-.026-.3-.147-.534-.085-.58a.363.363,0,0,1,.468.13,2.931,2.931,0,0,1,.306.612,10.16,10.16,0,0,0,.284-1.27c.118-.861.375-1.074,1.063-.421.246.234.717.783.227,2.247-.147.421-.387,1.23-.686,2.026a19.9,19.9,0,0,1-1.392,3.151c-.527.873-1.046.736-1.682.489-2.035-.774-2.219-.815-3.47-1.366A2.976,2.976,0,0,1,273.647,227.893Z" transform="translate(-267.189 -221.117)" fill="#b16668"/>
              <path id="パス_297" data-name="パス 297" d="M271.123,250.871a2.914,2.914,0,0,1,1.672.25c.545.25,2.5,1.488,2.5,1.488a2.691,2.691,0,0,1-.965,2.082l-2.449-.929S270.23,252.352,271.123,250.871Z" transform="translate(-264.899 -244.191)" fill="#37474f"/>
              <path id="パス_298" data-name="パス 298" d="M303.233,264.944a2.433,2.433,0,0,0-.241,1.177,1.689,1.689,0,0,1,.066-1.272Z" transform="translate(-292.228 -256.131)" fill="#9a4a4d"/>
              <path id="パス_299" data-name="パス 299" d="M231.445,213.367a2.14,2.14,0,0,1,1.943-2.072,1.728,1.728,0,0,1,1.887,1.581l.87-.7a.642.642,0,0,1,.562.157c.238.231.094,1.02-.218,1.806a16.483,16.483,0,0,1-.433,1.648.709.709,0,0,1-.365.315l.028-.845-3.486.062.344-.277A1.729,1.729,0,0,1,231.445,213.367Z" transform="translate(-231.286 -210.451)" fill="#263238"/>
              <path id="パス_300" data-name="パス 300" d="M238.306,215.454c.11.059.21-.184.411-.322.169-.118.552-.331.806.071.272.433-.219,1.11-.565,1.272-.512.238-.7-.147-.7-.147l.112,2.131c-1.169,1.913-2.783,1.717-2.06.311l-.087-.818a6.35,6.35,0,0,1-.808.035c-.441-.037-.634-.286-.79-.751a6.419,6.419,0,0,1-.193-1.369,9.974,9.974,0,0,1,.041-1.591c.147-1.7,2.169-1.862,3.213-1.276S238.306,215.454,238.306,215.454Z" transform="translate(-233.825 -211.649)" fill="#b16668"/>
              <path id="パス_301" data-name="パス 301" d="M230.588,206.705a.748.748,0,0,1,.471-.1.63.63,0,0,1,.338-.6.646.646,0,0,1,.723.032.375.375,0,0,1,.278-.408.883.883,0,0,1,.514.04c.244.071.486.147.736.215a5.783,5.783,0,0,1,1.3.352.736.736,0,0,1,.247.188.648.648,0,0,1,.113.427.877.877,0,0,1-.021.147.41.41,0,0,1,.1-.09.349.349,0,0,1,.506.13l-.659.4c.016.132.034.263.047.4a3.577,3.577,0,0,1,.026,1.114.282.282,0,0,1-.043.122,2.443,2.443,0,0,0-.341.365c-.051.068-.113.174-.2.206a.183.183,0,0,1-.228-.084.347.347,0,0,1-.007-.156l.062-.658a.374.374,0,0,0-.01-.172c-.029-.071-.1-.109-.16-.156a.687.687,0,0,1-.26-.5.708.708,0,0,0-.018-.185c-.013-.046-.05-.113-.1-.109-.1.009-.655.18-.793.21a3.363,3.363,0,0,1-2.138-.046c-.249-.116-.668-.365-.712-.67A.456.456,0,0,1,230.588,206.705Z" transform="translate(-230.366 -205.607)" fill="#263238"/>
              <path id="パス_302" data-name="パス 302" d="M246.67,241.6a5.849,5.849,0,0,0,1.207-.414,2.146,2.146,0,0,0,.559-.764,1.766,1.766,0,0,1-.349.821,4.332,4.332,0,0,1-1.389.625Z" transform="translate(-244.271 -235.297)" fill="#9a4a4d"/>
              <path id="パス_303" data-name="パス 303" d="M248.439,229.432a.184.184,0,0,0,.2.193.228.228,0,0,0,.2-.224.184.184,0,0,0-.2-.194A.23.23,0,0,0,248.439,229.432Z" transform="translate(-245.779 -225.733)" fill="#263238"/>
              <path id="パス_304" data-name="パス 304" d="M249.4,224.209l.471.187a.258.258,0,0,0-.127-.349A.275.275,0,0,0,249.4,224.209Z" transform="translate(-246.599 -221.321)" fill="#263238"/>
              <path id="パス_305" data-name="パス 305" d="M244.989,238.93l-.849.383a.411.411,0,0,0,.571.238A.517.517,0,0,0,244.989,238.93Z" transform="translate(-242.113 -234.026)" fill="#9a4a4d"/>
              <path id="パス_306" data-name="パス 306" d="M246.28,240.923a.492.492,0,0,1,.494-.424.323.323,0,0,1,.054.007.522.522,0,0,1-.294.383A.441.441,0,0,1,246.28,240.923Z" transform="translate(-243.938 -235.365)" fill="#f28f8f"/>
              <path id="パス_307" data-name="パス 307" d="M235.8,225.514l.453-.278a.233.233,0,0,0-.338-.077A.278.278,0,0,0,235.8,225.514Z" transform="translate(-234.978 -222.245)" fill="#263238"/>
              <path id="パス_308" data-name="パス 308" d="M237.518,230.216a.184.184,0,0,0,.2.194.23.23,0,0,0,.2-.225.184.184,0,0,0-.2-.188A.23.23,0,0,0,237.518,230.216Z" transform="translate(-236.465 -226.407)" fill="#263238"/>
              <path id="パス_309" data-name="パス 309" d="M239.95,229.13l-.031,1.332-.7-.085Z" transform="translate(-237.917 -225.668)" fill="#9a4a4d"/>
            </g>
          </g>
        </g>
      </g>
    </g>
  </g>
</svg>
