<svg xmlns="http://www.w3.org/2000/svg" width="200.303" height="187" viewBox="0 0 200.303 187">
  <g id="Worried-amico" transform="translate(-17.328 -56.078)">
    <g id="freepik--Floor--inject-40" transform="translate(17.327 127.421)">
      <path id="freepik--floor--inject-40-2" data-name="freepik--floor--inject-40" d="M46.662,320.547c-39.113-22.58-39.113-59.192,0-81.781s102.523-22.58,141.636,0,39.108,59.192,0,81.781S85.77,343.127,46.662,320.547Z" transform="translate(-17.327 -221.828)" fill="#f5f5f5"/>
    </g>
    <g id="freepik--Shadows--inject-40" transform="translate(27.302 148.642)">
      <path id="freepik--Shadow--inject-40" d="M343.7,311.594c-10.464,6.026-10.464,15.835,0,21.878s27.431,6.026,37.9,0,10.464-15.84,0-21.878S354.159,305.551,343.7,311.594Z" transform="translate(-208.723 -291.597)" fill="#e6e6e6"/>
      <path id="freepik--shadow--inject-40-2" data-name="freepik--shadow--inject-40" d="M162.564,350.677a5.637,5.637,0,0,0-.529-.275,15.3,15.3,0,0,1-1.859-.77,16.146,16.146,0,0,1-2.066-1.463c-1.864-1.6-4.175-2.811-6.1-4.3-2.217-1.722-4.679-3.168-6.65-5.165-2.2-2.23-3.667-5.045-5.419-7.636a16.066,16.066,0,0,0-5.893-5.686l2.152-1.231,24.775-14.277a.962.962,0,0,0,0-1.816L97.708,271.5a3.491,3.491,0,0,0-3.146,0L41.146,302.349a.962.962,0,0,0,0,1.816l63.272,36.517a3.491,3.491,0,0,0,3.146,0l4.352-2.514,6.245-3.628a11.83,11.83,0,0,0,1.67,4.946c1.231,1.76,4.816,4.278,6.783,5.144a49.436,49.436,0,0,1,5.393,2.725c1.872,1.106,3.826,2.092,5.7,3.224a9.409,9.409,0,0,1,2.583,2.079c.4.5.7,1.05,1.05,1.58a13.063,13.063,0,0,0,6.1,4.709,24.443,24.443,0,0,0,7.644,1.722c3.392.189,7.037.039,9.517-2.669.934-1.016.981-3.237.508-4.472A5.931,5.931,0,0,0,162.564,350.677Z" transform="translate(-40.5 -271.13)" fill="#e0e0e0"/>
    </g>
    <g id="freepik--Table--inject-40" transform="translate(156.512 138.143)">
      <g id="freepik--table--inject-40-2" data-name="freepik--table--inject-40">
        <g id="freepik--table--inject-40-3" data-name="freepik--table--inject-40">
          <path id="パス_722" data-name="パス 722" d="M348.266,300.695a.68.68,0,0,1,.4-.56,2.152,2.152,0,0,1,1.937,0,.689.689,0,0,1,.4.56l-4.881,17.036h0a.486.486,0,0,1-.284.387,1.506,1.506,0,0,1-1.369,0,.486.486,0,0,1-.284-.387h0Z" transform="translate(-342.685 -277.021)" fill="#455a64"/>
          <path id="パス_723" data-name="パス 723" d="M437.472,300.693a.68.68,0,0,0-.4-.56,2.152,2.152,0,0,0-1.941,0,.68.68,0,0,0-.4.56l4.881,17.036h0a.486.486,0,0,0,.284.387,1.507,1.507,0,0,0,1.369,0,.486.486,0,0,0,.284-.387h0Z" transform="translate(-394.254 -277.019)" fill="#455a64"/>
          <path id="パス_724" data-name="パス 724" d="M397.372,305.763a.68.68,0,0,0-.4-.56,2.152,2.152,0,0,0-1.941,0,.68.68,0,0,0-.4.56l.4,22.5h0a.478.478,0,0,0,.28.383,1.515,1.515,0,0,0,1.373,0,.478.478,0,0,0,.28-.383h0Z" transform="translate(-371.414 -279.907)" fill="#455a64"/>
          <path id="パス_725" data-name="パス 725" d="M389.851,260.921h0c0-3.628-2.376-7.257-7.175-10.029-9.594-5.54-25.145-5.54-34.74,0-4.8,2.772-7.175,6.4-7.171,10.029h-.026v1.95h0c.06,3.581,2.462,7.154,7.2,9.9,9.594,5.54,25.145,5.54,34.74,0,4.735-2.733,7.141-6.306,7.2-9.9h0Z" transform="translate(-340.72 -246.738)" fill="#fcdd44"/>
          <path id="パス_726" data-name="パス 726" d="M389.851,260.921h0c0-3.628-2.376-7.257-7.175-10.029-9.594-5.54-25.145-5.54-34.74,0-4.8,2.772-7.175,6.4-7.171,10.029h-.026v1.95h0c.06,3.581,2.462,7.154,7.2,9.9,9.594,5.54,25.145,5.54,34.74,0,4.735-2.733,7.141-6.306,7.2-9.9h0Z" transform="translate(-340.72 -246.738)" fill="#fff" opacity="0.3"/>
          <path id="パス_727" data-name="パス 727" d="M347.888,250.892c-9.594,5.54-9.594,14.518,0,20.058s25.145,5.54,34.74,0,9.594-14.518,0-20.058S357.482,245.353,347.888,250.892Z" transform="translate(-340.693 -246.738)" fill="#fcdd44"/>
          <path id="パス_728" data-name="パス 728" d="M347.888,250.892c-9.594,5.54-9.594,14.518,0,20.058s25.145,5.54,34.74,0,9.594-14.518,0-20.058S357.482,245.353,347.888,250.892Z" transform="translate(-340.693 -246.738)" fill="#fff" opacity="0.6"/>
        </g>
        <g id="freepik--Book--inject-40" transform="translate(8.582 1.619)">
          <path id="パス_729" data-name="パス 729" d="M361.327,268.29l17.282,9.977a3.71,3.71,0,0,0,3.366,0l11.38-6.573a1.024,1.024,0,0,0,0-1.941l-17.282-9.977a3.71,3.71,0,0,0-3.366,0l-11.38,6.568A1.027,1.027,0,0,0,361.327,268.29Z" transform="translate(-360.63 -255.553)" opacity="0.15"/>
          <path id="パス_730" data-name="パス 730" d="M395.234,270.795,382.773,277.9,365.19,267.816l12.457-7.106Z" transform="translate(-363.227 -256.315)"/>
          <path id="パス_731" data-name="パス 731" d="M405.683,286.147l12.017-6.887a5.01,5.01,0,0,1,.065-3.121l-11.957,6.827A12.571,12.571,0,0,0,405.683,286.147Z" transform="translate(-386.279 -265.104)" fill="#f5f5f5"/>
          <path id="パス_732" data-name="パス 732" d="M405.934,280.721a2.535,2.535,0,0,0-1.154,1.989v2.324c0,.732.517,1.029,1.154.663l11.854-6.8v-.577l-11.69,6.667c-.383.22-.693.043-.693-.4v-2.152a1.52,1.52,0,0,1,.693-1.192l11.69-6.667v-.654Z" transform="translate(-385.777 -263.839)" fill="#263238"/>
          <path id="パス_733" data-name="パス 733" d="M394.515,260.585,376.923,250.5l-11.845,6.8a2.535,2.535,0,0,0-1.154,1.989v2.324a.8.8,0,0,0,.336.74l17.587,10.085a.8.8,0,0,1-.34-.74V269.37a2.54,2.54,0,0,1,1.158-1.989Z" transform="translate(-362.504 -250.5)" fill="#455a64"/>
          <path id="パス_734" data-name="パス 734" d="M381.843,278.348a2.359,2.359,0,0,0-.34,1.132V281.8a.8.8,0,0,0,.34.74l-17.583-10.1a.8.8,0,0,1-.336-.74v-2.324a2.367,2.367,0,0,1,.336-1.132Z" transform="translate(-362.504 -260.61)" fill="#37474f"/>
        </g>
      </g>
    </g>
    <g id="freepik--question-marks--inject-40" transform="translate(109.287 56.078)">
      <g id="freepik--question-marks--inject-40-2" data-name="freepik--question-marks--inject-40">
        <path id="パス_735" data-name="パス 735" d="M239.594,56.686a7.9,7.9,0,0,1,1.894,1.227,6.025,6.025,0,0,1,1.356,1.661,4.761,4.761,0,0,1,.581,1.963,4.253,4.253,0,0,1-.43,2.131,4.386,4.386,0,0,1-.99,1.412,5.3,5.3,0,0,1-1.253.861,8.1,8.1,0,0,1-1.382.517l-1.339.374a7,7,0,0,0-1.175.43,1.989,1.989,0,0,0-.826.719.934.934,0,0,1-.4.327.547.547,0,0,1-.478,0l-1.683-.779a.693.693,0,0,1-.353-.379.542.542,0,0,1,.03-.495,4.206,4.206,0,0,1,1.067-1.347,5.725,5.725,0,0,1,1.317-.818A8.821,8.821,0,0,1,236.943,64c.478-.121.925-.241,1.339-.362a5.315,5.315,0,0,0,1.089-.43,1.558,1.558,0,0,0,.684-.719,1.838,1.838,0,0,0-.069-1.722,3.34,3.34,0,0,0-1.631-1.416,3.23,3.23,0,0,0-3.641.6,1.291,1.291,0,0,1-.4.258.615.615,0,0,1-.465-.069l-1.795-.826a.521.521,0,0,1-.28-.293.5.5,0,0,1,0-.43,3.775,3.775,0,0,1,1.209-1.36,5.88,5.88,0,0,1,1.894-.9,7.343,7.343,0,0,1,2.29-.245,6.388,6.388,0,0,1,2.428.6Zm-4.915,12.986a.629.629,0,0,1,.336.374.611.611,0,0,1,0,.5l-.9,1.95a.663.663,0,0,1-.861.323l-1.907-.861a.667.667,0,0,1-.319-.861l.9-1.95a.659.659,0,0,1,.861-.319Z" transform="translate(-230.975 -56.078)" fill="#fcdd44"/>
        <path id="パス_736" data-name="パス 736" d="M242.5,110.664a5.4,5.4,0,0,1,1.382.715,4.157,4.157,0,0,1,1.042,1.05,3.31,3.31,0,0,1,.529,1.291,3.258,3.258,0,0,1-.732,2.531,3.645,3.645,0,0,1-.8.663,5.642,5.642,0,0,1-.917.43l-.9.344a4.641,4.641,0,0,0-.775.383,1.347,1.347,0,0,0-.521.547.676.676,0,0,1-.25.254.4.4,0,0,1-.331.026l-1.21-.43a.5.5,0,0,1-.267-.237.374.374,0,0,1,0-.344,2.97,2.97,0,0,1,.646-.994,4.157,4.157,0,0,1,.861-.65,6.327,6.327,0,0,1,.938-.43c.319-.116.616-.228.9-.34a3.616,3.616,0,0,0,.719-.37,1.089,1.089,0,0,0,.43-.542,1.291,1.291,0,0,0-.164-1.171,2.286,2.286,0,0,0-1.214-.861,2.221,2.221,0,0,0-2.462.654,1,1,0,0,1-.258.207.43.43,0,0,1-.323,0l-1.291-.43a.366.366,0,0,1-.215-.185.336.336,0,0,1,0-.288,2.608,2.608,0,0,1,.706-1,4.037,4.037,0,0,1,1.244-.745,4.993,4.993,0,0,1,1.558-.323A4.425,4.425,0,0,1,242.5,110.664Zm-2.522,9.25a.456.456,0,0,1,.258.232.43.43,0,0,1,.022.349l-.491,1.4a.43.43,0,0,1-.232.258.465.465,0,0,1-.349.022l-1.364-.482a.453.453,0,0,1-.28-.577l.482-1.412a.458.458,0,0,1,.577-.28Z" transform="translate(-234.569 -87.024)" fill="#fcdd44"/>
        <g id="グループ_23" data-name="グループ 23" transform="translate(2.716 23.386)" opacity="0.2">
          <path id="パス_737" data-name="パス 737" d="M242.5,110.664a5.4,5.4,0,0,1,1.382.715,4.157,4.157,0,0,1,1.042,1.05,3.31,3.31,0,0,1,.529,1.291,3.258,3.258,0,0,1-.732,2.531,3.645,3.645,0,0,1-.8.663,5.642,5.642,0,0,1-.917.43l-.9.344a4.641,4.641,0,0,0-.775.383,1.347,1.347,0,0,0-.521.547.676.676,0,0,1-.25.254.4.4,0,0,1-.331.026l-1.21-.43a.5.5,0,0,1-.267-.237.374.374,0,0,1,0-.344,2.97,2.97,0,0,1,.646-.994,4.157,4.157,0,0,1,.861-.65,6.327,6.327,0,0,1,.938-.43c.319-.116.616-.228.9-.34a3.616,3.616,0,0,0,.719-.37,1.089,1.089,0,0,0,.43-.542,1.291,1.291,0,0,0-.164-1.171,2.286,2.286,0,0,0-1.214-.861,2.221,2.221,0,0,0-2.462.654,1,1,0,0,1-.258.207.43.43,0,0,1-.323,0l-1.291-.43a.366.366,0,0,1-.215-.185.336.336,0,0,1,0-.288,2.608,2.608,0,0,1,.706-1,4.037,4.037,0,0,1,1.244-.745,4.993,4.993,0,0,1,1.558-.323A4.425,4.425,0,0,1,242.5,110.664Zm-2.522,9.25a.456.456,0,0,1,.258.232.43.43,0,0,1,.022.349l-.491,1.4a.43.43,0,0,1-.232.258.465.465,0,0,1-.349.022l-1.364-.482a.453.453,0,0,1-.28-.577l.482-1.412a.458.458,0,0,1,.577-.28Z" transform="translate(-237.284 -110.41)"/>
        </g>
        <path id="パス_738" data-name="パス 738" d="M279.18,99.933a.521.521,0,0,1,.366.189.512.512,0,0,1,.129.392l-.133,1.748a.5.5,0,0,1-.189.366.517.517,0,0,1-.387.133l-1.722-.133a.538.538,0,0,1-.495-.577l.133-1.752a.521.521,0,0,1,.189-.366.512.512,0,0,1,.387-.129Zm.065-11.359a6.379,6.379,0,0,1,1.8.4,4.933,4.933,0,0,1,1.515.887,3.913,3.913,0,0,1,1.007,1.339,3.445,3.445,0,0,1,.288,1.752,3.551,3.551,0,0,1-.353,1.364,4.162,4.162,0,0,1-.719,1,6.581,6.581,0,0,1-.908.792l-.925.671a5.631,5.631,0,0,0-.77.671,1.661,1.661,0,0,0-.43.788.814.814,0,0,1-.207.366.43.43,0,0,1-.37.129l-1.511-.116a.56.56,0,0,1-.379-.185.43.43,0,0,1-.121-.392,3.5,3.5,0,0,1,.43-1.339,4.689,4.689,0,0,1,.775-1,6.963,6.963,0,0,1,.943-.779c.327-.228.637-.43.917-.663a4.387,4.387,0,0,0,.71-.646,1.291,1.291,0,0,0,.318-.745,1.5,1.5,0,0,0-.542-1.291,2.737,2.737,0,0,0-1.653-.624,2.644,2.644,0,0,0-2.617,1.5,1.162,1.162,0,0,1-.232.314.538.538,0,0,1-.379.082l-1.61-.125a.422.422,0,0,1-.4-.469,3.086,3.086,0,0,1,.534-1.39,4.912,4.912,0,0,1,1.2-1.231,5.931,5.931,0,0,1,1.683-.861,5.217,5.217,0,0,1,2.014-.207Z" transform="translate(-255.375 -74.572)" fill="#fcdd44"/>
        <g id="グループ_24" data-name="グループ 24" transform="translate(18.439 13.976)" opacity="0.3">
          <path id="パス_739" data-name="パス 739" d="M279.18,99.933a.521.521,0,0,1,.366.189.512.512,0,0,1,.129.392l-.133,1.748a.5.5,0,0,1-.189.366.517.517,0,0,1-.387.133l-1.722-.133a.538.538,0,0,1-.495-.577l.133-1.752a.521.521,0,0,1,.189-.366.512.512,0,0,1,.387-.129Zm.065-11.359a6.379,6.379,0,0,1,1.8.4,4.933,4.933,0,0,1,1.515.887,3.913,3.913,0,0,1,1.007,1.339,3.445,3.445,0,0,1,.288,1.752,3.551,3.551,0,0,1-.353,1.364,4.162,4.162,0,0,1-.719,1,6.581,6.581,0,0,1-.908.792l-.925.671a5.631,5.631,0,0,0-.77.671,1.661,1.661,0,0,0-.43.788.814.814,0,0,1-.207.366.43.43,0,0,1-.37.129l-1.511-.116a.56.56,0,0,1-.379-.185.43.43,0,0,1-.121-.392,3.5,3.5,0,0,1,.43-1.339,4.689,4.689,0,0,1,.775-1,6.963,6.963,0,0,1,.943-.779c.327-.228.637-.43.917-.663a4.387,4.387,0,0,0,.71-.646,1.291,1.291,0,0,0,.318-.745,1.5,1.5,0,0,0-.542-1.291,2.737,2.737,0,0,0-1.653-.624,2.644,2.644,0,0,0-2.617,1.5,1.162,1.162,0,0,1-.232.314.538.538,0,0,1-.379.082l-1.61-.125a.422.422,0,0,1-.4-.469,3.086,3.086,0,0,1,.534-1.39,4.912,4.912,0,0,1,1.2-1.231,5.931,5.931,0,0,1,1.683-.861,5.217,5.217,0,0,1,2.014-.207Z" transform="translate(-273.815 -88.547)" fill="#fff"/>
        </g>
      </g>
    </g>
    <g id="freepik--Character--inject-40" transform="translate(33.407 66.924)">
      <g id="freepik--character--inject-40-2" data-name="freepik--character--inject-40">
        <path id="パス_740" data-name="パス 740" d="M230.087,295.62h0a7.261,7.261,0,0,1-3.521,7.481l-41.243,21.521L185.2,327l-1.9,1.063,2.423,1.395,45.625-26.407Z" transform="translate(-127.941 -203.361)" fill="#fcdd44"/>
        <path id="パス_741" data-name="パス 741" d="M179.835,162.65l-10.545,6.086,44.971,28.434a11.987,11.987,0,0,1,5.406,8.139l6.551,42.405a.732.732,0,0,0,1.089.512h0c.245-.138.387-.43.3-1.442l-3.745-45.061a11.62,11.62,0,0,0-4.425-7.636Z" transform="translate(-119.961 -127.625)" fill="#fcdd44"/>
        <path id="パス_742" data-name="パス 742" d="M179.835,162.65l-10.545,6.086,44.971,28.434a11.987,11.987,0,0,1,5.406,8.139l6.551,42.405a.732.732,0,0,0,1.089.512h0c.245-.138.387-.43.3-1.442l-3.745-45.061a11.62,11.62,0,0,0-4.425-7.636Z" transform="translate(-119.961 -127.625)" opacity="0.1"/>
        <path id="パス_743" data-name="パス 743" d="M237.495,301.59a7.111,7.111,0,0,1-3.443,7.317l-38.5,22.249L197.6,335.4l37.189-21.474a3.5,3.5,0,0,1,5.187,2.471Z" transform="translate(-134.918 -206.761)" fill="#fcdd44"/>
        <path id="パス_744" data-name="パス 744" d="M237.495,301.59a7.111,7.111,0,0,1-3.443,7.317l-38.5,22.249L197.6,335.4l37.189-21.474a3.5,3.5,0,0,1,5.187,2.471Z" transform="translate(-134.918 -206.761)" opacity="0.1"/>
        <path id="パス_745" data-name="パス 745" d="M119.02,326.074l-.521-3.1L79.615,300.537l4.735-2.725-2.359-1.36-1.765,1.02a3.525,3.525,0,0,1-5.01-4.464l.164-.379-.258.594h0L71.6,301.337l3.06,2.044,2.583-1.494Z" transform="translate(-64.319 -201.658)" fill="#fcdd44"/>
        <path id="パス_746" data-name="パス 746" d="M127.008,288.3,87.254,265.333a5.548,5.548,0,0,1-2.514-4.36v-2.342a5.54,5.54,0,0,1,2.514-4.352l39.754-22.955a5.553,5.553,0,0,1,5.023,0L171.8,254.289a5.548,5.548,0,0,1,2.509,4.352v2.372a5.557,5.557,0,0,1-2.509,4.352L132.039,288.3A5.552,5.552,0,0,1,127.008,288.3Z" transform="translate(-71.803 -166.398)" fill="#455a64"/>
        <path id="パス_747" data-name="パス 747" d="M127.749,320.232a4.053,4.053,0,0,1-.736-.323L87.259,296.942a5.557,5.557,0,0,1-2.509-4.36v-2.346a5.63,5.63,0,0,1,2.036-4.016c-.891.8-.732,1.868.473,2.583l39.565,22.847Z" transform="translate(-71.809 -198.007)" fill="#263238"/>
        <path id="パス_748" data-name="パス 748" d="M229.974,290.233v2.376a5.54,5.54,0,0,1-2.5,4.352L187.72,319.9a5.6,5.6,0,0,1-4.3.314l-.925-8.609.189.108a5.527,5.527,0,0,0,5.023,0l39.771-22.933c1.214-.693,1.369-1.769.473-2.583A5.617,5.617,0,0,1,229.974,290.233Z" transform="translate(-127.479 -197.996)" fill="#37474f"/>
        <path id="パス_749" data-name="パス 749" d="M141.8,192.711l-39.758,22.955a5.2,5.2,0,0,1-2.944.581,2.69,2.69,0,0,1-.43-.047h-.09l-.263-.047h-.034a3.285,3.285,0,0,1-.392-.1,3.74,3.74,0,0,1-.861-.362l-2.057-1.2a7.076,7.076,0,0,1-3.013-4.3l-6.026-33.745a3.793,3.793,0,0,1-.052-.628v-.245a4.579,4.579,0,0,1,.275-1.235,4.485,4.485,0,0,1,1.308-1.89l.172-.129a2.824,2.824,0,0,1,.267-.172l39.754-22.955a5.6,5.6,0,0,1,5.023,0l2.045,1.184a5.6,5.6,0,0,1,1.209.981l.2.224a7.536,7.536,0,0,1,.732.99,2.448,2.448,0,0,1,.142.224l.112.2.155.3c.047.1.095.2.133.3s.069.168.1.25a.7.7,0,0,1,.047.121c.026.073.047.146.069.22s.056.194.077.288a2.093,2.093,0,0,1,.047.211l6.047,33.754a4.412,4.412,0,0,1-2,4.287Z" transform="translate(-72.453 -119.615)" fill="#455a64"/>
        <path id="パス_750" data-name="パス 750" d="M102.308,186.234l6.026,33.75a1.9,1.9,0,0,0,3.013,1.4l39.754-22.95a4.42,4.42,0,0,0,2-4.3l-6.047-33.745a1.9,1.9,0,0,0-3.013-1.408l-39.737,22.95a4.416,4.416,0,0,0-2,4.3Z" transform="translate(-81.788 -125.336)" fill="#37474f"/>
        <path id="パス_751" data-name="パス 751" d="M101.018,250.137a6.07,6.07,0,0,1-1.92.172,2.689,2.689,0,0,1-.43-.047c-.133-.022-.232-.034-.353-.06h-.034a3.288,3.288,0,0,1-.392-.1,3.74,3.74,0,0,1-.861-.362l-2.057-1.188a7.076,7.076,0,0,1-3.013-4.3L85.932,210.5a3.793,3.793,0,0,1-.052-.628v-.245a4.579,4.579,0,0,1,.275-1.235l7.093,4.029a3.994,3.994,0,0,0-.254,2.152l6.026,33.75a1.875,1.875,0,0,0,1.989,1.748A.293.293,0,0,0,101.018,250.137Z" transform="translate(-72.453 -153.677)" fill="#263238"/>
        <g id="freepik--character--inject-40-3" data-name="freepik--character--inject-40" transform="translate(30.473)">
          <g id="freepik--Bottom--inject-40" transform="translate(1.462 71.491)">
            <path id="パス_752" data-name="パス 752" d="M243.532,350.005s-4.558,9.788-4.954,13.718c-.43,4.093-1.472,5.4-.994,9.9.108.981.521,2.953.611,3.749a1.161,1.161,0,0,1-1.123,1.4c-1.8.284-4.6-3.2-5.828-6.913a108.229,108.229,0,0,1-2.905-13,5.655,5.655,0,0,1,.7-2.845,8.876,8.876,0,0,1,.891-1.451c.676-1.756,1.123-5.139,1.722-7.464Z" transform="translate(-185.528 -304.174)" fill="#f28f8f"/>
            <path id="パス_753" data-name="パス 753" d="M219.109,382.72a4.2,4.2,0,0,0-.542,1.321c-.082.818,1.636,3.6,2.316,4.618a6.587,6.587,0,0,1,1.111,4.735,11.327,11.327,0,0,0,2.389,7.438,18.112,18.112,0,0,0,8.669,6.289c4.261,1.554,5.884-.551,5.884-.551s1.442-2.023.68-2.914S219.109,382.72,219.109,382.72Z" transform="translate(-179.961 -324.462)" fill="#263238"/>
            <path id="パス_754" data-name="パス 754" d="M225.046,364.436a.773.773,0,0,0-.719.336c-.138.146-1.02,2.053-1.722,3.043s-2.514,2.841-2.815,4.489c.861,3.254,3.745,5.626,4.05,8.673s.185,6.564,4.657,10.489,9.233,4.545,11,3.646,1.7-2.746-.525-6.366c-2.363-3.844-3.689-11.992-3.689-12-.25-1.42.142-3.775-1.214-4.709a5.319,5.319,0,0,0-2.217-.7,3.752,3.752,0,0,0-2.583.211,3.013,3.013,0,0,0-1.179,1.937,17.531,17.531,0,0,1-.508,2.273c-.09.232-.241.486-.491.512-.37.034-.547-.43-.6-.809q-.43-2.931-.835-5.867c-.138-.951-.275-1.907-.409-2.858A5.957,5.957,0,0,1,225.046,364.436Z" transform="translate(-180.66 -314.047)" fill="#37474f"/>
            <path id="パス_755" data-name="パス 755" d="M265.294,385.68s2.759,11.484,5.225,15.84,3.719,6.456,6.917,9.654c.693.693,2.255,1.971,2.824,2.535a1.159,1.159,0,0,1,0,1.8c-1.222,1.347-6.766,2.044-10.05-.069s-6.482-6.887-8.479-8.639c-.749-.659-1.455-1.334-2.152-2.057s-.538-1.412-.65-2.234c-.056-.4-.077-1.5-.077-1.5-.568-1.924-1.941-4.911-2.69-6.775Z" transform="translate(-201.376 -326.148)" fill="#ffa8a7"/>
            <path id="パス_756" data-name="パス 756" d="M261.37,441.89a4.266,4.266,0,0,0,.241,1.408c.366.732,3.306,2.178,4.42,2.682a6.546,6.546,0,0,1,3.443,3.413,11.376,11.376,0,0,0,5.979,5.027,18.013,18.013,0,0,0,10.687.715c4.425-.964,4.692-3.6,4.692-3.6s.146-2.479-.977-2.828S261.37,441.89,261.37,441.89Z" transform="translate(-204.343 -358.164)" fill="#263238"/>
            <path id="パス_757" data-name="パス 757" d="M261.258,419.92c-.116.06-.34.142-.43.663-.034.2.232,2.281.164,3.491-.077,1.291-.62,3.745,0,5.3,2.445,2.3,6.164,2.772,8.04,5.191s3.65,5.458,9.525,6.4,10.236-1.063,11.251-2.763-.022-3.228-3.835-5.109c-4.042-2-9.5-8.178-9.5-8.2a27.115,27.115,0,0,1-2.075-2.768c-.392-.585-.383-1.179-1.291-1.235a3.254,3.254,0,0,0-1.253.25c-.813.284-1.614.607-2.393.968a1.747,1.747,0,0,0-.96.792,1.816,1.816,0,0,0,.138,1.291l1.593,4.3c-1.791-.861-2.961-2.583-4.158-4.179a12.159,12.159,0,0,0-2.35-2.488,5.926,5.926,0,0,0-1.39-.792c-.181-.069-.659-.108-.788-.241-.06-.065-.1-.357-.151-.379A4.99,4.99,0,0,1,261.258,419.92Z" transform="translate(-203.96 -345.65)" fill="#37474f"/>
            <path id="パス_758" data-name="パス 758" d="M206.583,249.11c5.014,3.151,22.3,11.544,29.48,17.3,2.075,1.661,3.078,4.274,2.109,9.28-1.343,6.934-6.456,21.775-6.456,21.775a25.6,25.6,0,0,0-1.257,4.085L204,274.406Z" transform="translate(-171.666 -248.361)" fill="#fcdd44"/>
            <path id="パス_759" data-name="パス 759" d="M206.583,249.11c5.014,3.151,22.3,11.544,29.48,17.3,2.075,1.661,3.078,4.274,2.109,9.28-1.343,6.934-6.456,21.775-6.456,21.775a25.6,25.6,0,0,0-1.257,4.085L204,274.406Z" transform="translate(-171.666 -248.361)" fill="#fff" opacity="0.4"/>
            <path id="パス_760" data-name="パス 760" d="M230.889,290.553a9.074,9.074,0,0,0-4.141-5.26c-6.418-4.373-15.5-10.718-17.122-11.949.7-1.722,1.868-4.756.59-7.7,0,0-.482,6.456-4.037,9.116l-.039.065c.9,1.218,18.779,25.335,26.523,32.712.086-.228.176-.43.267-.637,0,0,.336-.977.861-2.54C233.1,300.324,231.97,294.633,230.889,290.553Z" transform="translate(-172.885 -257.776)" opacity="0.3"/>
            <path id="パス_761" data-name="パス 761" d="M164.089,247.37h0l-35.209,8.178c1.012,5.729,1.511,8.178,3.474,11.312s5.29,6.456,16.67,11.794c8.574,4.016,19.2,8.41,21.34,9.245,1.614.633,2.01,3.745,3.108,7.713,1.227,4.438,3.3,7.55,5.165,11.213,2.729,5.346,4.773,9.749,4.773,9.749s7.468.034,11.423-3.981c-7.485-27.371-8.04-29.338-8.247-30.009-.9-2.957-.934-3.762-4.9-6.8-3.4-2.6-18.474-12.4-18.474-12.4S168.341,255.346,164.089,247.37Z" transform="translate(-128.88 -247.37)" fill="#fcdd44"/>
            <path id="パス_762" data-name="パス 762" d="M164.089,247.37h0l-35.209,8.178c1.012,5.729,1.511,8.178,3.474,11.312s5.29,6.456,16.67,11.794c8.574,4.016,19.2,8.41,21.34,9.245,1.614.633,2.01,3.745,3.108,7.713,1.227,4.438,3.3,7.55,5.165,11.213,2.729,5.346,4.773,9.749,4.773,9.749s7.468.034,11.423-3.981c-7.485-27.371-8.04-29.338-8.247-30.009-.9-2.957-.934-3.762-4.9-6.8-3.4-2.6-18.474-12.4-18.474-12.4S168.341,255.346,164.089,247.37Z" transform="translate(-128.88 -247.37)" fill="#fff" opacity="0.4"/>
          </g>
          <g id="freepik--Top--inject-40">
            <path id="パス_763" data-name="パス 763" d="M193.67,162.24c6.456.047,9.444,4.012,11.376,9.693s2.948,8.535,4.485,12.977c1.627,4.7-7.1,10.459-9.444,9.138l-4.812-12.409C194.836,177.417,193.67,162.24,193.67,162.24Z" transform="translate(-164.321 -127.391)" fill="#ffa8a7"/>
            <path id="パス_764" data-name="パス 764" d="M192.92,158.58c3.56.172,6.353,1.343,7.653,2.54s2.217,1.558,5.066,10.188c2.057,6.228,2.406,7.657,2.406,7.657a15.266,15.266,0,0,1-12.844,4.872l-1.455-3.443Z" transform="translate(-163.893 -125.306)" fill="#263238"/>
            <path id="パス_765" data-name="パス 765" d="M142.217,156.443l-8.333,2.608s-7.029,5.122-7.748,10.851-.947,8.772-.155,22.791c.43,7.7,2.931,18.81,2.931,18.81s8.062,2.376,21.043-2.294c15.142-5.445,15.142-11.234,15.142-11.234a9.732,9.732,0,0,1-3.31-6.456,122.185,122.185,0,0,1,.056-13.821c.43-11.281-.228-18.018-6.547-19.946C155.319,157.756,146.3,155.862,142.217,156.443Z" transform="translate(-125.483 -124.026)" fill="#fcdd44"/>
            <path id="パス_766" data-name="パス 766" d="M142.217,156.443l-8.333,2.608s-7.029,5.122-7.748,10.851-.947,8.772-.155,22.791c.43,7.7,2.931,18.81,2.931,18.81s8.062,2.376,21.043-2.294c15.142-5.445,15.142-11.234,15.142-11.234a9.732,9.732,0,0,1-3.31-6.456,122.185,122.185,0,0,1,.056-13.821c.43-11.281-.228-18.018-6.547-19.946C155.319,157.756,146.3,155.862,142.217,156.443Z" transform="translate(-125.483 -124.026)" opacity="0.3"/>
            <path id="パス_767" data-name="パス 767" d="M168.225,85.928c-8.54-1.752-15.736,3.874-17.217,9.091-2.311,8.049,5.337,14.264,6.547,18.758l20.8-16.3C178.658,94.179,176.764,87.68,168.225,85.928Z" transform="translate(-139.775 -83.74)" fill="#263238"/>
            <path id="パス_768" data-name="パス 768" d="M162.357,108.288c-2.72-.59-3.366.646-3.525,2.4a25.883,25.883,0,0,1-.43,4.231,3.056,3.056,0,0,1-.43,1.111,1.343,1.343,0,0,1-.981.615c-.534.039-.753-.288-.917-.71a4.09,4.09,0,0,0-1.154-2.247c-.917-.779-3.349-1.61-4.481.956-1.171,2.656,1.046,5.91,2.888,6.736,2.458,1.106,3.874-1.356,3.874-1.356l-1.933,9.654c4.21,6.667,13.894,5.006,11.97,2.307l1.808-4.382a12.009,12.009,0,0,0,3.646-.069c1.631-.314,4.42-1.132,5.311-6.749a72.418,72.418,0,0,0,.164-11.126,12.049,12.049,0,0,0-.8-4.055c-1.132-.951-4.735-.917-6.456.74C168.206,104.556,164.4,104.7,162.357,108.288Z" transform="translate(-139.511 -94.775)" fill="#ffa8a7"/>
            <path id="パス_769" data-name="パス 769" d="M195.119,143.365a2.582,2.582,0,0,0-1.382-.753,2.94,2.94,0,0,0-.727-.073,1.339,1.339,0,0,0-.74.185.245.245,0,0,0-.077.237c0,.069.06.2.146.2a2.633,2.633,0,0,0,.37-.03h.4a2.689,2.689,0,0,1,.641.073,2.656,2.656,0,0,1,.6.22,5.9,5.9,0,0,1,.577.392.164.164,0,0,0,.263-.065.37.37,0,0,0-.069-.387Z" transform="translate(-163.476 -116.169)" fill="#b16668"/>
            <path id="パス_770" data-name="パス 770" d="M179.234,147.554a18.35,18.35,0,0,1-5.849-1.265c-2.372-.968-3.349-1.218-5.385-6.288,0,0,.224,4.485,3.013,6.775,2.2,1.834,7.619,2.264,7.619,2.264Z" transform="translate(-149.7 -114.724)" fill="#f28f8f"/>
            <path id="パス_771" data-name="パス 771" d="M176.927,93.708c-1.1-3.065-4.446-5.385-6.383-.861-2.682-3.831-7.317-3.3-8.32,1.571a16.825,16.825,0,0,0,.31,8.26A6.408,6.408,0,0,1,159.4,97.01a14.738,14.738,0,0,0-.1,4.257s-7.421-.706-9.547-2.961c0,0-1.8-8.393,3.852-10.532.43-3.6,5.905-8.178,15.271-5.875s10.761,7.266,10.761,7.266A11.91,11.91,0,0,0,176.72,87.7a9.947,9.947,0,0,1,3.013,6.5,8.389,8.389,0,0,1-1.778,6.306A28.855,28.855,0,0,0,176.927,93.708Z" transform="translate(-139.154 -81.276)" fill="#37474f"/>
            <path id="パス_772" data-name="パス 772" d="M154.731,93.818,151.77,91.6a1.937,1.937,0,0,1,2.66-.37,1.8,1.8,0,0,1,.3,2.587Z" transform="translate(-140.455 -86.736)" fill="#37474f"/>
            <path id="パス_773" data-name="パス 773" d="M154.866,95.56,151.4,96.851a1.941,1.941,0,0,1,1.128-2.436,1.8,1.8,0,0,1,2.337,1.145Z" transform="translate(-140.185 -88.697)" fill="#37474f"/>
            <path id="パス_774" data-name="パス 774" d="M175.236,96.333a.155.155,0,0,0,.095-.03.146.146,0,0,0,.022-.2c-3.181-3.981-11.669-4.36-14.983-2.333a.144.144,0,1,0,.151.245c3.155-1.928,11.566-1.537,14.6,2.268A.151.151,0,0,0,175.236,96.333Z" transform="translate(-145.314 -87.705)" fill="#263238"/>
            <path id="パス_775" data-name="パス 775" d="M189.283,125.513a1.136,1.136,0,1,1-1.192-1.123,1.154,1.154,0,0,1,1.192,1.123Z" transform="translate(-160.527 -105.832)" fill="#263238"/>
            <path id="パス_776" data-name="パス 776" d="M208.452,124.12a1.119,1.119,0,0,1-1.046,1.2,1.059,1.059,0,0,1-1.162-1.089,1.106,1.106,0,1,1,2.208-.108Z" transform="translate(-171.48 -105.055)" fill="#263238"/>
            <path id="パス_777" data-name="パス 777" d="M198.34,121.43l.5,7.726,4.016-1.7Z" transform="translate(-166.981 -104.147)" fill="#f28f8f"/>
            <path id="パス_778" data-name="パス 778" d="M183.31,117.475l2.221-2.045a1.584,1.584,0,0,1-.1,2.191,1.472,1.472,0,0,1-2.122-.146Z" transform="translate(-158.42 -100.729)" fill="#263238"/>
            <path id="パス_779" data-name="パス 779" d="M207.084,114.45l2.4,1.872a1.459,1.459,0,0,1-2.1.306A1.6,1.6,0,0,1,207.084,114.45Z" transform="translate(-171.791 -100.171)" fill="#263238"/>
            <path id="パス_780" data-name="パス 780" d="M162.408,138.557a2.034,2.034,0,0,1,1.821.693s.8-.521,1.291,0a2.514,2.514,0,0,1,.633,1.188s.835-.585,1.4.082a3.827,3.827,0,0,1,.749,1.438s.745-.284,1.386.689a6.058,6.058,0,0,0,2.419,2.255c.986.43.508,1.037-.572,1.321s-9.577-7.175-9.577-7.175Z" transform="translate(-146.259 -113.879)" fill="#f28f8f"/>
            <path id="パス_781" data-name="パス 781" d="M141.29,217.581c.4.387,8.587-3.8,9.181-8.949C148.3,208.121,140.894,213.217,141.29,217.581Z" transform="translate(-134.477 -153.795)" fill="#263238"/>
            <path id="パス_782" data-name="パス 782" d="M134.982,163.84c-6.357,2.354-7.911,7.476-7.317,12.745.456,3.917,2.875,8.053,7.847,16.18s9.091,5.462,9.091,5.462l1.36-6.026-7.149-17.768S138.443,166.633,134.982,163.84Z" transform="translate(-126.659 -128.302)" fill="#ffa8a7"/>
            <path id="パス_783" data-name="パス 783" d="M156.334,202.924l-1.046-2.634s-3.788,7.128-2,11.772Z" transform="translate(-141.046 -149.063)" fill="#f28f8f"/>
            <path id="パス_784" data-name="パス 784" d="M134.319,162.65c-5.165,1.825-7.046,3.943-7.842,8.479-.538,3.069-.129,5.273,1.24,9.517a71.061,71.061,0,0,0,5.109,10.761c.052-2.557,4.946-8.35,9.177-8.949,0,0-2.432-7.373-3.159-9.383S136.54,165.035,134.319,162.65Z" transform="translate(-125.919 -127.625)" fill="#263238"/>
            <path id="パス_785" data-name="パス 785" d="M166.62,154.366c.71-1.971,1.291-3.667,1.046-4.735-.323-1.442-1.024-1.7-1.024-1.7a2.152,2.152,0,0,0,.77-.28.882.882,0,0,0,.43-.7c.03-.379-.766-.616-1.085-.831a8,8,0,0,1-2.152-2.187,1.369,1.369,0,0,0-.913-.59,2.575,2.575,0,0,0-.964-1.593,1.343,1.343,0,0,0-1.072-.056,2.1,2.1,0,0,0-.887-1.175,1.515,1.515,0,0,0-1.106,0,5.559,5.559,0,0,0-.8-.9,1.679,1.679,0,0,0-1.924.069,4.349,4.349,0,0,0-1.356,2.079,13.274,13.274,0,0,0-.736,2.152,17.907,17.907,0,0,0-.43,2.088,2.772,2.772,0,0,0,.047,1.218c.319.861,4.946,5.695,4.946,5.695-.4,2.837-3.594,15.1-4.967,19.3-1.291,4-.086,10.558,1.812,11.621s4.386,1.248,7.515-3.37C167.227,175.362,164.864,159.239,166.62,154.366Z" transform="translate(-141.669 -114.361)" fill="#ffa8a7"/>
            <path id="パス_786" data-name="パス 786" d="M155.158,236.474c1.2-.43,2.539-1.494,4.029-3.654-.684-.151-1.382-.263-2.062-.344a20.346,20.346,0,0,1-3.276-1,.172.172,0,0,0-.267.129,1.9,1.9,0,0,0,.245,1.623,3.8,3.8,0,0,0,.994.9c.121.082.327.168.766.43.185.112.331.245.3.4-.1.495-1.752.491-2.057.491a9.763,9.763,0,0,1-2.961-.5,3.038,3.038,0,0,1-.667-.28,2.583,2.583,0,0,1-.547-.469,8.457,8.457,0,0,1-.633-.723,11.9,11.9,0,0,0-1.545-1.859,2.583,2.583,0,0,0-1.425-.624v.03C151.03,239.112,155.158,236.474,155.158,236.474Z" transform="translate(-137.197 -166.549)" fill="#f28f8f"/>
            <path id="パス_787" data-name="パス 787" d="M178.221,155.575a3.443,3.443,0,0,1-1.339-.022,2.191,2.191,0,0,1-1.537-.9s-.069-1.851-.263-1.7-.142,1.588-.142,1.588a2.552,2.552,0,0,1-.74-.6c-.392.245.138.676.684,1.02a6.706,6.706,0,0,0,1,.611,5.14,5.14,0,0,0,1.756.336,1.239,1.239,0,0,1,1.016.379C178.466,156.023,178.221,155.575,178.221,155.575Z" transform="translate(-153.154 -122.1)" fill="#b16668"/>
            <path id="パス_788" data-name="パス 788" d="M171.745,148.5c-.069,0-.138.069-.2.056a3.038,3.038,0,0,0-2.118.659,8.8,8.8,0,0,0-1.915,1.993,3.727,3.727,0,0,1,1.291-1.894C169.951,148.285,171.1,148.1,171.745,148.5Z" transform="translate(-149.421 -119.453)" fill="#b16668"/>
            <path id="パス_789" data-name="パス 789" d="M166.84,144.52l-.026.215a7.417,7.417,0,0,0-3.874,3.2s.06-.956,1.588-2.268A5.088,5.088,0,0,1,166.84,144.52Z" transform="translate(-146.818 -117.298)" fill="#b16668"/>
            <path id="パス_790" data-name="パス 790" d="M162.552,141.22a4.2,4.2,0,0,0-1.519,1.265,8.1,8.1,0,0,0-1.532,2.471c.4-.654,1.8-2.759,3.491-3.327A.792.792,0,0,1,162.552,141.22Z" transform="translate(-144.858 -115.419)" fill="#b16668"/>
            <path id="パス_791" data-name="パス 791" d="M163,166.89a7.472,7.472,0,0,0,4.235,1.946,6.129,6.129,0,0,1-2.669-.2Z" transform="translate(-146.852 -130.04)" fill="#b16668"/>
            <path id="パス_792" data-name="パス 792" d="M166.225,170.575c.073-1.941.09-3.874.095-5.828s0-3.874.065-5.837a28.612,28.612,0,0,1,.245-2.91,9.65,9.65,0,0,1,.306-1.433c.133-.473.319-.921.469-1.382a13.093,13.093,0,0,0,.71-2.806,3.056,3.056,0,0,0-.2-1.4,1.937,1.937,0,0,0-.813-1.089h0a.077.077,0,0,1-.034-.1.1.1,0,0,1,.047-.039,1.817,1.817,0,0,0,.8-.323.891.891,0,0,0,.258-.327.482.482,0,0,0,.03-.374,1.782,1.782,0,0,0-.706-.469,4.331,4.331,0,0,1-.779-.508,7.037,7.037,0,0,1-1.291-1.313c-.189-.232-.374-.486-.568-.706a1.08,1.08,0,0,0-.714-.4.086.086,0,0,1-.082-.06,3.9,3.9,0,0,0-.633-1.317,1.1,1.1,0,0,0-.6-.327,1.364,1.364,0,0,0-.693.056.095.095,0,0,1-.121-.06h0a2.066,2.066,0,0,0-.689-1.029,1.291,1.291,0,0,0-1.175-.082.108.108,0,0,1-.112-.03,3.633,3.633,0,0,0-.96-.99,1.562,1.562,0,0,0-1.291,0,2.307,2.307,0,0,0-1.046.887,8.684,8.684,0,0,0-.624,1.27,14.444,14.444,0,0,0-.861,2.7c-.108.461-.2.93-.271,1.4a4.781,4.781,0,0,0-.069.7,1.679,1.679,0,0,0,.073.667h0a4.076,4.076,0,0,0,.508.766c.194.245.4.491.6.727.4.482.822.951,1.244,1.42q1.265,1.4,2.583,2.772a.039.039,0,0,1,0,.043c-.138.912-.344,1.812-.551,2.707s-.43,1.791-.659,2.682l-1.382,5.35,1.317-5.363.628-2.69c.2-.9.4-1.795.538-2.7v.047c-.861-.913-1.722-1.829-2.583-2.763-.43-.465-.861-.938-1.253-1.416-.207-.241-.409-.482-.6-.732a4.184,4.184,0,0,1-.534-.8h0a1.64,1.64,0,0,1-.1-.736,6.555,6.555,0,0,1,.069-.719c.069-.473.159-.943.267-1.412a14.845,14.845,0,0,1,.882-2.729,9.471,9.471,0,0,1,.633-1.291,2.466,2.466,0,0,1,1.089-.964,1.748,1.748,0,0,1,1.459,0,2.049,2.049,0,0,1,.568.478,6.32,6.32,0,0,1,.456.56l-.108-.03a1.722,1.722,0,0,1,.684-.116,1.248,1.248,0,0,1,.671.211,1.661,1.661,0,0,1,.469.512,2.694,2.694,0,0,1,.293.615l-.12-.06a1.588,1.588,0,0,1,.792-.06,1.291,1.291,0,0,1,.7.387,3.994,3.994,0,0,1,.663,1.386l-.082-.065a1.291,1.291,0,0,1,.839.461c.211.241.383.482.572.719a7.029,7.029,0,0,0,1.261,1.291,4.2,4.2,0,0,0,.745.491c.138.065.275.133.43.211a.99.99,0,0,1,.366.331.826.826,0,0,1-.327.9,2.057,2.057,0,0,1-.861.353v-.146a2.045,2.045,0,0,1,.9,1.179,4.11,4.11,0,0,1,.189.719,3.319,3.319,0,0,1,0,.745,13.077,13.077,0,0,1-.727,2.837c-.151.461-.34.913-.473,1.373a9.876,9.876,0,0,0-.306,1.416c-.142.96-.207,1.928-.254,2.9-.077,1.941-.082,3.874-.108,5.832S166.32,168.634,166.225,170.575Z" transform="translate(-142.149 -114.239)" fill="#b16668"/>
            <path id="パス_793" data-name="パス 793" d="M166.069,231.522a47.266,47.266,0,0,1-4.834,2.088,20.015,20.015,0,0,1-5.759.594,26.637,26.637,0,0,1-3.043-.215,9.74,9.74,0,0,1-2.91-1.162,4.132,4.132,0,0,1-2.329-2,8.3,8.3,0,0,0-.456-1.575c-.176-.288-.452-.5-.65-.77a3.443,3.443,0,0,1-.482-1.55,9.1,9.1,0,0,0-.43-1.722,29.7,29.7,0,0,0-1.519-3.6.181.181,0,0,1-.03-.133.2.2,0,0,1,.112-.1,2.217,2.217,0,0,1,2.243.5,11.733,11.733,0,0,1,1.545,1.864q.3.374.633.723a2.693,2.693,0,0,0,.547.465,2.923,2.923,0,0,0,.667.28,9.925,9.925,0,0,0,2.961.508c.306,0,1.954,0,2.062-.491.034-.164-.116-.3-.3-.4-.43-.254-.646-.344-.762-.43a3.693,3.693,0,0,1-1-.9,1.9,1.9,0,0,1-.245-1.623.241.241,0,0,1,.082-.129.232.232,0,0,1,.185,0,19.162,19.162,0,0,0,3.276,1,17.557,17.557,0,0,1,3.37.7,23.883,23.883,0,0,0,2.3.8,3.5,3.5,0,0,0,2.7-.461c1.9-1.05,6.078-4.4,8.307-5.983l8.432-4.963s.585,1.722,1.166,3.783c1.115,3.964.986,4.735-.783,6.422C178.173,225.849,172.538,229.086,166.069,231.522Z" transform="translate(-135.816 -156.2)" fill="#ffa8a7"/>
            <path id="パス_794" data-name="パス 794" d="M143.84,232.526a1.928,1.928,0,0,1,1.476,0,3.3,3.3,0,0,1,1.231.861c.344.374.633.792.934,1.192.146.2.314.387.482.577a6.871,6.871,0,0,0,.508.551,2.733,2.733,0,0,0,1.291.641,10.686,10.686,0,0,0,1.463.318,8.239,8.239,0,0,0,1.494.082,4.563,4.563,0,0,0,1.446-.224c.228-.095.306-.267.1-.43a4.651,4.651,0,0,0-.646-.374,4.049,4.049,0,0,1-.633-.43,2.961,2.961,0,0,1-.555-.534,1.984,1.984,0,0,1-.4-1.476,1.592,1.592,0,0,1,.095-.387.215.215,0,0,1,.215-.133.787.787,0,0,1,.2.047c.241.077.478.164.715.25.473.176.943.362,1.42.508a8.05,8.05,0,0,0,1.468.288,16.313,16.313,0,0,1,2.94.693,16.037,16.037,0,0,0-2.953-.6,8.469,8.469,0,0,1-1.489-.275c-.486-.146-.956-.327-1.429-.495-.237-.086-.473-.168-.715-.237a.542.542,0,0,0-.164-.043c-.043,0-.056,0-.082.056a1.679,1.679,0,0,0-.077.344,1.816,1.816,0,0,0,.383,1.36,2.969,2.969,0,0,0,.534.5,3.816,3.816,0,0,0,.628.4,7.522,7.522,0,0,1,.659.379.577.577,0,0,1,.151.168.314.314,0,0,1,.03.25.5.5,0,0,1-.319.31,4.438,4.438,0,0,1-1.524.224,8.509,8.509,0,0,1-1.515-.095,11.369,11.369,0,0,1-1.481-.34,5.754,5.754,0,0,1-.723-.25,2.053,2.053,0,0,1-.637-.43c-.185-.176-.34-.374-.508-.564a6.966,6.966,0,0,1-.478-.59c-.3-.4-.585-.818-.917-1.192a3.224,3.224,0,0,0-1.179-.9A1.907,1.907,0,0,0,143.84,232.526Z" transform="translate(-135.939 -167.34)" fill="#b16668"/>
            <path id="パス_795" data-name="パス 795" d="M209.55,221.669c1.5-1.145,4.627-2.29,6.887-1.7-1.291-1.382-5.255-.538-6.887.353Z" transform="translate(-173.365 -159.858)" fill="#f28f8f"/>
          </g>
        </g>
        <path id="パス_796" data-name="パス 796" d="M108.382,299.776a2.9,2.9,0,0,1-4.3,2.987l-37.06-21.4a5.316,5.316,0,0,1-2.583-5.527l7.881-18.62H67.583L54.73,294.172a.9.9,0,0,0,1.291,1.076.921.921,0,0,0,.379-.43l3.508-8.294a4.222,4.222,0,0,1,5.243-.8l41.2,23.79a10.21,10.21,0,0,1,4.894,7.063Z" transform="translate(-54.685 -181.489)" fill="#fcdd44"/>
        <path id="パス_797" data-name="パス 797" d="M108.382,299.776a2.9,2.9,0,0,1-4.3,2.987l-37.06-21.4a5.316,5.316,0,0,1-2.583-5.527l7.881-18.62H67.583L54.73,294.172a.9.9,0,0,0,1.291,1.076.921.921,0,0,0,.379-.43l3.508-8.294a4.222,4.222,0,0,1,5.243-.8l41.2,23.79a10.21,10.21,0,0,1,4.894,7.063Z" transform="translate(-54.685 -181.489)" fill="#fff" opacity="0.2"/>
        <path id="パス_798" data-name="パス 798" d="M129.188,287A1.838,1.838,0,0,1,126.3,285.5h0l-.2-2.045.056.607-1.812-18.8a11.983,11.983,0,0,0-4.485-8.385L83.559,228.04l-.719-3.99a10.02,10.02,0,0,0,.861,16.313l30.991,19.58a11.979,11.979,0,0,1,5.41,8.139l7.106,41.945a.733.733,0,0,0,1.455-.181l-1.029-10.666c-.263-3.168.861-6.357,3.616-7.946" transform="translate(-68.561 -162.596)" fill="#fcdd44"/>
        <path id="パス_799" data-name="パス 799" d="M129.188,287A1.838,1.838,0,0,1,126.3,285.5h0l-.2-2.045.056.607-1.812-18.8a11.983,11.983,0,0,0-4.485-8.385L83.559,228.04l-.719-3.99a10.02,10.02,0,0,0,.861,16.313l30.991,19.58a11.979,11.979,0,0,1,5.41,8.139l7.106,41.945a.733.733,0,0,0,1.455-.181l-1.029-10.666c-.263-3.168.861-6.357,3.616-7.946" transform="translate(-68.561 -162.596)" opacity="0.1"/>
      </g>
    </g>
  </g>
</svg>
