<svg xmlns="http://www.w3.org/2000/svg" width="340" height="338.718" viewBox="0 0 340 338.718">
  <g id="Questions-amico" transform="translate(-26.6 -28.873)">
    <g id="freepik--Floor--inject-42" transform="translate(26.6 183.819)">
      <ellipse id="freepik--floor--inject-42-2" data-name="freepik--floor--inject-42" cx="168.963" cy="91.886" rx="168.963" ry="91.886" fill="#f5f5f5"/>
    </g>
    <g id="freepik--Shadows--inject-42" transform="translate(52.776 241.489)">
      <ellipse id="freepik--Shadow--inject-42" cx="25.458" cy="14.703" rx="25.458" ry="14.703" transform="translate(117.329)" fill="#e0e0e0"/>
      <ellipse id="freepik--shadow--inject-42-2" data-name="freepik--shadow--inject-42" cx="40.244" cy="23.234" rx="40.244" ry="23.234" transform="translate(197.484 22.228)" fill="#e0e0e0"/>
      <ellipse id="freepik--shadow--inject-42-3" data-name="freepik--shadow--inject-42" cx="40.244" cy="23.234" rx="40.244" ry="23.234" transform="translate(0 24.739)" fill="#e0e0e0"/>
    </g>
    <g id="freepik--character-2--inject-42" transform="translate(235.618 73.926)">
      <g id="freepik--Character--inject-42" transform="translate(0 39.198)">
        <path id="パス_7" data-name="パス 7" d="M398.972,358.923l-7.049-.809-1.823-14.2,8.615,2.556Z" transform="translate(-324.194 -189.892)" fill="#b16668"/>
        <path id="パス_8" data-name="パス 8" d="M381.369,375.732a2.125,2.125,0,0,0,.121,1.724,8.245,8.245,0,0,0,5.37,2.1,10.717,10.717,0,0,0,6.308-1.1,4.409,4.409,0,0,0,2.36-3.449c.144-1.445,0-2.844.673-3.956s1.649-2.193,1.868-2.753a5.635,5.635,0,0,0,0-2.95Z" transform="translate(-322.035 -195.113)" fill="#263238"/>
        <path id="パス_9" data-name="パス 9" d="M388.355,361.469a5.878,5.878,0,0,1-.3,1.611,14.8,14.8,0,0,1-1.558,3.184,13.034,13.034,0,0,1-1.059,1.513c-.756.915-1.724,1.671-2.541,2.549a5.219,5.219,0,0,0-1.573,3.116c-.106,2,3.071,2.677,4.742,2.972a12.245,12.245,0,0,0,5.415-.272,4.969,4.969,0,0,0,3.646-3.971c.1-.56.06-1.127.129-1.679a7.828,7.828,0,0,1,1.55-3.494A10.354,10.354,0,0,0,398,365.1c.522-1.233.106-2.624-.227-3.85-.287-1.066-.635-2.269-1.013-2.186,0,.552,0,.628-.371,1s-.514,1.187-1.044,1.6a7.646,7.646,0,0,0,.371-1.422.794.794,0,0,0-.113-.56,1.513,1.513,0,0,0-.613-.333,12.617,12.617,0,0,0-2.42-.552,14.868,14.868,0,0,0-3.381,0,1.006,1.006,0,0,0-.6.348,1.233,1.233,0,0,0-.212.681C388.34,360.115,388.371,360.939,388.355,361.469Z" transform="translate(-322.056 -193.496)" fill="#455a64"/>
        <path id="パス_10" data-name="パス 10" d="M387.8,368.748c.756-.56,3.426-.567,4.334-.469a5.491,5.491,0,0,1,2.587.908.59.59,0,0,0,.756-.06h0a.56.56,0,0,0-.06-.847,5.619,5.619,0,0,0-2.9-1.082,15.019,15.019,0,0,0-3.918.227S387.581,368.082,387.8,368.748Z" transform="translate(-323.626 -195.556)" fill="#f5f5f5"/>
        <path id="パス_11" data-name="パス 11" d="M385.55,371.509c.938-.552,3.782-.476,4.7-.378a5.166,5.166,0,0,1,2.511.96.6.6,0,0,0,.756-.06h0a.56.56,0,0,0-.06-.847,10.785,10.785,0,0,0-3.986-1.165c-2.269-.159-2.821.295-2.821.295a1.883,1.883,0,0,0-1.1,1.195Z" transform="translate(-323.085 -196.245)" fill="#f5f5f5"/>
        <path id="パス_12" data-name="パス 12" d="M393.825,364.357a11.012,11.012,0,0,0-3.827.234c-.393.219-.658.847-.4,1.006a10.756,10.756,0,0,1,3.509-.348,7.489,7.489,0,0,1,2.42.666c.2.091.424.2.62.318a.522.522,0,0,0,.756-.227h0a.5.5,0,0,0-.189-.643A7.223,7.223,0,0,0,393.825,364.357Z" transform="translate(-324.047 -194.857)" fill="#f5f5f5"/>
        <path id="パス_13" data-name="パス 13" d="M364.921,350.254l-6.7-1.868V334.84l8.312.363Z" transform="translate(-316.426 -187.681)" fill="#b16668"/>
        <path id="パス_14" data-name="パス 14" d="M339.461,363.382a2.473,2.473,0,0,0,.1,1.777c.25.514,2.965,2.05,6.625,1.8a15.293,15.293,0,0,0,7.563-2.647,8.693,8.693,0,0,1,4.659-1.195c1.815-.1,4.19-1.013,4.591-1.861a4.047,4.047,0,0,0-.06-2.307Z" transform="translate(-311.825 -193.556)" fill="#263238"/>
        <path id="パス_15" data-name="パス 15" d="M354.18,349.582l-.287-.061a1.053,1.053,0,0,0-.484,0,1.021,1.021,0,0,0-.454.3,8.985,8.985,0,0,0-.93,1.475c-.756,1.248-2.382,2.269-4.137,3.23-1.195.643-2.367,1.142-3.6,1.694a29.965,29.965,0,0,0-3.918,1.581,2.64,2.64,0,0,0,0,4.356,12.893,12.893,0,0,0,9.023.628c2.118-.605,4.477-2.866,7.261-3.086,1.77-.144,5.12-.635,6.262-1.982.424-.6-.144-2.488-.605-4.122-.507-1.785-.983-4.538-1.573-4.409a.8.8,0,0,1-.31.666,9.469,9.469,0,0,1-.756.575,4.651,4.651,0,0,0-.983,1.414,1.067,1.067,0,0,1-.5.545c-.3.106-.522-.076-.756-.2a1.513,1.513,0,0,0-1.059-.076,7.123,7.123,0,0,1,.189-1.051.56.56,0,0,0,0-.333.5.5,0,0,0-.227-.257A5.62,5.62,0,0,0,354.18,349.582Z" transform="translate(-311.796 -191.177)" fill="#455a64"/>
        <path id="パス_16" data-name="パス 16" d="M352.9,354.65a1.634,1.634,0,0,1,1.308-.877,4.763,4.763,0,0,1,3.108,1.172.658.658,0,0,1-.091,1.089h0a.65.65,0,0,1-.756-.083,5.067,5.067,0,0,0-3.57-1.3Z" transform="translate(-315.129 -192.289)" fill="#f5f5f5"/>
        <path id="パス_17" data-name="パス 17" d="M349.59,356.532a1.9,1.9,0,0,1,1.55-.8,5.884,5.884,0,0,1,3.411,1.278.643.643,0,0,1-.091,1.051h0a.628.628,0,0,1-.756-.083,5.067,5.067,0,0,0-4.114-1.445Z" transform="translate(-314.323 -192.772)" fill="#f5f5f5"/>
        <path id="パス_18" data-name="パス 18" d="M346,358.219a2.1,2.1,0,0,1,1.6-.719,5.7,5.7,0,0,1,3.267,1.286.65.65,0,0,1-.091,1.059h0a.628.628,0,0,1-.756-.083A4.833,4.833,0,0,0,346,358.219Z" transform="translate(-313.448 -193.203)" fill="#f5f5f5"/>
        <path id="パス_19" data-name="パス 19" d="M389.449,235.958c.461,13.969.492,44.222.492,44.222.144,1.74.295,4.825.424,11.088.189,9.076.628,31.486.628,31.486s-4.334,2.035-8.32.378c0,0-5.536-31.508-6.671-40.494-.991-7.843-2.889-26.237-2.889-26.237L370.5,279.749s0,6.051-.355,11.39c-.295,4.16-4.334,25.586-4.334,25.586a13.886,13.886,0,0,1-8.01-.265s-.363-32.893-.439-36.712c-.083-4.341,1.036-51.279,1.036-51.279Z" transform="translate(-316.215 -161.762)" fill="#455a64"/>
        <path id="パス_20" data-name="パス 20" d="M374.989,261.518l-1-7.919a27.674,27.674,0,0,1-9-4.13s1.921,2.572,7.563,5.294l1.271,7.185-1.437,22.917Z" transform="translate(-318.075 -166.879)" fill="#37474f"/>
        <path id="パス_21" data-name="パス 21" d="M344.785,185.264c-2.042,2.677-12.547,17.093-12.547,17.093l-9.7-7.518c-2.269-1.777-2.942-4.107-4.364-5.718s-2.98-2-4.576-3.343-2.208-2.367-2.753-1.218,1.218,3.154,1.513,3.638,2.118,1.641-.287,1.513-7.034-2.874-8.153-3.381-1.15.877-.62,1.785.265,3.434.885,5.06,1.709,2.624,3.925,3.721c2.065,1.029,7.087,1.671,8.72,2.7h0c3.585,3.676,10.347,10.536,12.056,11.806,2.352,1.747,4.629,3.358,8.229-.106s14.03-17.055,14.03-17.055l2.156-12.926C349.754,181.187,347.25,182.035,344.785,185.264Z" transform="translate(-302.96 -150.268)" fill="#b16668"/>
        <path id="パス_22" data-name="パス 22" d="M341.67,208.889a8.644,8.644,0,0,1,2.844,4.182,6.807,6.807,0,0,0-2.269-4.961Z" transform="translate(-312.393 -156.8)" fill="#9a4a4d"/>
        <path id="パス_23" data-name="パス 23" d="M364.423,180.9s-4.992-.061-7.185,1.475-3.819,3.782-7.382,8.962c-3.124,4.538-4.636,6.716-4.636,6.716a16.745,16.745,0,0,0,8.478,6.474l9.318-11.542Z" transform="translate(-313.258 -150.17)" fill="#37474f"/>
        <path id="パス_24" data-name="パス 24" d="M377.273,180.569c2.829.272,6.807.3,9.605.59,1.944.8,5.7,4.069,5.415,6.4-1.044,8.705-3.154,22.977-3.154,22.977l.7,15.126c-3.9,3.888-22.122,5.408-31.516-.809,0,0,.3-27.167.953-31.766,1.157-8.236,2.171-11.292,6.421-12.018A76.355,76.355,0,0,1,377.273,180.569Z" transform="translate(-316.45 -150.081)" fill="#fe5276"/>
        <path id="パス_25" data-name="パス 25" d="M401.823,185.554c2.042,2.677,12.555,17.093,12.555,17.093l9.711-7.518c2.269-1.785,2.942-4.114,4.364-5.718s2.98-2,4.576-3.343,2.208-2.367,2.753-1.225-1.218,3.161-1.513,3.645-2.118,1.641.287,1.513,7.026-2.882,8.153-3.388,1.142.877.62,1.785-.272,3.441-.885,5.067-1.709,2.617-3.925,3.721c-2.065,1.029-7.087,1.671-8.72,2.7h0c-3.585,3.668-10.346,10.536-12.056,11.8-2.352,1.747-4.629,3.358-8.229-.1s-11.829-14.219-11.829-14.219l-4.356-15.762C396.862,181.477,399.365,182.325,401.823,185.554Z" transform="translate(-324.981 -150.339)" fill="#b16668"/>
        <path id="パス_26" data-name="パス 26" d="M420.244,209.177a8.644,8.644,0,0,0-2.844,4.182,6.807,6.807,0,0,1,2.269-4.969Z" transform="translate(-330.846 -156.869)" fill="#9a4a4d"/>
        <path id="パス_27" data-name="パス 27" d="M392.377,181.1s4.485-.28,6.845,1.513c2.125,1.634,3.782,3.782,7.382,8.962,3.124,4.538,4.636,6.716,4.636,6.716a16.791,16.791,0,0,1-8.486,6.474l-6.346-7.82C393.1,192.76,389.828,186.384,392.377,181.1Z" transform="translate(-324.527 -150.216)" fill="#37474f"/>
        <path id="パス_28" data-name="パス 28" d="M378.657,150.7a8.773,8.773,0,1,1-8.849-8.7,8.773,8.773,0,0,1,8.849,8.7Z" transform="translate(-317.13 -140.691)" fill="#263238"/>
        <path id="パス_29" data-name="パス 29" d="M391.661,161.68a75.842,75.842,0,0,1-1.929,7.79A3.025,3.025,0,0,1,388,170.9l.053-4.7Z" transform="translate(-323.682 -145.486)" fill="#263238"/>
        <path id="パス_30" data-name="パス 30" d="M390.109,149.041a3.275,3.275,0,0,1,2.73.93c1.18,1.187.56,4.939-.862,8.622l-2.677.333Z" transform="translate(-323.999 -142.4)" fill="#263238"/>
        <path id="パス_31" data-name="パス 31" d="M382.093,157.647c.537.318,1.293-.756,1.951-1.422a2.347,2.347,0,0,1,3.91.6c1.1,2.261-.908,5.385-2.6,5.93-2.927.953-3.388-.93-3.388-.93l-.121,10.906h0c-3.6,4.712-13.727,4.4-9.552-.514v-3.222a18.546,18.546,0,0,1-3.948.234c-2.163-.31-3.532-2-4.213-4.334-1.082-3.736-1.513-6.762-.681-14.151.908-8.093,10.309-8.259,15.414-5.105S382.093,157.647,382.093,157.647Z" transform="translate(-317.594 -141.113)" fill="#b16668"/>
        <path id="パス_32" data-name="パス 32" d="M381.713,157.7c.265,0,1.278-1.709,1.944-2.322.915-.855-.34-8.471-.34-8.471a3.706,3.706,0,0,0-.681-4.122c-1.278-1.384-3.063-3.071-8.811-2.345-4.107.522-8.562,1.845-12.184.106a6.149,6.149,0,0,0,2.193,6.5,12.317,12.317,0,0,0,4.757,1.218,50.968,50.968,0,0,0,9.515-.265c1-.144,1.218.817,1.777,3.456C380.374,153.77,380.8,157.7,381.713,157.7Z" transform="translate(-317.206 -140.269)" fill="#263238"/>
        <path id="パス_33" data-name="パス 33" d="M390.3,148.933l3.229-1.77a1.785,1.785,0,0,0-2.466-.794A1.936,1.936,0,0,0,390.3,148.933Z" transform="translate(-324.191 -141.702)" fill="#263238"/>
        <path id="パス_34" data-name="パス 34" d="M375.25,175.763a36.987,36.987,0,0,0,6.482-1.921,5.536,5.536,0,0,0,2.307-2.322,7.563,7.563,0,0,1-1.293,2.723c-1.218,1.588-7.48,2.8-7.48,2.8Z" transform="translate(-320.575 -147.884)" fill="#9a4a4d"/>
        <path id="パス_35" data-name="パス 35" d="M374.74,160.781a.976.976,0,0,0,.968.991,1.006,1.006,0,1,0-.968-.991Z" transform="translate(-320.451 -145.019)" fill="#263238"/>
        <path id="パス_36" data-name="パス 36" d="M377.806,156.406l-2.148-.976a1.24,1.24,0,0,0,.605,1.6,1.157,1.157,0,0,0,1.543-.628Z" transform="translate(-320.651 -143.964)" fill="#263238"/>
        <path id="パス_37" data-name="パス 37" d="M365.778,155.15l-1.868,1.467a1.127,1.127,0,0,0,1.634.234,1.255,1.255,0,0,0,.234-1.7Z" transform="translate(-317.812 -143.895)" fill="#263238"/>
        <path id="パス_38" data-name="パス 38" d="M364.89,160.488a.923.923,0,1,0,.915-.968.938.938,0,0,0-.915.968Z" transform="translate(-318.051 -144.96)" fill="#263238"/>
        <path id="パス_39" data-name="パス 39" d="M370.372,159.77l-.545,5.786-2.987-1.15Z" transform="translate(-318.526 -145.021)" fill="#9a4a4d"/>
        <path id="パス_40" data-name="パス 40" d="M373.68,169.993a.93.93,0,1,0,.93-.923.93.93,0,0,0-.93.923Z" transform="translate(-320.193 -147.287)" fill="#9a4a4d"/>
      </g>
      <g id="freepik--question-marks--inject-42" transform="translate(63.006)">
        <path id="パス_41" data-name="パス 41" d="M400.359,88.728a15.8,15.8,0,0,1,4.13,1.55,11.852,11.852,0,0,1,3.282,2.609,9.356,9.356,0,0,1,1.936,3.54,8.319,8.319,0,0,1,.091,4.251,8.584,8.584,0,0,1-1.3,3.108,10.157,10.157,0,0,1-2.035,2.14,16.58,16.58,0,0,1-2.428,1.566l-2.405,1.271a13.183,13.183,0,0,0-2.057,1.331,3.9,3.9,0,0,0-1.286,1.717,1.792,1.792,0,0,1-.613.756,1.082,1.082,0,0,1-.923.189l-3.54-.756a1.308,1.308,0,0,1-.832-.575,1.074,1.074,0,0,1-.151-.961,8.434,8.434,0,0,1,1.513-3.025,11.906,11.906,0,0,1,2.178-2.1,17.045,17.045,0,0,1,2.488-1.513c.862-.431,1.664-.847,2.405-1.255a10.506,10.506,0,0,0,1.9-1.286,3.025,3.025,0,0,0,1.006-1.664,3.608,3.608,0,0,0-.847-3.237,6.489,6.489,0,0,0-3.714-2.019q-3.963-.885-6.7,2.67a2.443,2.443,0,0,1-.658.658,1.187,1.187,0,0,1-.915.068l-3.782-.84a1.021,1.021,0,0,1-.658-.439.96.96,0,0,1-.144-.809,7.4,7.4,0,0,1,1.739-3.108,11.708,11.708,0,0,1,3.245-2.511,13.939,13.939,0,0,1,4.273-1.422,12.419,12.419,0,0,1,4.8.1Zm-3.993,26.88a1.233,1.233,0,0,1,.8.575,1.248,1.248,0,0,1,.174.968l-.908,4.1a1.293,1.293,0,0,1-1.513.976l-4.009-.885a1.248,1.248,0,0,1-.8-.567,1.225,1.225,0,0,1-.174-.968l.908-4.107a1.293,1.293,0,0,1,1.513-.976Z" transform="translate(-386.265 -88.442)" fill="#fe5276"/>
        <path id="パス_42" data-name="パス 42" d="M418.273,139.765a10.589,10.589,0,0,1,3.025-.061,8.176,8.176,0,0,1,2.776.832,6.459,6.459,0,0,1,2.133,1.755,5.671,5.671,0,0,1,1.142,2.7,5.786,5.786,0,0,1,0,2.322,6.966,6.966,0,0,1-.756,1.9,11.792,11.792,0,0,1-1.15,1.619l-1.218,1.437a9.872,9.872,0,0,0-.983,1.376,2.709,2.709,0,0,0-.378,1.429,1.247,1.247,0,0,1-.2.666.756.756,0,0,1-.537.355l-2.473.408a.93.93,0,0,1-.681-.159.756.756,0,0,1-.34-.575,5.628,5.628,0,0,1,.174-2.314,7.685,7.685,0,0,1,.855-1.914,11.744,11.744,0,0,1,1.2-1.611c.446-.5.847-.968,1.225-1.422a7.389,7.389,0,0,0,.885-1.308,2.088,2.088,0,0,0,.219-1.324,2.488,2.488,0,0,0-1.376-1.861,4.432,4.432,0,0,0-2.889-.348,4.334,4.334,0,0,0-3.615,3.426,1.771,1.771,0,0,1-.257.6.839.839,0,0,1-.567.272l-2.632.431a.756.756,0,0,1-.537-.113.673.673,0,0,1-.3-.484,5.106,5.106,0,0,1,.325-2.435,7.925,7.925,0,0,1,1.437-2.443,9.673,9.673,0,0,1,2.375-2,8.607,8.607,0,0,1,3.116-1.15Zm4.319,18.3a.891.891,0,0,1,1.021.734l.469,2.859a.877.877,0,0,1-.159.666.847.847,0,0,1-.575.355l-2.8.461a.87.87,0,0,1-.658-.159.847.847,0,0,1-.363-.575l-.469-2.866a.9.9,0,0,1,.756-1.021Z" transform="translate(-392.29 -100.913)" fill="#fe5276"/>
        <g id="グループ_10" data-name="グループ 10" transform="translate(18.699 38.71)" opacity="0.2">
          <path id="パス_43" data-name="パス 43" d="M418.273,139.765a10.589,10.589,0,0,1,3.025-.061,8.176,8.176,0,0,1,2.776.832,6.459,6.459,0,0,1,2.133,1.755,5.671,5.671,0,0,1,1.142,2.7,5.786,5.786,0,0,1,0,2.322,6.966,6.966,0,0,1-.756,1.9,11.792,11.792,0,0,1-1.15,1.619l-1.218,1.437a9.872,9.872,0,0,0-.983,1.376,2.709,2.709,0,0,0-.378,1.429,1.247,1.247,0,0,1-.2.666.756.756,0,0,1-.537.355l-2.473.408a.93.93,0,0,1-.681-.159.756.756,0,0,1-.34-.575,5.628,5.628,0,0,1,.174-2.314,7.685,7.685,0,0,1,.855-1.914,11.744,11.744,0,0,1,1.2-1.611c.446-.5.847-.968,1.225-1.422a7.389,7.389,0,0,0,.885-1.308,2.088,2.088,0,0,0,.219-1.324,2.488,2.488,0,0,0-1.376-1.861,4.432,4.432,0,0,0-2.889-.348,4.334,4.334,0,0,0-3.615,3.426,1.771,1.771,0,0,1-.257.6.839.839,0,0,1-.567.272l-2.632.431a.756.756,0,0,1-.537-.113.673.673,0,0,1-.3-.484,5.106,5.106,0,0,1,.325-2.435,7.925,7.925,0,0,1,1.437-2.443,9.673,9.673,0,0,1,2.375-2,8.607,8.607,0,0,1,3.116-1.15Zm4.319,18.3a.891.891,0,0,1,1.021.734l.469,2.859a.877.877,0,0,1-.159.666.847.847,0,0,1-.575.355l-2.8.461a.87.87,0,0,1-.658-.159.847.847,0,0,1-.363-.575l-.469-2.866a.9.9,0,0,1,.756-1.021Z" transform="translate(-410.989 -139.624)"/>
        </g>
        <path id="パス_44" data-name="パス 44" d="M452.662,143.8a1.066,1.066,0,0,1,.25,1.467l-2,2.8a1.066,1.066,0,0,1-1.467.25l-2.738-1.944a1.021,1.021,0,0,1-.424-.681,1.059,1.059,0,0,1,.174-.756l2-2.806a1.052,1.052,0,0,1,.681-.424,1.036,1.036,0,0,1,.756.182Zm11.557-18.976a12.54,12.54,0,0,1,2.617,2.481,9.72,9.72,0,0,1,1.641,3.025,7.678,7.678,0,0,1,.34,3.26,6.807,6.807,0,0,1-1.286,3.23,7.057,7.057,0,0,1-1.966,1.929,8.221,8.221,0,0,1-2.224.961,13.614,13.614,0,0,1-2.322.408l-2.224.189a11.958,11.958,0,0,0-1.966.348,3.237,3.237,0,0,0-1.513.892,1.6,1.6,0,0,1-.711.4.908.908,0,0,1-.756-.159l-2.42-1.717a1.1,1.1,0,0,1-.439-.7.878.878,0,0,1,.189-.756,6.806,6.806,0,0,1,2.08-1.808,9.317,9.317,0,0,1,2.314-.892,14.144,14.144,0,0,1,2.36-.363c.756-.045,1.513-.106,2.208-.174a8.318,8.318,0,0,0,1.838-.371,2.443,2.443,0,0,0,1.286-.93,2.927,2.927,0,0,0,.393-2.708,5.294,5.294,0,0,0-2.148-2.7,5.119,5.119,0,0,0-5.9-.129,2.117,2.117,0,0,1-.7.287.983.983,0,0,1-.719-.242l-2.572-1.83a.87.87,0,0,1-.363-.545.8.8,0,0,1,.159-.65,6,6,0,0,1,2.269-1.792,9.6,9.6,0,0,1,3.245-.855,11.579,11.579,0,0,1,3.668.287,10.074,10.074,0,0,1,3.623,1.619Z" transform="translate(-400.888 -96.833)" fill="#fe5276"/>
        <g id="グループ_11" data-name="グループ 11" transform="translate(45.386 26.046)" opacity="0.6">
          <path id="パス_45" data-name="パス 45" d="M452.662,143.8a1.066,1.066,0,0,1,.25,1.467l-2,2.8a1.066,1.066,0,0,1-1.467.25l-2.738-1.944a1.021,1.021,0,0,1-.424-.681,1.059,1.059,0,0,1,.174-.756l2-2.806a1.052,1.052,0,0,1,.681-.424,1.036,1.036,0,0,1,.756.182Zm11.557-18.976a12.54,12.54,0,0,1,2.617,2.481,9.72,9.72,0,0,1,1.641,3.025,7.678,7.678,0,0,1,.34,3.26,6.807,6.807,0,0,1-1.286,3.23,7.057,7.057,0,0,1-1.966,1.929,8.221,8.221,0,0,1-2.224.961,13.614,13.614,0,0,1-2.322.408l-2.224.189a11.958,11.958,0,0,0-1.966.348,3.237,3.237,0,0,0-1.513.892,1.6,1.6,0,0,1-.711.4.908.908,0,0,1-.756-.159l-2.42-1.717a1.1,1.1,0,0,1-.439-.7.878.878,0,0,1,.189-.756,6.806,6.806,0,0,1,2.08-1.808,9.317,9.317,0,0,1,2.314-.892,14.144,14.144,0,0,1,2.36-.363c.756-.045,1.513-.106,2.208-.174a8.318,8.318,0,0,0,1.838-.371,2.443,2.443,0,0,0,1.286-.93,2.927,2.927,0,0,0,.393-2.708,5.294,5.294,0,0,0-2.148-2.7,5.119,5.119,0,0,0-5.9-.129,2.117,2.117,0,0,1-.7.287.983.983,0,0,1-.719-.242l-2.572-1.83a.87.87,0,0,1-.363-.545.8.8,0,0,1,.159-.65,6,6,0,0,1,2.269-1.792,9.6,9.6,0,0,1,3.245-.855,11.579,11.579,0,0,1,3.668.287,10.074,10.074,0,0,1,3.623,1.619Z" transform="translate(-446.274 -122.879)" fill="#fff"/>
        </g>
      </g>
    </g>
    <g id="freepik--character-1--inject-42" transform="translate(38.868 75.309)">
      <g id="freepik--character--inject-42-2" data-name="freepik--character--inject-42" transform="translate(15.549 41.513)">
        <path id="パス_46" data-name="パス 46" d="M129.5,340.644c-.076-2.269,1.558-24.444,1.558-24.444l-10.8,7.836c2.216,13.221,2.693,16.344,2.73,18.507h0a2,2,0,0,0-.061.552c0,2.572,2.912,3.956,5.173,5.672a42.83,42.83,0,0,0,6.119,3.993c1.641.824,4.984.9,5.393-.159a78.639,78.639,0,0,1-8.947-7.646C129.623,343.806,129.585,342.9,129.5,340.644Z" transform="translate(-77.24 -186.837)" fill="#ffa8a7"/>
        <path id="パス_47" data-name="パス 47" d="M144.742,366.121a2.012,2.012,0,0,1-.461,2.065,9.257,9.257,0,0,1-6.867,1.634,12.053,12.053,0,0,1-6.663-2.572c-1.369-1.15-3.3-2.768-4.856-3.109a9.363,9.363,0,0,1-3.464-1.422c-.461-.446-.4-2.428-.4-2.428Z" transform="translate(-77.671 -197.58)" fill="#263238"/>
        <path id="パス_48" data-name="パス 48" d="M123.4,350.2a.545.545,0,0,0-.522.461c-.106.545-.219,2.133-.446,3.025a16.147,16.147,0,0,0-.333,4.81c.189,1.021,2.534,1.724,4.039,2.269a19.021,19.021,0,0,1,4.871,3.071,13.735,13.735,0,0,0,7.238,2.7c2.647,0,5.627-.877,6.315-2.1.84-1.513.182-2.4-3.744-4.22-.756-.34-3.351-1.891-4.243-2.451a14.6,14.6,0,0,1-5.9-6.3,1.513,1.513,0,0,0-.56-.817,1.256,1.256,0,0,0-.756-.076,6.6,6.6,0,0,0-1.891.575c-.522.25-1.271.545-1.263,1.218a2.337,2.337,0,0,0,.151.681c.045.144.083.325,0,.408s-.265,0-.371-.106a9.975,9.975,0,0,1-1.051-1.271,4.107,4.107,0,0,0-.628-.628,5.953,5.953,0,0,1-.666-.439C123.359,350.805,123.419,350.518,123.4,350.2Z" transform="translate(-77.676 -195.122)" fill="#455a64"/>
        <path id="パス_49" data-name="パス 49" d="M133.21,366.979c-.688-.56-1.414-1.112-2.14-1.6h0s4.614,2.806,6.474,1.513a1.664,1.664,0,0,0,.605-2.133c0-.318,2.935-1.687,4.1-1.823h0c.325.182.6.325.756.4,3.925,1.823,4.583,2.7,3.744,4.22-.688,1.225-2.844,2.186-6.262,2.186A13.887,13.887,0,0,1,133.21,366.979Z" transform="translate(-79.874 -198.226)" fill="#37474f"/>
        <path id="パス_50" data-name="パス 50" d="M135.84,360.738c2.443.976,1.4,1.429.719,1.513s-4.788-2.269-7.3-4.281-4.258-4.334-5.226-5.09c-.363-.28-.756-.628-1.1-.953.068-.537.121-1.029.166-1.286a.545.545,0,0,1,.522-.461c0,.318-.045.613.2.847a5.962,5.962,0,0,0,.666.439,4.106,4.106,0,0,1,.628.628,9.978,9.978,0,0,0,1.051,1.271,31.766,31.766,0,0,0,9.681,7.374Z" transform="translate(-77.891 -195.117)" fill="#263238"/>
        <path id="パス_51" data-name="パス 51" d="M140.642,364.991a.242.242,0,0,1-.151-.06.234.234,0,0,1-.038-.333,5.8,5.8,0,0,1,4.47-1.77.25.25,0,0,1,.219.272.242.242,0,0,1-.265.212,5.385,5.385,0,0,0-4.046,1.588A.25.25,0,0,1,140.642,364.991Z" transform="translate(-82.148 -198.197)" fill="#f5f5f5"/>
        <path id="パス_52" data-name="パス 52" d="M137.837,363.3a.234.234,0,0,1-.159-.053.25.25,0,0,1,0-.34,5.816,5.816,0,0,1,4.47-1.762.243.243,0,0,1-.053.484,5.355,5.355,0,0,0-4.046,1.588A.242.242,0,0,1,137.837,363.3Z" transform="translate(-81.468 -197.787)" fill="#f5f5f5"/>
        <path id="パス_53" data-name="パス 53" d="M135.019,361.613a.235.235,0,0,1-.151-.053.242.242,0,0,1,0-.34,5.824,5.824,0,0,1,4.47-1.762.243.243,0,1,1-.045.484,5.355,5.355,0,0,0-4.046,1.588A.257.257,0,0,1,135.019,361.613Z" transform="translate(-80.783 -197.376)" fill="#f5f5f5"/>
        <path id="パス_54" data-name="パス 54" d="M132.408,359.743a.227.227,0,0,1-.151-.393,5.8,5.8,0,0,1,4.47-1.762.24.24,0,0,1-.053.476,5.408,5.408,0,0,0-4.046,1.588.242.242,0,0,1-.219.091Z" transform="translate(-80.146 -196.92)" fill="#f5f5f5"/>
        <path id="パス_55" data-name="パス 55" d="M129.859,357.858a.28.28,0,0,1-.151-.053.242.242,0,0,1,0-.34,5.914,5.914,0,0,1,4.878-1.785.227.227,0,0,1,.212.265.242.242,0,0,1-.265.212,5.5,5.5,0,0,0-4.447,1.6A.257.257,0,0,1,129.859,357.858Z" transform="translate(-79.525 -196.449)" fill="#f5f5f5"/>
        <path id="パス_56" data-name="パス 56" d="M102.069,329.487l-10.9-.2c.159,7.276,1.316,15.346,1.513,22.168,0,1.286,0,9.983.454,12.631.756,3.971,5.446,3.434,5.7,1.059s-.3-12.532-.287-13.614c-.045-4.372,2-11.761,3.086-19.619C101.675,331.559,102.016,329.865,102.069,329.487Z" transform="translate(-70.152 -190.026)" fill="#ffa8a7"/>
        <path id="パス_57" data-name="パス 57" d="M100.537,378.422a10.884,10.884,0,0,1-.756,5.355A3.434,3.434,0,0,1,96,385.562c-1.611-.234-3.736-1.1-4.387-3.025A12.8,12.8,0,0,1,90.977,377Z" transform="translate(-70.087 -201.652)" fill="#263238"/>
        <path id="パス_58" data-name="パス 58" d="M92.613,357.5c-.643.113-.522,3.252-.582,6.406-.068,3.388-.923,4.871-1.006,7.646-.1,3.177.212,4.538,1.513,6.338s5.362,3.252,7,.348c1.339-2.367,1.157-4.825.7-7.941s-.824-5.476-.945-7.941-.174-4.651-.756-4.856v1.134c0,.34.053,1.513-.31,1.588a5.657,5.657,0,0,1-.1-.885,1.074,1.074,0,0,0-.25-.756,1.24,1.24,0,0,0-.756-.242,16.863,16.863,0,0,0-1.951-.106,5.979,5.979,0,0,0-.976.053,2.45,2.45,0,0,0-.809.2.59.59,0,0,0-.325.348.976.976,0,0,0,0,.363,2.669,2.669,0,0,1,0,.65c0,.1-.068.219-.166.2s-.113-.106-.121-.181c-.045-.378,0-.658-.045-1.1v-.688C92.726,357.886,92.62,357.7,92.613,357.5Z" transform="translate(-70.112 -196.9)" fill="#455a64"/>
        <path id="パス_59" data-name="パス 59" d="M91.059,374.856c0,.461-.1,3.494.756,3.948S93,376.9,93,376.9a7.935,7.935,0,0,1,5.151.174c-.106.5.514,2.057,1.308,1.634s.756-3.88.756-3.925c.431,3.025.567,5.37-.756,7.669-1.641,2.9-5.718,1.437-7-.348s-1.6-3.161-1.513-6.338C90.984,375.446,91.037,375.151,91.059,374.856Z" transform="translate(-70.094 -201.111)" fill="#37474f"/>
        <path id="パス_60" data-name="パス 60" d="M93.576,372.851c.1,1.134-1.051.87-1.263-.756s.287-5.476,0-8.229c.061-3.154-.061-6.293.582-6.406a.575.575,0,0,0,0,.113l.076,1.6a5.18,5.18,0,0,0,0,.681c.212,2.314.34,6.807.348,8.94a38.111,38.111,0,0,0,.257,4.061Z" transform="translate(-70.417 -196.891)" fill="#263238"/>
        <path id="パス_61" data-name="パス 61" d="M100,372.861a36.138,36.138,0,0,0,.219-4.031c0-2.118.136-6.557.348-8.887a5.823,5.823,0,0,0,.1-1.308V357.5c.424.159.575,1.407.666,2.98,0,.915,0,2.05-.083,3.426-.287,2.753.212,6.656,0,8.251S99.923,374,100,372.861Z" transform="translate(-72.302 -196.9)" fill="#263238"/>
        <path id="パス_62" data-name="パス 62" d="M98.832,377.623h-.083a7.729,7.729,0,0,0-5.045,0,.243.243,0,1,1-.174-.454,8.017,8.017,0,0,1,5.393,0,.234.234,0,0,1-.091.454Z" transform="translate(-70.689 -201.58)" fill="#f5f5f5"/>
        <path id="パス_63" data-name="パス 63" d="M99.051,374.3a.174.174,0,0,1-.083,0,9.515,9.515,0,0,0-5.642,0,.242.242,0,0,1-.31-.151.234.234,0,0,1,.151-.3,9.833,9.833,0,0,1,5.967,0,.242.242,0,0,1-.083.469Z" transform="translate(-70.598 -200.772)" fill="#f5f5f5"/>
        <path id="パス_64" data-name="パス 64" d="M93.223,371.127a.25.25,0,0,1-.219-.144.242.242,0,0,1,.121-.318,8.267,8.267,0,0,1,5.952-.038.234.234,0,0,1,.136.31.242.242,0,0,1-.31.136,8.074,8.074,0,0,0-5.574,0,.265.265,0,0,1-.106.053Z" transform="translate(-70.593 -199.969)" fill="#f5f5f5"/>
        <path id="パス_65" data-name="パス 65" d="M93.152,368.157a.238.238,0,0,1-.106-.454,7.48,7.48,0,0,1,6.051-.068.239.239,0,1,1-.2.431,7.185,7.185,0,0,0-5.657.068.266.266,0,0,1-.083.023Z" transform="translate(-70.576 -199.222)" fill="#f5f5f5"/>
        <path id="パス_66" data-name="パス 66" d="M93.081,364.873a.242.242,0,0,1-.106-.461,7.806,7.806,0,0,1,6.119,0,.227.227,0,0,1,.121.318.242.242,0,0,1-.318.121,7.491,7.491,0,0,0-5.7,0A.212.212,0,0,1,93.081,364.873Z" transform="translate(-70.557 -198.427)" fill="#f5f5f5"/>
        <path id="パス_67" data-name="パス 67" d="M94.622,236c-3.842,10.641-3.169,17.32-2.511,28.476.605,10.225,1.566,19.233,1.566,19.233-.151,1.815-2.677,5.355-3.025,13.372a131.333,131.333,0,0,0,.756,16.9s5.03,1.838,9.28,0c0,0,4.349-19.2,5.536-28.589,1.029-8.191,2.829-18.659,2.829-18.659l3.782,18.621a27.515,27.515,0,0,0-1.127,7.707c0,4.379,2.035,16.556,2.035,16.556s5.635,1.823,9.2-1.346c0,0,1.414-17.524,1.913-24.2.666-8.91-.3-33.331-2.443-45.833Z" transform="translate(-70.019 -167.294)" fill="#455a64"/>
        <path id="パス_68" data-name="パス 68" d="M115.05,270.818l1.573-14.007s7.041-.938,10.233-3.94a11.549,11.549,0,0,1-8.32,5.241l-2.269,13.039,2.572,18.288Z" transform="translate(-75.971 -171.405)" fill="#37474f"/>
        <path id="パス_69" data-name="パス 69" d="M133.847,213.22c-3.426-3.524-9.613-11.5-9.613-11.5l-3.494-12.1a22.6,22.6,0,0,0,2.345,0c3.782.25,4.893.575,7.246,3.146,1.868,2.05,8.993,11.776,11.466,15.051l6.572-8.373c1.581-2.382,1.324-5.052,2.14-7s2.14-2.8,3.2-4.538,1.308-2.9,2.178-2-.136,3.32-.265,3.872-1.46,2.193.756,1.339,5.635-4.9,6.512-5.725,1.346.454,1.15,1.467.756,3.3.408,4.969a6.807,6.807,0,0,1-2.345,4.319c-1.6,1.6-5.5,3.577-7.026,5.688s-4.788,8.667-6.807,12.616c-2.534,5.022-4.689,6.678-7.563,4.984S135.11,214.529,133.847,213.22Z" transform="translate(-77.357 -154.898)" fill="#ffa8a7"/>
        <path id="パス_70" data-name="パス 70" d="M121.874,190.88a12.54,12.54,0,0,1,5.7.756c2.05.923,3.441,2.9,5.446,5.589s5.582,7.382,5.582,7.382-.968,4.077-7.351,7.737L120.83,201.612Z" transform="translate(-77.379 -156.284)" fill="#37474f"/>
        <path id="パス_71" data-name="パス 71" d="M147.779,214.879a7.987,7.987,0,0,0-2.382,4.409s-.756-2.428,1.823-5.158Z" transform="translate(-83.34 -161.965)" fill="#f28f8f"/>
        <path id="パス_72" data-name="パス 72" d="M122.411,212.385c4.651-3.827,3.116-8.811,1.422-12.169-3.4-6.709-6.928-9.348-8.4-9.325l-9.25.091c-4.417.605-7.836.3-8.9.552-2.723.643-2.783,2.882-2.889,5.778-.113,3.177-1.74,2.64-.915,7.888a54.174,54.174,0,0,1,2.556,6.013c.5,1.815,1.906,4.7,1.157,7.639-.287,1.134-1.059,2.269-2.216,5.377a58.561,58.561,0,0,0-2.912,10.785s2.7-.628,5.771-3.9c0,0,4.2,5.619,14.295,5.052,10.475-.59,11.4-6.051,11.4-6.051l-1.6-9.832C122.162,216.318,122.268,214.881,122.411,212.385Z" transform="translate(-70.368 -156.302)" fill="#fe5276"/>
        <path id="パス_73" data-name="パス 73" d="M119.895,216.8s-3.782,3.025-8.221,1.573a7.563,7.563,0,0,1-5.135-5.294,6.642,6.642,0,0,0,5.2,6.648A7.261,7.261,0,0,0,119.895,216.8Z" transform="translate(-73.895 -161.709)" opacity="0.1"/>
        <path id="パス_74" data-name="パス 74" d="M87.191,185.157c-1.369-1-8.743,8.872-5.294,11.345s7.125-4.538,6.383-7.851S87.191,185.157,87.191,185.157Z" transform="translate(-67.67 -154.887)" fill="#37474f"/>
        <path id="パス_75" data-name="パス 75" d="M76.207,170.527c1.845-2.556,3.1-4.485,4.788-6.678.953-1.248,1.566-2.133,2.481-3.411.635-.877,1.006-1.619,1.717-1.9a6.051,6.051,0,0,0,2.08-1.513,12.322,12.322,0,0,0,.976-1.293,18.908,18.908,0,0,1,3.782-3.9c1.513-1.172,3.169-2.08,4.712-3.2.915-.666,1.9-1.762.756-2.753a2.715,2.715,0,0,0-1.225-.56c-2.753-.552-5.135.439-7.813,1.172a23.363,23.363,0,0,0-3.4,1.218,5.846,5.846,0,0,0-1.513.9,7.813,7.813,0,0,0-1.513,2.269c-1.172,2.156-3.645,4.077-5.377,5.763-2.035,1.982-3.85,3.782-6.172,5.983-2.087,1.966-4.137,3.782-6.051,5.93-1.581,1.77-.968,3.131-.756,3.593,1.361,2.677,2.844,3.623,4.629,5.294.59.545,1.187,1.082,1.785,1.619,2.314,2.087,4.629,4.039,7.034,6.051,2.572,2.118,3.63,3.146,5.922,5.2a17.01,17.01,0,0,1,3.562,4.636c3.971.658,7.873-5.415,4.47-12.517a7.427,7.427,0,0,0-2.458-2.859C84.428,176.585,76.207,170.527,76.207,170.527Z" transform="translate(-63.38 -145.158)" fill="#ffa8a7"/>
        <path id="パス_76" data-name="パス 76" d="M78.8,178.7a10.453,10.453,0,0,1-4.8,3.411s2.534.605,5.937-2.564Z" transform="translate(-65.968 -153.331)" fill="#f28f8f"/>
        <path id="パス_77" data-name="パス 77" d="M95.2,190.081c-.93-.643-3.192-2.012-7.707-4.9,0,0,.7,1.46-.4,5.128s-3.411,5.99-4.863,6.255c0,0,2.526,2,4.856,4.251s4.243,3.85,5.589,6.467c0,0,3.328-.855,4.084-6.5C97.288,196.827,96.971,192.184,95.2,190.081Z" transform="translate(-67.973 -154.91)" fill="#455a64"/>
        <path id="パス_78" data-name="パス 78" d="M123.374,162.856a9.076,9.076,0,0,0-.613-8.857c-2.866-4.077-7.7-6.051-13.039-5.99h-1.656c-7.208.121-13.758,6.308-13.886,13.273h0c0,4.9,0,9.431,2.7,12.774,2.488,3.108,6.368,4.13,9.643,4.629,6.262.953,13.3.227,16.14-4.039,0,0-3.782.756-3.305-3.161.068-.62-.522-1.3-1.558-2a21,21,0,0,1,2.549-3.517C121.415,164.9,122.648,164.3,123.374,162.856Z" transform="translate(-70.885 -145.852)" fill="#263238"/>
        <path id="パス_79" data-name="パス 79" d="M122.645,169.093c-.038,7.3-2.375,9.136-3.547,9.681s-3.472.257-5.7-.068l.076,4.379s2.609,2.64,2.458,4.651-3.993,2.269-6.905.386a21.6,21.6,0,0,1-4.326-3.782,1.588,1.588,0,0,1-.386-1.006l-.182-10.294s-1.195,1.308-3.373-.129a3.978,3.978,0,0,1-1.127-5.756,2.934,2.934,0,0,1,4.477.461c.666,1.24.605,2.118,1.513,1.974s.945-1.127,1.006-1.83,0-.93.091-1.853c2.156-.461,4.387-3.464,4.636-5.657a10.324,10.324,0,0,0,4.7,1.059c2.413-.166,3.661-.65,4.848-2.39a5.3,5.3,0,0,1,.673,1.293,16.822,16.822,0,0,1,.756,2.866,36.923,36.923,0,0,1,.318,6.013Z" transform="translate(-72.024 -148.511)" fill="#ffa8a7"/>
        <path id="パス_80" data-name="パス 80" d="M115.507,183.964c-2.352-.272-7.2-1.573-7.987-3.464a4.946,4.946,0,0,0,1.732,2.405c1.467,1.21,6.277,2.519,6.277,2.519Z" transform="translate(-74.136 -153.77)" fill="#f28f8f"/>
        <path id="パス_81" data-name="パス 81" d="M120.591,179.578a.961.961,0,1,1-.976-.938A.961.961,0,0,1,120.591,179.578Z" transform="translate(-76.853 -153.316)" fill="#b16668"/>
        <path id="パス_82" data-name="パス 82" d="M118.908,170.068a1.021,1.021,0,0,1-.93,1.112,1.044,1.044,0,1,1,.93-1.112Z" transform="translate(-76.403 -150.991)" fill="#263238"/>
        <path id="パス_83" data-name="パス 83" d="M128.009,169.522a.938.938,0,0,1-.855,1.006.87.87,0,0,1-.976-.885.923.923,0,0,1,.847-1.013.945.945,0,0,1,.983.892Z" transform="translate(-78.681 -150.877)" fill="#263238"/>
        <path id="パス_84" data-name="パス 84" d="M122.37,168.56l.726,6.1,3.124-1.3Z" transform="translate(-77.754 -150.86)" fill="#f28f8f"/>
        <path id="パス_85" data-name="パス 85" d="M114.76,166.344l1.815-1.724a1.316,1.316,0,0,1-.053,1.815,1.218,1.218,0,0,1-1.762-.091Z" transform="translate(-75.9 -149.9)" fill="#263238"/>
        <path id="パス_86" data-name="パス 86" d="M126.7,163.88l2.012,1.513a1.21,1.21,0,0,1-1.74.28A1.331,1.331,0,0,1,126.7,163.88Z" transform="translate(-78.752 -149.72)" fill="#263238"/>
      </g>
      <g id="freepik--question-marks--inject-42-2" data-name="freepik--question-marks--inject-42" transform="translate(0 0)">
        <path id="パス_87" data-name="パス 87" d="M85.121,90.542a15.376,15.376,0,0,1,4.4-.2,11.784,11.784,0,0,1,4.046,1.1,9.31,9.31,0,0,1,3.161,2.466,8.32,8.32,0,0,1,1.755,3.865,8.448,8.448,0,0,1,0,3.373,9.952,9.952,0,0,1-1.029,2.768,16.124,16.124,0,0,1-1.611,2.39c-.605.756-1.18,1.452-1.717,2.125a13.614,13.614,0,0,0-1.361,2.027,3.91,3.91,0,0,0-.507,2.087,1.906,1.906,0,0,1-.25.968,1.1,1.1,0,0,1-.756.537l-3.562.673a1.286,1.286,0,0,1-.983-.2,1.044,1.044,0,0,1-.522-.824,8.32,8.32,0,0,1,.166-3.358,11.761,11.761,0,0,1,1.172-2.791,16.64,16.64,0,0,1,1.687-2.36c.628-.756,1.195-1.437,1.717-2.1a10.959,10.959,0,0,0,1.24-1.929,3.025,3.025,0,0,0,.265-1.921,3.585,3.585,0,0,0-2.05-2.647,6.489,6.489,0,0,0-4.205-.4q-3.978.756-5.105,5.1a2.746,2.746,0,0,1-.348.862,1.24,1.24,0,0,1-.824.424l-3.782.719a1.082,1.082,0,0,1-.756-.144,1.021,1.021,0,0,1-.446-.7,7.412,7.412,0,0,1,.378-3.54,11.693,11.693,0,0,1,1.936-3.608,14.257,14.257,0,0,1,3.373-3.025,12.54,12.54,0,0,1,4.515-1.74Zm6.905,26.282a1.316,1.316,0,0,1,1.513,1.029l.756,4.13a1.218,1.218,0,0,1-.2.961,1.263,1.263,0,0,1-.817.545l-4.031.756a1.233,1.233,0,0,1-.968-.2,1.263,1.263,0,0,1-.545-.817l-.756-4.13a1.248,1.248,0,0,1,.212-.961,1.21,1.21,0,0,1,.817-.545Z" transform="translate(-50.625 -90.27)" fill="#fe5276"/>
        <path id="パス_88" data-name="パス 88" d="M135,112.795a10.521,10.521,0,0,1,2.42,1.845,7.934,7.934,0,0,1,1.656,2.375,6.5,6.5,0,0,1,.582,2.7,5.687,5.687,0,0,1-.756,2.829,6.051,6.051,0,0,1-1.475,1.8,7.056,7.056,0,0,1-1.777,1.006,11.343,11.343,0,0,1-1.913.56l-1.845.363a8.767,8.767,0,0,0-1.619.476,2.662,2.662,0,0,0-1.187.877,1.286,1.286,0,0,1-.567.4.756.756,0,0,1-.643-.053l-2.186-1.225a.915.915,0,0,1-.439-.545.756.756,0,0,1,.091-.666,5.718,5.718,0,0,1,1.573-1.7,8.093,8.093,0,0,1,1.861-.968,12.1,12.1,0,0,1,1.944-.514c.658-.113,1.271-.227,1.845-.348a8.01,8.01,0,0,0,1.513-.476,2.148,2.148,0,0,0,1-.9,2.5,2.5,0,0,0,.076-2.314,4.462,4.462,0,0,0-2.05-2.072,4.334,4.334,0,0,0-4.961.439,1.785,1.785,0,0,1-.567.31.855.855,0,0,1-.62-.136l-2.329-1.3a.756.756,0,0,1-.348-.424.7.7,0,0,1,.068-.567,5.166,5.166,0,0,1,1.762-1.709,8.032,8.032,0,0,1,2.647-1.013,9.643,9.643,0,0,1,3.109-.1A8.66,8.66,0,0,1,135,112.795Zm-7.972,16.979a.885.885,0,0,1,.424.537.862.862,0,0,1-.076.673l-1.414,2.534a.892.892,0,0,1-1.21.348l-2.473-1.384a.809.809,0,0,1-.416-.537.84.84,0,0,1,.068-.673l1.414-2.534a.877.877,0,0,1,.537-.416.832.832,0,0,1,.673.076Z" transform="translate(-62.072 -95.483)" fill="#fe5276"/>
        <g id="グループ_12" data-name="グループ 12" transform="translate(59.753 16.179)" opacity="0.2">
          <path id="パス_89" data-name="パス 89" d="M135,112.795a10.521,10.521,0,0,1,2.42,1.845,7.934,7.934,0,0,1,1.656,2.375,6.5,6.5,0,0,1,.582,2.7,5.687,5.687,0,0,1-.756,2.829,6.051,6.051,0,0,1-1.475,1.8,7.056,7.056,0,0,1-1.777,1.006,11.343,11.343,0,0,1-1.913.56l-1.845.363a8.767,8.767,0,0,0-1.619.476,2.662,2.662,0,0,0-1.187.877,1.286,1.286,0,0,1-.567.4.756.756,0,0,1-.643-.053l-2.186-1.225a.915.915,0,0,1-.439-.545.756.756,0,0,1,.091-.666,5.718,5.718,0,0,1,1.573-1.7,8.093,8.093,0,0,1,1.861-.968,12.1,12.1,0,0,1,1.944-.514c.658-.113,1.271-.227,1.845-.348a8.01,8.01,0,0,0,1.513-.476,2.148,2.148,0,0,0,1-.9,2.5,2.5,0,0,0,.076-2.314,4.462,4.462,0,0,0-2.05-2.072,4.334,4.334,0,0,0-4.961.439,1.785,1.785,0,0,1-.567.31.855.855,0,0,1-.62-.136l-2.329-1.3a.756.756,0,0,1-.348-.424.7.7,0,0,1,.068-.567,5.166,5.166,0,0,1,1.762-1.709,8.032,8.032,0,0,1,2.647-1.013,9.643,9.643,0,0,1,3.109-.1A8.66,8.66,0,0,1,135,112.795Zm-7.972,16.979a.885.885,0,0,1,.424.537.862.862,0,0,1-.076.673l-1.414,2.534a.892.892,0,0,1-1.21.348l-2.473-1.384a.809.809,0,0,1-.416-.537.84.84,0,0,1,.068-.673l1.414-2.534a.877.877,0,0,1,.537-.416.832.832,0,0,1,.673.076Z" transform="translate(-121.826 -111.662)"/>
        </g>
        <path id="パス_90" data-name="パス 90" d="M62.477,143.973a1.029,1.029,0,0,1,.756-.28,1.059,1.059,0,0,1,.756.333l2.329,2.526a1.066,1.066,0,0,1-.061,1.513l-2.466,2.269a1.066,1.066,0,0,1-1.513-.061l-2.329-2.526a1.059,1.059,0,0,1,.061-1.513Zm-16.185-15.24a12.653,12.653,0,0,1,2.965-2.065,9.733,9.733,0,0,1,3.282-.983,7.8,7.8,0,0,1,3.26.333,6.807,6.807,0,0,1,2.9,1.929,6.973,6.973,0,0,1,1.513,2.322,8.2,8.2,0,0,1,.484,2.367,13.615,13.615,0,0,1-.076,2.36c-.1.756-.189,1.513-.272,2.216a11.208,11.208,0,0,0-.068,2,3.176,3.176,0,0,0,.56,1.671,1.513,1.513,0,0,1,.242.756.87.87,0,0,1-.3.7L58.6,144.358a1.082,1.082,0,0,1-.756.28.862.862,0,0,1-.719-.34,6.936,6.936,0,0,1-1.346-2.405,9.515,9.515,0,0,1-.393-2.443,13.864,13.864,0,0,1,.136-2.39c.113-.756.2-1.513.28-2.193a8.751,8.751,0,0,0,0-1.883,2.458,2.458,0,0,0-.643-1.445,2.942,2.942,0,0,0-2.572-.945,5.347,5.347,0,0,0-3.086,1.513,5.159,5.159,0,0,0-1.339,5.756,2.186,2.186,0,0,1,.136.756.976.976,0,0,1-.386.643l-2.322,2.148a.862.862,0,0,1-.605.242.809.809,0,0,1-.605-.287,5.975,5.975,0,0,1-1.308-2.594,9.484,9.484,0,0,1-.174-3.351,11.466,11.466,0,0,1,1.044-3.532,10.15,10.15,0,0,1,2.352-3.154Z" transform="translate(-42.821 -98.888)" fill="#fe5276"/>
        <g id="グループ_13" data-name="グループ 13" transform="translate(0 26.749)" opacity="0.6">
          <path id="パス_91" data-name="パス 91" d="M62.477,143.973a1.029,1.029,0,0,1,.756-.28,1.059,1.059,0,0,1,.756.333l2.329,2.526a1.066,1.066,0,0,1-.061,1.513l-2.466,2.269a1.066,1.066,0,0,1-1.513-.061l-2.329-2.526a1.059,1.059,0,0,1,.061-1.513Zm-16.185-15.24a12.653,12.653,0,0,1,2.965-2.065,9.733,9.733,0,0,1,3.282-.983,7.8,7.8,0,0,1,3.26.333,6.807,6.807,0,0,1,2.9,1.929,6.973,6.973,0,0,1,1.513,2.322,8.2,8.2,0,0,1,.484,2.367,13.615,13.615,0,0,1-.076,2.36c-.1.756-.189,1.513-.272,2.216a11.208,11.208,0,0,0-.068,2,3.176,3.176,0,0,0,.56,1.671,1.513,1.513,0,0,1,.242.756.87.87,0,0,1-.3.7L58.6,144.358a1.082,1.082,0,0,1-.756.28.862.862,0,0,1-.719-.34,6.936,6.936,0,0,1-1.346-2.405,9.515,9.515,0,0,1-.393-2.443,13.864,13.864,0,0,1,.136-2.39c.113-.756.2-1.513.28-2.193a8.751,8.751,0,0,0,0-1.883,2.458,2.458,0,0,0-.643-1.445,2.942,2.942,0,0,0-2.572-.945,5.347,5.347,0,0,0-3.086,1.513,5.159,5.159,0,0,0-1.339,5.756,2.186,2.186,0,0,1,.136.756.976.976,0,0,1-.386.643l-2.322,2.148a.862.862,0,0,1-.605.242.809.809,0,0,1-.605-.287,5.975,5.975,0,0,1-1.308-2.594,9.484,9.484,0,0,1-.174-3.351,11.466,11.466,0,0,1,1.044-3.532,10.15,10.15,0,0,1,2.352-3.154Z" transform="translate(-42.821 -125.638)" fill="#fff"/>
        </g>
      </g>
    </g>
    <g id="freepik--question-mark--inject-42" transform="translate(151.967 28.873)">
      <g id="freepik--big-question-mark--inject-42">
        <path id="パス_92" data-name="パス 92" d="M260.151,216.5c-2.156-1.233-11.231-6.482-14.317-8.267-.613-.348-1-.575-1.029-.6a7.246,7.246,0,0,0-5.045-.756,13.153,13.153,0,0,0-4.175,1.626c-.212.121-.424.265-.628.4-3.487,2.2-6.482,5.665-8.978,10.43a32.333,32.333,0,0,0-3.971,15.126q0,7.518,4.009,10.551a8.09,8.09,0,0,0,.847.552c2.5,1.422,15.058,8.7,15.338,8.857h.068a7.054,7.054,0,0,1-.885-.575q-4.016-3.025-4.009-10.543a32.333,32.333,0,0,1,3.971-15.126q3.956-7.563,9.6-10.838,5.37-3.1,9.273-.809Z" transform="translate(-199.584 -72.21)" fill="#fe5276"/>
        <path id="パス_93" data-name="パス 93" d="M261.679,216.536q-3.9-2.269-9.273.8-5.241,3.025-9.038,9.832L228,218.268a25.439,25.439,0,0,1,8.41-9.4c.2-.129.416-.28.628-.4a12.948,12.948,0,0,1,4.175-1.619,7.2,7.2,0,0,1,5.045.756l1.029.6c3.086,1.777,12.162,7.026,14.317,8.259Z" transform="translate(-201.043 -72.201)" opacity="0.4"/>
        <path id="パス_94" data-name="パス 94" d="M242.272,258.124H242.2c-.28-.159-12.858-7.435-15.338-8.857a8.09,8.09,0,0,1-.847-.552q-4.009-3.025-4.009-10.543a32.288,32.288,0,0,1,3.971-15.126c.182-.355.371-.7.567-1.036l15.361,8.872c-.189.333-.378.681-.56,1.029a32.333,32.333,0,0,0-3.971,15.126q0,7.518,4.009,10.543A7.053,7.053,0,0,0,242.272,258.124Z" transform="translate(-199.584 -75.936)" opacity="0.3"/>
        <path id="パス_95" data-name="パス 95" d="M246.225,43.382q11.186-6.467,19.044-5.5A15.883,15.883,0,0,1,271.32,39.9a1.606,1.606,0,0,1-.151-.091c-1.8-1.013-12.646-7.268-15.126-8.728a15.815,15.815,0,0,0-6.172-2.057q-7.866-.961-19.052,5.491-17.4,10.036-27.984,29.5t-10.475,39.73l15.361,8.872q-.159-20.285,10.475-39.737T246.225,43.382Z" transform="translate(-192.358 -28.879)" fill="#fe5276"/>
        <path id="パス_96" data-name="パス 96" d="M274.3,39.807a16.193,16.193,0,0,0-5.93-1.929q-7.851-.968-19.044,5.5-17.4,10.029-27.984,29.5c-.295.537-.582,1.082-.862,1.619l-15.4-8.887c.28-.537.567-1.082.862-1.619q10.634-19.445,27.984-29.5,11.2-6.459,19.052-5.491a15.822,15.822,0,0,1,6.172,2.065C261.653,32.539,272.5,38.8,274.3,39.807Z" transform="translate(-195.458 -28.873)" opacity="0.2"/>
        <path id="パス_97" data-name="パス 97" d="M217.343,86.312a80,80,0,0,0-9.613,38.111l-15.361-8.872a80.089,80.089,0,0,1,9.613-38.111Z" transform="translate(-192.361 -40.708)" opacity="0.3"/>
        <path id="パス_98" data-name="パス 98" d="M264.643,81.033q-4.182-2.224-11.171,1.74a27.848,27.848,0,0,1-1.694,8.108q-1.747,4.7-10.165,19.407A129.307,129.307,0,0,0,229,139.322a102.966,102.966,0,0,0-3.887,27.984l.076,4.712,10.483,6.051,4.886,2.821-.083-4.719v-.06a103.321,103.321,0,0,1,3.888-27.893,128.98,128.98,0,0,1,12.623-29.028q8.41-14.7,10.157-19.415a27.621,27.621,0,0,0,1.755-9.711Q268.894,83.294,264.643,81.033Z" transform="translate(-200.339 -41.388)" fill="#fe5276"/>
        <path id="パス_99" data-name="パス 99" d="M265.634,107.724q-2.6,5.415-8.652,15.989a128.667,128.667,0,0,0-12.623,29.035,103.269,103.269,0,0,0-3.887,27.916v.121l.083,4.719-4.886-2.814-10.483-6.051-.076-4.719A103.011,103.011,0,0,1,229,143.936,129.306,129.306,0,0,1,241.613,114.9q6.051-10.589,8.667-15.981Z" transform="translate(-200.339 -45.942)" opacity="0.3"/>
        <path id="パス_100" data-name="パス 100" d="M277,90.063a27.621,27.621,0,0,1-1.747,9.681q-.488,1.327-1.513,3.426L258.39,94.306q1.006-2.1,1.513-3.426a27.849,27.849,0,0,0,1.694-8.108q6.988-3.963,11.171-1.74T277,90.063Z" transform="translate(-208.449 -41.388)" opacity="0.4"/>
        <path id="パス_101" data-name="パス 101" d="M233.471,103.431l-20.791,12.01Q212.52,95.157,223.154,75.7t27.984-29.5q11.186-6.467,19.044-5.5t12.578,8.615q4.727,7.646,4.727,19.075a61.655,61.655,0,0,1-1.513,13.145,98.957,98.957,0,0,1-4.757,15.126q-1.906,4.81-9.129,17.758-6.905,12.343-8.652,16.8a60.1,60.1,0,0,0-2.866,10.868,114,114,0,0,0-1.513,16.745l-21.5,12.419-.083-4.719a103.011,103.011,0,0,1,3.887-27.984,128.981,128.981,0,0,1,12.623-29.028q8.41-14.7,10.157-19.415a27.622,27.622,0,0,0,1.724-9.711q0-6.807-4.243-9.031t-11.39,1.861a32.18,32.18,0,0,0-11.988,12.661,36.3,36.3,0,0,0-4.772,17.539Z" transform="translate(-197.309 -31.727)" fill="#fe5276"/>
        <path id="パス_102" data-name="パス 102" d="M255.846,220.255q5.786-3.35,9.878-.416t4.092,10.445a32.446,32.446,0,0,1-4.046,15.195Q261.73,253.155,256,256.46t-9.726.272q-4.009-3.025-4.009-10.551a32.332,32.332,0,0,1,3.971-15.126Q250.211,223.507,255.846,220.255Z" transform="translate(-204.521 -75.073)" fill="#fe5276"/>
      </g>
    </g>
  </g>
</svg>
