<svg xmlns="http://www.w3.org/2000/svg" xmlns:xlink="http://www.w3.org/1999/xlink" width="376.939" height="282.569" viewBox="0 0 376.939 282.569">
  <defs>
    <clipPath id="clip-path">
      <rect id="長方形_130" data-name="長方形 130" width="282.491" height="159.642" fill="#fff" stroke="#263238" stroke-miterlimit="10" stroke-width="0.69"/>
    </clipPath>
    <clipPath id="clip-path-2">
      <path id="パス_1753" data-name="パス 1753" d="M81.516,299.75a22.187,22.187,0,0,1-2.45,5.824c-1.849,3.06-2.607,5.2-8.265,5.353s-8.57,4.77-10.992,18.517-3.827,28.926.305,38.568,16.335,8.7,24.3,5.815,9.8-11.935,9.947-21.724.157-25.256-1.377-33.067-5.963-9.485-7.959-10.095.619-4.289.619-4.289Z" transform="translate(-57.488 -299.75)" fill="#fff" stroke="#263238" stroke-linecap="round" stroke-linejoin="round" stroke-width="0.485"/>
    </clipPath>
    <clipPath id="clip-path-3">
      <path id="パス_1757" data-name="パス 1757" d="M88.074,309.632a11.839,11.839,0,0,0-1.775-.693c-1.988-.61.619-4.289.619-4.289l-4.132-4.9a22.187,22.187,0,0,1-2.45,5.824c-1.562,2.6-2.357,4.53-6.037,5.149a16.909,16.909,0,0,1,2.514,5.547c.924,3.984,2.9,10.409,6.582,8.884C86.891,323.7,89.544,315.318,88.074,309.632Z" transform="translate(-74.3 -299.75)" fill="#fff" stroke="#263238" stroke-linecap="round" stroke-linejoin="round" stroke-width="0.485"/>
    </clipPath>
    <clipPath id="clip-path-4">
      <path id="パス_1763" data-name="パス 1763" d="M72.626,311.62a23.444,23.444,0,0,1-5.14.046,11.269,11.269,0,0,0-8.57,3.078c-2.45,2.441-4.622,10.4-5.547,12.4a30.627,30.627,0,0,0-1.22,2.9l11.324,4.9,4.742-13.469" transform="translate(-52.15 -311.62)" fill="#fff" stroke="#263238" stroke-linecap="round" stroke-linejoin="round" stroke-width="0.485"/>
    </clipPath>
    <clipPath id="clip-path-5">
      <ellipse id="楕円形_14" data-name="楕円形 14" cx="13.395" cy="7.691" rx="13.395" ry="7.691" transform="matrix(0.244, -0.97, 0.97, 0.244, 0, 25.98)" fill="#fff" stroke="#263238" stroke-linecap="round" stroke-linejoin="round" stroke-width="0.485"/>
    </clipPath>
    <clipPath id="clip-path-6">
      <rect id="長方形_137" data-name="長方形 137" width="64.637" height="104.582" fill="#fff" stroke="#263238" stroke-miterlimit="10" stroke-width="0.528"/>
    </clipPath>
    <clipPath id="clip-path-7">
      <rect id="長方形_144" data-name="長方形 144" width="94.191" height="174.452" transform="translate(174.452) rotate(90)" fill="#fff" stroke="#263238" stroke-miterlimit="10" stroke-width="0.651"/>
    </clipPath>
  </defs>
  <g id="Devices-bro" transform="matrix(0.985, -0.174, 0.174, 0.985, -92.358, -96)">
    <g id="freepik--Shadow--inject-1--inject-336" transform="translate(55.527 373.623)">
      <ellipse id="楕円形_10" data-name="楕円形 10" cx="173.009" cy="10.289" rx="173.009" ry="10.289" fill="#8e8e8e"/>
      <ellipse id="楕円形_11" data-name="楕円形 11" cx="173.009" cy="10.289" rx="173.009" ry="10.289" fill="#fff" opacity="0.6"/>
    </g>
    <g id="freepik--Laptop--inject-1--inject-336" transform="translate(52.005 165.91)">
      <path id="パス_1741" data-name="パス 1741" d="M89.77,165.91h288.1a9.67,9.67,0,0,1,9.67,9.67V365.46H80.11V175.58a9.67,9.67,0,0,1,9.66-9.67Z" transform="translate(-54.54 -165.91)" fill="#8e8e8e" stroke="#263238" stroke-miterlimit="10" stroke-width="0.921"/>
      <rect id="長方形_129" data-name="長方形 129" width="282.491" height="159.642" transform="translate(38.041 15.595)" fill="#fff"/>
      <g id="グループ_53" data-name="グループ 53" transform="translate(38.041 15.595)" clip-path="url(#clip-path)">
        <path id="パス_1742" data-name="パス 1742" d="M380.081,344.332V208.06L146.41,344.332Z" transform="translate(-97.59 -184.69)" fill="#8e8e8e" opacity="0.4" style="mix-blend-mode: multiply;isolation: isolate"/>
      </g>
      <rect id="長方形_131" data-name="長方形 131" width="282.491" height="159.642" transform="translate(38.041 15.595)" fill="none" stroke="#263238" stroke-miterlimit="10" stroke-width="0.69"/>
      <rect id="長方形_132" data-name="長方形 132" width="211.281" height="10.409" transform="translate(74.344 189.945)" fill="#8e8e8e" stroke="#263238" stroke-miterlimit="10" stroke-width="0.692"/>
      <rect id="長方形_133" data-name="長方形 133" width="211.281" height="5.399" transform="translate(74.344 194.965)" fill="#8e8e8e" stroke="#263238" stroke-miterlimit="10" stroke-width="0.692"/>
      <path id="パス_1743" data-name="パス 1743" d="M53.21,389.32s3.476,4.243,13.867,7.71H397.9s7.71-1.932,11.186-7.331Z" transform="translate(-52.507 -182.79)" fill="#8e8e8e" stroke="#263238" stroke-miterlimit="10" stroke-width="0.921"/>
      <rect id="長方形_134" data-name="長方形 134" width="357.325" height="8.107" rx="2.7" transform="translate(0 198.931)" fill="#8e8e8e" stroke="#263238" stroke-miterlimit="10" stroke-width="0.921"/>
      <circle id="楕円形_12" data-name="楕円形 12" cx="2.699" cy="2.699" r="2.699" transform="translate(176.522 3.337)" fill="#263238"/>
      <path id="パス_1744" data-name="パス 1744" d="M202.114,169.3H134.63a1.35,1.35,0,0,1-1.35-1.35h0a1.35,1.35,0,0,1,1.35-1.35h67.484a1.359,1.359,0,0,1,1.35,1.35h0a1.35,1.35,0,0,1-1.35,1.35Z" transform="translate(-58.557 -165.962)" fill="#8e8e8e" stroke="#263238" stroke-miterlimit="10" stroke-width="0.692"/>
      <path id="パス_1745" data-name="パス 1745" d="M351,169.3H283.52a1.35,1.35,0,0,1-1.35-1.35h0a1.359,1.359,0,0,1,1.35-1.35H351a1.35,1.35,0,0,1,1.35,1.35h0A1.35,1.35,0,0,1,351,169.3Z" transform="translate(-69.807 -165.962)" fill="#8e8e8e" stroke="#263238" stroke-miterlimit="10" stroke-width="0.692"/>
      <path id="パス_1746" data-name="パス 1746" d="M409.747,224.706h0a.777.777,0,0,1-.777-.767V201.577a.786.786,0,0,1,.777-.777h0a.776.776,0,0,1,.767.777v22.362A.767.767,0,0,1,409.747,224.706Z" transform="translate(-79.388 -168.546)" fill="#8e8e8e" stroke="#263238" stroke-miterlimit="10" stroke-width="0.692"/>
      <path id="パス_1747" data-name="パス 1747" d="M83.177,224.706h0a.767.767,0,0,1-.767-.767V201.577a.777.777,0,0,1,.767-.777h0a.786.786,0,0,1,.777.777v22.362A.777.777,0,0,1,83.177,224.706Z" transform="translate(-54.714 -168.546)" fill="#8e8e8e" stroke="#263238" stroke-miterlimit="10" stroke-width="0.692"/>
    </g>
    <g id="freepik--Character--inject-1--inject-336" transform="translate(46.562 267.8)">
      <path id="パス_1748" data-name="パス 1748" d="M100.691,328.141s.157,6.277,1.22,9.642a54.267,54.267,0,0,0,2.773,6.73s-3.975,2.145-5.815,2.3-4.28-8.117-4.28-13.774S96.716,325.691,100.691,328.141Z" transform="translate(-50.191 -279.975)" fill="#fff" stroke="#263238" stroke-linecap="round" stroke-linejoin="round" stroke-width="0.485"/>
      <path id="パス_1749" data-name="パス 1749" d="M89.028,310.433s6.471-.24,8.939,1.6,3.365,9.947,4.132,13.164l.767,3.217a35.763,35.763,0,0,1-5.547,1.682,16.093,16.093,0,0,0-2.145.305s-1.951-11.13-4.243-14.384a42.162,42.162,0,0,0-3.827-4.752S86.07,310.027,89.028,310.433Z" transform="translate(-49.612 -278.714)" fill="#fff" stroke="#263238" stroke-linecap="round" stroke-linejoin="round" stroke-width="0.485"/>
      <path id="パス_1750" data-name="パス 1750" d="M81.516,299.75a22.187,22.187,0,0,1-2.45,5.824c-1.849,3.06-2.607,5.2-8.265,5.353s-8.57,4.77-10.992,18.517-3.827,28.926.305,38.568,16.335,8.7,24.3,5.815,9.8-11.935,9.947-21.724.157-25.256-1.377-33.067-5.963-9.485-7.959-10.095.619-4.289.619-4.289Z" transform="translate(-47.388 -277.913)" fill="#fff"/>
      <g id="グループ_54" data-name="グループ 54" transform="translate(10.1 21.837)" clip-path="url(#clip-path-2)">
        <path id="パス_1751" data-name="パス 1751" d="M65.659,332.24s-1.35,3.7,1.045,6.573,8.32,1.5,7.174,2.838-6.277,3-7.174,4.336a2.126,2.126,0,0,0-.148,2.394s-4.715.841-5.047.046,2.773-11.935,2.773-11.935Z" transform="translate(-57.79 -302.205)" fill="#8e8e8e" opacity="0.4" style="mix-blend-mode: multiply;isolation: isolate"/>
        <path id="パス_1752" data-name="パス 1752" d="M66.789,354.23s-3.282,3.587-3.134,4.622,3.134-1.34,2.542.148-3.143,3.892-3.892,5.084a20.286,20.286,0,0,1-3.7,3.309l-1.054-8.089-.2-1.414Z" transform="translate(-57.477 -303.866)" fill="#8e8e8e" opacity="0.4" style="mix-blend-mode: multiply;isolation: isolate"/>
      </g>
      <path id="パス_1754" data-name="パス 1754" d="M81.516,299.75a22.187,22.187,0,0,1-2.45,5.824c-1.849,3.06-2.607,5.2-8.265,5.353s-8.57,4.77-10.992,18.517-3.827,28.926.305,38.568,16.335,8.7,24.3,5.815,9.8-11.935,9.947-21.724.157-25.256-1.377-33.067-5.963-9.485-7.959-10.095.619-4.289.619-4.289Z" transform="translate(-47.388 -277.913)" fill="none" stroke="#263238" stroke-linecap="round" stroke-linejoin="round" stroke-width="0.485"/>
      <path id="パス_1755" data-name="パス 1755" d="M88.074,309.632a11.839,11.839,0,0,0-1.775-.693c-1.988-.61.619-4.289.619-4.289l-4.132-4.9a22.187,22.187,0,0,1-2.45,5.824c-1.562,2.6-2.357,4.53-6.037,5.149a16.909,16.909,0,0,1,2.514,5.547c.924,3.984,2.9,10.409,6.582,8.884C86.891,323.7,89.544,315.318,88.074,309.632Z" transform="translate(-48.658 -277.913)" fill="#fff"/>
      <g id="グループ_55" data-name="グループ 55" transform="translate(25.642 21.837)" clip-path="url(#clip-path-3)">
        <path id="パス_1756" data-name="パス 1756" d="M78.543,310.855a10.169,10.169,0,0,1-3.2,1.516l-.924-1.581s3.818.471,7.636-8.32h0a12.646,12.646,0,0,0,3.439,4.188l-4.558.582" transform="translate(-74.309 -299.956)" fill="#8e8e8e" opacity="0.4" style="mix-blend-mode: multiply;isolation: isolate"/>
      </g>
      <path id="パス_1758" data-name="パス 1758" d="M88.074,309.632a11.839,11.839,0,0,0-1.775-.693c-1.988-.61.619-4.289.619-4.289l-4.132-4.9a22.187,22.187,0,0,1-2.45,5.824c-1.562,2.6-2.357,4.53-6.037,5.149a16.909,16.909,0,0,1,2.514,5.547c.924,3.984,2.9,10.409,6.582,8.884C86.891,323.7,89.544,315.318,88.074,309.632Z" transform="translate(-48.658 -277.913)" fill="none" stroke="#263238" stroke-linecap="round" stroke-linejoin="round" stroke-width="0.485"/>
      <line id="線_12" data-name="線 12" y1="3.91" x2="4.4" transform="translate(18.348 46.538)" fill="none" stroke="#263238" stroke-linecap="round" stroke-linejoin="round" stroke-width="0.485"/>
      <path id="パス_1759" data-name="パス 1759" d="M71.89,311.84s1.294,1.775,2.274,6.915,3.91,9.79,6.85,10.76,4.4,0,4.4,0" transform="translate(-48.476 -278.826)" fill="none" stroke="#263238" stroke-linecap="round" stroke-linejoin="round" stroke-width="0.485"/>
      <path id="パス_1760" data-name="パス 1760" d="M55.959,330.22s-2.293,20.338-2.45,23.869,1.22,2.607,3.522,2,15.457-6.471,18.489-7.507,3.522-1.377,5.972-1.072a61.015,61.015,0,0,0,6.471.619c1.535,0-.157-3.522-2.45-4.132s-2.145-.462-4.742.148-6.739,2.45-11.176,3.365-8.265,1.23-8.717.767S63.65,334.5,63.65,334.5Z" transform="translate(-47.086 -280.215)" fill="#fff" stroke="#263238" stroke-linecap="round" stroke-linejoin="round" stroke-width="0.485"/>
      <path id="パス_1761" data-name="パス 1761" d="M72.626,311.62a23.444,23.444,0,0,1-5.14.046,11.269,11.269,0,0,0-8.57,3.078c-2.45,2.441-4.622,10.4-5.547,12.4a30.627,30.627,0,0,0-1.22,2.9l11.324,4.9,4.742-13.469" transform="translate(-46.984 -278.81)" fill="#fff"/>
      <g id="グループ_56" data-name="グループ 56" transform="translate(5.166 32.81)" clip-path="url(#clip-path-4)">
        <path id="パス_1762" data-name="パス 1762" d="M72.525,311.51a56.909,56.909,0,0,1-6.7.324,9.171,9.171,0,0,0-7.026,3.439c-2.1,2.394-6.4,14.671-6.4,14.671l2.635,1.128s2.866-13.4,6.148-15.494a17.111,17.111,0,0,1,9.568-2.394c.924,0,1.96-.065,2.616-.129Z" transform="translate(-52.169 -311.612)" fill="#8e8e8e" opacity="0.4" style="mix-blend-mode: multiply;isolation: isolate"/>
      </g>
      <path id="パス_1764" data-name="パス 1764" d="M72.626,311.62a23.444,23.444,0,0,1-5.14.046,11.269,11.269,0,0,0-8.57,3.078c-2.45,2.441-4.622,10.4-5.547,12.4a30.627,30.627,0,0,0-1.22,2.9l11.324,4.9,4.742-13.469" transform="translate(-46.984 -278.81)" fill="none" stroke="#263238" stroke-linecap="round" stroke-linejoin="round" stroke-width="0.485"/>
      <path id="パス_1765" data-name="パス 1765" d="M58.73,366.64s4.622-4.16,7.83-4.4" transform="translate(-47.481 -282.634)" fill="none" stroke="#263238" stroke-linecap="round" stroke-linejoin="round" stroke-width="0.485"/>
      <path id="パス_1766" data-name="パス 1766" d="M67.19,360.08a59.592,59.592,0,0,0-6.61,3.42" transform="translate(-47.621 -282.471)" fill="none" stroke="#263238" stroke-linecap="round" stroke-linejoin="round" stroke-width="0.485"/>
      <ellipse id="楕円形_13" data-name="楕円形 13" cx="13.395" cy="7.691" rx="13.395" ry="7.691" transform="matrix(0.244, -0.97, 0.97, 0.244, 30.04, 26.809)" fill="#fff"/>
      <g id="グループ_57" data-name="グループ 57" transform="translate(30.04 0.829)" clip-path="url(#clip-path-5)">
        <path id="パス_1767" data-name="パス 1767" d="M85.95,306.03a8.4,8.4,0,0,1-.712-5.094c.749-2.385,4.779-5.066,4.779-5.066s-1.849.444-3.7.73-4.41.7-4.41.7l.638,4.474C83.408,303.792,84.452,305.438,85.95,306.03Z" transform="translate(-79.272 -278.449)" fill="#8e8e8e" opacity="0.4" style="mix-blend-mode: multiply;isolation: isolate"/>
      </g>
      <ellipse id="楕円形_15" data-name="楕円形 15" cx="13.395" cy="7.691" rx="13.395" ry="7.691" transform="matrix(0.244, -0.97, 0.97, 0.244, 30.04, 26.809)" fill="none" stroke="#263238" stroke-linecap="round" stroke-linejoin="round" stroke-width="0.485"/>
      <path id="パス_1768" data-name="パス 1768" d="M82.071,302.69c-.7,1.387-2.884,5.713-5.14,7.137a7.516,7.516,0,0,1-2.062.924" transform="translate(-48.701 -278.135)" fill="#8e8e8e" opacity="0.4" style="mix-blend-mode: multiply;isolation: isolate"/>
      <path id="パス_1769" data-name="パス 1769" d="M86.467,327.23s.6,8.514,0,10.613-2.986,1.941-1.793,3.134a25.66,25.66,0,0,0,4.188,2.838l2.089,2.1.471-3.18s-1.5.453-3-4.779A64.266,64.266,0,0,1,86.467,327.23Z" transform="translate(-49.417 -279.989)" fill="#8e8e8e" opacity="0.4" style="mix-blend-mode: multiply;isolation: isolate"/>
      <path id="パス_1770" data-name="パス 1770" d="M94.116,297.14a5.546,5.546,0,0,0-.924,2.357v.73a.675.675,0,0,1-.721.73l-1.1-.083" transform="translate(-49.948 -277.716)" fill="none" stroke="#263238" stroke-linecap="round" stroke-linejoin="round" stroke-width="0.485"/>
      <path id="パス_1771" data-name="パス 1771" d="M89.069,303.444a2.015,2.015,0,0,1-2.209-1.664" transform="translate(-49.607 -278.066)" fill="none" stroke="#263238" stroke-linecap="round" stroke-linejoin="round" stroke-width="0.485"/>
      <path id="パス_1772" data-name="パス 1772" d="M90.846,296.84l-.555,1.109a1.627,1.627,0,0,1-1.941-.416" transform="translate(-49.719 -277.693)" fill="none" stroke="#263238" stroke-linecap="round" stroke-linejoin="round" stroke-width="0.485"/>
      <path id="パス_1773" data-name="パス 1773" d="M95.672,298.64l-.823,1.109s-1.109,0-1.109-.832" transform="translate(-50.127 -277.829)" fill="none" stroke="#263238" stroke-linecap="round" stroke-linejoin="round" stroke-width="0.485"/>
      <path id="パス_1774" data-name="パス 1774" d="M96.489,287.1c1.849-5.445-2.653-11.093-9.374-10.973s-11.426,6.693-13.654,11.2a32.688,32.688,0,0,0-5.325,7.016c-2.773,4.742-2.773,7.5-4.9,10.557s-8.412,3.217-12.092,7.2-3.7,8.57-1.988,11.629,2.773,7.035.61,9.79-4.28,6.471-2.6,12.711a7.017,7.017,0,0,0,5.9,5.4,6.471,6.471,0,0,1-.083-1.581c.12-2.773,1.525-15.54,2.145-21.188L51.765,327.4a31.381,31.381,0,0,1,1.22-2.9c.915-1.978,3.06-9.956,5.547-12.4a11.269,11.269,0,0,1,8.57-3.069,23.448,23.448,0,0,0,5.14-.046,6.4,6.4,0,0,0,4.9-3.393h0l.24-.4v-.046c.259-.425.518-.878.8-1.35a23.314,23.314,0,0,0,1.7-3.5,15.355,15.355,0,0,1-.74-4.474c3.014-.1,11.352-.841,15.568-5.8a10.347,10.347,0,0,0,.684-.924,22.4,22.4,0,0,1-.666,4.622,18.7,18.7,0,0,1-5.057,9.171l-.444.379-.277.222c-.139.1-.268.2-.407.287a2.764,2.764,0,0,1-.305.194,4.274,4.274,0,0,1-.388.231l-.324.166-.388.166-.324.12-.388.12-.324.083a4.723,4.723,0,0,1-2.1,0l-.268-.092a2.718,2.718,0,0,0-.268,1.8.925.925,0,0,0,.675.629h0a11.569,11.569,0,0,1,1.729.675,79.039,79.039,0,0,1-1.849,11.093c-1.535,6.425.148,12.545,1.988,16.982s7.5,7.192,9.485,4.622,1.377-5.353.157-11.482S91.22,314.1,91.22,307.358s3.975-8.875,5.972-12.85C98.625,291.633,97.349,288.6,96.489,287.1Z" transform="translate(-46.562 -276.128)" fill="#263238"/>
      <path id="パス_1775" data-name="パス 1775" d="M96.8,285.77s-7.063,6.184-13.867,6.85-7.506.656-7.506.656" transform="translate(-48.743 -276.857)" fill="none" stroke="#fff" stroke-linecap="round" stroke-linejoin="round" stroke-width="0.346"/>
      <path id="パス_1776" data-name="パス 1776" d="M95.31,280.75s-6.406,7.294-11.7,9.06-7.506,1.766-7.506,1.766" transform="translate(-48.794 -276.477)" fill="none" stroke="#fff" stroke-linecap="round" stroke-linejoin="round" stroke-width="0.346"/>
      <path id="パス_1777" data-name="パス 1777" d="M92.333,277.89s-1.766,5.547-5.963,8.172" transform="translate(-49.57 -276.261)" fill="none" stroke="#fff" stroke-linecap="round" stroke-linejoin="round" stroke-width="0.346"/>
      <path id="パス_1778" data-name="パス 1778" d="M77.759,300.34s-.222,7.072-4.2,8.172-8.385-1.1-13.469,1.544a11.093,11.093,0,0,0-5.741,11.232" transform="translate(-47.143 -277.957)" fill="none" stroke="#fff" stroke-linecap="round" stroke-linejoin="round" stroke-width="0.346"/>
      <path id="パス_1779" data-name="パス 1779" d="M52.507,353.746a12.656,12.656,0,0,1-1.766-10.594,40.148,40.148,0,0,1,3.088-8.172" transform="translate(-46.842 -280.575)" fill="none" stroke="#fff" stroke-linecap="round" stroke-linejoin="round" stroke-width="0.346"/>
      <path id="パス_1780" data-name="パス 1780" d="M94.612,312.76s1.1,8.394-2.653,13.691-1.322,12.591-1.322,12.591" transform="translate(-49.834 -278.896)" fill="none" stroke="#fff" stroke-linecap="round" stroke-linejoin="round" stroke-width="0.346"/>
      <path id="パス_1781" data-name="パス 1781" d="M94.632,304.4s.222,2.431-2.875,8.616-3.975,8.172-4.2,12.591" transform="translate(-49.66 -278.264)" fill="none" stroke="#fff" stroke-linecap="round" stroke-linejoin="round" stroke-width="0.346"/>
      <path id="パス_1782" data-name="パス 1782" d="M118.062,380.065s4.964-.481,7.839.795,3.522,3.356,4.16,1.442.638-3.041-1.756-4.317-3.365-.481-4.317-1.442a6.97,6.97,0,0,0-1.6-1.276s-2.561-.324-2.727,1.119-2.551,1.914-2.551,1.914Z" transform="translate(-51.893 -283.616)" fill="#fff" stroke="#263238" stroke-miterlimit="10" stroke-width="0.485"/>
      <path id="パス_1783" data-name="パス 1783" d="M134.4,339.675c-1.683-3.827-8.7-1.2-16.834,5.353-10.529,8.486-18.711,10.465-23.111,10.807V355.7c-2.293-1.072-5.547-1.119-9.42-.49-.12-.176-.24-.351-.351-.536C77.291,343.2,75.349,341.21,72.9,343.2s-5.2,5.047-4.289,14.541a13.867,13.867,0,0,0,.425,2.209A61.478,61.478,0,0,0,58.7,366.17a27.43,27.43,0,0,0,1.5,4.724c4.114,9.614,16.3,8.736,24.257,5.842a23.573,23.573,0,0,0,7.728,2.579c6.3.786,10.566.555,13.062-.4l4.234,3.457a66.227,66.227,0,0,0,16.64-18.489,93.812,93.812,0,0,0,5.6-11.093C134.356,346.83,135.253,341.6,134.4,339.675Z" transform="translate(-47.479 -280.795)" fill="#263238"/>
      <path id="パス_1784" data-name="パス 1784" d="M86.54,355.31a40.988,40.988,0,0,0,2.884,3.966l28.741-5.158-9.05-7.248L83.48,350.623C84.358,351.973,85.384,353.544,86.54,355.31Z" transform="translate(-49.352 -281.473)" fill="#8e8e8e" stroke="#263238" stroke-linecap="round" stroke-linejoin="round" stroke-width="0.485"/>
      <path id="パス_1785" data-name="パス 1785" d="M86.54,355.31a40.988,40.988,0,0,0,2.884,3.966l28.741-5.158-9.05-7.248L83.48,350.623C84.358,351.973,85.384,353.544,86.54,355.31Z" transform="translate(-49.352 -281.473)" fill="#fff" stroke="#263238" stroke-linecap="round" stroke-linejoin="round" stroke-width="0.528" opacity="0.5"/>
      <path id="パス_1786" data-name="パス 1786" d="M93.344,337.23,88.87,356.985c.314.416.638.823.924,1.22l28.778-5.186,5.685-20.689Z" transform="translate(-49.759 -280.374)" fill="#8e8e8e" stroke="#263238" stroke-linecap="round" stroke-linejoin="round" stroke-width="0.485"/>
      <path id="パス_1787" data-name="パス 1787" d="M109.244,349.589a2.94,2.94,0,1,1,2.006-3.7A3,3,0,0,1,109.244,349.589Z" transform="translate(-51.015 -281.243)" fill="#fff"/>
      <path id="パス_1788" data-name="パス 1788" d="M93.344,337.23,88.87,356.985c.314.416.638.823.924,1.22l28.778-5.186,5.685-20.689Z" transform="translate(-49.759 -280.374)" fill="#96ffdd" stroke="#263238" stroke-linecap="round" stroke-linejoin="round" stroke-width="0.528" opacity="0.999"/>
      <path id="パス_1789" data-name="パス 1789" d="M109.244,349.589a2.94,2.94,0,1,1,2.006-3.7A3,3,0,0,1,109.244,349.589Z" transform="translate(-51.015 -281.243)" fill="#fff" stroke="#263238" stroke-linecap="round" stroke-linejoin="round" stroke-width="0.528"/>
      <path id="パス_1790" data-name="パス 1790" d="M106.6,380.3s-3.957,2.94-6.185,4.16-2.94.8-5.075,2.838-3.947,3.448-4.456,4.262-1.119,1.618-1.424-.2a5.4,5.4,0,0,1,2.034-4.973c1.414-1.017,3.346-1.424,3.346-2.773a2.265,2.265,0,0,1,2.025-2.431c1.119,0,1.849,1.109,3.957,0a9.744,9.744,0,0,0,3.448-3.652Z" transform="translate(-49.799 -283.79)" fill="#fff" stroke="#263238" stroke-miterlimit="10" stroke-width="0.485"/>
      <path id="パス_1791" data-name="パス 1791" d="M70.14,362.85s4.373,10.455,14.449,15.207" transform="translate(-48.344 -282.68)" fill="none" stroke="#fff" stroke-miterlimit="10" stroke-width="0.346"/>
      <path id="パス_1792" data-name="パス 1792" d="M106.91,370.559s6.258-3.134,15.429-18.979" transform="translate(-51.122 -281.829)" fill="none" stroke="#fff" stroke-miterlimit="10" stroke-width="0.346"/>
      <path id="パス_1793" data-name="パス 1793" d="M88.76,359.35s6.628,9.716,14.357,13.025" transform="translate(-49.75 -282.416)" fill="none" stroke="#fff" stroke-miterlimit="10" stroke-width="0.346"/>
    </g>
    <g id="freepik--Mobile--inject-1--inject-336" transform="translate(140.678 245.819)">
      <rect id="長方形_135" data-name="長方形 135" width="70.942" height="134.007" rx="7.67" fill="#263238"/>
      <rect id="長方形_136" data-name="長方形 136" width="64.637" height="104.582" transform="translate(3.152 14.717)" fill="#fff"/>
      <g id="グループ_58" data-name="グループ 58" transform="translate(3.152 14.717)" clip-path="url(#clip-path-6)">
        <path id="パス_1794" data-name="パス 1794" d="M216.775,343.38,156.52,378.518h60.255Z" transform="translate(-152.138 -273.945)" fill="#8e8e8e" opacity="0.4" style="mix-blend-mode: multiply;isolation: isolate"/>
      </g>
      <rect id="長方形_138" data-name="長方形 138" width="64.637" height="104.582" transform="translate(3.152 14.717)" fill="none" stroke="#263238" stroke-miterlimit="10" stroke-width="0.528"/>
      <path id="パス_1795" data-name="パス 1795" d="M193.116,260.2H179.064a.924.924,0,0,1-.924-.924h0a.924.924,0,0,1,.924-.924h14.052a.924.924,0,0,1,.924.924h0A.924.924,0,0,1,193.116,260.2Z" transform="translate(-150.619 -252.803)" fill="#8e8e8e"/>
      <path id="パス_1796" data-name="パス 1796" d="M193.116,260.2H179.064a.924.924,0,0,1-.924-.924h0a.924.924,0,0,1,.924-.924h14.052a.924.924,0,0,1,.924.924h0A.924.924,0,0,1,193.116,260.2Z" transform="translate(-150.619 -252.803)" fill="#fff" opacity="0.4"/>
      <path id="パス_1797" data-name="パス 1797" d="M190.263,387.466a3.836,3.836,0,1,0-3.836,3.836A3.836,3.836,0,0,0,190.263,387.466Z" transform="translate(-150.956 -262.269)" fill="#8e8e8e" stroke="#263238" stroke-miterlimit="10" stroke-width="0.704"/>
      <rect id="長方形_139" data-name="長方形 139" width="3.883" height="3.883" transform="translate(33.53 123.256)" fill="#8e8e8e" stroke="#263238" stroke-linecap="round" stroke-linejoin="round" stroke-width="0.528"/>
      <rect id="長方形_140" data-name="長方形 140" width="3.883" height="3.883" transform="translate(33.53 123.256)" fill="#fff" stroke="#263238" stroke-linecap="round" stroke-linejoin="round" stroke-width="0.528" opacity="0.6"/>
      <rect id="長方形_141" data-name="長方形 141" width="3.883" height="3.883" transform="translate(33.53 123.256)" fill="none" stroke="#263238" stroke-linecap="round" stroke-linejoin="round" stroke-width="0.528"/>
    </g>
    <g id="freepik--Tablet--inject-1--inject-336" transform="translate(201.303 276.769)">
      <rect id="長方形_142" data-name="長方形 142" width="103.38" height="195.27" rx="11.18" transform="translate(195.27 0.009) rotate(90)" fill="#8e8e8e" stroke="#263238" stroke-miterlimit="10" stroke-width="0.869"/>
      <rect id="長方形_143" data-name="長方形 143" width="94.191" height="174.452" transform="translate(184.861 4.604) rotate(90)" fill="#fff"/>
      <g id="グループ_59" data-name="グループ 59" transform="translate(10.409 4.604)" clip-path="url(#clip-path-7)">
        <path id="パス_1798" data-name="パス 1798" d="M403.37,311.26,274.29,386.537H403.37Z" transform="translate(-228.918 -292.355)" fill="#8e8e8e" opacity="0.4" style="mix-blend-mode: multiply;isolation: isolate"/>
      </g>
      <rect id="長方形_145" data-name="長方形 145" width="94.191" height="174.452" transform="translate(184.861 4.604) rotate(90)" fill="none" stroke="#263238" stroke-miterlimit="10" stroke-width="0.651"/>
      <path id="パス_1799" data-name="パス 1799" d="M418.884,343.047a1.424,1.424,0,1,1,1.424-1.414A1.424,1.424,0,0,1,418.884,343.047Z" transform="translate(-229.327 -289.938)" fill="#263238"/>
      <rect id="長方形_146" data-name="長方形 146" width="6.924" height="0.943" rx="0.37" transform="translate(170.865 0.952) rotate(180)" fill="#8e8e8e" stroke="#263238" stroke-miterlimit="10" stroke-width="0.653"/>
      <path id="パス_1800" data-name="パス 1800" d="M367.781,286.773h11.953a.472.472,0,0,0,.481-.471h0a.471.471,0,0,0-.481-.471H367.781a.471.471,0,0,0-.472.471h0A.472.472,0,0,0,367.781,286.773Z" transform="translate(-225.537 -285.83)" fill="#8e8e8e" stroke="#263238" stroke-miterlimit="10" stroke-width="0.653"/>
    </g>
  </g>
</svg>
