<svg xmlns="http://www.w3.org/2000/svg" width="273.275" height="201.492" viewBox="0 0 273.275 201.492">
  <g id="Discussion-rafiki" transform="translate(-65.94 -149.528)">
    <g id="freepik--character-3--inject-1" transform="translate(230.286 198.89)">
      <path id="パス_1189" data-name="パス 1189" d="M354.57,350.89h24.606a91.044,91.044,0,0,1-9.488,3.2v3.985H364.05V354.09A90.639,90.639,0,0,1,354.57,350.89Z" transform="translate(-303.115 -249.699)" fill="#263238"/>
      <path id="パス_1190" data-name="パス 1190" d="M399.011,331.27H390.6a54.3,54.3,0,0,0,0-17.6h8.411a54.3,54.3,0,0,1,0,17.6Z" transform="translate(-312.207 -240.307)" fill="#263238"/>
      <rect id="長方形_80" data-name="長方形 80" width="7.305" height="29.443" transform="translate(60.105 108.376)" fill="#263238"/>
      <rect id="長方形_81" data-name="長方形 81" width="7.305" height="29.443" transform="translate(60.105 108.376)" fill="#fff" opacity="0.2"/>
      <path id="パス_1191" data-name="パス 1191" d="M406.127,299.406h-36.27a6.624,6.624,0,0,1-6.587-7.866,263.229,263.229,0,0,0,2.789-35.612,6.565,6.565,0,0,1,6.669-6.789h30.527a8.225,8.225,0,0,1,7.963,6.789,263.449,263.449,0,0,1,2.953,35.612,8.15,8.15,0,0,1-8.045,7.866Z" transform="translate(-305.281 -224.024)" fill="#fe5276"/>
      <path id="パス_1192" data-name="パス 1192" d="M407.752,291.54a257.3,257.3,0,0,0-2.991-35.612,8.224,8.224,0,0,0-7.963-6.789h-24.03a6.565,6.565,0,0,0-6.669,6.789,262.955,262.955,0,0,1-2.789,35.612,6.624,6.624,0,0,0,6.587,7.866h29.787A8.15,8.15,0,0,0,407.752,291.54Z" transform="translate(-305.291 -224.024)" fill="#fe5276"/>
      <path id="パス_1193" data-name="パス 1193" d="M407.752,291.54a257.3,257.3,0,0,0-2.991-35.612,8.224,8.224,0,0,0-7.963-6.789h-24.03a6.565,6.565,0,0,0-6.669,6.789,262.955,262.955,0,0,1-2.789,35.612,6.624,6.624,0,0,0,6.587,7.866h29.787A8.15,8.15,0,0,0,407.752,291.54Z" transform="translate(-305.291 -224.024)" opacity="0.1"/>
      <path id="パス_1194" data-name="パス 1194" d="M385.467,403.374a1.084,1.084,0,0,1-1.308,1.062c-3.97-.867-15.851-3.372-20.494-3.372s-16.516,2.5-20.486,3.372a1.084,1.084,0,0,1-1.308-1.062h0a2.834,2.834,0,0,1,2.243-2.774c4.643-1,15.238-3.17,19.552-3.17s14.953,2.168,19.559,3.17a2.834,2.834,0,0,1,2.243,2.774Z" transform="translate(-299.911 -261.442)" fill="#263238"/>
      <path id="パス_1195" data-name="パス 1195" d="M393.69,408.3a2.864,2.864,0,1,0,2.864-2.864,2.864,2.864,0,0,0-2.864,2.864Z" transform="translate(-312.986 -263.463)" fill="#263238"/>
      <path id="パス_1196" data-name="パス 1196" d="M343.577,408.3a2.864,2.864,0,1,1-2.864-2.864,2.864,2.864,0,0,1,2.864,2.864Z" transform="translate(-298.896 -263.463)" fill="#263238"/>
      <path id="パス_1197" data-name="パス 1197" d="M372.507,407.034a2.864,2.864,0,1,1-2.864-2.864,2.864,2.864,0,0,1,2.864,2.864Z" transform="translate(-306.196 -263.143)" fill="#263238"/>
      <path id="パス_1198" data-name="パス 1198" d="M369.28,335.934a297.193,297.193,0,0,1-43.544-1.54,4.71,4.71,0,0,0-5.376,4.77v.71a6.183,6.183,0,0,0,5.376,6.019,297.2,297.2,0,0,0,43.544,1.5Z" transform="translate(-294.483 -245.524)" fill="#fe5276"/>
      <path id="パス_1199" data-name="パス 1199" d="M369.28,335.934a297.193,297.193,0,0,1-43.544-1.54,4.71,4.71,0,0,0-5.376,4.77v.71a6.183,6.183,0,0,0,5.376,6.019,297.2,297.2,0,0,0,43.544,1.5Z" transform="translate(-294.483 -245.524)" opacity="0.2"/>
      <path id="パス_1200" data-name="パス 1200" d="M404.762,345.855c-8.322.748-16.516,1.323-24.86,1.66a4.994,4.994,0,0,1-5.122-5.017V341.22a5.234,5.234,0,0,1,5.122-5.2c8.344-.336,16.539-.89,24.86-1.667a4.486,4.486,0,0,1,5.092,4.486v1.279a5.877,5.877,0,0,1-5.092,5.735Z" transform="translate(-308.215 -245.516)" fill="#fe5276"/>
      <path id="パス_1201" data-name="パス 1201" d="M307.944,376.4l-5.794.434,5.017-16.5L312,367.4Z" transform="translate(-289.888 -252.081)" fill="#ffc3bd"/>
      <g id="グループ_27" data-name="グループ 27" transform="translate(15.305 108.025)" opacity="0.2">
        <path id="パス_1202" data-name="パス 1202" d="M308.306,360.03l-2.086,7.028,5.667,2.819,1.256-2.774Z" transform="translate(-306.22 -360.03)"/>
      </g>
      <path id="パス_1203" data-name="パス 1203" d="M304.629,378.2a4.934,4.934,0,0,1-.209,2.243c-.837,2.669-3.2,9.72-3.2,9.72l-.6-.172s.9-3.551,1.136-5.413-.576-.479-2.138,1.077-4.725,2.572-8.606,1.555c-4.546-1.2-6.31-1.936-4.651-2.722a13.7,13.7,0,0,1,4.867-.673,14.385,14.385,0,0,0,7.97-9.832c.419-1.69,1.122-1.5,1.951-.651a18.294,18.294,0,0,0,4.239,3.2A8.749,8.749,0,0,0,304.629,378.2Z" transform="translate(-285.75 -255.203)" fill="#fe5276"/>
      <path id="パス_1204" data-name="パス 1204" d="M357.428,386.914l-4.06,4.165L346.19,375.4l8.314,2.094Z" transform="translate(-301.001 -255.883)" fill="#ffc3bd"/>
      <g id="グループ_28" data-name="グループ 28" transform="translate(45.129 119.27)" opacity="0.2">
        <path id="パス_1205" data-name="パス 1205" d="M346.11,375.07l3.1,6.647,6.116-1.645-.9-2.908Z" transform="translate(-346.11 -375.07)"/>
      </g>
      <path id="パス_1206" data-name="パス 1206" d="M357.606,388.187a4.986,4.986,0,0,1,1.338,1.824c1.151,2.557,4.052,9.413,4.052,9.413l-.561.262s-1.682-3.252-2.736-4.8-.748,0-.89,2.243-1.832,5.054-5.413,6.864c-4.2,2.123-5.981,2.736-5.286,1.047s3.2-3.738,3.2-3.738a14.385,14.385,0,0,0-.553-12.643c-.807-1.548-.164-1.877,1.039-1.779a18.078,18.078,0,0,0,5.286-.419,8.969,8.969,0,0,0,.523,1.727Z" transform="translate(-301.448 -258.674)" fill="#fe5276"/>
      <path id="パス_1207" data-name="パス 1207" d="M369.774,332.071H340.615c4.755,3.394,10.355,31.4,10.355,31.4l-7.851,2.722s-2.243-4.83-6.452-16.3c-2.138-5.8-4.718-11.753-6.228-17.585h0a41.224,41.224,0,0,1-1.069-5.465q-.052-.419-.09-.83v-1.107a.856.856,0,0,1,.052-.359v-.09a3.154,3.154,0,0,1,.09-.359.1.1,0,0,1,0-.052,3.778,3.778,0,0,1,.135-.411v-.075a3.785,3.785,0,0,1,.179-.4.233.233,0,0,1,.037-.075c.06-.12.127-.232.194-.344a6.424,6.424,0,0,1,.538-.748l.067-.075.307-.336a8.224,8.224,0,0,1,.748-.688.075.075,0,0,1,.037,0l.434-.336.464-.329.493-.314c.336-.2.7-.4,1.069-.591h.037l.994-.471.344-.15h.045c3.26,1.054,9.249,3.783,15.7,6.52,7.26,3.1,15.073,6.183,20.1,6.826a11.537,11.537,0,0,1-1.578.015Z" transform="translate(-296.734 -241.579)" fill="#fe5276"/>
      <path id="パス_1208" data-name="パス 1208" d="M369.774,332.071H340.615c4.755,3.394,10.355,31.4,10.355,31.4l-7.851,2.722s-2.243-4.83-6.452-16.3c-2.138-5.8-4.718-11.753-6.228-17.585h0a41.224,41.224,0,0,1-1.069-5.465q-.052-.419-.09-.83v-1.107a.856.856,0,0,1,.052-.359v-.09a3.154,3.154,0,0,1,.09-.359.1.1,0,0,1,0-.052,3.778,3.778,0,0,1,.135-.411v-.075a3.785,3.785,0,0,1,.179-.4.233.233,0,0,1,.037-.075c.06-.12.127-.232.194-.344a6.424,6.424,0,0,1,.538-.748l.067-.075.307-.336a8.224,8.224,0,0,1,.748-.688.075.075,0,0,1,.037,0l.434-.336.464-.329.493-.314c.336-.2.7-.4,1.069-.591h.037l.994-.471.344-.15h.045c3.26,1.054,9.249,3.783,15.7,6.52,7.26,3.1,15.073,6.183,20.1,6.826a11.537,11.537,0,0,1-1.578.015Z" transform="translate(-296.734 -241.579)" opacity="0.4"/>
      <path id="パス_1209" data-name="パス 1209" d="M373.536,328.729c-5.032-.643-12.845-3.738-20.1-6.826-6.415-2.736-12.4-5.465-15.7-6.52,9.72-4.075,27.051-3.978,27.051-3.978s4.486-4.262,9.473-5.279a10.469,10.469,0,0,1,2.041-.217l.142.194C385.132,317.648,381.947,327.607,373.536,328.729Z" transform="translate(-298.866 -238.349)" fill="#fe5276"/>
      <path id="パス_1210" data-name="パス 1210" d="M341.46,277.741c4.232,3.873,12.568-5.294,13.907-6.385,2.871-2.34,11.312-10.228,10.864-12.965-1.316-8.052-14.542,3.357-18.355,11.215Z" transform="translate(-299.807 -225.664)" fill="#263238"/>
      <path id="パス_1211" data-name="パス 1211" d="M384.442,252.685c2.123.456,4.426-.314,5.922,1.264a9.989,9.989,0,0,1,2.34,5.981,39.8,39.8,0,0,1-.471,9.032q-.7,5.451-1.406,10.9a32.809,32.809,0,0,0,.344,8.972h0a1.451,1.451,0,0,1-.822,1.563s-16.5.568-21.3.389c-2.55-.1-.8-6.8-1.578-10.714-.172-.867-1.884-4.449-2.138-5.368-1.181-4.329-.4-7.3.7-11.656.8-3.163,1.122-7.723,2.736-8.067C371.664,254.337,378.52,251.429,384.442,252.685Z" transform="translate(-305.682 -224.841)" fill="#263238"/>
      <path id="パス_1212" data-name="パス 1212" d="M392.852,256.159c.217-.329,6.019-5.234,7.073.426,1.5,7.858-1.57,15.589-1.57,15.589s-.7,8.5-3.163,9.353-4.823,1.054-5.652-.4a8.651,8.651,0,0,1-.83-3.634S389,262.028,392.852,256.159Z" transform="translate(-311.73 -225.219)" fill="#263238"/>
      <path id="パス_1213" data-name="パス 1213" d="M385.1,238.37c-.6,3.619-1.107,10.228,1.5,12.553A33.952,33.952,0,0,0,376.128,260a5.473,5.473,0,0,1-1.922-6.1,5.354,5.354,0,0,1,2.662-3.215c2.452-1.346,2.243-3.873,1.548-6.251Z" transform="translate(-308 -221.307)" fill="#e8bfbf"/>
      <path id="パス_1214" data-name="パス 1214" d="M385.905,246.58l-2.363.9a7.858,7.858,0,0,1-3.163.516h0a5.121,5.121,0,0,1,0,2.243,4.486,4.486,0,0,0,4.68-1.5,7.925,7.925,0,0,0,.845-2.168Z" transform="translate(-309.628 -223.379)" opacity="0.2" style="isolation: isolate"/>
      <path id="パス_1215" data-name="パス 1215" d="M391.744,303.223l.688,2.183c.1.172-.1.351-.389.359l-24.853.748c-.224,0-.4-.1-.426-.239l-.284-2.2c0-.15.164-.284.4-.3l24.426-.748A.449.449,0,0,1,391.744,303.223Z" transform="translate(-306.121 -237.621)" fill="#fe5276"/>
      <path id="パス_1216" data-name="パス 1216" d="M330.32,323.848a5.658,5.658,0,0,1,.538-.748A6.424,6.424,0,0,0,330.32,323.848Z" transform="translate(-296.996 -242.687)" fill="#fe5276"/>
      <path id="パス_1217" data-name="パス 1217" d="M332.278,321.61a8.228,8.228,0,0,0-.748.688A6.541,6.541,0,0,1,332.278,321.61Z" transform="translate(-297.302 -242.311)" fill="#fe5276"/>
      <path id="パス_1218" data-name="パス 1218" d="M330.32,323.848a5.658,5.658,0,0,1,.538-.748A6.424,6.424,0,0,0,330.32,323.848Z" transform="translate(-296.996 -242.687)" opacity="0.6"/>
      <path id="パス_1219" data-name="パス 1219" d="M332.278,321.61a8.228,8.228,0,0,0-.748.688A6.541,6.541,0,0,1,332.278,321.61Z" transform="translate(-297.302 -242.311)" opacity="0.6"/>
      <path id="パス_1220" data-name="パス 1220" d="M343.035,274.871a10.078,10.078,0,0,1-3.125-5.009,10.372,10.372,0,0,1-.142-2.086,116.647,116.647,0,0,1,1.256-12.247l3.514-1.159s1.092,6.026,1.331,9.338c.052.65.127,1.421.2,2.243.157,1.5.344,3.1.516,4.486Z" transform="translate(-299.379 -225.344)" fill="#e8bfbf"/>
      <path id="パス_1221" data-name="パス 1221" d="M340.767,280.9c-1.077-.987-1.256-2.183-1.817-4.725-.531-2.408.067-5.338.561-4.92a.531.531,0,0,1,.142.209c.845,2.011,4.165.247,5.107-.748a7.133,7.133,0,0,0,1.054-1.293,1.084,1.084,0,0,0,0-1.219c1.017-.426,1.832,3.589,1.346,4.576l-.247.748a10.244,10.244,0,0,1-1.847,3.312l-1.847,2.243Z" transform="translate(-299.122 -228.828)" fill="#263238"/>
      <path id="パス_1222" data-name="パス 1222" d="M344.065,252.991l.419-6.131a24.672,24.672,0,0,1-3.387,1.308c-1.7.583-4.008-.449-3.492.665a47.952,47.952,0,0,0,2.856,4.8Z" transform="translate(-298.816 -223.449)" fill="#e8bfbf"/>
      <path id="パス_1223" data-name="パス 1223" d="M344.507,244.788,341.9,238.65l-3.432,2.1c-.95,2.056-.837,5.981-.837,5.981S342.391,246.972,344.507,244.788Z" transform="translate(-298.84 -221.378)" fill="#e8bfbf"/>
      <path id="パス_1224" data-name="パス 1224" d="M370.07,222.3c-2.617,4.957-1.981,11.215.8,16.112,4.763-3.23,11.679-.658,16.583-3.626a9.495,9.495,0,0,0,3.978-10.019c-.9-4.037-5.279-8.763-9.525-9.174C377.143,215.138,372.275,218.129,370.07,222.3Z" transform="translate(-306.608 -215.549)" fill="#263238"/>
      <path id="パス_1225" data-name="パス 1225" d="M386.9,225.542a7.619,7.619,0,0,0-9.839-4.411c-5.563,2.079-6.6,10.378-5.563,15.477,1.122,5.682,7.925,7.522,12.329,3.267,2.938-2.826,3.028-5.234,3.536-10.834a7.746,7.746,0,0,0-.464-3.5Z" transform="translate(-307.297 -216.831)" fill="#e8bfbf"/>
      <path id="パス_1226" data-name="パス 1226" d="M375.532,238.267a1.966,1.966,0,0,1-1.622-.351,11.963,11.963,0,0,0,1.72-2.886Z" transform="translate(-307.995 -220.464)" fill="#ed893e"/>
      <path id="パス_1227" data-name="パス 1227" d="M380.662,239.984a.127.127,0,0,0,0-.187.135.135,0,0,0-.187,0,3.6,3.6,0,0,1-2.991,1.346.142.142,0,0,0-.135.127h0a.12.12,0,0,0,.127.127,3.783,3.783,0,0,0,3.222-1.451Z" transform="translate(-308.863 -221.658)" fill="#263238"/>
      <path id="パス_1228" data-name="パス 1228" d="M381.068,217.83a5.683,5.683,0,0,0-1.338,2.071c5.981,2.991,9.047,10.7,9.331,17.436,2.243-1.839,6.258-3.791,8.224-6.183,2.183-2.684,1.077-6.624-1.443-8.972a53.191,53.191,0,0,0-7.252-5.084A6.138,6.138,0,0,0,381.068,217.83Z" transform="translate(-309.464 -215.698)" fill="#263238"/>
      <path id="パス_1229" data-name="パス 1229" d="M393.531,236.354a1.854,1.854,0,0,0-1.779-1.914c-1.406,0-2.333,1.727-2.542,2.946-.209,1.346.606,2.5,1.936,1.951a4.1,4.1,0,0,0,2.2-2.243A1.9,1.9,0,0,0,393.531,236.354Z" transform="translate(-311.847 -220.315)" fill="#e8bfbf"/>
      <path id="パス_1230" data-name="パス 1230" d="M380.771,232.659c0,.561-.277,1.024-.643,1.039s-.68-.434-.688-1.009.277-1.024.636-1.039S380.756,232.069,380.771,232.659Z" transform="translate(-309.391 -219.611)" fill="#263238"/>
      <path id="パス_1231" data-name="パス 1231" d="M373.761,233.4c0,.561-.269,1.024-.636,1.039s-.68-.434-.7-1,.277-1.032.643-1.047S373.753,232.846,373.761,233.4Z" transform="translate(-307.622 -219.798)" fill="#263238"/>
      <path id="パス_1232" data-name="パス 1232" d="M373.051,232.311l-1.361-.351S372.408,233,373.051,232.311Z" transform="translate(-307.435 -219.69)" fill="#263238"/>
      <path id="パス_1233" data-name="パス 1233" d="M382.37,229.579a.344.344,0,0,0,.127-.067.284.284,0,0,0,0-.4h0a3.185,3.185,0,0,0-2.774-1.024.284.284,0,0,0-.224.321.269.269,0,0,0,.314.217,2.714,2.714,0,0,1,2.3.882.269.269,0,0,0,.254.067Z" transform="translate(-309.405 -218.707)" fill="#263238"/>
      <path id="パス_1234" data-name="パス 1234" d="M371.4,230.742a.217.217,0,0,0,.1-.1,2.714,2.714,0,0,1,2.138-1.189.277.277,0,0,0,.292-.262h0a.284.284,0,0,0-.269-.284,3.275,3.275,0,0,0-2.609,1.428.277.277,0,0,0,.045.389.284.284,0,0,0,.3,0Z" transform="translate(-307.261 -218.92)" fill="#263238"/>
      <path id="パス_1235" data-name="パス 1235" d="M380.051,231.541l-1.361-.351S379.415,232.229,380.051,231.541Z" transform="translate(-309.201 -219.495)" fill="#263238"/>
      <path id="パス_1236" data-name="パス 1236" d="M367.744,230.5c-.172,3.469,1.428,8.71,3.88,11.155-2.288,1.009-5.353-1.5-7.088-3.275a8.86,8.86,0,0,1-2.206-6.9,14.953,14.953,0,0,1,2.662-6.9A21.865,21.865,0,0,1,374.3,217.1c.748-.351,1.892-.5,2.131.277.164.538-.292,1.047-.71,1.428C371.692,222.434,368.619,224.909,367.744,230.5Z" transform="translate(-305.06 -215.869)" fill="#263238"/>
      <path id="パス_1237" data-name="パス 1237" d="M385.663,241.209h-.045a.2.2,0,0,1-.09-.277c4.247-8.224-3.522-17.129-5.981-19.664a.209.209,0,0,1,.292-.292c2.535,2.587,10.467,11.679,6.079,20.142A.2.2,0,0,1,385.663,241.209Z" transform="translate(-309.408 -216.909)" fill="#263238"/>
      <path id="パス_1238" data-name="パス 1238" d="M391.652,240.11l-.912,3.051.658.867.628-.845Z" transform="translate(-312.242 -221.746)" fill="#fe5276"/>
      <path id="パス_1239" data-name="パス 1239" d="M391.422,247.987c0-.194-.052-.456-.075-.748a2.55,2.55,0,0,1,2.079-2.722h.037a1.062,1.062,0,0,0,.807-.7c.464-1.338.643-1.75,1.084-3.065,1.211-.292,2.639.157,3.888.292a10.7,10.7,0,0,1,.067,4.568,1.989,1.989,0,0,1-.381.935,16.135,16.135,0,0,1-3.738,2.3C394.076,249.184,392.581,248.1,391.422,247.987Z" transform="translate(-312.393 -221.885)" fill="#e8bfbf"/>
      <path id="パス_1240" data-name="パス 1240" d="M394.278,251.233s3.3,21.264-.1,24.5c-2,1.907-3.738.852-4.8-.336a4.24,4.24,0,0,1-1.039-3.275l2.318-21.795A2.617,2.617,0,0,1,394.278,251.233Z" transform="translate(-311.63 -224.226)" fill="#e8bfbf"/>
      <path id="パス_1241" data-name="パス 1241" d="M374.876,325.845A13.915,13.915,0,0,1,371.885,327c-.262.067-.531.135-.8.187a18.047,18.047,0,0,1-3.836.4,11.208,11.208,0,0,1-1.279-.075l-.464-.052-.479-.067c-.471-.075-.957-.164-1.5-.269s-1.122-.254-1.712-.411l-.576-.157q-1.1-.307-2.243-.673l-.785-.254c-1.5-.486-2.991-1.047-4.591-1.645l-.621-.239c-2-.748-4.045-1.615-6.064-2.46l-1.54-.65c-6.415-2.737-12.4-5.465-15.7-6.52h-.045l-.344.15-.994.471h-.037c-.374.187-.748.389-1.069.591l-.493.314-.464.329-.434.336a.074.074,0,0,0-.037,0,8.224,8.224,0,0,0-.748.688l-.307.336-.067.075a6.422,6.422,0,0,0-.538.748c-.067.112-.135.224-.194.344a.232.232,0,0,0-.037.075,3.777,3.777,0,0,0-.18.4v.075a3.767,3.767,0,0,0-.135.411.1.1,0,0,0,0,.052,3.146,3.146,0,0,0-.09.359v.09a2.96,2.96,0,0,1-.052.359V321.4c0,.179.052.553.09.83a41.224,41.224,0,0,0,1.069,5.465c-1.054,2.609-2.123,5.181-3.17,7.634l-1.032,2.408c-1.189,2.766-2.325,5.331-3.327,7.581q-.224.486-.426.942l-1.166,2.579c-.127.262-.239.523-.351.748l-1.346,2.916c-.052.1-.1.209-.15.314s-.09.194-.135.284-.082.172-.12.254c-.307.65-.209.434-.209.434L306,349.8s5.331-18.879,8.8-36.307a15.4,15.4,0,0,1,13.338-12.329c13.652-1.555,32.464,3.783,32.464,3.783h1.271l2.991-.045h4.688c2.378,0,4.815-.045,6.729,0C382.876,316.11,380.364,322.892,374.876,325.845Z" transform="translate(-290.86 -237.08)" fill="#fe5276"/>
      <g id="グループ_29" data-name="グループ 29" transform="translate(15.14 63.8)" opacity="0.3">
        <path id="パス_1242" data-name="パス 1242" d="M374.876,325.845A13.915,13.915,0,0,1,371.885,327c-.262.067-.531.135-.8.187a18.047,18.047,0,0,1-3.836.4,11.208,11.208,0,0,1-1.279-.075l-.464-.052-.479-.067c-.471-.075-.957-.164-1.5-.269s-1.122-.254-1.712-.411l-.576-.157q-1.1-.307-2.243-.673l-.785-.254c-1.5-.486-2.991-1.047-4.591-1.645l-.621-.239c-2-.748-4.045-1.615-6.064-2.46l-1.54-.65c-6.415-2.737-12.4-5.465-15.7-6.52h-.045l-.344.15-.994.471h-.037c-.374.187-.748.389-1.069.591l-.493.314-.464.329-.434.336a.074.074,0,0,0-.037,0,8.224,8.224,0,0,0-.748.688l-.307.336-.067.075a6.422,6.422,0,0,0-.538.748c-.067.112-.135.224-.194.344a.232.232,0,0,0-.037.075,3.777,3.777,0,0,0-.18.4v.075a3.767,3.767,0,0,0-.135.411.1.1,0,0,0,0,.052,3.146,3.146,0,0,0-.09.359v.09a2.96,2.96,0,0,1-.052.359V321.4c0,.179.052.553.09.83a41.224,41.224,0,0,0,1.069,5.465c-1.054,2.609-2.123,5.181-3.17,7.634l-1.032,2.408c-1.189,2.766-2.325,5.331-3.327,7.581q-.224.486-.426.942l-1.166,2.579c-.127.262-.239.523-.351.748l-1.346,2.916c-.052.1-.1.209-.15.314s-.09.194-.135.284-.082.172-.12.254c-.307.65-.209.434-.209.434L306,349.8s5.331-18.879,8.8-36.307a15.4,15.4,0,0,1,13.338-12.329c13.652-1.555,32.464,3.783,32.464,3.783h1.271l2.991-.045h4.688c2.378,0,4.815-.045,6.729,0C382.876,316.11,380.364,322.892,374.876,325.845Z" transform="translate(-306 -300.88)"/>
      </g>
    </g>
    <g id="freepik--character-2--inject-1" transform="translate(155.257 184.238)">
      <rect id="長方形_82" data-name="長方形 82" width="7.006" height="29.241" transform="translate(34.229 125.9)" fill="#263238"/>
      <rect id="長方形_83" data-name="長方形 83" width="7.006" height="29.241" transform="translate(34.229 125.9)" fill="#fff" opacity="0.2"/>
      <rect id="長方形_84" data-name="長方形 84" width="4.994" height="18.669" transform="translate(35.231 107.372)" fill="#263238"/>
      <path id="パス_1243" data-name="パス 1243" d="M237.514,343.022l-4.994,1.824V339.56h4.994Z" transform="translate(-197.289 -232.188)" opacity="0.2" style="isolation: isolate"/>
      <path id="パス_1244" data-name="パス 1244" d="M262.77,408.3a2.864,2.864,0,1,0,2.864-2.864,2.864,2.864,0,0,0-2.864,2.864Z" transform="translate(-204.922 -248.811)" fill="#263238"/>
      <path id="パス_1245" data-name="パス 1245" d="M204.577,408.3a2.864,2.864,0,1,1-2.864-2.864,2.864,2.864,0,0,1,2.864,2.864Z" transform="translate(-188.794 -248.811)" fill="#263238"/>
      <path id="パス_1246" data-name="パス 1246" d="M237.757,407.034a2.864,2.864,0,1,1-2.864-2.864,2.864,2.864,0,0,1,2.864,2.864Z" transform="translate(-197.166 -248.491)" fill="#263238"/>
      <path id="パス_1247" data-name="パス 1247" d="M194.329,402.492a1.383,1.383,0,0,0,1.406,1.114l29.87-.4,27.97.628a1.391,1.391,0,0,0,.314-2.751l-15.275-2.991a25.976,25.976,0,0,0-4.808-.449H217.395a25.78,25.78,0,0,0-4.8.449l-17.2,2.751a1.383,1.383,0,0,0-1.069,1.652Z" transform="translate(-187.645 -246.843)" fill="#263238"/>
      <path id="パス_1248" data-name="パス 1248" d="M193.72,339.46v.067h.957a7.228,7.228,0,0,1-.957-.067Z" transform="translate(-187.499 -232.163)" fill="#263238"/>
      <path id="パス_1249" data-name="パス 1249" d="M231.732,251.536a.909.909,0,0,1,0,.142v51.141H185.9V251.147a8.725,8.725,0,0,1,.075-1.151H185.9l.434-7.2a8.553,8.553,0,0,1,2.378-5.428l4.583-4.8,2.363-11.963a3.985,3.985,0,0,1,3.9-3.215h10.572a3.993,3.993,0,0,1,3.738,2.692l4.426,12.9,8.441,5.2a8.583,8.583,0,0,1,3.993,6.056l1.1,7.342Z" transform="translate(-185.526 -201.361)" fill="#fe5276"/>
      <path id="パス_1250" data-name="パス 1250" d="M233.806,251.539a.909.909,0,0,1,0,.142v51.141H194.12V251.15a8.725,8.725,0,0,1,.075-1.166h-.075l.434-7.2a8.553,8.553,0,0,1,2.378-5.428l4.576-4.778,2.363-11.963a3.985,3.985,0,0,1,3.9-3.215H212.2a3.993,3.993,0,0,1,3.738,2.692l4.426,12.9,8.441,5.2a8.583,8.583,0,0,1,3.993,6.056l1.1,7.342Z" transform="translate(-187.6 -201.363)" opacity="0.1"/>
      <path id="パス_1251" data-name="パス 1251" d="M244.216,342.87H219.61a91.05,91.05,0,0,0,9.488,3.2v3.985h5.637V346.07a90.64,90.64,0,0,0,9.481-3.2Z" transform="translate(-194.032 -233.023)" fill="#263238"/>
      <path id="パス_1252" data-name="パス 1252" d="M221.3,327.915a297.3,297.3,0,0,0,43.552-1.54,4.718,4.718,0,0,1,5.376,4.77v.748a6.191,6.191,0,0,1-5.376,5.981,297.308,297.308,0,0,1-43.552,1.54Z" transform="translate(-194.458 -228.849)" fill="#fe5276"/>
      <path id="パス_1253" data-name="パス 1253" d="M221.3,327.915a297.3,297.3,0,0,0,43.552-1.54,4.718,4.718,0,0,1,5.376,4.77v.748a6.191,6.191,0,0,1-5.376,5.981,297.308,297.308,0,0,1-43.552,1.54Z" transform="translate(-194.458 -228.849)" opacity="0.2"/>
      <path id="パス_1254" data-name="パス 1254" d="M190.5,337.825c8.314.748,16.509,1.331,24.853,1.66a4.987,4.987,0,0,0,5.122-5.017V333.2a5.234,5.234,0,0,0-5.123-5.234c-8.343-.336-16.537-.882-24.851-1.667a4.486,4.486,0,0,0-5.1,4.486v1.271a5.869,5.869,0,0,0,5.1,5.772Z" transform="translate(-185.4 -228.83)" fill="#fe5276"/>
      <path id="パス_1255" data-name="パス 1255" d="M280.737,245.3l.7,2.34-1.316,1.944a10.579,10.579,0,0,1-4.837,2.744,2.475,2.475,0,0,1-2.594-1.114l-.277-.441a2.988,2.988,0,0,1-.292-.628,2.241,2.241,0,0,1,.927-2.751l3.32-3.484a43,43,0,0,1,4.322-.95C281.133,242.922,280.782,244.851,280.737,245.3Z" transform="translate(-207.24 -207.813)" fill="#ffb573"/>
      <path id="パス_1256" data-name="パス 1256" d="M250.987,259.868s9.907-10.221,11.791-11.252l.68-.523,3.11,3.933c-.434.441-15.051,25.765-20.583,16.314-1.032-1.772-1.989-3.529-2.864-5.308-.456-.92-3.222-6.527-3.641-7.477l-.426-.92c-2.011-4.486-2.751-9.72,1.4-12.793h0c1.555-.68,4.1,1.166,4.7,3.574Z" transform="translate(-198.53 -207.495)" fill="#263238"/>
      <g id="グループ_30" data-name="グループ 30" transform="translate(38.906 34.204)" opacity="0.1">
        <path id="パス_1257" data-name="パス 1257" d="M250.987,259.868s9.907-10.221,11.791-11.252l.68-.523,3.11,3.933c-.434.441-15.051,25.765-20.583,16.314-1.032-1.772-1.989-3.529-2.864-5.308-.456-.92-3.222-6.527-3.641-7.477l-.426-.92c-2.011-4.486-2.751-9.72,1.4-12.793h0c1.555-.68,4.1,1.166,4.7,3.574Z" transform="translate(-237.436 -241.699)" fill="#fff"/>
      </g>
      <g id="freepik--character-2--inject-102--inject-1" transform="translate(31.032 140.95)">
        <path id="パス_1258" data-name="パス 1258" d="M297.738,387.08l1.922,12.479H294.4L290.68,387.08Z" transform="translate(-242.997 -385.129)" fill="#ffb573"/>
        <path id="パス_1259" data-name="パス 1259" d="M300.792,402.65l-5.428.12a.4.4,0,0,0-.441.389h0a7.238,7.238,0,0,0-.292,3.925c.209,1.009.5,1.989.815,2,2.445,0,8.972.06,15.454,0,2.714.06,2.714-2.781.621-2.781a16,16,0,0,1-9.63-3.267,1.884,1.884,0,0,0-1.1-.381Z" transform="translate(-243.957 -389.057)" fill="#fe5276"/>
        <path id="パス_1260" data-name="パス 1260" d="M298.665,393.1l-.927-6.019H290.68l2.2,7.335Z" transform="translate(-242.997 -385.129)" opacity="0.2"/>
        <path id="パス_1261" data-name="パス 1261" d="M241.219,385.68l-4.082,10.438H231.38L234,385.83Z" transform="translate(-228.034 -384.775)" fill="#ffb573"/>
        <path id="パス_1262" data-name="パス 1262" d="M233.31,390.152l1.121-5.682,7.275.9-1.862,4.935Z" transform="translate(-228.521 -384.47)" opacity="0.2"/>
        <path id="パス_1263" data-name="パス 1263" d="M236.165,397.641l-4.837-2.243a.411.411,0,0,0-.591,0h0l-3.626,3.215a1.054,1.054,0,0,0,.2,1.458c1.884,1.436,3.17,2.692,5.525,4.538,1.443,1.136,4.157,3.5,6.153,5.069s3.409-.344,2.692-1.166a24.725,24.725,0,0,1-4.912-9.981A1.72,1.72,0,0,0,236.165,397.641Z" transform="translate(-226.905 -387.196)" fill="#fe5276"/>
      </g>
      <path id="パス_1264" data-name="パス 1264" d="M238.844,289.541c-6.191-16.711-2.123-32.083-2.9-40.591a9.72,9.72,0,0,0-7.836-8.643c-4.232-.822-9.458-1.735-14.445-2.408a9.2,9.2,0,0,0-1.436-.09,9.772,9.772,0,0,0-9.637,9.9c.434,25.241,8.531,41.832,8.531,41.832l13.047-.052Z" transform="translate(-189.737 -206.513)" fill="#fe5276"/>
      <path id="パス_1265" data-name="パス 1265" d="M228.807,225.686c-.89,3.447-1.174,7.738,3.649,9.525,1.338,2.131,2,4.381-3.163,3.581a15.836,15.836,0,0,1-10.393-5.884c3.088-2.7,2.52-10.976,1.742-15.649Z" transform="translate(-193.853 -201.328)" fill="#ffb573"/>
      <path id="パス_1266" data-name="パス 1266" d="M248.409,303.772s29.907-.807,30.557,12.71c.95,19.439,4.239,52.726,4.239,52.726l-8.06,1.764s-11.5-32.561-11.963-47.761c-12.023-2.393-30.086,1.234-33.72-6.662a21.219,21.219,0,0,1-1.368-12.8Z" transform="translate(-196.064 -223.152)" fill="#263238"/>
      <g id="グループ_31" data-name="グループ 31" transform="translate(31.6 80.598)" opacity="0.1">
        <path id="パス_1267" data-name="パス 1267" d="M248.409,303.772s29.907-.807,30.557,12.71c.95,19.439,4.239,52.726,4.239,52.726l-8.06,1.764s-11.5-32.561-11.963-47.761c-12.023-2.393-30.086,1.234-33.72-6.662a21.219,21.219,0,0,1-1.368-12.8Z" transform="translate(-227.665 -303.75)"/>
      </g>
      <path id="パス_1268" data-name="パス 1268" d="M233.007,301.8s20.254,2.849,19.3,16.382c-1.047,14.811-16.568,49.152-16.568,49.152h-7.828s5.234-31.163,7.574-46.259c-10.931,0-17.765,1.428-21.406-6.482a21.159,21.159,0,0,1-1.361-12.8Z" transform="translate(-192.184 -222.657)" fill="#263238"/>
      <path id="パス_1269" data-name="パス 1269" d="M240.115,240.407c1.727,1.458,4.486,3.813,4.98,17.877.15,4.486-.546,8.972-.426,13.458.135,5.189,1.383,8.838,3.163,13.7,0,1.159-1.75,1.809-3.237,2.116-3.08-6.729-5.017-13.181-4.9-20.6.419-26.55-7.866-29.025-7.559-29.974Z" transform="translate(-197.191 -206.307)" fill="#263238"/>
      <path id="パス_1270" data-name="パス 1270" d="M226.4,229.848a4.307,4.307,0,0,0,3.267.793,15.616,15.616,0,0,1,.179-2.5l-5.346-4.4a11.259,11.259,0,0,0-.224,1.727,4.89,4.89,0,0,0,2.123,4.381Z" transform="translate(-195.206 -202.963)" opacity="0.3" style="isolation: isolate"/>
      <path id="パス_1271" data-name="パス 1271" d="M233.741,200.853c5.652,3.193,5.712,12.232,3.97,17.458a7.828,7.828,0,0,1-13.72,2.3c-2.766-3.5-2.37-7.028-2.243-13.092A7.85,7.85,0,0,1,233.741,200.853Z" transform="translate(-194.547 -196.898)" fill="#ffb573"/>
      <path id="パス_1272" data-name="パス 1272" d="M232.731,219.785a21.541,21.541,0,0,0,5.234,1.054,8.538,8.538,0,0,1-3.088,5.009,7.836,7.836,0,0,1-10.968-1.563c-2.243-2.864-2.991-4.8-2.31-10.026a99.445,99.445,0,0,0,11.133,5.525Z" transform="translate(-194.472 -200.571)" opacity="0.2" style="isolation: isolate"/>
      <path id="パス_1273" data-name="パス 1273" d="M222.131,213.207a1.72,1.72,0,0,0-.748-1.421,4.09,4.09,0,0,1-1.121-1.2,3.088,3.088,0,0,1-.135-1.5l.336-4.284c.254-3.3,5.361-1.368,5.234,1.391-.1,1.884-1.436,1.922-2.542,3.043C221.877,210.567,222.355,211.674,222.131,213.207Z" transform="translate(-194.153 -197.746)" fill="#ffb573"/>
      <path id="パス_1274" data-name="パス 1274" d="M222.131,213.207a1.72,1.72,0,0,0-.748-1.421,4.09,4.09,0,0,1-1.121-1.2,3.088,3.088,0,0,1-.135-1.5l.336-4.284c.254-3.3,5.361-1.368,5.234,1.391-.1,1.884-1.436,1.922-2.542,3.043C221.877,210.567,222.355,211.674,222.131,213.207Z" transform="translate(-194.153 -197.746)" opacity="0.2" style="isolation: isolate"/>
      <path id="パス_1275" data-name="パス 1275" d="M219.7,213.38c1.7.381,2.415,2.819,2.37,4.381,0,1.772-1.316,2.931-2.789,1.862a5.51,5.51,0,0,1-2.123-3.409C216.855,214.532,218,213,219.7,213.38Z" transform="translate(-193.4 -200.334)" fill="#ffb573"/>
      <path id="パス_1276" data-name="パス 1276" d="M232.427,210.421a3.439,3.439,0,0,1,2.557-.628h0a.277.277,0,0,0,.314-.232.307.307,0,0,0-.247-.344,3.94,3.94,0,0,0-2.991.815h0a.277.277,0,0,0,0,.4.254.254,0,0,0,.127.082.269.269,0,0,0,.239-.1Z" transform="translate(-197.151 -199.289)" fill="#263238"/>
      <path id="パス_1277" data-name="パス 1277" d="M242.95,211.867h0a.277.277,0,0,0,.082-.381,3.036,3.036,0,0,0-2.243-1.5h0a.269.269,0,0,0-.269.269.307.307,0,0,0,.277.314,2.415,2.415,0,0,1,1.742,1.226.321.321,0,0,0,.239.15.284.284,0,0,0,.172-.082Z" transform="translate(-199.308 -199.494)" fill="#263238"/>
      <path id="パス_1278" data-name="パス 1278" d="M235,223.479a26.227,26.227,0,0,0-1.712,2.482c-.135-.052-.269-.1-.4-.172-1.817-.785-2.333-1.884-2.355-2.856a4.045,4.045,0,0,1,.688-2.183,7.849,7.849,0,0,0,3.17,2.445C234.762,223.382,235,223.479,235,223.479Z" transform="translate(-196.787 -202.209)" fill="#2e353a"/>
      <path id="パス_1279" data-name="パス 1279" d="M234.5,223.175l-.262.359a.538.538,0,0,1-.665.179,5.018,5.018,0,0,1-2.557-2.026.494.494,0,0,1,0-.434,3.739,3.739,0,0,1,.292-.523A7.8,7.8,0,0,0,234.5,223.175Z" transform="translate(-196.897 -202.204)" fill="#fff"/>
      <path id="パス_1280" data-name="パス 1280" d="M232.885,226.526c-1.817-.785-2.333-1.884-2.355-2.856a5.182,5.182,0,0,1,1.8,1.361,2.52,2.52,0,0,1,.553,1.5Z" transform="translate(-196.787 -202.946)" fill="#de5753"/>
      <path id="パス_1281" data-name="パス 1281" d="M240.58,214.808c.314.06.493.508.4.994s-.434.83-.748.748-.493-.508-.4-.994S240.266,214.748,240.58,214.808Z" transform="translate(-199.129 -200.708)" fill="#263238"/>
      <path id="パス_1282" data-name="パス 1282" d="M232.449,212.888c.314.052.493.5.4.987s-.434.837-.748.748-.493-.508-.4-.987S232.127,212.828,232.449,212.888Z" transform="translate(-197.076 -200.223)" fill="#263238"/>
      <path id="パス_1283" data-name="パス 1283" d="M236.85,219.813a2.894,2.894,0,0,0,2.437.374c-.912-2.026-.785-1.57-1.062-5.017Z" transform="translate(-198.382 -200.801)" fill="#ed847e"/>
      <path id="パス_1284" data-name="パス 1284" d="M230.675,288.406s-7.357,2.849-9.039,3.409a21.256,21.256,0,0,1-6.056,1.391,7.477,7.477,0,0,1-5.735-2.138c-1.757-1.877-2.3-4.725-2.759-7.387q-2.026-11.724-4.045-23.484c-.665-3.858-2.348-9.667-2.243-11.881.262-4.067,2.856-8.875,9.451-11.522a5.915,5.915,0,0,1,7.26,1.951,21.781,21.781,0,0,1,5.981,11.783c.748,5.234,1.884,12.015,1.817,17.331C225.247,274.835,228.021,283.65,230.675,288.406Z" transform="translate(-189.284 -206.125)" fill="#263238"/>
      <path id="パス_1285" data-name="パス 1285" d="M201.3,248.449c-.748,6.811,2.991,23.978,3.738,25.01,3.088,9.959,11.566,4.591,12.8,4.135,2.138-.793,4.314-2.333,6.348-3.365,3.955-1.959,7.686-3.537,11.365-5.981l-2.071-4.082c-4.022,1.376-15.417,4.314-17.294,4.778-.815.209-3.985,1.877-3.955-.322-.449-.748-1.069-14.953-2.43-19.97a4.412,4.412,0,0,0-.793-1.548l-.127-.157a4.351,4.351,0,0,0-7.581,1.5Z" transform="translate(-189.386 -208.405)" fill="#263238"/>
      <path id="パス_1286" data-name="パス 1286" d="M201.3,248.449c-.748,6.811,2.991,23.978,3.738,25.01,3.088,9.959,11.566,4.591,12.8,4.135,2.138-.793,4.314-2.333,6.348-3.365,3.955-1.959,7.686-3.537,11.365-5.981l-2.071-4.082c-4.022,1.376-15.417,4.314-17.294,4.778-.815.209-3.985,1.877-3.955-.322-.449-.748-1.069-14.953-2.43-19.97a4.412,4.412,0,0,0-.793-1.548l-.127-.157a4.351,4.351,0,0,0-7.581,1.5Z" transform="translate(-189.386 -208.405)" fill="#fff" opacity="0.1"/>
      <path id="パス_1287" data-name="パス 1287" d="M242.184,271.469l-.434,2.333c1.032,2.692,6.961,1.981,6.961,1.981V268.89l-5.234,1.219a1.742,1.742,0,0,0-1.293,1.361Z" transform="translate(-199.618 -214.356)" fill="#ffb573"/>
      <path id="パス_1288" data-name="パス 1288" d="M251.07,268.89l-.03,6.908,5.249.127,1.2-6.071Z" transform="translate(-201.963 -214.356)" fill="#ffb573"/>
      <path id="パス_1289" data-name="パス 1289" d="M240.343,203.943a1.585,1.585,0,0,1-.68,1.675,2.378,2.378,0,0,1-1.5.067l-5.159-.89c-2.991-.516-5.922-1.032-8.845-1.735-1.308-.314-3.215-.7-3.3-2.049-.4-6.467,10.168-5.189,12.426-4.4C240.68,199.21,240.231,203.307,240.343,203.943Z" transform="translate(-194.346 -195.951)" fill="#263238"/>
    </g>
    <g id="freepik--character-1--inject-1" transform="translate(65.94 184.724)">
      <rect id="長方形_85" data-name="長方形 85" width="7.006" height="29.241" transform="translate(34.236 125.414)" fill="#263238"/>
      <rect id="長方形_86" data-name="長方形 86" width="7.006" height="29.241" transform="translate(34.236 125.414)" fill="#fff" opacity="0.2"/>
      <rect id="長方形_87" data-name="長方形 87" width="4.994" height="18.669" transform="translate(35.238 106.886)" fill="#263238"/>
      <path id="パス_1290" data-name="パス 1290" d="M118.064,343.022l-4.994,1.824V339.56h4.994Z" transform="translate(-77.832 -232.674)" opacity="0.2" style="isolation: isolate"/>
      <path id="パス_1291" data-name="パス 1291" d="M143.32,408.3a2.864,2.864,0,1,0,2.864-2.864A2.864,2.864,0,0,0,143.32,408.3Z" transform="translate(-85.465 -249.297)" fill="#263238"/>
      <path id="パス_1292" data-name="パス 1292" d="M85.122,408.3a2.871,2.871,0,1,1-2.864-2.864,2.871,2.871,0,0,1,2.864,2.864Z" transform="translate(-69.331 -249.297)" fill="#263238"/>
      <path id="パス_1293" data-name="パス 1293" d="M118.307,407.034a2.864,2.864,0,1,1-2.864-2.864,2.864,2.864,0,0,1,2.864,2.864Z" transform="translate(-77.708 -248.976)" fill="#263238"/>
      <path id="パス_1294" data-name="パス 1294" d="M74.87,402.492a1.391,1.391,0,0,0,1.413,1.114l29.907-.4,27.97.628a1.389,1.389,0,0,0,.307-2.751l-15.275-2.991a25.923,25.923,0,0,0-4.808-.449H97.935a25.893,25.893,0,0,0-4.8.449l-17.2,2.751a1.391,1.391,0,0,0-1.069,1.652Z" transform="translate(-68.185 -247.329)" fill="#263238"/>
      <path id="パス_1295" data-name="パス 1295" d="M74.27,339.46v.067h.979A7.029,7.029,0,0,1,74.27,339.46Z" transform="translate(-68.042 -232.648)" fill="#263238"/>
      <path id="パス_1296" data-name="パス 1296" d="M112.272,251.531a.906.906,0,0,1,0,.142v51.141H66.44V251.142a8.726,8.726,0,0,1,.075-1.166H66.44l.434-7.2a8.553,8.553,0,0,1,2.378-5.428l4.583-4.8L76.2,220.585a3.985,3.985,0,0,1,3.9-3.215H90.672a3.993,3.993,0,0,1,3.738,2.692l4.426,12.9,8.441,5.2a8.583,8.583,0,0,1,3.993,6.056l1.1,7.342Z" transform="translate(-66.066 -201.842)" fill="#fe5276"/>
      <path id="パス_1297" data-name="パス 1297" d="M114.346,251.531a.906.906,0,0,1,0,.142v51.141H74.66V251.142a8.725,8.725,0,0,1,.075-1.166H74.66l.434-7.2a8.553,8.553,0,0,1,2.378-5.428l4.583-4.8,2.363-11.963a3.985,3.985,0,0,1,3.9-3.215h4.426a3.993,3.993,0,0,1,3.738,2.692l4.426,12.9,8.441,5.2a8.583,8.583,0,0,1,3.993,6.056l1.1,7.342Z" transform="translate(-68.14 -201.842)" opacity="0.1"/>
      <path id="パス_1298" data-name="パス 1298" d="M124.766,342.87H100.16a90.633,90.633,0,0,0,9.48,3.2v3.985h5.637V346.07a91.038,91.038,0,0,0,9.488-3.2Z" transform="translate(-74.574 -233.509)" fill="#263238"/>
      <path id="パス_1299" data-name="パス 1299" d="M101.85,327.915a297.194,297.194,0,0,0,43.544-1.54,4.718,4.718,0,0,1,5.376,4.77v.748a6.191,6.191,0,0,1-5.376,5.981,297.2,297.2,0,0,1-43.544,1.54Z" transform="translate(-75.001 -229.335)" fill="#fe5276"/>
      <path id="パス_1300" data-name="パス 1300" d="M101.85,327.915a297.194,297.194,0,0,0,43.544-1.54,4.718,4.718,0,0,1,5.376,4.77v.748a6.191,6.191,0,0,1-5.376,5.981,297.2,297.2,0,0,1-43.544,1.54Z" transform="translate(-75.001 -229.335)" opacity="0.2"/>
      <path id="パス_1301" data-name="パス 1301" d="M71.039,337.825c8.314.748,16.516,1.331,24.86,1.66a4.994,4.994,0,0,0,5.122-5.017V333.2a5.234,5.234,0,0,0-5.123-5.234c-8.343-.336-16.545-.882-24.859-1.667a4.486,4.486,0,0,0-5.1,4.486v1.271A5.869,5.869,0,0,0,71.039,337.825Z" transform="translate(-65.94 -229.316)" fill="#fe5276"/>
      <path id="パス_1302" data-name="パス 1302" d="M167.022,385.88l-.052,12.568,6.273-.127,1.293-11.858Z" transform="translate(-91.432 -244.361)" fill="#b55b52"/>
      <path id="パス_1303" data-name="パス 1303" d="M176.791,401.913a.142.142,0,0,1-.112-.12.135.135,0,0,1,.067-.15c.1-.052,2.243-1.241,3.237-.95a.748.748,0,0,1,.449.344.538.538,0,0,1,0,.621,2.6,2.6,0,0,1-1.794.449A11.062,11.062,0,0,1,176.791,401.913Zm.471-.187c1.129.15,2.654.157,2.946-.232a.416.416,0,0,0,0-.314.381.381,0,0,0-.277-.209,1.172,1.172,0,0,0-.277-.037A6.639,6.639,0,0,0,177.262,401.726Z" transform="translate(-93.881 -248.088)" fill="#fe5276"/>
      <path id="パス_1304" data-name="パス 1304" d="M176.709,401.414a.135.135,0,0,1-.06-.135,4.069,4.069,0,0,1,.964-2.34,1.077,1.077,0,0,1,.808-.232c.4.045.516.247.523.411.127.68-1.346,1.981-2.079,2.3h-.06a.142.142,0,0,1-.1,0Zm1.607-2.437a.748.748,0,0,0-.493.172,3.394,3.394,0,0,0-.83,1.854c.748-.434,1.727-1.458,1.69-1.869,0,0,0-.142-.284-.164Z" transform="translate(-93.874 -247.596)" fill="#fe5276"/>
      <path id="パス_1305" data-name="パス 1305" d="M173.153,401.165l-6.624-.075a.546.546,0,0,0-.531.411l-1.256,5.376a.89.89,0,0,0,.658,1.069h.179c2.393,0,4.486-.127,7.477-.09,3.507.045,2.609.456,6.729.561,2.482.06,2.991-2.759,1.922-2.916-4.822-.658-5.3-2.123-7.148-3.865a2.123,2.123,0,0,0-1.406-.471Z" transform="translate(-90.864 -248.199)" fill="#263238"/>
      <path id="パス_1306" data-name="パス 1306" d="M167.576,392.7l6.654-.449.4-8.157-7.544-.135Z" transform="translate(-91.463 -243.877)" opacity="0.1"/>
      <path id="パス_1307" data-name="パス 1307" d="M149.175,317.211a1.813,1.813,0,0,0,.075.336,32.574,32.574,0,0,0-.71-4.6c-2.138-8.322-24.419-9.72-33.533-9.929l-10.953,1.2s-1.024,8.77,1.585,14.325S149.175,317.211,149.175,317.211Z" transform="translate(-75.507 -223.454)" opacity="0.4"/>
      <path id="パス_1308" data-name="パス 1308" d="M147.13,388.572l.568,12.755,6.176-.224.733-13.5Z" transform="translate(-86.426 -244.795)" fill="#b55b52"/>
      <path id="パス_1309" data-name="パス 1309" d="M157.416,402.831a.149.149,0,0,1-.127-.112.135.135,0,0,1,.06-.15c.082-.067,2.093-1.45,3.125-1.256a.748.748,0,0,1,.479.292.553.553,0,0,1,.067.628,2.617,2.617,0,0,1-1.742.613A11.06,11.06,0,0,1,157.416,402.831Zm.449-.232c1.136,0,2.662-.1,2.908-.516.037-.052.067-.142-.06-.314a.389.389,0,0,0-.3-.172.852.852,0,0,0-.277,0,6.73,6.73,0,0,0-2.273.972Z" transform="translate(-88.988 -248.251)" fill="#fe5276"/>
      <path id="パス_1310" data-name="パス 1310" d="M157.335,402.384a.142.142,0,0,1-.075-.127,3.921,3.921,0,0,1,.748-2.422,1.114,1.114,0,0,1,.748-.314c.4,0,.538.194.568.359.187.673-1.151,2.108-1.847,2.49a.082.082,0,0,1-.06,0,.149.149,0,0,1-.082.015ZM158.7,399.8a.748.748,0,0,0-.486.224,3.387,3.387,0,0,0-.643,1.922c.71-.508,1.578-1.615,1.5-2.026,0,0-.037-.135-.3-.135H158.7Z" transform="translate(-88.982 -247.803)" fill="#fe5276"/>
      <path id="パス_1311" data-name="パス 1311" d="M153.893,402.285l-6.6.561a.546.546,0,0,0-.486.464l-.748,5.473a.9.9,0,0,0,.748,1h.187c2.378-.239,4.486-.553,7.477-.8,3.492-.3,2.639.194,6.729-.1,2.475-.179,2.692-3.036,1.63-3.088-4.86-.187-5.488-1.6-7.477-3.163a2.146,2.146,0,0,0-1.458-.351Z" transform="translate(-86.154 -248.497)" fill="#263238"/>
      <path id="パス_1312" data-name="パス 1312" d="M154.186,395.677l.351-6.437-7.357.164.292,6.744Z" transform="translate(-86.439 -245.209)" opacity="0.1"/>
      <path id="パス_1313" data-name="パス 1313" d="M121.157,301.867s38.879-2.991,41.563,7.514-3.275,59.926-3.275,59.926l-9.615.807s-1.264-29.159-1.436-53.3c0,0-40.928,6.894-43.537,1.338s-1.585-14.325-1.585-14.325Z" transform="translate(-75.31 -223.063)" fill="#fe5276"/>
      <path id="パス_1314" data-name="パス 1314" d="M121.157,301.867s38.879-2.991,41.563,7.514-3.275,59.926-3.275,59.926l-9.615.807s-1.264-29.159-1.436-53.3c0,0-40.928,6.894-43.537,1.338s-1.585-14.325-1.585-14.325Z" transform="translate(-75.31 -223.063)" fill="#263238"/>
      <path id="パス_1315" data-name="パス 1315" d="M121.157,301.867s38.879-2.991,41.563,7.514-3.275,59.926-3.275,59.926l-9.615.807s-1.264-29.159-1.436-53.3c0,0-40.928,6.894-43.537,1.338s-1.585-14.325-1.585-14.325Z" transform="translate(-75.31 -223.063)" opacity="0.1"/>
      <path id="パス_1316" data-name="パス 1316" d="M107.666,304.026s39.186-1.5,39.724,9.294c.419,8.456-6.729,58.67-6.729,58.67l-8.972.7s-1.645-30.176-.523-50.774c0,0-33.817,3.88-39.776-.882-5.652-4.538-1.234-17.039-1.234-17.039Z" transform="translate(-71.635 -223.69)" fill="#263238"/>
      <g id="freepik--group--inject-1" transform="translate(9.302)">
        <path id="パス_1317" data-name="パス 1317" d="M163.19,291.879v-.15a4.194,4.194,0,0,1,3.447-3.409l4.172-.68s6.946,3.432,5.361,4.194H168.5Z" transform="translate(-99.781 -219.573)" fill="#b55b52"/>
        <path id="パス_1318" data-name="パス 1318" d="M157.919,275.9l-5.637,3.918-16.4-10.7-7.178-7.2s-13.593-20.845-6.894-22.071c3.058-.561,13.757,13.2,20.591,24.471h0C150.569,270.88,157.919,275.9,157.919,275.9Z" transform="translate(-88.872 -207.508)" fill="#fe5276"/>
        <g id="グループ_32" data-name="グループ 32" transform="translate(31.086 32.319)" opacity="0.3">
          <path id="パス_1319" data-name="パス 1319" d="M157.919,275.9l-5.637,3.918-16.4-10.7-7.178-7.2s-13.593-20.845-6.894-22.071c3.058-.561,13.757,13.2,20.591,24.471h0C150.569,270.88,157.919,275.9,157.919,275.9Z" transform="translate(-119.958 -239.828)"/>
        </g>
        <path id="パス_1320" data-name="パス 1320" d="M119.336,286.577h0a55.6,55.6,0,0,1-17.563,1.764l-12.71-.748c-.3-2.617-2.243-8.352-4.95-23.178-3.35-23.641.621-24.875,2.654-25.234h.067c1.884-.314,4.247-.658,6.572-.83a123.859,123.859,0,0,1,13.324-.4,37.643,37.643,0,0,1,4.411.568,5.578,5.578,0,0,1,4.434,3.536C117.653,248.064,118.371,262.323,119.336,286.577Z" transform="translate(-79.501 -207.026)" fill="#fe5276"/>
        <path id="パス_1321" data-name="パス 1321" d="M119.336,286.577h0a55.6,55.6,0,0,1-17.563,1.764l-12.71-.748c-.3-2.617-2.243-8.352-4.95-23.178-3.35-23.641.621-24.875,2.654-25.234h.067c1.884-.314,4.247-.658,6.572-.83a123.859,123.859,0,0,1,13.324-.4,37.643,37.643,0,0,1,4.411.568,5.578,5.578,0,0,1,4.434,3.536C117.653,248.064,118.371,262.323,119.336,286.577Z" transform="translate(-79.501 -207.026)" opacity="0.4"/>
        <path id="パス_1322" data-name="パス 1322" d="M105.484,236.805c-6.594.561-9.114-3.327-9.114-3.327,2.811-2.991,1.458-10.766.344-15.028l3.649,2.849,4.98,3.88a17.706,17.706,0,0,0-.247,1.981,7.574,7.574,0,0,0,0,1.428v.1c.224,2,1.331,3.649,4.486,4.284C109.551,232.977,111.1,236.312,105.484,236.805Z" transform="translate(-82.92 -202.114)" fill="#b55b52"/>
        <path id="パス_1323" data-name="パス 1323" d="M106.693,226.67a17.7,17.7,0,0,0-.247,1.981,7.574,7.574,0,0,0,0,1.428v.1c-1.817-.321-4.262-2.161-4.591-4.008a8.89,8.89,0,0,1-.127-1.839Z" transform="translate(-84.271 -203.598)" opacity="0.2" style="isolation: isolate"/>
        <path id="パス_1324" data-name="パス 1324" d="M94.54,237.725l2.011-.815a20.1,20.1,0,0,0,8.052,4.553,7.776,7.776,0,0,0-2.751,3.589C94.727,242.9,94.54,237.725,94.54,237.725Z" transform="translate(-82.458 -206.772)" fill="#fff"/>
        <path id="パス_1325" data-name="パス 1325" d="M112.486,237.276l-1.907-.336s-.65,3.97-2.579,4.583c3.447,1.219,4.06,2.879,4.06,2.879C116.89,242.675,112.486,237.276,112.486,237.276Z" transform="translate(-85.855 -206.78)" fill="#fff"/>
        <path id="パス_1326" data-name="パス 1326" d="M112.34,201.457c.994,1.166,1.293,4.008,2.243,5.166A21.682,21.682,0,0,0,115.891,203a1.772,1.772,0,0,0-.561-1.7C114.665,200.761,113.162,201.157,112.34,201.457Z" transform="translate(-86.95 -197.719)" fill="#263238"/>
        <path id="パス_1327" data-name="パス 1327" d="M95.51,205.164A7.679,7.679,0,0,1,104.8,199.5c6.056,1.3,8.621,9.608,8.464,14.953a7.589,7.589,0,0,1-11.963,6.1c-3.514-2.415-4.135-5.78-5.667-11.4a7.664,7.664,0,0,1-.12-3.985Z" transform="translate(-82.651 -197.277)" fill="#b55b52"/>
        <path id="パス_1328" data-name="パス 1328" d="M113.479,220.067a27.883,27.883,0,0,0-5.929,0,3.387,3.387,0,0,0,3.791,2.37,2.183,2.183,0,0,0,2.138-2.168Z" transform="translate(-85.741 -202.482)" fill="#263238"/>
        <path id="パス_1329" data-name="パス 1329" d="M110.726,221.831a3.738,3.738,0,0,1,2.452.553,2.325,2.325,0,0,1-1.376.523,3.686,3.686,0,0,1-2.452-.546,2.243,2.243,0,0,1,1.376-.531Z" transform="translate(-86.195 -202.96)" fill="#e83f3f"/>
        <path id="パス_1330" data-name="パス 1330" d="M113.345,220.048a.987.987,0,0,1-.658.748,20.855,20.855,0,0,1-3.865-.112,1.189,1.189,0,0,1-1-.65A32.465,32.465,0,0,1,113.345,220.048Z" transform="translate(-85.809 -202.486)" fill="#fff"/>
        <path id="パス_1331" data-name="パス 1331" d="M113.532,216.416a2.692,2.692,0,0,0,2.116-.793,17.242,17.242,0,0,1-3.058-3.574Z" transform="translate(-87.013 -200.499)" opacity="0.2" style="isolation: isolate"/>
        <path id="パス_1332" data-name="パス 1332" d="M106.624,201.169a11.707,11.707,0,0,0-.785-1.279,2.243,2.243,0,0,0-2.3-.538,3.619,3.619,0,0,0-1.9,1.563,11.964,11.964,0,0,0-1.219,2.587,2.535,2.535,0,0,1-.748,2.116h0a2.5,2.5,0,0,1-2.131.561c-.284.852,1.555,3.327,1.907,3.649a2.991,2.991,0,0,0,1.159.673,2.49,2.49,0,0,1-1.264.232l-.4-.045c-1.5-.254-7.26-3.865-4-9.854A8.576,8.576,0,0,1,106.7,197.8C110.654,200.361,106.916,201.587,106.624,201.169Z" transform="translate(-82.311 -196.601)" fill="#263238"/>
        <path id="パス_1333" data-name="パス 1333" d="M96.674,212.578a65.6,65.6,0,0,1-.127,7.948c-2.019-1.615-3.963-5.234-4.89-7.679a10.572,10.572,0,0,1,.292-8.486,8.449,8.449,0,0,1,2.191-2.684,7.693,7.693,0,0,1,4.822-1.787c0,2.243,0,4.4-.09,6.572a2.5,2.5,0,0,1-2.131.561c-.284.852.493,2.512.92,3.312a3.925,3.925,0,0,0,.845,1.114,7.43,7.43,0,0,1-.1.9c-.09.688-.179,1.383-.292,2.071Z" transform="translate(-81.542 -197.431)" fill="#263238"/>
        <path id="パス_1334" data-name="パス 1334" d="M95.356,214.273c1.443-.239,2.991,1.548,3.641,2.856.7,1.5.232,2.849-1.3,2.512a5.488,5.488,0,0,1-2.991-2.1C93.734,216.247,93.921,214.512,95.356,214.273Z" transform="translate(-82.348 -201.055)" fill="#b55b52"/>
        <path id="パス_1335" data-name="パス 1335" d="M107.972,212c.307-.045.643.329.748.748s-.082.837-.389.89-.591-.284-.748-.748A.631.631,0,0,1,107.972,212Z" transform="translate(-85.737 -200.486)" fill="#263238"/>
        <path id="パス_1336" data-name="パス 1336" d="M114.922,210.4c.307-.052.628.277.748.748s-.067.882-.374.935-.636-.284-.748-.748S114.616,210.45,114.922,210.4Z" transform="translate(-87.499 -200.081)" fill="#263238"/>
        <path id="パス_1337" data-name="パス 1337" d="M113.474,207.792a.307.307,0,0,0,.254.06,2.348,2.348,0,0,1,2.041.254.269.269,0,0,0,.381-.037h0a.292.292,0,0,0-.045-.389h0a2.849,2.849,0,0,0-2.542-.351.284.284,0,0,0-.187.344.389.389,0,0,0,.1.12Z" transform="translate(-87.209 -199.269)" fill="#263238"/>
        <path id="パス_1338" data-name="パス 1338" d="M105.9,210.5a.307.307,0,0,0,.239-.112,2.385,2.385,0,0,1,1.765-1.054.262.262,0,0,0,.277-.262h0a.284.284,0,0,0-.277-.277h0a2.893,2.893,0,0,0-2.243,1.286.284.284,0,0,0,.075.389A.449.449,0,0,0,105.9,210.5Z" transform="translate(-85.254 -199.679)" fill="#263238"/>
        <path id="パス_1339" data-name="パス 1339" d="M88.952,254.764l.748-1.555c.972-2.041,5.017-10.168,6.991-11.028l.748-.464,2.714,4.224c-.471.4-5.652,13.787-6.894,16.591a9.875,9.875,0,0,0-.486,1.316c-.845,3.065-6.064,7.768-9.555-1.062-.867-1.854-1.667-3.686-2.385-5.533-.366-.965-.7-1.869-1.032-2.826l-.344-.972c-1.607-4.613-1.884-9.9,2.52-12.613l2.991-1Z" transform="translate(-78.381 -207.512)" fill="#fe5276"/>
        <g id="グループ_33" data-name="グループ 33" transform="translate(0 32.328)" opacity="0.3">
          <path id="パス_1340" data-name="パス 1340" d="M88.952,254.764l.748-1.555c.972-2.041,5.017-10.168,6.991-11.028l.748-.464,2.714,4.224c-.471.4-5.652,13.787-6.894,16.591a9.875,9.875,0,0,0-.486,1.316c-.845,3.065-6.064,7.768-9.555-1.062-.867-1.854-1.667-3.686-2.385-5.533-.366-.965-.7-1.869-1.032-2.826l-.344-.972c-1.607-4.613-1.884-9.9,2.52-12.613l2.991-1Z" transform="translate(-78.381 -239.84)"/>
        </g>
        <path id="パス_1341" data-name="パス 1341" d="M113.428,237.034a2.557,2.557,0,0,0,.142.583,4.56,4.56,0,0,0,.336.815,4.2,4.2,0,0,0,.748.9s.187.157.194.172a4.359,4.359,0,0,0,.553.426,3.387,3.387,0,0,0,1.226.561.291.291,0,0,1,.194.157c.052.1.12.209.179.307a1.806,1.806,0,0,1,.135.269.665.665,0,0,0,.269.321,2.242,2.242,0,0,0,.748.277,8.038,8.038,0,0,0,2.116.15,10.709,10.709,0,0,0,1.1-.09,8.913,8.913,0,0,0,1.159-.254,3.312,3.312,0,0,0,.867-.374.591.591,0,0,0,.262-.277,1.608,1.608,0,0,1,.075-.2l.232-.561c.112-.284.209-.583.3-.875a8.389,8.389,0,0,0,.247-.875c.06-.3.127-.6.172-.9.075-.508.135-1.024.187-1.548a4.911,4.911,0,0,1,.037-.748,2.243,2.243,0,0,0-.067-.591.852.852,0,0,0-.209-.351,2.758,2.758,0,0,0-.965-.628,4.679,4.679,0,0,0-1.054-.284c-.15,0-.3-.06-.449-.075a11.14,11.14,0,0,0-4.748.359,6.538,6.538,0,0,0-.9.329,3.8,3.8,0,0,0-.748.464,1.622,1.622,0,0,0-.4.493.748.748,0,0,0-.075.232c0,.09,0,.1-.112.082a1.4,1.4,0,0,0-1.368.426,1.54,1.54,0,0,0-.292.546A2.183,2.183,0,0,0,113.428,237.034Zm3.918-1.211a4.484,4.484,0,0,1-.935-.269.538.538,0,0,1-.2-.112,1.316,1.316,0,0,1,.4-.471,3.248,3.248,0,0,1,.344-.209,3.881,3.881,0,0,1,.665-.269,8.7,8.7,0,0,1,1.077-.262c.351-.06.688-.1,1.047-.127s.591,0,.92,0a9.587,9.587,0,0,1,1.234.075,6.211,6.211,0,0,1,1.226.284,2.1,2.1,0,0,1,.89.561h0l-.09.067a1.742,1.742,0,0,1-.254.15,4.354,4.354,0,0,1-1.054.389l-.247.067h-.142a7.89,7.89,0,0,1-.822.142,7.378,7.378,0,0,1-.807.082l-.628.045h-1.735A7.814,7.814,0,0,1,117.346,235.823Zm-2.639.972a.583.583,0,0,1,.479-.471h.172c.075.4.172.785.262,1.166.112.508.269.994.426,1.5a2.535,2.535,0,0,0,.314.688l-.292-.224a4.142,4.142,0,0,1-.748-.8,3.9,3.9,0,0,1-.553-.972,1.443,1.443,0,0,1-.06-.882Z" transform="translate(-87.223 -205.842)" fill="#fe5276"/>
        <path id="パス_1342" data-name="パス 1342" d="M113.428,237.034a2.557,2.557,0,0,0,.142.583,4.56,4.56,0,0,0,.336.815,4.2,4.2,0,0,0,.748.9s.187.157.194.172a4.359,4.359,0,0,0,.553.426,3.387,3.387,0,0,0,1.226.561.291.291,0,0,1,.194.157c.052.1.12.209.179.307a1.806,1.806,0,0,1,.135.269.665.665,0,0,0,.269.321,2.242,2.242,0,0,0,.748.277,8.038,8.038,0,0,0,2.116.15,10.709,10.709,0,0,0,1.1-.09,8.913,8.913,0,0,0,1.159-.254,3.312,3.312,0,0,0,.867-.374.591.591,0,0,0,.262-.277,1.608,1.608,0,0,1,.075-.2l.232-.561c.112-.284.209-.583.3-.875a8.389,8.389,0,0,0,.247-.875c.06-.3.127-.6.172-.9.075-.508.135-1.024.187-1.548a4.911,4.911,0,0,1,.037-.748,2.243,2.243,0,0,0-.067-.591.852.852,0,0,0-.209-.351,2.758,2.758,0,0,0-.965-.628,4.679,4.679,0,0,0-1.054-.284c-.15,0-.3-.06-.449-.075a11.14,11.14,0,0,0-4.748.359,6.538,6.538,0,0,0-.9.329,3.8,3.8,0,0,0-.748.464,1.622,1.622,0,0,0-.4.493.748.748,0,0,0-.075.232c0,.09,0,.1-.112.082a1.4,1.4,0,0,0-1.368.426,1.54,1.54,0,0,0-.292.546A2.183,2.183,0,0,0,113.428,237.034Zm3.918-1.211a4.484,4.484,0,0,1-.935-.269.538.538,0,0,1-.2-.112,1.316,1.316,0,0,1,.4-.471,3.248,3.248,0,0,1,.344-.209,3.881,3.881,0,0,1,.665-.269,8.7,8.7,0,0,1,1.077-.262c.351-.06.688-.1,1.047-.127s.591,0,.92,0a9.587,9.587,0,0,1,1.234.075,6.211,6.211,0,0,1,1.226.284,2.1,2.1,0,0,1,.89.561h0l-.09.067a1.742,1.742,0,0,1-.254.15,4.354,4.354,0,0,1-1.054.389l-.247.067h-.142a7.89,7.89,0,0,1-.822.142,7.378,7.378,0,0,1-.807.082l-.628.045h-1.735A7.814,7.814,0,0,1,117.346,235.823Zm-2.639.972a.583.583,0,0,1,.479-.471h.172c.075.4.172.785.262,1.166.112.508.269.994.426,1.5a2.535,2.535,0,0,0,.314.688l-.292-.224a4.142,4.142,0,0,1-.748-.8,3.9,3.9,0,0,1-.553-.972,1.443,1.443,0,0,1-.06-.882Z" transform="translate(-87.223 -205.842)" fill="#fff" opacity="0.7"/>
        <path id="パス_1343" data-name="パス 1343" d="M117.14,235.734a1.249,1.249,0,0,1,.4-.471,2.723,2.723,0,0,1,.351-.209,3.582,3.582,0,0,1,.658-.269,8.69,8.69,0,0,1,1.077-.262c.351-.06.688-.1,1.047-.127s.591,0,.92,0a9.794,9.794,0,0,1,1.241.082,5.75,5.75,0,0,1,1.219.277,2.1,2.1,0,0,1,.89.561h0l-.09.067a2.239,2.239,0,0,1-.254.15,5,5,0,0,1-1.054.4l-.254.06h-.142c-.269.06-.546.112-.822.15a7.2,7.2,0,0,1-.807.075l-.628.045h-1.757a4.625,4.625,0,0,1-.845-.135,3.888,3.888,0,0,1-.927-.269.516.516,0,0,1-.217-.12Z" transform="translate(-88.161 -206.134)" fill="#fff" opacity="0.9"/>
        <path id="パス_1344" data-name="パス 1344" d="M117.16,235.734a1.166,1.166,0,0,1,.4-.471,3.243,3.243,0,0,1,.344-.209,4.639,4.639,0,0,1,.665-.277,10.579,10.579,0,0,1,1.069-.254c.359-.06.7-.1,1.054-.127s.591,0,.92,0a9.793,9.793,0,0,1,1.241.075,6.266,6.266,0,0,1,1.219.284,2.146,2.146,0,0,1,.89.561h0a.3.3,0,0,1-.09.075,1.668,1.668,0,0,1-.247.15,4.9,4.9,0,0,1-1.062.4l-.254.06h-.135c-.277.06-.546.1-.822.142s-.538.067-.807.082l-.628.045h-1.757a4.625,4.625,0,0,1-.845-.135,4.485,4.485,0,0,1-.935-.269.538.538,0,0,1-.217-.127Z" transform="translate(-88.166 -206.134)" fill="none"/>
        <path id="パス_1345" data-name="パス 1345" d="M117.16,235.734a1.166,1.166,0,0,1,.4-.471,3.243,3.243,0,0,1,.344-.209,4.639,4.639,0,0,1,.665-.277,10.579,10.579,0,0,1,1.069-.254c.359-.06.7-.1,1.054-.127s.591,0,.92,0a9.793,9.793,0,0,1,1.241.075,6.266,6.266,0,0,1,1.219.284,2.146,2.146,0,0,1,.89.561h0a.3.3,0,0,1-.09.075,1.668,1.668,0,0,1-.247.15,4.9,4.9,0,0,1-1.062.4l-.254.06h-.135c-.277.06-.546.1-.822.142s-.538.067-.807.082l-.628.045h-1.757a4.625,4.625,0,0,1-.845-.135,4.485,4.485,0,0,1-.935-.269.538.538,0,0,1-.217-.127Z" transform="translate(-88.166 -206.134)" fill="none"/>
        <path id="パス_1346" data-name="パス 1346" d="M117.15,235.736a.538.538,0,0,0,.2.112,4.487,4.487,0,0,0,.935.269,7.811,7.811,0,0,0,.837.135h1.7l.628-.045a7.382,7.382,0,0,0,.807-.082,7.881,7.881,0,0,0,.822-.142h.142l.247-.067a4.35,4.35,0,0,0,1.054-.389,1.741,1.741,0,0,0,.254-.15l.09-.067h0a2.1,2.1,0,0,0-.89-.561,6.213,6.213,0,0,0-1.226-.284,9.589,9.589,0,0,0-1.234-.075h-.92a6.547,6.547,0,0,0-1.047.127,8.7,8.7,0,0,0-1.077.262,3.881,3.881,0,0,0-.665.269,3.24,3.24,0,0,0-.344.209A1.316,1.316,0,0,0,117.15,235.736Z" transform="translate(-88.164 -206.136)" fill="#263238"/>
        <path id="パス_1347" data-name="パス 1347" d="M117.071,234.815a2.389,2.389,0,0,1,.239-.239,6.078,6.078,0,0,1,2.8-.979,8.444,8.444,0,0,1,1.682-.09,6.534,6.534,0,0,1,2.8.65,1.891,1.891,0,0,1,.269.217.508.508,0,0,1,.052.673l-.1.082h0c-.86-.845-3.125-.875-3.865-.867s-2.991.366-3.738,1.3h0l-.1-.075a.493.493,0,0,1-.037-.673Z" transform="translate(-88.115 -205.911)" opacity="0.3"/>
        <path id="パス_1348" data-name="パス 1348" d="M112.519,238.455l.493,2.4-1.5,1.817a10.6,10.6,0,0,1-5.047,2.34,2.467,2.467,0,0,1-2.482-1.338l-.239-.464a2.99,2.99,0,0,1-.239-.65,2.241,2.241,0,0,1,1.166-2.662l3.611-3.178a43.051,43.051,0,0,1,4.389-.561C113.125,236.122,112.609,238.014,112.519,238.455Z" transform="translate(-84.699 -206.583)" fill="#b55b52"/>
      </g>
    </g>
    <g id="freepik--speech-bubble-3--inject-1" transform="translate(224.091 177.58)">
      <g id="freepik--freepik--speech-bubbles--inject-120--inject-1">
        <path id="パス_1349" data-name="パス 1349" d="M338.236,191.1l2.624,24.718a2.381,2.381,0,0,1,0,.464A2.826,2.826,0,0,1,337.922,219h-5.63c1.219,3.507,6.363,8.224,6.363,8.224a24.269,24.269,0,0,1-14.206-8.269l-40.307-.247a3.738,3.738,0,0,1-3.6-3.222L278,190.744a2.489,2.489,0,0,1,0-.471,2.826,2.826,0,0,1,2.938-2.714l53.758.322a3.738,3.738,0,0,1,3.544,3.222Z" transform="translate(-277.596 -187.176)" fill="#fe5276"/>
        <path id="パス_1350" data-name="パス 1350" d="M339.683,227.6l-1.189-.164a24.935,24.935,0,0,1-14.273-8.277l-40.135-.247a4.075,4.075,0,0,1-3.97-3.544l-2.639-24.726a3.034,3.034,0,0,1,0-.523,3.223,3.223,0,0,1,3.327-3.073l53.743.321a4.075,4.075,0,0,1,3.963,3.551h0l2.632,24.711a3.034,3.034,0,0,1,0,.523,3.2,3.2,0,0,1-3.327,3.073h-5.062c1.451,3.312,6.019,7.529,6.064,7.574Zm-59.066-39.8a2.437,2.437,0,0,0-1.675.65,2.482,2.482,0,0,0-.785,1.7,1.828,1.828,0,0,0,0,.4l2.7,24.726a3.327,3.327,0,0,0,3.237,2.886l40.479.247.112.135a24.075,24.075,0,0,0,12.71,7.88c-1.563-1.555-4.606-4.815-5.525-7.477l-.172-.5h6.153a2.467,2.467,0,0,0,2.565-2.355,2.43,2.43,0,0,0,0-.4l-2.632-24.718a3.335,3.335,0,0,0-3.237-2.893l-53.743-.322Z" transform="translate(-277.465 -187.048)" fill="#fe5276"/>
      </g>
      <rect id="長方形_88" data-name="長方形 88" width="29.937" height="0.748" transform="translate(25.716 6.978)" fill="#fff"/>
      <rect id="長方形_89" data-name="長方形 89" width="10.819" height="0.748" transform="translate(10.479 6.978)" fill="#fff"/>
      <rect id="長方形_90" data-name="長方形 90" width="13.279" height="0.748" transform="translate(43.795 13.445)" fill="#fff"/>
      <rect id="長方形_91" data-name="長方形 91" width="17.383" height="0.748" transform="translate(21.679 13.445)" fill="#fff"/>
      <rect id="長方形_92" data-name="長方形 92" width="10.58" height="0.748" transform="translate(7.032 13.445)" fill="#fff"/>
      <rect id="長方形_93" data-name="長方形 93" width="20.486" height="0.748" transform="translate(37.328 19.912)" fill="#fff"/>
      <rect id="長方形_94" data-name="長方形 94" width="9.331" height="0.748" transform="translate(24.071 19.912)" fill="#fff"/>
      <rect id="長方形_95" data-name="長方形 95" width="8.187" height="0.748" transform="translate(15.892 19.912)" fill="#fff"/>
      <rect id="長方形_96" data-name="長方形 96" width="5.907" height="0.748" transform="translate(7.78 19.912)" fill="#fff"/>
      <rect id="長方形_97" data-name="長方形 97" width="8.763" height="0.748" transform="translate(8.378 26.38)" fill="#fff"/>
    </g>
    <g id="freepik--speech-bubble-2--inject-1" transform="translate(204.996 149.528)">
      <g id="freepik--freepik-speech-bubbles-inject-120--inject-1">
        <path id="パス_1351" data-name="パス 1351" d="M258.687,150.341l53.75-.322a2.834,2.834,0,0,1,2.938,2.722,2.435,2.435,0,0,1,0,.464l-2.632,24.718a3.738,3.738,0,0,1-3.6,3.222l-40.307.239a24.307,24.307,0,0,1-14.191,8.247s5.151-4.725,6.363-8.224l-5.63.037a2.834,2.834,0,0,1-2.938-2.722,2.408,2.408,0,0,1,0-.464l2.624-24.673a3.738,3.738,0,0,1,3.626-3.245Z" transform="translate(-252.051 -149.652)" fill="#fff"/>
        <path id="パス_1352" data-name="パス 1352" d="M253.379,190.068l.882-.807c.052-.045,4.621-4.254,6.064-7.574h-5.069a3.215,3.215,0,0,1-3.32-3.08,3.065,3.065,0,0,1,0-.523l2.632-24.673a4.082,4.082,0,0,1,3.955-3.559h0l53.758-.322a3.23,3.23,0,0,1,3.312,3.08,3.071,3.071,0,0,1,0,.523l-2.632,24.673A4.09,4.09,0,0,1,309,181.366l-40.143.239a24.9,24.9,0,0,1-14.3,8.269Zm8.023-9.137-.172.5c-.92,2.654-3.955,5.914-5.518,7.477a24.06,24.06,0,0,0,12.71-7.88l.112-.135,40.486-.239a3.342,3.342,0,0,0,3.237-2.9l2.632-24.711a2.475,2.475,0,0,0-2.535-2.766l-53.8.351a3.335,3.335,0,0,0-3.23,2.9L252.706,178.2a2.571,2.571,0,0,0,0,.411,2.475,2.475,0,0,0,2.55,2.363Z" transform="translate(-251.925 -149.528)" fill="#fe5276"/>
      </g>
      <rect id="長方形_98" data-name="長方形 98" width="24.24" height="0.748" transform="translate(14.247 5.721)" fill="#fe5276"/>
      <rect id="長方形_99" data-name="長方形 99" width="14.632" height="0.748" transform="translate(44.146 5.721)" fill="#fe5276"/>
      <rect id="長方形_100" data-name="長方形 100" width="13.279" height="0.748" transform="translate(7.137 12.188)" fill="#fe5276"/>
      <rect id="長方形_101" data-name="長方形 101" width="32.03" height="0.748" transform="translate(25.148 12.188)" fill="#fe5276"/>
      <rect id="長方形_102" data-name="長方形 102" width="33.742" height="0.748" transform="translate(6.389 18.656)" fill="#fe5276"/>
      <rect id="長方形_103" data-name="長方形 103" width="11.028" height="0.748" transform="translate(45.402 18.656)" fill="#fe5276"/>
      <rect id="長方形_104" data-name="長方形 104" width="8.763" height="0.748" transform="translate(5.851 25.123)" fill="#fe5276"/>
    </g>
    <g id="freepik--speech-bubble-1--inject-1" transform="translate(110.396 158.141)">
      <g id="freepik--freepik-speech-bubbles-inject-120--inject-1-2" data-name="freepik--freepik-speech-bubbles-inject-120--inject-1" transform="translate(0 0)">
        <path id="パス_1353" data-name="パス 1353" d="M131.673,161.371l53.75-.322a2.834,2.834,0,0,1,2.938,2.722,3.237,3.237,0,0,1,0,.464l-2.639,24.711a3.738,3.738,0,0,1-3.6,3.222l-40.315.247a24.269,24.269,0,0,1-14.206,8.269s5.151-4.718,6.363-8.224h-5.623a2.819,2.819,0,0,1-2.938-2.714,3.172,3.172,0,0,1,0-.464l2.632-24.673a3.738,3.738,0,0,1,3.634-3.237Z" transform="translate(-125.399 -161.047)" fill="#263238"/>
      </g>
      <rect id="長方形_105" data-name="長方形 105" width="24.24" height="0.748" transform="translate(32.106 5.61)" fill="#fe5276"/>
      <rect id="長方形_106" data-name="長方形 106" width="14.632" height="0.748" transform="translate(11.822 5.61)" fill="#fe5276"/>
      <rect id="長方形_107" data-name="長方形 107" width="13.279" height="0.748" transform="translate(43.067 12.077)" fill="#fe5276"/>
      <rect id="長方形_108" data-name="長方形 108" width="32.03" height="0.748" transform="translate(6.304 12.077)" fill="#fe5276"/>
      <rect id="長方形_109" data-name="長方形 109" width="33.742" height="0.748" transform="translate(22.603 18.544)" fill="#fe5276"/>
      <rect id="長方形_110" data-name="長方形 110" width="11.028" height="0.748" transform="translate(6.304 18.544)" fill="#fe5276"/>
      <rect id="長方形_111" data-name="長方形 111" width="8.165" height="0.748" transform="translate(6.304 25.012)" fill="#fe5276"/>
    </g>
    <g id="freepik--Table--inject-1" transform="translate(66.207 236.222)">
      <rect id="長方形_112" data-name="長方形 112" width="8.374" height="11.2" rx="2.11" transform="translate(158.229 21.032) rotate(179.427)" fill="#fe5276"/>
      <path id="パス_1354" data-name="パス 1354" d="M263.71,285.994v-2.108a3.133,3.133,0,0,1,3.1-3.155h.7l.075,8.366h-.7a3.125,3.125,0,0,1-3.178-3.1Zm1.383-2.123v2.108a1.72,1.72,0,0,0,1.032,1.563l-.045-5.234a1.742,1.742,0,0,0-.987,1.563Z" transform="translate(-116.11 -269.328)" fill="#fe5276"/>
      <g id="グループ_34" data-name="グループ 34" transform="translate(147.6 9.832)" opacity="0.7">
        <rect id="長方形_113" data-name="長方形 113" width="8.374" height="11.2" rx="2.11" transform="translate(10.629 11.2) rotate(179.427)" fill="#fff"/>
        <path id="パス_1355" data-name="パス 1355" d="M263.71,285.994v-2.108a3.133,3.133,0,0,1,3.1-3.155h.7l.075,8.366h-.7a3.125,3.125,0,0,1-3.178-3.1Zm1.383-2.123v2.108a1.72,1.72,0,0,0,1.032,1.563l-.045-5.234a1.742,1.742,0,0,0-.987,1.563Z" transform="translate(-263.71 -279.16)" fill="#fff"/>
      </g>
      <path id="パス_1356" data-name="パス 1356" d="M348.094,292.7h-15.7a.613.613,0,0,1-.613-.613h0a.613.613,0,0,1,.613-.613h15.7a.621.621,0,0,1,.613.621h0a.613.613,0,0,1-.613.606Z" transform="translate(-133.286 -272.038)" fill="#fe5276"/>
      <path id="パス_1357" data-name="パス 1357" d="M348.094,292.7h-15.7a.613.613,0,0,1-.613-.613h0a.613.613,0,0,1,.613-.613h15.7a.621.621,0,0,1,.613.621h0a.613.613,0,0,1-.613.606Z" transform="translate(-133.286 -272.038)" opacity="0.4"/>
      <path id="パス_1358" data-name="パス 1358" d="M321.231,292.686l-32.666.052a.606.606,0,0,1-.606-.613h0a.613.613,0,0,1,.613-.613l32.666-.052a.606.606,0,0,1,.606.613h0A.613.613,0,0,1,321.231,292.686Z" transform="translate(-122.229 -272.035)" fill="#263238"/>
      <path id="パス_1359" data-name="パス 1359" d="M319.993,284.922l-30.094.135a2.168,2.168,0,0,1-2.108-1.966l-1.234-15.432a1.765,1.765,0,0,1,1.794-1.944l30.094-.135a2.168,2.168,0,0,1,2.108,1.966l1.234,15.432a1.764,1.764,0,0,1-1.794,1.944Z" transform="translate(-121.873 -265.505)" fill="#fe5276"/>
      <path id="パス_1360" data-name="パス 1360" d="M319.993,284.922l-30.094.135a2.168,2.168,0,0,1-2.108-1.966l-1.234-15.432a1.765,1.765,0,0,1,1.794-1.944l30.094-.135a2.168,2.168,0,0,1,2.108,1.966l1.234,15.432a1.764,1.764,0,0,1-1.794,1.944Z" transform="translate(-121.873 -265.505)" opacity="0.4"/>
      <path id="パス_1361" data-name="パス 1361" d="M318.79,284.822l-30.094.135a2.168,2.168,0,0,1-2.116-1.966l-1.234-15.432a1.764,1.764,0,0,1,1.794-1.944l30.094-.135a2.168,2.168,0,0,1,2.108,1.966l1.241,15.432a1.772,1.772,0,0,1-1.794,1.944Z" transform="translate(-121.567 -265.48)" fill="#fe5276"/>
      <path id="パス_1362" data-name="パス 1362" d="M318.79,284.822l-30.094.135a2.168,2.168,0,0,1-2.116-1.966l-1.234-15.432a1.764,1.764,0,0,1,1.794-1.944l30.094-.135a2.168,2.168,0,0,1,2.108,1.966l1.241,15.432a1.772,1.772,0,0,1-1.794,1.944Z" transform="translate(-121.567 -265.48)" fill="#fff" opacity="0.5"/>
      <path id="パス_1363" data-name="パス 1363" d="M303.137,278.183a3.432,3.432,0,0,0,3.282,3.148,2.774,2.774,0,0,0,2.871-2.991,3.424,3.424,0,0,0-3.282-3.14,2.774,2.774,0,0,0-2.871,2.983Z" transform="translate(-126.057 -267.932)" fill="#fff"/>
      <path id="パス_1364" data-name="パス 1364" d="M367.53,282.266l.307.553a2.041,2.041,0,0,1,.262.994v3.14c0,1.914,2.094,3.484,4.673,3.484h.68a4.949,4.949,0,0,0,4.232-2.026,1.5,1.5,0,0,0,.591-.262l1.817-1.353a.942.942,0,0,0,.426-.748v-1.7c0-.583-.65-1.062-1.436-1.062h-.957c-.052-.112.052-.292.194-.471l.03-.067a4.489,4.489,0,0,1,.493-.479h.037s-.082-.4-1.039-.194c-.277.06-.538.127-.748.194h-.179q-2.392-.042-4.785-.06h0a4,4,0,0,0-2.422.06h-.329c-.239-.067-.508-.135-.785-.194C367.612,281.87,367.53,282.266,367.53,282.266Zm10.542,5.4c0-.037.037-2.512.045-3.574a.576.576,0,0,1,.635-.464h.4c.493,0,.9.307.9.673v1.548c0,.508,0,.486-.508.852Z" transform="translate(-142.307 -269.653)" fill="#fe5276"/>
      <path id="パス_1365" data-name="パス 1365" d="M379.1,283.283h-.972c-.052-.112.052-.292.194-.471l.03-.06a3.852,3.852,0,0,1,.5-.479h0s-.082-.4-1.039-.194c-.277.06-.538.127-.748.194h-.179q-2.392-.042-4.785-.06a4,4,0,0,0-2.422.06h-.3c-.239-.067-.508-.135-.785-.194-.957-.209-1.039.194-1.039.194l.307.553a2.041,2.041,0,0,1,.262.994v3.14c0,1.914,2.093,3.484,4.673,3.484h.68a4.95,4.95,0,0,0,4.232-2.026,1.63,1.63,0,0,0,.591-.254l1.817-1.361a.964.964,0,0,0,.426-.748v-1.7A1.347,1.347,0,0,0,379.1,283.283Zm.965,2.565c0,.508,0,.486-.508.852l-1.5.965c0-.037.037-2.512.045-3.574a.576.576,0,0,1,.635-.464h.4c.5,0,.9.307.9.673Z" transform="translate(-142.314 -269.653)" fill="#fff" opacity="0.7"/>
      <path id="パス_1366" data-name="パス 1366" d="M87.777,299.68,78.7,388.818h2.9L96.8,299.68Z" transform="translate(-69.427 -274.11)" fill="#fe5276"/>
      <path id="パス_1367" data-name="パス 1367" d="M370.05,299.68l16.157,89.138h2.908L379.074,299.68Z" transform="translate(-142.943 -274.11)" fill="#fe5276"/>
      <path id="パス_1368" data-name="パス 1368" d="M103.3,388.907h2.9l16.471-89.227h-9.017Z" transform="translate(-75.634 -274.11)" fill="#fe5276"/>
      <path id="パス_1369" data-name="パス 1369" d="M403.827,299.68H394.81L412.6,388.907h2.9Z" transform="translate(-149.19 -274.11)" fill="#fe5276"/>
      <path id="パス_1370" data-name="パス 1370" d="M339.3,296.168a2.841,2.841,0,0,0-2.923-2.759H69.2a2.759,2.759,0,1,0,0,5.51H336.381A2.841,2.841,0,0,0,339.3,296.168Z" transform="translate(-66.298 -272.526)" fill="#fe5276"/>
      <g id="グループ_35" data-name="グループ 35" transform="translate(0 20.879)" opacity="0.6">
        <path id="パス_1371" data-name="パス 1371" d="M87.777,299.68,78.7,388.818h2.9L96.8,299.68Z" transform="translate(-69.427 -294.988)" fill="#fff"/>
        <path id="パス_1372" data-name="パス 1372" d="M370.05,299.68l16.157,89.138h2.908L379.074,299.68Z" transform="translate(-142.943 -294.988)" fill="#fff"/>
        <path id="パス_1373" data-name="パス 1373" d="M103.3,388.907h2.9l16.471-89.227h-9.017Z" transform="translate(-75.634 -294.988)" fill="#fff"/>
        <path id="パス_1374" data-name="パス 1374" d="M403.827,299.68H394.81L412.6,388.907h2.9Z" transform="translate(-149.19 -294.988)" fill="#fff"/>
        <path id="パス_1375" data-name="パス 1375" d="M339.3,296.168a2.841,2.841,0,0,0-2.923-2.759H69.2a2.759,2.759,0,1,0,0,5.51H336.381A2.841,2.841,0,0,0,339.3,296.168Z" transform="translate(-66.298 -293.405)" fill="#fff"/>
      </g>
    </g>
  </g>
</svg>
