<svg xmlns="http://www.w3.org/2000/svg" width="329.45" height="326.701" viewBox="0 0 329.45 326.701">
  <g id="Website_Creator-amico" data-name="Website Creator-amico" transform="translate(-24.611 -39.371)">
    <g id="freepik--Floor--inject-72" transform="translate(24.611 175.234)">
      <path id="パス_1376" data-name="パス 1376" d="M305.44,252.645c-64.513-37.264-168.841-37.264-232.958,0s-63.78,97.679.733,134.942,168.841,37.264,232.965,0S369.982,289.909,305.44,252.645Z" transform="translate(-24.611 -224.697)" fill="#f5f5f5"/>
    </g>
    <g id="freepik--Shadows--inject-72" transform="translate(38.617 197.917)">
      <path id="パス_1377" data-name="パス 1377" d="M207.337,401.256c-14.112-8.145-36.912-8.145-50.936,0s-13.929,21.355.169,29.5,36.912,8.152,50.936,0S221.449,409.4,207.337,401.256Z" transform="translate(-70.999 -292.872)" fill="#e6e6e6"/>
      <path id="パス_1378" data-name="パス 1378" d="M391.853,336.352c-15.014-8.673-39.28-8.673-54.2,0-13.2,7.661-14.662,19.523-4.457,28.166-8.225-.513-16.751,1.056-23.034,4.707-11,6.407-11,16.8.132,23.2s29.031,6.407,40.057,0c8.8-5.132,10.52-12.712,5.286-18.841,12.639,1.825,26.553-.117,36.4-5.865C406.955,359.078,406.874,345.025,391.853,336.352Z" transform="translate(-112.633 -275.444)" fill="#e6e6e6"/>
      <path id="パス_1379" data-name="パス 1379" d="M242.456,263.352,231.6,257.1a11,11,0,0,0-10.953,0L160.531,291.95l-5.308-3.057-43.532,25.475,5.022,2.888L45.53,358.362a3.666,3.666,0,0,0,0,6.327L56.482,371a11,11,0,0,0,11,0l71.111-41.149,8.313,4.794a21.92,21.92,0,0,0,21.9,0l25.571-14.765a4.868,4.868,0,0,0,0-8.438l-11.986-6.9,10.095-5.865,3.5-2.031,46.479-26.971a3.666,3.666,0,0,0-.007-6.327Z" transform="translate(-43.716 -255.638)" fill="#e6e6e6"/>
    </g>
    <g id="freepik--Device--inject-72" transform="translate(47.622 39.371)">
      <path id="パス_1380" data-name="パス 1380" d="M214.494,329.6l-20.849,11.935a19.794,19.794,0,0,1-19.684-.037l-15.476-8.915a5.945,5.945,0,0,1-2.969-5.132V316.9l-3.226,1.862v9.208a6.906,6.906,0,0,0,3.468,6l18.364,10.586a19.449,19.449,0,0,0,19.383,0l21-12.016a7.859,7.859,0,0,0,3.834-8.328,7.808,7.808,0,0,1-3.849,5.388Z" transform="translate(-81.7 -113.443)" fill="#85e1c2"/>
      <path id="パス_1381" data-name="パス 1381" d="M214.494,329.6l-20.849,11.935a19.794,19.794,0,0,1-19.684-.037l-15.476-8.915a5.945,5.945,0,0,1-2.969-5.132V316.9l-3.226,1.862v9.208a6.906,6.906,0,0,0,3.468,6l18.364,10.586a19.449,19.449,0,0,0,19.383,0l21-12.016a7.859,7.859,0,0,0,3.834-8.328,7.808,7.808,0,0,1-3.849,5.388Z" transform="translate(-81.7 -113.443)" opacity="0.1"/>
      <path id="パス_1382" data-name="パス 1382" d="M159.654,324.443l15.476,8.914a19.794,19.794,0,0,0,19.684.037l20.849-11.935a5.7,5.7,0,0,0,.169-10.711l-17.1-10.263a6.928,6.928,0,0,1-3.358-5.938V286.41l-38.7,22.352v10.549A5.946,5.946,0,0,0,159.654,324.443Z" transform="translate(-82.869 -105.305)" fill="#85e1c2"/>
      <path id="パス_1383" data-name="パス 1383" d="M158.485,332.581a5.946,5.946,0,0,1-2.969-5.132V316.9l-3.226,1.862v9.208a6.906,6.906,0,0,0,3.468,6l6.517,3.753v-2.932Z" transform="translate(-81.7 -113.443)" opacity="0.4"/>
      <path id="パス_1384" data-name="パス 1384" d="M159.654,324.443l3.775,2.2h0l40.4-23.1-5.132-3.05a6.928,6.928,0,0,1-3.358-5.938V286.41L156.67,308.762v10.549A5.946,5.946,0,0,0,159.654,324.443Z" transform="translate(-82.869 -105.305)" opacity="0.3"/>
      <path id="パス_1385" data-name="パス 1385" d="M67.5,374.13Z" transform="translate(-59.059 -128.717)" fill="#ffa8a7"/>
      <path id="パス_1386" data-name="パス 1386" d="M62.611,280.928l-.293-132.237a13.084,13.084,0,0,1,5.865-10.219L232.6,43.813a4.192,4.192,0,0,1,4.171-.425l-6.195-3.556h0c-1.078-.689-2.6-.63-4.3.345L61.915,134.806a12.85,12.85,0,0,0-5.865,10.219l.293,132.237a4.154,4.154,0,0,0,1.576,3.665h0a2.418,2.418,0,0,0,.33.191l6.077,3.57A4.1,4.1,0,0,1,62.611,280.928Z" transform="translate(-56.013 -39.371)" fill="#85e1c2"/>
      <path id="パス_1387" data-name="パス 1387" d="M231.068,39.832h0c-1.078-.689-2.6-.63-4.3.345L62.4,134.806a12.36,12.36,0,0,0-4.523,5.044l6.327,3.666a12.382,12.382,0,0,1,4.509-5.029L233.092,43.813a4.192,4.192,0,0,1,4.171-.425Z" transform="translate(-56.502 -39.371)" fill="#fff" opacity="0.3"/>
      <path id="パス_1388" data-name="パス 1388" d="M56,181.6l.293,132.237a4.155,4.155,0,0,0,1.576,3.666h0a2.42,2.42,0,0,0,.33.191l6.114,3.57a4.155,4.155,0,0,1-1.7-3.775l-.293-132.237a11.517,11.517,0,0,1,1.386-5.19l-6.327-3.665A11.539,11.539,0,0,0,56,181.6Z" transform="translate(-56 -75.941)" opacity="0.2"/>
      <path id="パス_1389" data-name="パス 1389" d="M302.66,44.9Z" transform="translate(-121.833 -40.847)" fill="#ffa8a7"/>
      <path id="パス_1390" data-name="パス 1390" d="M240.854,48.537a4.164,4.164,0,0,0-1.7-3.775h-.037a4.192,4.192,0,0,0-4.171.425L70.525,139.808a12.888,12.888,0,0,0-5.865,10.219l.249,132.237a4.139,4.139,0,0,0,1.7,3.775l.088.051h.044a4.236,4.236,0,0,0,4.105-.462l164.391-94.636a12.9,12.9,0,0,0,5.865-10.219Zm-8.541,137.4L70.774,278.966l-.293-128.953a7.39,7.39,0,0,1,2.984-5.132L234.989,51.836l.293,128.953A7.39,7.39,0,0,1,232.313,185.935Z" transform="translate(-58.311 -40.708)" fill="#85e1c2"/>
      <path id="パス_1391" data-name="パス 1391" d="M237.215,54.55l-4.179,2.412.279,124.5a7.331,7.331,0,0,1-2.984,5.132L73,277.23v4.45l161.554-93.031a7.39,7.39,0,0,0,2.984-5.132Z" transform="translate(-60.537 -43.422)" fill="#85e1c2"/>
      <path id="パス_1392" data-name="パス 1392" d="M237.215,54.55l-4.179,2.412.279,124.5a7.331,7.331,0,0,1-2.984,5.132L73,277.23v4.45l161.554-93.031a7.39,7.39,0,0,0,2.984-5.132Z" transform="translate(-60.537 -43.422)" opacity="0.3"/>
      <path id="パス_1393" data-name="パス 1393" d="M233.217,182.343l-.279-124.5L75.564,148.459a7.39,7.39,0,0,0-2.984,5.132l.308,124.517,157.346-90.626A7.331,7.331,0,0,0,233.217,182.343Z" transform="translate(-60.425 -44.3)" fill="#455a64"/>
    </g>
    <g id="freepik--Windows--inject-72" transform="translate(62.138 59.264)">
      <path id="パス_1394" data-name="パス 1394" d="M96.723,294.874,96.437,169.88a12.309,12.309,0,0,1,5.579-9.662L257.375,70.779a3.957,3.957,0,0,1,3.944-.4l-5.865-3.394h0c-1.026-.652-2.471-.594-4.069.33L96.042,156.757a12.257,12.257,0,0,0-5.572,9.655L90.749,291.4a4.05,4.05,0,0,0,1.466,3.49h0a2.625,2.625,0,0,0,.308.183l5.77,3.358A3.963,3.963,0,0,1,96.723,294.874Z" transform="translate(-79.715 -66.517)" fill="#85e1c2"/>
      <path id="パス_1395" data-name="パス 1395" d="M255.942,66.942h0c-1.026-.652-2.471-.594-4.069.33L96.514,156.747A11.729,11.729,0,0,0,92.24,161.5l5.982,3.453a11.686,11.686,0,0,1,4.267-4.751L257.848,70.768a3.957,3.957,0,0,1,3.944-.4Z" transform="translate(-80.188 -66.506)" fill="#fff" opacity="0.4"/>
      <path id="パス_1396" data-name="パス 1396" d="M90.47,200.987l.279,124.987a4.05,4.05,0,0,0,1.466,3.49h0a2.632,2.632,0,0,0,.308.183L98.292,333a3.934,3.934,0,0,1-1.606-3.563l-.249-124.987a11.048,11.048,0,0,1,1.312-4.912l-5.982-3.453A11,11,0,0,0,90.47,200.987Z" transform="translate(-79.715 -101.092)" fill="#fff" opacity="0.3"/>
      <path id="パス_1397" data-name="パス 1397" d="M98.63,182.39,98.9,300.141a3.918,3.918,0,0,0,1.605,3.563l.088.051h.044a4,4,0,0,0,3.878-.44l155.359-89.438a12.316,12.316,0,0,0,5.579-9.662L265.191,86.28Z" transform="translate(-81.893 -71.784)" fill="#85e1c2"/>
      <path id="パス_1398" data-name="パス 1398" d="M98.63,182.39,98.9,300.141a3.918,3.918,0,0,0,1.605,3.563l.088.051h.044a4,4,0,0,0,3.878-.44l155.359-89.438a12.316,12.316,0,0,0,5.579-9.662L265.191,86.28Z" transform="translate(-81.893 -71.784)" fill="#fff" opacity="0.5"/>
      <path id="パス_1399" data-name="パス 1399" d="M267.568,96.87c1.466-.828,2.61-.169,2.617,1.466a5.725,5.725,0,0,1-2.6,4.5L134.407,179.813c-1.466.828-2.617.161-2.617-1.466a5.733,5.733,0,0,1,2.6-4.509Z" transform="translate(-90.744 -74.515)" fill="#85e1c2"/>
      <g id="グループ_39" data-name="グループ 39" transform="translate(41.046 21.997)" opacity="0.8">
        <path id="パス_1400" data-name="パス 1400" d="M267.568,96.87c1.466-.828,2.61-.169,2.617,1.466a5.725,5.725,0,0,1-2.6,4.5L134.407,179.813c-1.466.828-2.617.161-2.617-1.466a5.733,5.733,0,0,1,2.6-4.509Z" transform="translate(-131.79 -96.512)" fill="#fff"/>
      </g>
      <path id="パス_1401" data-name="パス 1401" d="M108.135,219.212a.2.2,0,0,1,.176,0c.11.051.117.242,0,.418l-.843,1.547,2.837-1.635a.162.162,0,0,1,.264.147.572.572,0,0,1-.264.454l-2.837,1.642.85.572c.1.066.088.257,0,.433a.608.608,0,0,1-.176.183.213.213,0,0,1-.2,0l-1.254-.85a.2.2,0,0,1-.051-.059.5.5,0,0,1,0-.1.563.563,0,0,1,0-.11.49.49,0,0,1,.051-.125l1.246-2.295A.476.476,0,0,1,108.135,219.212Z" transform="translate(-84.03 -107.258)" fill="#85e1c2"/>
      <path id="パス_1402" data-name="パス 1402" d="M117.577,213.559a.183.183,0,0,1,.2,0l1.254.843a.227.227,0,0,1,.051.066.509.509,0,0,1,0,.1.564.564,0,0,1,0,.11.491.491,0,0,1-.051.125l-1.246,2.295a.608.608,0,0,1-.191.213.213.213,0,0,1-.183,0c-.1-.051-.11-.235,0-.418l.843-1.547-2.837,1.642a.164.164,0,0,1-.264-.154.594.594,0,0,1,.264-.455l2.837-1.635-.85-.572c-.1-.066-.088-.264,0-.433A.528.528,0,0,1,117.577,213.559Z" transform="translate(-86.302 -105.747)" fill="#85e1c2"/>
      <path id="パス_1403" data-name="パス 1403" d="M125.03,209.2a1.327,1.327,0,0,1,.872-.213.564.564,0,0,1,.257-.411h0c.139-.073.257,0,.249.169v.674a.6.6,0,0,1-.249.433l-.572.359h0a.164.164,0,0,1-.264-.139.587.587,0,0,1,.205-.425,1.092,1.092,0,0,0-.477.154,2.427,2.427,0,0,0-1.1,1.9c0,.733.5.975,1.107.623a2.368,2.368,0,0,0,.982-1.246.535.535,0,0,1,.227-.286.22.22,0,0,1,.125-.037c.132,0,.176.161.11.345a3.541,3.541,0,0,1-1.466,1.8c-.894.513-1.627.1-1.627-.931A3.578,3.578,0,0,1,125.03,209.2Z" transform="translate(-88.507 -104.418)" fill="#85e1c2"/>
      <g id="グループ_40" data-name="グループ 40" transform="translate(22.606 104.133)" opacity="0.7">
        <path id="パス_1404" data-name="パス 1404" d="M108.135,219.212a.2.2,0,0,1,.176,0c.11.051.117.242,0,.418l-.843,1.547,2.837-1.635a.162.162,0,0,1,.264.147.572.572,0,0,1-.264.454l-2.837,1.642.85.572c.1.066.088.257,0,.433a.608.608,0,0,1-.176.183.213.213,0,0,1-.2,0l-1.254-.85a.2.2,0,0,1-.051-.059.5.5,0,0,1,0-.1.563.563,0,0,1,0-.11.49.49,0,0,1,.051-.125l1.246-2.295A.476.476,0,0,1,108.135,219.212Z" transform="translate(-106.636 -211.391)" fill="#fff"/>
        <path id="パス_1405" data-name="パス 1405" d="M117.577,213.559a.183.183,0,0,1,.2,0l1.254.843a.227.227,0,0,1,.051.066.509.509,0,0,1,0,.1.564.564,0,0,1,0,.11.491.491,0,0,1-.051.125l-1.246,2.295a.608.608,0,0,1-.191.213.213.213,0,0,1-.183,0c-.1-.051-.11-.235,0-.418l.843-1.547-2.837,1.642a.164.164,0,0,1-.264-.154.594.594,0,0,1,.264-.455l2.837-1.635-.85-.572c-.1-.066-.088-.264,0-.433A.528.528,0,0,1,117.577,213.559Z" transform="translate(-108.909 -209.88)" fill="#fff"/>
        <path id="パス_1406" data-name="パス 1406" d="M125.03,209.2a1.327,1.327,0,0,1,.872-.213.564.564,0,0,1,.257-.411h0c.139-.073.257,0,.249.169v.674a.6.6,0,0,1-.249.433l-.572.359h0a.164.164,0,0,1-.264-.139.587.587,0,0,1,.205-.425,1.092,1.092,0,0,0-.477.154,2.427,2.427,0,0,0-1.1,1.9c0,.733.5.975,1.107.623a2.368,2.368,0,0,0,.982-1.246.535.535,0,0,1,.227-.286.22.22,0,0,1,.125-.037c.132,0,.176.161.11.345a3.541,3.541,0,0,1-1.466,1.8c-.894.513-1.627.1-1.627-.931A3.578,3.578,0,0,1,125.03,209.2Z" transform="translate(-111.113 -208.551)" fill="#fff"/>
      </g>
      <path id="パス_1407" data-name="パス 1407" d="M188.966,281.109l91.99-53.077a1.6,1.6,0,0,1,2.4,1.386v11.546a4,4,0,0,1-2,3.46l-92,53.172a1.606,1.606,0,0,1-2.4-1.386v-11.62a4,4,0,0,1,2.016-3.482Z" transform="translate(-105.466 -109.56)" fill="#85e1c2"/>
      <path id="パス_1408" data-name="パス 1408" d="M281.63,129.248v-11.6a1.6,1.6,0,0,0-2.4-1.378l-90.274,51.794a4,4,0,0,0-2.009,3.468v11.928a1.606,1.606,0,0,0,2.4,1.386l90.282-52.124a4,4,0,0,0,1.994-3.475Z" transform="translate(-105.466 -79.732)" fill="#85e1c2"/>
      <path id="パス_1409" data-name="パス 1409" d="M252.438,154.74v1.811l-58.311,33.664-.007-1.8Z" transform="translate(-107.379 -90.056)" fill="#fff"/>
      <path id="パス_1410" data-name="パス 1410" d="M252.421,150.19l.007,1.8L194.11,185.658v-1.8Z" transform="translate(-107.377 -88.841)" fill="#fff"/>
      <path id="パス_1411" data-name="パス 1411" d="M226.867,165.18l.007,1.811L194.1,185.912l-.007-1.8Z" transform="translate(-107.371 -92.842)" fill="#fff"/>
      <path id="パス_1412" data-name="パス 1412" d="M301.173,131.84l.007,1.8-10.373,5.989-.007-1.811Z" transform="translate(-133.183 -83.944)" fill="#85e1c2"/>
      <path id="パス_1413" data-name="パス 1413" d="M300.091,126.4c2.133-1.232,3.871-.249,3.878,2.2a8.511,8.511,0,0,1-3.856,6.686l-11.407,6.6c-2.141,1.239-3.878.249-3.885-2.2A8.482,8.482,0,0,1,288.676,133Zm-.477,5.652v-1.8l-10.41,5.982v1.8l10.41-5.982" transform="translate(-131.587 -82.349)" fill="#fff"/>
      <path id="パス_1414" data-name="パス 1414" d="M258.94,223.882,298.4,201.068a6.407,6.407,0,0,0,3.2-5.542V148.717a2.4,2.4,0,0,0-3.6-2.075l-39.47,22.785a6.4,6.4,0,0,0-3.2,5.542V221.8a2.4,2.4,0,0,0,3.6,2.082Z" transform="translate(-123.719 -87.808)" fill="#85e1c2"/>
      <path id="パス_1415" data-name="パス 1415" d="M283.078,190.066l1.312-.733a.187.187,0,0,0-.191-.323l-1.312.733a.191.191,0,0,0,.1.352.242.242,0,0,0,.1-.029Z" transform="translate(-131.047 -99.196)" fill="#fff"/>
      <path id="パス_1416" data-name="パス 1416" d="M274.118,195.207l1.312-.733a.186.186,0,0,0-.183-.323l-1.312.733a.182.182,0,0,0,.088.345A.205.205,0,0,0,274.118,195.207Z" transform="translate(-128.656 -100.568)" fill="#fff"/>
      <path id="パス_1417" data-name="パス 1417" d="M265.167,200.351l1.312-.733a.191.191,0,0,0-.191-.323l-1.312.733a.191.191,0,0,0-.066.257.183.183,0,0,0,.161.088.227.227,0,0,0,.1-.022Z" transform="translate(-126.267 -101.945)" fill="#fff"/>
      <path id="パス_1418" data-name="パス 1418" d="M269.64,197.777l1.312-.733a.183.183,0,0,0,.073-.257.191.191,0,0,0-.257-.066l-1.312.733a.191.191,0,0,0-.066.257.176.176,0,0,0,.161.088Z" transform="translate(-127.462 -101.254)" fill="#fff"/>
      <path id="パス_1419" data-name="パス 1419" d="M278.6,192.606l1.312-.733a.183.183,0,0,0,.066-.249.176.176,0,0,0-.249-.073l-1.312.733a.183.183,0,0,0,.088.345A.205.205,0,0,0,278.6,192.606Z" transform="translate(-129.852 -99.874)" fill="#fff"/>
      <path id="パス_1420" data-name="パス 1420" d="M305.468,177.214l1.312-.733a.191.191,0,0,0,.066-.257.183.183,0,0,0-.257-.073l-1.312.733a.191.191,0,0,0,.1.352A.161.161,0,0,0,305.468,177.214Z" transform="translate(-137.023 -95.763)" fill="#fff"/>
      <path id="パス_1421" data-name="パス 1421" d="M292.03,184.926l1.312-.733a.176.176,0,0,0,.073-.249.183.183,0,0,0-.257-.073l-1.312.733a.191.191,0,0,0-.066.257.183.183,0,0,0,.161.1A.205.205,0,0,0,292.03,184.926Z" transform="translate(-133.438 -97.824)" fill="#fff"/>
      <path id="パス_1422" data-name="パス 1422" d="M300.988,179.786l1.312-.733a.183.183,0,0,0,.066-.249.176.176,0,0,0-.249-.073l-1.32.733a.191.191,0,0,0,.1.352.161.161,0,0,0,.1-.029Z" transform="translate(-135.827 -96.452)" fill="#fff"/>
      <path id="パス_1423" data-name="パス 1423" d="M309.852,174.684a.139.139,0,0,0,.088,0l1.32-.733a.191.191,0,0,0,.066-.257.183.183,0,0,0-.257-.073l-1.312.733a.191.191,0,0,0-.066.257A.183.183,0,0,0,309.852,174.684Z" transform="translate(-138.218 -95.088)" fill="#fff"/>
      <path id="パス_1424" data-name="パス 1424" d="M296.508,182.356l1.312-.733a.186.186,0,1,0-.183-.323l-1.312.733a.191.191,0,0,0-.073.257.2.2,0,0,0,.161.1A.147.147,0,0,0,296.508,182.356Z" transform="translate(-134.632 -97.138)" fill="#fff"/>
      <path id="パス_1425" data-name="パス 1425" d="M315.394,185.793a.183.183,0,0,0-.183-.183.191.191,0,0,0-.191.183v1.466a.191.191,0,0,0,.191.183.183.183,0,0,0,.183-.183Z" transform="translate(-139.647 -98.295)" fill="#fff"/>
      <path id="パス_1426" data-name="パス 1426" d="M315.394,180.753a.183.183,0,0,0-.183-.183.191.191,0,0,0-.191.183v1.466a.191.191,0,0,0,.191.183.183.183,0,0,0,.183-.183Z" transform="translate(-139.647 -96.95)" fill="#fff"/>
      <path id="パス_1427" data-name="パス 1427" d="M315.394,190.831a.187.187,0,1,0-.374,0V192.3a.187.187,0,1,0,.374,0Z" transform="translate(-139.647 -99.637)" fill="#fff"/>
      <path id="パス_1428" data-name="パス 1428" d="M315.394,195.871a.183.183,0,0,0-.183-.191.191.191,0,0,0-.191.191v1.466a.187.187,0,1,0,.374,0Z" transform="translate(-139.647 -100.983)" fill="#fff"/>
      <path id="パス_1429" data-name="パス 1429" d="M315.394,200.933a.183.183,0,0,0-.183-.183.191.191,0,0,0-.191.183V202.4a.191.191,0,0,0,.191.183.183.183,0,0,0,.183-.183Z" transform="translate(-139.647 -102.336)" fill="#fff"/>
      <path id="パス_1430" data-name="パス 1430" d="M315.211,205.76a.191.191,0,0,0-.191.183v1.466a.191.191,0,0,0,.191.191.183.183,0,0,0,.183-.191v-1.466A.183.183,0,0,0,315.211,205.76Z" transform="translate(-139.647 -103.673)" fill="#fff"/>
      <path id="パス_1431" data-name="パス 1431" d="M315.394,175.721a.187.187,0,1,0-.374,0v1.466a.187.187,0,1,0,.374,0Z" transform="translate(-139.647 -95.605)" fill="#fff"/>
      <path id="パス_1432" data-name="パス 1432" d="M293.229,224.19l-1.3.733a.183.183,0,0,0-.073.257.191.191,0,0,0,.161.1.147.147,0,0,0,.1,0l1.312-.733a.191.191,0,0,0-.191-.323Z" transform="translate(-133.456 -108.592)" fill="#fff"/>
      <path id="パス_1433" data-name="パス 1433" d="M266.492,239.623l-1.3.733a.191.191,0,0,0-.066.257.183.183,0,0,0,.161.1.139.139,0,0,0,.088,0l1.312-.733a.2.2,0,0,0-.191-.352Z" transform="translate(-126.323 -112.705)" fill="#fff"/>
      <path id="パス_1434" data-name="パス 1434" d="M270.919,237.059l-1.312.733a.191.191,0,0,0-.066.257.183.183,0,0,0,.161.088.227.227,0,0,0,.1,0l1.3-.733a.186.186,0,0,0-.183-.323Z" transform="translate(-127.502 -112.026)" fill="#fff"/>
      <path id="パス_1435" data-name="パス 1435" d="M306.62,216.47l-1.312.733a.191.191,0,0,0,.1.352.161.161,0,0,0,.1,0l1.3-.733a.185.185,0,1,0-.183-.323Z" transform="translate(-137.031 -106.531)" fill="#fff"/>
      <path id="パス_1436" data-name="パス 1436" d="M279.84,231.9l-1.3.733a.191.191,0,0,0-.073.257.2.2,0,0,0,.161.1.147.147,0,0,0,.1,0l1.312-.733a.2.2,0,0,0-.191-.352Z" transform="translate(-129.884 -110.645)" fill="#fff"/>
      <path id="パス_1437" data-name="パス 1437" d="M302.159,218.993l-1.312.733a.191.191,0,0,0-.066.257.183.183,0,0,0,.161.1h.1l1.3-.733a.191.191,0,0,0,.066-.257.183.183,0,0,0-.249-.1Z" transform="translate(-135.84 -107.2)" fill="#fff"/>
      <path id="パス_1438" data-name="パス 1438" d="M284.309,229.333l-1.312.733a.191.191,0,0,0-.066.257.176.176,0,0,0,.161.088.2.2,0,0,0,.088,0l1.312-.733a.191.191,0,0,0,.066-.257.183.183,0,0,0-.249-.088Z" transform="translate(-131.076 -109.959)" fill="#fff"/>
      <path id="パス_1439" data-name="パス 1439" d="M311.079,213.891l-1.3.733a.183.183,0,0,0-.073.257.191.191,0,0,0,.161.088.205.205,0,0,0,.1,0l1.312-.733a.191.191,0,1,0-.191-.323Z" transform="translate(-138.221 -105.836)" fill="#fff"/>
      <path id="パス_1440" data-name="パス 1440" d="M297.69,221.611l-1.3.733a.191.191,0,0,0-.073.257.2.2,0,0,0,.169.088h.088l1.312-.733a.191.191,0,1,0-.191-.323Z" transform="translate(-134.648 -107.897)" fill="#fff"/>
      <path id="パス_1441" data-name="パス 1441" d="M275.379,234.483l-1.312.733a.183.183,0,0,0-.066.249.176.176,0,0,0,.161.1.205.205,0,0,0,.1,0l1.3-.733a.183.183,0,0,0,.073-.257.191.191,0,0,0-.257-.088Z" transform="translate(-128.693 -111.334)" fill="#fff"/>
      <path id="パス_1442" data-name="パス 1442" d="M261.583,221.49h0a.183.183,0,0,0-.183.183v1.466a.183.183,0,0,0,.183.183h0a.191.191,0,0,0,.191-.183v-1.466A.191.191,0,0,0,261.583,221.49Z" transform="translate(-125.336 -107.871)" fill="#fff"/>
      <path id="パス_1443" data-name="パス 1443" d="M261.613,226.53h0a.191.191,0,0,0-.183.191v1.466a.183.183,0,0,0,.183.183h0a.191.191,0,0,0,.191-.191v-1.466A.191.191,0,0,0,261.613,226.53Z" transform="translate(-125.344 -109.216)" fill="#fff"/>
      <path id="パス_1444" data-name="パス 1444" d="M261.523,206.36h0a.183.183,0,0,0-.183.183v1.466a.183.183,0,0,0,.183.183h0a.183.183,0,0,0,.183-.183v-1.466A.183.183,0,0,0,261.523,206.36Z" transform="translate(-125.32 -103.833)" fill="#fff"/>
      <path id="パス_1445" data-name="パス 1445" d="M261.653,236.62a.176.176,0,0,0-.183.183v1.466a.191.191,0,0,0,.191.191h0a.191.191,0,0,0,.183-.191V236.8a.183.183,0,0,0-.183-.183Z" transform="translate(-125.355 -111.909)" fill="#fff"/>
      <path id="パス_1446" data-name="パス 1446" d="M261.541,211.4h0a.191.191,0,0,0-.191.191v1.466a.191.191,0,0,0,.191.191h0a.191.191,0,0,0,.183-.191v-1.466a.183.183,0,0,0-.183-.191Z" transform="translate(-125.323 -105.178)" fill="#fff"/>
      <path id="パス_1447" data-name="パス 1447" d="M261.563,216.45h0a.183.183,0,0,0-.183.183V218.1a.191.191,0,0,0,.191.183h0a.183.183,0,0,0,.183-.183v-1.466A.191.191,0,0,0,261.563,216.45Z" transform="translate(-125.331 -106.526)" fill="#fff"/>
      <path id="パス_1448" data-name="パス 1448" d="M261.631,231.58h0a.191.191,0,0,0-.191.183v1.466a.191.191,0,0,0,.191.183h0a.183.183,0,0,0,.183-.183v-1.466A.183.183,0,0,0,261.631,231.58Z" transform="translate(-125.347 -110.564)" fill="#fff"/>
      <path id="パス_1449" data-name="パス 1449" d="M263.2,200.07a.169.169,0,0,0-.183,0l-2.2,1.254a.183.183,0,0,0-.1.161v2.493a.183.183,0,0,0,.1.161.139.139,0,0,0,.088,0,.147.147,0,0,0,.1,0l2.2-1.254a.183.183,0,0,0,.1-.161v-2.493A.183.183,0,0,0,263.2,200.07Zm-.279.484v2.06l-1.789,1.063V201.61Z" transform="translate(-125.155 -102.147)" fill="#fff"/>
      <path id="パス_1450" data-name="パス 1450" d="M289.1,185.04a.176.176,0,0,0-.191,0l-2.2,1.254a.183.183,0,0,0-.1.161v2.493a.183.183,0,0,0,.1.161.147.147,0,0,0,.1,0,.139.139,0,0,0,.088,0l2.2-1.254a.191.191,0,0,0,.088-.161V185.2A.191.191,0,0,0,289.1,185.04Zm-.279.484v2.067l-1.8,1.034v-2.06Z" transform="translate(-132.065 -98.135)" fill="#fff"/>
      <path id="パス_1451" data-name="パス 1451" d="M312.41,174.878a.22.22,0,0,0,.191,0l2.2-1.254a.191.191,0,0,0,.1-.161v-2.529a.191.191,0,0,0-.1-.161.205.205,0,0,0-.183,0l-2.2,1.254a.2.2,0,0,0-.088.161v2.5a.2.2,0,0,0,.081.191Zm2.075-3.592v2.067l-1.8,1.041v-2.067Z" transform="translate(-138.928 -94.329)" fill="#fff"/>
      <path id="パス_1452" data-name="パス 1452" d="M263.2,239.34a.169.169,0,0,0-.183,0l-2.2,1.254a.191.191,0,0,0-.1.161v2.5a.191.191,0,0,0,.1.161h.088a.205.205,0,0,0,.1,0l2.2-1.254a.191.191,0,0,0,.1-.169V239.5A.191.191,0,0,0,263.2,239.34Zm-.279.484v2.067l-1.8,1.034v-2.06Z" transform="translate(-125.155 -112.628)" fill="#fff"/>
      <path id="パス_1453" data-name="パス 1453" d="M289.1,224.312a.22.22,0,0,0-.191,0l-2.2,1.254a.191.191,0,0,0-.1.161v2.5a.191.191,0,0,0,.1.161.205.205,0,0,0,.1,0,.2.2,0,0,0,.088,0l2.2-1.254a.205.205,0,0,0,.088-.169v-2.493A.2.2,0,0,0,289.1,224.312Zm-.279.484v2.067l-1.8,1.034v-2.06Z" transform="translate(-132.065 -108.619)" fill="#fff"/>
      <path id="パス_1454" data-name="パス 1454" d="M314.751,210.09a.169.169,0,0,0-.183,0l-2.2,1.254a.191.191,0,0,0-.088.161V214a.191.191,0,0,0,.088.161.169.169,0,0,0,.191,0l2.2-1.254a.183.183,0,0,0,.1-.161v-2.493a.183.183,0,0,0-.1-.161Zm-.279.484v2.06l-1.8,1.048v-2.067Z" transform="translate(-138.916 -104.821)" fill="#fff"/>
      <path id="パス_1455" data-name="パス 1455" d="M299.888,163.32l.007,1.811-38.9,22.3-.007-1.811Z" transform="translate(-125.227 -92.346)" fill="#fff"/>
      <path id="パス_1456" data-name="パス 1456" d="M299.878,158.77l.007,1.8-38.906,22.3v-1.8Z" transform="translate(-125.224 -91.131)" fill="#fff"/>
      <path id="パス_1457" data-name="パス 1457" d="M276.37,171.91l.007,1.811-15.41,8.915-.007-1.811Z" transform="translate(-125.219 -94.638)" fill="#fff"/>
      <path id="パス_1458" data-name="パス 1458" d="M159.44,193.6,110.872,221.46a4.787,4.787,0,0,0-2.412,4.171l.154,69.755a1.606,1.606,0,0,0,2.4,1.386l48.421-27.909a4.817,4.817,0,0,0,2.4-4.164V194.988a1.6,1.6,0,0,0-2.4-1.386Z" transform="translate(-84.517 -100.371)" fill="#85e1c2"/>
      <path id="パス_1459" data-name="パス 1459" d="M139.176,224.563l1.408-.806a.205.205,0,1,0-.205-.352l-1.415.843a.2.2,0,0,0-.073.271.191.191,0,0,0,.169.1.257.257,0,0,0,.117-.051Z" transform="translate(-92.632 -108.371)" fill="#fff"/>
      <path id="パス_1460" data-name="パス 1460" d="M129.582,230.111l1.408-.806a.2.2,0,0,0-.2-.345l-1.408.806a.205.205,0,0,0-.073.271.2.2,0,0,0,.176.1A.161.161,0,0,0,129.582,230.111Z" transform="translate(-90.076 -109.858)" fill="#fff"/>
      <path id="パス_1461" data-name="パス 1461" d="M119.986,235.633l1.393-.77a.2.2,0,0,0-.2-.352l-1.408.814a.2.2,0,0,0-.073.271.191.191,0,0,0,.176.1A.227.227,0,0,0,119.986,235.633Z" transform="translate(-87.51 -111.34)" fill="#fff"/>
      <path id="パス_1462" data-name="パス 1462" d="M124.789,232.869l1.408-.814a.2.2,0,0,0,.073-.271.213.213,0,0,0-.279-.073l-1.4.806a.2.2,0,0,0,.1.374A.256.256,0,0,0,124.789,232.869Z" transform="translate(-88.794 -110.593)" fill="#fff"/>
      <path id="パス_1463" data-name="パス 1463" d="M134.382,227.361l1.408-.806a.2.2,0,1,0-.2-.345l-1.408.806a.2.2,0,0,0,.1.374A.161.161,0,0,0,134.382,227.361Z" transform="translate(-91.356 -109.124)" fill="#fff"/>
      <path id="パス_1464" data-name="パス 1464" d="M163.159,210.849l1.408-.814a.2.2,0,0,0,.073-.271.205.205,0,0,0-.271-.073l-1.408.806a.2.2,0,0,0,.1.374A.234.234,0,0,0,163.159,210.849Z" transform="translate(-99.034 -104.716)" fill="#fff"/>
      <path id="パス_1465" data-name="パス 1465" d="M148.772,219.1l1.408-.806a.2.2,0,0,0-.2-.345l-1.408.806a.2.2,0,0,0,.1.374.161.161,0,0,0,.1-.029Z" transform="translate(-95.196 -106.919)" fill="#fff"/>
      <path id="パス_1466" data-name="パス 1466" d="M158.362,213.569l1.408-.806a.205.205,0,0,0,.073-.279.2.2,0,0,0-.271-.073l-1.408.806a.213.213,0,0,0-.073.279.205.205,0,0,0,.176.1.227.227,0,0,0,.1-.022Z" transform="translate(-97.757 -105.441)" fill="#fff"/>
      <path id="パス_1467" data-name="パス 1467" d="M167.856,208.131a.183.183,0,0,0,.1,0l1.408-.806a.2.2,0,0,0,.073-.271.205.205,0,0,0-.279-.073l-1.4.806a.2.2,0,0,0,.1.374Z" transform="translate(-100.315 -103.991)" fill="#fff"/>
      <path id="パス_1468" data-name="パス 1468" d="M153.569,216.351l1.408-.806a.2.2,0,0,0-.205-.345l-1.4.806a.2.2,0,0,0,.1.374A.271.271,0,0,0,153.569,216.351Z" transform="translate(-96.475 -106.185)" fill="#fff"/>
      <path id="パス_1469" data-name="パス 1469" d="M173.853,220.049a.205.205,0,0,0-.4,0v1.583a.205.205,0,0,0,.4,0Z" transform="translate(-101.863 -107.442)" fill="#fff"/>
      <path id="パス_1470" data-name="パス 1470" d="M173.852,214.631a.205.205,0,1,0-.4,0v1.576a.205.205,0,1,0,.4,0Z" transform="translate(-101.861 -105.975)" fill="#fff"/>
      <path id="パス_1471" data-name="パス 1471" d="M173.852,225.421a.205.205,0,1,0-.4,0V227a.205.205,0,1,0,.4,0Z" transform="translate(-101.861 -108.855)" fill="#fff"/>
      <path id="パス_1472" data-name="パス 1472" d="M173.853,230.839a.205.205,0,0,0-.4,0v1.584a.205.205,0,0,0,.4,0Z" transform="translate(-101.863 -110.322)" fill="#fff"/>
      <path id="パス_1473" data-name="パス 1473" d="M173.852,236.211a.205.205,0,1,0-.4,0v1.583a.205.205,0,0,0,.4,0Z" transform="translate(-101.861 -111.735)" fill="#fff"/>
      <path id="パス_1474" data-name="パス 1474" d="M173.6,241.42a.2.2,0,0,0-.2.2V243.2a.205.205,0,0,0,.4,0v-1.583a.2.2,0,0,0-.205-.2Z" transform="translate(-101.849 -113.19)" fill="#fff"/>
      <path id="パス_1475" data-name="パス 1475" d="M173.853,209.259a.205.205,0,0,0-.4,0v1.583a.205.205,0,0,0,.4,0Z" transform="translate(-101.863 -104.562)" fill="#fff"/>
      <path id="パス_1476" data-name="パス 1476" d="M150.055,261.162l-1.4.806a.213.213,0,0,0-.073.279.205.205,0,0,0,.176.1.229.229,0,0,0,.1,0l1.408-.814a.2.2,0,0,0,.073-.271.205.205,0,0,0-.279-.1Z" transform="translate(-95.218 -118.454)" fill="#fff"/>
      <path id="パス_1477" data-name="パス 1477" d="M121.371,277.7l-1.4.806a.2.2,0,0,0,.1.374.234.234,0,0,0,.1,0l1.4-.814a.208.208,0,0,0-.2-.367Z" transform="translate(-87.56 -122.868)" fill="#fff"/>
      <path id="パス_1478" data-name="パス 1478" d="M126.154,274.992l-1.4.814a.2.2,0,0,0,.1.374.242.242,0,0,0,.1,0l1.4-.806a.205.205,0,0,0,.073-.279.2.2,0,0,0-.271-.1Z" transform="translate(-88.839 -122.145)" fill="#fff"/>
      <path id="パス_1479" data-name="パス 1479" d="M164.386,252.9l-1.422.806a.213.213,0,0,0-.073.279.205.205,0,0,0,.176.1.228.228,0,0,0,.1,0l1.408-.814a.2.2,0,0,0,.073-.271.213.213,0,0,0-.257-.1Z" transform="translate(-99.038 -116.25)" fill="#fff"/>
      <path id="パス_1480" data-name="パス 1480" d="M135.714,269.438l-1.4.806a.2.2,0,0,0,.1.374.227.227,0,0,0,.1,0l1.4-.814a.2.2,0,1,0-.2-.345Z" transform="translate(-91.39 -120.667)" fill="#fff"/>
      <path id="パス_1481" data-name="パス 1481" d="M159.615,255.66l-1.4.806a.205.205,0,0,0-.073.271.2.2,0,0,0,.176.1.161.161,0,0,0,.1,0l1.408-.806a.2.2,0,0,0-.205-.345Z" transform="translate(-97.77 -116.991)" fill="#fff"/>
      <path id="パス_1482" data-name="パス 1482" d="M140.454,266.675l-1.4.814a.2.2,0,0,0,.1.374.24.24,0,0,0,.1,0l1.408-.806a.205.205,0,1,0-.205-.352Z" transform="translate(-92.656 -119.928)" fill="#fff"/>
      <path id="パス_1483" data-name="パス 1483" d="M169.174,250.135l-1.4.814a.2.2,0,0,0,.1.374.315.315,0,0,0,.1,0l1.4-.806a.205.205,0,1,0-.205-.352Z" transform="translate(-100.321 -115.513)" fill="#fff"/>
      <path id="パス_1484" data-name="パス 1484" d="M154.834,258.405l-1.4.814a.2.2,0,0,0,.1.374.242.242,0,0,0,.1,0l1.408-.806a.205.205,0,1,0-.205-.352Z" transform="translate(-96.494 -117.72)" fill="#fff"/>
      <path id="パス_1485" data-name="パス 1485" d="M130.931,272.2l-1.4.806a.2.2,0,0,0,.1.374.161.161,0,0,0,.1,0l1.4-.806a.2.2,0,0,0-.2-.345Z" transform="translate(-90.112 -121.406)" fill="#fff"/>
      <path id="パス_1486" data-name="パス 1486" d="M116.158,258.27h0a.205.205,0,0,0-.2.205v1.583a.2.2,0,0,0,.2.2h0a.2.2,0,0,0,.2-.2v-1.583a.205.205,0,0,0-.2-.205Z" transform="translate(-86.519 -117.688)" fill="#fff"/>
      <path id="パス_1487" data-name="パス 1487" d="M116.178,263.68h0a.2.2,0,0,0-.2.2v1.583a.2.2,0,0,0,.2.2h0a.2.2,0,0,0,.2-.2v-1.547a.2.2,0,0,0-.2-.235Z" transform="translate(-86.524 -119.132)" fill="#fff"/>
      <path id="パス_1488" data-name="パス 1488" d="M116.088,242.07h0a.2.2,0,0,0-.2.2v1.583a.2.2,0,0,0,.2.2h0a.2.2,0,0,0,.2-.2v-1.584a.2.2,0,0,0-.2-.2Z" transform="translate(-86.5 -113.364)" fill="#fff"/>
      <path id="パス_1489" data-name="パス 1489" d="M116.228,274.48a.205.205,0,0,0-.2.205v1.583a.2.2,0,0,0,.2.2h0a.2.2,0,0,0,.2-.205v-1.583a.205.205,0,0,0-.205-.2Z" transform="translate(-86.537 -122.014)" fill="#fff"/>
      <path id="パス_1490" data-name="パス 1490" d="M116.108,247.47h0a.2.2,0,0,0-.2.2v1.584a.205.205,0,0,0,.2.205h0a.213.213,0,0,0,.205-.205v-1.584A.205.205,0,0,0,116.108,247.47Z" transform="translate(-86.505 -114.805)" fill="#fff"/>
      <path id="パス_1491" data-name="パス 1491" d="M116.135,252.87h0a.213.213,0,0,0-.205.205v1.583a.205.205,0,0,0,.205.2h0a.205.205,0,0,0,.2-.205v-1.584a.2.2,0,0,0-.2-.2Z" transform="translate(-86.511 -116.246)" fill="#fff"/>
      <path id="パス_1492" data-name="パス 1492" d="M116.208,269.08h0a.191.191,0,0,0-.2.2v1.583a.205.205,0,0,0,.2.205h0a.205.205,0,0,0,.2-.205v-1.583a.2.2,0,0,0-.2-.2Z" transform="translate(-86.532 -120.573)" fill="#fff"/>
      <path id="パス_1493" data-name="パス 1493" d="M117.894,235.33a.191.191,0,0,0-.2,0l-2.324,1.342a.2.2,0,0,0-.1.176v2.668a.213.213,0,0,0,.1.176.183.183,0,0,0,.2,0l2.331-1.342a.205.205,0,0,0,.1-.176V235.5a.2.2,0,0,0-.1-.169Zm-.293.521v2.2l-1.928,1.114v-2.2Z" transform="translate(-86.334 -111.558)" fill="#fff"/>
      <path id="パス_1494" data-name="パス 1494" d="M145.665,219.23a.191.191,0,0,0-.2,0l-2.324,1.342a.2.2,0,0,0-.1.176v2.705a.2.2,0,0,0,.1.176.183.183,0,0,0,.2,0l2.324-1.342a.2.2,0,0,0,.1-.176v-2.668A.2.2,0,0,0,145.665,219.23Zm-.293.521v2.2l-1.921,1.114v-2.2Z" transform="translate(-93.746 -107.261)" fill="#fff"/>
      <path id="パス_1495" data-name="パス 1495" d="M170.6,208.4a.161.161,0,0,0,.1,0,.169.169,0,0,0,.1,0l2.324-1.342a.2.2,0,0,0,.1-.176v-2.669a.2.2,0,0,0-.1-.176.191.191,0,0,0-.2,0l-2.324,1.342a.2.2,0,0,0-.1.176v2.676a.183.183,0,0,0,.1.169Zm2.2-3.841v2.2l-1.921,1.114v-2.2Z" transform="translate(-101.075 -103.206)" fill="#fff"/>
      <path id="パス_1496" data-name="パス 1496" d="M117.894,277.4a.191.191,0,0,0-.2,0l-2.324,1.342a.2.2,0,0,0-.1.176v2.668a.213.213,0,0,0,.1.176.183.183,0,0,0,.2,0l2.331-1.342a.205.205,0,0,0,.1-.176v-2.676a.2.2,0,0,0-.1-.169Zm-.293.52v2.2l-1.928,1.114v-2.2Z" transform="translate(-86.334 -122.786)" fill="#fff"/>
      <path id="パス_1497" data-name="パス 1497" d="M145.665,261.3a.191.191,0,0,0-.2,0l-2.324,1.342a.2.2,0,0,0-.1.176v2.654a.2.2,0,0,0,.1.176.183.183,0,0,0,.2,0l2.324-1.342a.2.2,0,0,0,.1-.176v-2.676a.2.2,0,0,0-.1-.154Zm-.293.521v2.2l-1.921,1.114v-2.2Z" transform="translate(-93.746 -118.489)" fill="#fff"/>
      <path id="パス_1498" data-name="パス 1498" d="M173.115,246.06a.191.191,0,0,0-.2,0l-2.324,1.342a.2.2,0,0,0-.1.176v2.676a.2.2,0,0,0,.1.169.161.161,0,0,0,.1,0,.168.168,0,0,0,.1,0l2.324-1.342a.2.2,0,0,0,.1-.176v-2.668a.2.2,0,0,0-.1-.176Zm-.293.521v2.2l-1.921,1.107v-2.2Z" transform="translate(-101.073 -114.421)" fill="#fff"/>
      <path id="パス_1499" data-name="パス 1499" d="M158.689,263.93l.007,1.811-42.659,24.838-.007-1.8Z" transform="translate(-86.537 -119.198)" fill="#fff"/>
      <path id="パス_1500" data-name="パス 1500" d="M158.679,259.38l.007,1.8L116.02,286.021v-1.8Z" transform="translate(-86.535 -117.984)" fill="#fff"/>
      <path id="パス_1501" data-name="パス 1501" d="M158.689,273.21l.007,1.8-42.659,24.845-.007-1.811Z" transform="translate(-86.537 -121.675)" fill="#fff"/>
      <path id="パス_1502" data-name="パス 1502" d="M158.679,268.65l.007,1.8L116.02,295.3v-1.8Z" transform="translate(-86.535 -120.458)" fill="#fff"/>
      <path id="パス_1503" data-name="パス 1503" d="M140.772,296.91l.007,1.811-24.742,14.4-.007-1.8Z" transform="translate(-86.537 -128.001)" fill="#fff"/>
      <path id="パス_1504" data-name="パス 1504" d="M158.679,278.12l.007,1.8L116.02,304.761v-1.8Z" transform="translate(-86.535 -122.986)" fill="#fff"/>
      <path id="パス_1505" data-name="パス 1505" d="M127.084,279.25l.007,1.811-11.085,6.517-.007-1.8Z" transform="translate(-86.529 -123.287)" fill="#fff"/>
      <path id="パス_1506" data-name="パス 1506" d="M190.55,262.894l39.47-22.785a6.4,6.4,0,0,0,3.2-5.542V187.736a2.4,2.4,0,0,0-3.6-2.082l-39.463,22.785a6.415,6.415,0,0,0-3.2,5.55v46.823a2.4,2.4,0,0,0,3.6,2.082Z" transform="translate(-105.466 -98.222)" fill="#85e1c2"/>
      <path id="パス_1507" data-name="パス 1507" d="M212.556,263.48l.007,1.811-19.816,11.4-.007-1.8Z" transform="translate(-107.011 -119.078)" fill="#fff"/>
      <path id="パス_1508" data-name="パス 1508" d="M231.626,244.06v1.8l-38.9,22.3-.007-1.8Z" transform="translate(-107.006 -113.895)" fill="#fff"/>
      <path id="パス_1509" data-name="パス 1509" d="M222.049,246.1l.007,1.8-29.339,17.059-.007-1.811Z" transform="translate(-107.003 -114.439)" fill="#fff"/>
      <path id="パス_1510" data-name="パス 1510" d="M229.22,228.023l6.165-3.563L229.235,235.1Z" transform="translate(-116.747 -108.664)" fill="#e0e0e0"/>
      <path id="パス_1511" data-name="パス 1511" d="M227.373,202.45l.051,16.136-6.165,3.563.015,7.074,6.151-10.637-6.151,10.637-21.817,12.6-.066-23.217Z" transform="translate(-108.786 -102.789)" fill="#fff"/>
      <path id="パス_1512" data-name="パス 1512" d="M265.172,75.211a3.957,3.957,0,0,0-1.613-3.563h-.037a3.957,3.957,0,0,0-3.944.4L104.219,161.49a12.309,12.309,0,0,0-5.579,9.662V178.4L265.186,82.264Z" transform="translate(-81.896 -67.783)" fill="#85e1c2"/>
      <path id="パス_1513" data-name="パス 1513" d="M265.172,75.211a3.957,3.957,0,0,0-1.613-3.563h-.037a3.957,3.957,0,0,0-3.944.4L104.219,161.49a12.309,12.309,0,0,0-5.579,9.662V178.4L265.186,82.264Z" transform="translate(-81.896 -67.783)" opacity="0.3"/>
      <g id="グループ_41" data-name="グループ 41" transform="translate(22.602 93.749)" opacity="0.5">
        <path id="パス_1514" data-name="パス 1514" d="M108.148,201.154c.843-.484,1.532-.1,1.532.872a3.365,3.365,0,0,1-1.518,2.632c-.843.491-1.532.1-1.532-.872A3.336,3.336,0,0,1,108.148,201.154Z" transform="translate(-106.63 -196.137)" fill="#fff"/>
        <path id="パス_1515" data-name="パス 1515" d="M113.835,197.924c.836-.484,1.525-.1,1.525.872a3.328,3.328,0,0,1-1.518,2.632c-.843.491-1.525.1-1.532-.872A3.358,3.358,0,0,1,113.835,197.924Z" transform="translate(-108.146 -195.275)" fill="#fff"/>
        <path id="パス_1516" data-name="パス 1516" d="M119.515,194.594c.843-.484,1.525-.1,1.532.872a3.358,3.358,0,0,1-1.525,2.632c-.843.484-1.525.1-1.532-.872A3.358,3.358,0,0,1,119.515,194.594Z" transform="translate(-109.662 -194.386)" fill="#fff"/>
      </g>
      <path id="パス_1517" data-name="パス 1517" d="M108.148,201.154c.843-.484,1.532-.1,1.532.872a3.365,3.365,0,0,1-1.518,2.632c-.843.491-1.532.1-1.532-.872A3.336,3.336,0,0,1,108.148,201.154Z" transform="translate(-84.028 -102.388)" fill="#85e1c2"/>
      <path id="パス_1518" data-name="パス 1518" d="M113.835,197.924c.836-.484,1.525-.1,1.525.872a3.328,3.328,0,0,1-1.518,2.632c-.843.491-1.525.1-1.532-.872A3.358,3.358,0,0,1,113.835,197.924Z" transform="translate(-85.544 -101.526)" fill="#85e1c2"/>
      <path id="パス_1519" data-name="パス 1519" d="M119.515,194.594c.843-.484,1.525-.1,1.532.872a3.358,3.358,0,0,1-1.525,2.632c-.843.484-1.525.1-1.532-.872A3.358,3.358,0,0,1,119.515,194.594Z" transform="translate(-87.06 -100.637)" fill="#85e1c2"/>
      <g id="グループ_42" data-name="グループ 42" transform="translate(10.806 0.037)" opacity="0.3">
        <path id="パス_1520" data-name="パス 1520" d="M101.344,383Z" transform="translate(-93.412 -151.014)" fill="#fff"/>
        <path id="パス_1521" data-name="パス 1521" d="M323.61,71.78Z" transform="translate(-152.746 -67.951)" fill="#fff"/>
        <path id="パス_1522" data-name="パス 1522" d="M263.01,73.949a3.957,3.957,0,0,0-1.613-3.563h-.037a2.932,2.932,0,0,0-1.29-.359,2.932,2.932,0,0,1,1.29.359L255.5,66.992h0c-1.026-.652-2.471-.594-4.069.33L96.06,156.76c-.205.117-.4.249-.608.389l-.183.139c-.132.1-.271.2-.4.308l-.205.183c-.125.1-.242.213-.367.33l-.191.2c-.125.117-.242.242-.352.367s-.125.139-.183.205-.227.271-.345.411l-.154.2c-.117.154-.227.315-.337.469l-.125.183c-.125.176-.235.359-.352.55a1.2,1.2,0,0,1-.081.125c-.132.235-.264.469-.381.733h0c-.073.147-.139.293-.205.44a1.754,1.754,0,0,0-.1.205c-.059.132-.117.264-.169.4l-.11.257-.132.374-.1.293-.11.345-.088.337a1.634,1.634,0,0,1-.073.315c-.022.1-.051.242-.073.367s0,.191-.051.286,0,.279-.051.418v.865l.279,124.987a4.05,4.05,0,0,0,1.466,3.49h0a2.62,2.62,0,0,0,.308.183l5.77,3.358.088.051h.044a4,4,0,0,0,3.878-.44l155.359-89.439a12.316,12.316,0,0,0,5.579-9.662Z" transform="translate(-90.54 -66.556)" fill="#fff"/>
      </g>
      <path id="パス_1523" data-name="パス 1523" d="M398.1,169.434V166.7a3.709,3.709,0,0,0-1.7-2.932l-49.228-28.43a1.188,1.188,0,0,0-1.239-.1h0l-1.664,1.2a11.765,11.765,0,0,1,1.085.733h.11v3.863L396.489,170.5Z" transform="translate(-147.454 -84.817)" fill="#85e1c2"/>
      <path id="パス_1524" data-name="パス 1524" d="M398.1,169.434V166.7a3.709,3.709,0,0,0-1.7-2.932l-49.228-28.43a1.188,1.188,0,0,0-1.239-.1h0l-1.664,1.2a11.765,11.765,0,0,1,1.085.733h.11v3.863L396.489,170.5Z" transform="translate(-147.454 -84.817)" fill="#fff" opacity="0.7"/>
      <path id="パス_1525" data-name="パス 1525" d="M396.879,172.576,345.855,143.12l-.1,35a3.724,3.724,0,0,0,1.693,2.932l48.473,27.961-.44.557.814,1.158,1.657-1.195h0a1.2,1.2,0,0,0,.447-1.041l.1-36.941Z" transform="translate(-147.852 -86.954)" fill="#37474f"/>
      <path id="パス_1526" data-name="パス 1526" d="M394.633,165.355a3.761,3.761,0,0,1,1.7,2.932v2.566L343.69,140.458v-2.566c0-1.078.77-1.51,1.708-.968Z" transform="translate(-147.299 -85.238)" fill="#85e1c2"/>
      <g id="グループ_43" data-name="グループ 43" transform="translate(196.391 51.452)" opacity="0.5">
        <path id="パス_1527" data-name="パス 1527" d="M394.633,165.355a3.761,3.761,0,0,1,1.7,2.932v2.566L343.69,140.458v-2.566c0-1.078.77-1.51,1.708-.968Z" transform="translate(-343.69 -136.691)" fill="#fff"/>
      </g>
      <path id="パス_1528" data-name="パス 1528" d="M396.287,172.237l-.11,37.11c0,1.078-.733,1.51-1.708.968l-49.235-28.422a3.724,3.724,0,0,1-1.693-2.932l.1-37.11Z" transform="translate(-147.259 -86.615)" fill="#455a64"/>
      <path id="パス_1529" data-name="パス 1529" d="M361.938,194.258l-.007,1.547-14.611-8.431V185.82Z" transform="translate(-148.268 -98.351)" fill="#85e1c2"/>
      <path id="パス_1530" data-name="パス 1530" d="M398.168,183.767v1.554L360.56,163.607l.007-1.547Z" transform="translate(-151.802 -92.009)" fill="#85e1c2"/>
      <path id="パス_1531" data-name="パス 1531" d="M362.038,158.348l-.007,1.547-14.611-8.438.007-1.547Z" transform="translate(-148.295 -88.767)" fill="#85e1c2"/>
      <g id="グループ_44" data-name="グループ 44" transform="translate(199.052 61.143)" opacity="0.5">
        <path id="パス_1532" data-name="パス 1532" d="M361.938,194.258l-.007,1.547-14.611-8.431V185.82Z" transform="translate(-347.32 -159.494)" fill="#fff"/>
        <path id="パス_1533" data-name="パス 1533" d="M398.168,183.767v1.554L360.56,163.607l.007-1.547Z" transform="translate(-350.854 -153.153)" fill="#fff"/>
        <path id="パス_1534" data-name="パス 1534" d="M362.038,158.348l-.007,1.547-14.611-8.438.007-1.547Z" transform="translate(-347.347 -149.91)" fill="#fff"/>
        <path id="パス_1535" data-name="パス 1535" d="M361.978,181.178l-.007,1.547-14.611-8.438V172.74Z" transform="translate(-347.331 -156.003)" fill="#fff"/>
        <path id="パス_1536" data-name="パス 1536" d="M357.6,169.521v1.547l-10.219-5.894.007-1.554Z" transform="translate(-347.336 -153.569)" fill="#fff"/>
        <path id="パス_1537" data-name="パス 1537" d="M379.264,208.837v1.54l-18.8-10.85.007-1.547Z" transform="translate(-350.827 -162.74)" fill="#fff"/>
        <path id="パス_1538" data-name="パス 1538" d="M383.979,202.4l-.007,1.554L360.49,190.387V188.84Z" transform="translate(-350.835 -160.3)" fill="#fff"/>
        <path id="パス_1539" data-name="パス 1539" d="M372.192,172.733l-.007,1.547-11.634-6.715.007-1.554Z" transform="translate(-350.851 -154.207)" fill="#fff"/>
        <path id="パス_1540" data-name="パス 1540" d="M389.192,192.323l-.007,1.547L360.52,177.324l.007-1.554Z" transform="translate(-350.843 -156.812)" fill="#fff"/>
        <path id="パス_1541" data-name="パス 1541" d="M398.108,206.6l-.007,1.547-37.6-21.714V184.89Z" transform="translate(-350.838 -159.246)" fill="#fff"/>
      </g>
      <path id="パス_1542" data-name="パス 1542" d="M75.8,338.212V335.5a3.753,3.753,0,0,1,1.7-2.932l49.235-28.43a1.166,1.166,0,0,1,1.239-.088h0l1.664,1.2a11.765,11.765,0,0,0-1.085.733c0,.059-.044,0-.11,0v3.863L77.413,339.217Z" transform="translate(-75.8 -129.869)" fill="#85e1c2"/>
      <path id="パス_1543" data-name="パス 1543" d="M75.8,338.212V335.5a3.753,3.753,0,0,1,1.7-2.932l49.235-28.43a1.166,1.166,0,0,1,1.239-.088h0l1.664,1.2a11.765,11.765,0,0,0-1.085.733c0,.059-.044,0-.11,0v3.863L77.413,339.217Z" transform="translate(-75.8 -129.869)" fill="#fff" opacity="0.3"/>
      <path id="パス_1544" data-name="パス 1544" d="M77.413,341.346l51.017-29.456.1,35a3.753,3.753,0,0,1-1.693,2.932l-48.465,27.99.447.557-.814,1.158-1.657-1.195h0a1.224,1.224,0,0,1-.455-1.048l-.1-36.941Z" transform="translate(-75.8 -131.999)" fill="#37474f"/>
      <path id="パス_1545" data-name="パス 1545" d="M79.711,334.125a3.739,3.739,0,0,0-1.7,2.932v2.566l52.637-30.394v-2.566c0-1.078-.733-1.51-1.7-.968Z" transform="translate(-76.39 -130.283)" fill="#85e1c2"/>
      <g id="グループ_45" data-name="グループ 45" transform="translate(1.62 175.178)" opacity="0.1">
        <path id="パス_1546" data-name="パス 1546" d="M79.711,334.125a3.739,3.739,0,0,0-1.7,2.932v2.566l52.637-30.394v-2.566c0-1.078-.733-1.51-1.7-.968Z" transform="translate(-78.01 -305.461)" fill="#fff"/>
      </g>
      <path id="パス_1547" data-name="パス 1547" d="M78,341.007l.1,37.11c0,1.078.733,1.51,1.715.968l49.228-28.422a3.732,3.732,0,0,0,1.7-2.932l-.11-37.11Z" transform="translate(-76.387 -131.66)" fill="#455a64"/>
      <path id="パス_1548" data-name="パス 1548" d="M81.75,389.108v1.554l14.618-8.438-.007-1.554Z" transform="translate(-77.388 -150.356)" fill="#85e1c2"/>
      <path id="パス_1549" data-name="パス 1549" d="M81.71,376.028l.007,1.547,14.611-8.438-.007-1.547Z" transform="translate(-77.377 -146.865)" fill="#85e1c2"/>
      <path id="パス_1550" data-name="パス 1550" d="M81.71,367.961l.007,1.547,10.212-5.9-.007-1.547Z" transform="translate(-77.377 -145.389)" fill="#85e1c2"/>
      <path id="パス_1551" data-name="パス 1551" d="M95.69,384.35,95.7,385.9l18.8-10.857V373.5Z" transform="translate(-81.109 -148.442)" fill="#85e1c2"/>
      <path id="パス_1552" data-name="パス 1552" d="M95.75,374.3l.007,1.547,23.489-13.555-.007-1.554Z" transform="translate(-81.125 -145.037)" fill="#85e1c2"/>
      <path id="パス_1553" data-name="パス 1553" d="M94.58,354.613l.007,1.547,11.634-6.715-.007-1.554Z" transform="translate(-80.812 -141.607)" fill="#85e1c2"/>
      <path id="パス_1554" data-name="パス 1554" d="M95.78,359.593l.007,1.547,28.664-16.553-.007-1.547Z" transform="translate(-81.133 -140.313)" fill="#85e1c2"/>
      <path id="パス_1555" data-name="パス 1555" d="M95.75,367.537l.007,1.554,37.608-21.714-.007-1.547Z" transform="translate(-81.125 -141.057)" fill="#85e1c2"/>
      <path id="パス_1556" data-name="パス 1556" d="M94.52,345.367l.007,1.554,37.6-21.715-.007-1.547Z" transform="translate(-80.796 -135.14)" fill="#85e1c2"/>
      <path id="パス_1557" data-name="パス 1557" d="M81.64,353.2l.007,1.547,14.611-8.438V344.76Z" transform="translate(-77.359 -140.772)" fill="#85e1c2"/>
      <g id="グループ_46" data-name="グループ 46" transform="translate(4.281 188.52)" opacity="0.5">
        <path id="パス_1558" data-name="パス 1558" d="M81.75,389.108v1.554l14.618-8.438-.007-1.554Z" transform="translate(-81.669 -338.876)" fill="#fff"/>
        <path id="パス_1559" data-name="パス 1559" d="M81.71,376.028l.007,1.547,14.611-8.438-.007-1.547Z" transform="translate(-81.659 -335.385)" fill="#fff"/>
        <path id="パス_1560" data-name="パス 1560" d="M81.71,367.961l.007,1.547,10.212-5.9-.007-1.547Z" transform="translate(-81.659 -333.909)" fill="#fff"/>
        <path id="パス_1561" data-name="パス 1561" d="M95.69,384.35,95.7,385.9l18.8-10.857V373.5Z" transform="translate(-85.39 -336.962)" fill="#fff"/>
        <path id="パス_1562" data-name="パス 1562" d="M95.75,374.3l.007,1.547,23.489-13.555-.007-1.554Z" transform="translate(-85.406 -333.557)" fill="#fff"/>
        <path id="パス_1563" data-name="パス 1563" d="M94.58,354.613l.007,1.547,11.634-6.715-.007-1.554Z" transform="translate(-85.094 -330.127)" fill="#fff"/>
        <path id="パス_1564" data-name="パス 1564" d="M95.78,359.593l.007,1.547,28.664-16.553-.007-1.547Z" transform="translate(-85.414 -328.832)" fill="#fff"/>
        <path id="パス_1565" data-name="パス 1565" d="M95.75,367.537l.007,1.554,37.608-21.714-.007-1.547Z" transform="translate(-85.406 -329.577)" fill="#fff"/>
        <path id="パス_1566" data-name="パス 1566" d="M94.52,345.367l.007,1.554,37.6-21.715-.007-1.547Z" transform="translate(-85.078 -323.66)" fill="#fff"/>
        <path id="パス_1567" data-name="パス 1567" d="M81.64,353.2l.007,1.547,14.611-8.438V344.76Z" transform="translate(-81.64 -329.292)" fill="#fff"/>
      </g>
      <path id="パス_1568" data-name="パス 1568" d="M261.282,307.674l-.059-21.722a3.152,3.152,0,0,1,1.466-2.5l29.969-17.331a1.026,1.026,0,0,1,1-.11l-1.869-1.122h0a1.026,1.026,0,0,0-1,.11L260.776,282.33a3.167,3.167,0,0,0-1.466,2.5l.059,21.722a1,1,0,0,0,.447.916l1.869,1.122h0A1.026,1.026,0,0,1,261.282,307.674Z" transform="translate(-124.778 -119.432)" fill="#455a64"/>
      <path id="パス_1569" data-name="パス 1569" d="M294.791,267.369a1.019,1.019,0,0,0-.352-.865l-.044-.044h-.059a1.026,1.026,0,0,0-1,.11L263.326,283.9a3.152,3.152,0,0,0-1.466,2.5l.059,21.722a1.026,1.026,0,0,0,.411.924,1,1,0,0,0,1.048-.088l30.013-17.331a3.2,3.2,0,0,0,1.466-2.507Z" transform="translate(-125.459 -119.852)" fill="#455a64"/>
      <path id="パス_1570" data-name="パス 1570" d="M261.282,307.674l-.059-21.722a3.152,3.152,0,0,1,1.466-2.5l29.969-17.331a1.026,1.026,0,0,1,1-.11l-1.869-1.122h0a1.026,1.026,0,0,0-1,.11L260.776,282.33a3.167,3.167,0,0,0-1.466,2.5l.059,21.722a1,1,0,0,0,.447.916l1.869,1.122h0A1.026,1.026,0,0,1,261.282,307.674Z" transform="translate(-124.778 -119.432)" opacity="0.3"/>
      <path id="パス_1571" data-name="パス 1571" d="M276.975,293.57v1.642l-6.1,6.239,6.114-.821.007,1.642-7.727.953v-1.7Z" transform="translate(-127.437 -127.109)" fill="#f5f5f5"/>
      <path id="パス_1572" data-name="パス 1572" d="M287.858,280.06l-5.623,21.905-1.5.872,5.623-21.912Z" transform="translate(-130.498 -123.503)" fill="#f5f5f5"/>
      <path id="パス_1573" data-name="パス 1573" d="M291.18,286.643l7.72-.953.007,1.7-7.7,7.954L291.2,293.7l6.121-6.253-6.136.836Z" transform="translate(-133.284 -125.006)" fill="#f5f5f5"/>
      <path id="パス_1574" data-name="パス 1574" d="M290.1,191.05,297.661,197l.015,5.813-25.131,14.508-.015-5.814L277.317,202l4.3,3.336-1.525,4.729,2.207-4.2Z" transform="translate(-128.307 -99.747)" fill="#fff"/>
      <path id="パス_1575" data-name="パス 1575" d="M284.463,194.893c1.18-.682,2.148-.132,2.148,1.224a4.7,4.7,0,0,1-2.133,3.666c-1.18.682-2.148.132-2.148-1.224A4.7,4.7,0,0,1,284.463,194.893Z" transform="translate(-130.922 -100.694)" fill="#fff"/>
      <path id="パス_1576" data-name="パス 1576" d="M146.706,225.67l8.093,6.371.022,6.224-26.927,15.542-.015-6.224,5.132-10.19,4.6,3.578-1.627,5.058,2.361-4.494Z" transform="translate(-89.7 -108.987)" fill="#fff"/>
      <path id="パス_1577" data-name="パス 1577" d="M140.667,229.885c1.268-.733,2.295-.147,2.3,1.312a5.051,5.051,0,0,1-2.287,3.959c-1.268.733-2.295.147-2.3-1.312a5.015,5.015,0,0,1,2.287-3.959Z" transform="translate(-92.502 -110.027)" fill="#fff"/>
      <path id="パス_1578" data-name="パス 1578" d="M361.978,181.178l-.007,1.547-14.611-8.438V172.74Z" transform="translate(-148.279 -94.86)" fill="#85e1c2"/>
      <path id="パス_1579" data-name="パス 1579" d="M357.6,169.521v1.547l-10.219-5.894.007-1.554Z" transform="translate(-148.284 -92.426)" fill="#85e1c2"/>
      <path id="パス_1580" data-name="パス 1580" d="M379.264,208.837v1.54l-18.8-10.85.007-1.547Z" transform="translate(-151.775 -101.596)" fill="#85e1c2"/>
      <path id="パス_1581" data-name="パス 1581" d="M383.979,202.4l-.007,1.554L360.49,190.387V188.84Z" transform="translate(-151.783 -99.157)" fill="#85e1c2"/>
      <path id="パス_1582" data-name="パス 1582" d="M372.192,172.733l-.007,1.547-11.634-6.715.007-1.554Z" transform="translate(-151.799 -93.064)" fill="#85e1c2"/>
      <path id="パス_1583" data-name="パス 1583" d="M389.192,192.323l-.007,1.547L360.52,177.324l.007-1.554Z" transform="translate(-151.791 -95.669)" fill="#85e1c2"/>
      <path id="パス_1584" data-name="パス 1584" d="M398.108,206.6l-.007,1.547-37.6-21.714V184.89Z" transform="translate(-151.786 -98.103)" fill="#85e1c2"/>
    </g>
    <g id="freepik--character-2--inject-72" transform="translate(236.664 176.68)">
      <path id="パス_1585" data-name="パス 1585" d="M352.725,291.41c-5.132,3.556-10.887,6.019-15.168,10.784-7.984,8.907-8.174,23.232-1.9,33.422s17.946,16.3,29.823,17.7a47.988,47.988,0,0,0,35.328-9.838,42.869,42.869,0,0,0,16.026-32.74c0-12.558-6.429-25.05-16.942-31.9-9.6-6.253-23.379-8.064-32.99-.88-4.86,3.614-8.108,8.959-12.961,12.587Z" transform="translate(-318.501 -239.118)" fill="#455a64"/>
      <path id="パス_1586" data-name="パス 1586" d="M352.725,291.41c-5.132,3.556-10.887,6.019-15.168,10.784-7.984,8.907-8.174,23.232-1.9,33.422s17.946,16.3,29.823,17.7a47.988,47.988,0,0,0,35.328-9.838,42.869,42.869,0,0,0,16.026-32.74c0-12.558-6.429-25.05-16.942-31.9-9.6-6.253-23.379-8.064-32.99-.88-4.86,3.614-8.108,8.959-12.961,12.587Z" transform="translate(-318.501 -239.118)" fill="#fff" opacity="0.3"/>
      <path id="パス_1587" data-name="パス 1587" d="M357.752,347.972a.624.624,0,0,1,.037-.257,13.475,13.475,0,0,1,10.923-11.231,42.682,42.682,0,0,0,13.988-5.359c3.057-1.847,5.953-4.113,9.376-5.132a15.293,15.293,0,0,1,10.1.609,11.73,11.73,0,0,0-11.73-3c2.734-4.186,5.132-8.695,6.077-13.6s.279-10.3-2.683-14.325a14.405,14.405,0,0,0-22.25-1.188c-2.932,3.2-4.582,7.72-6.51,11.612-1.378,2.8-2.808,5.659-5.088,7.793-3.438,3.218-8.387,4.4-11.95,7.456-4.047,3.482-5.792,9.061-5.806,14.405a42.476,42.476,0,0,0,1.525,10.637,40.643,40.643,0,0,0,14.625,8.944,15.82,15.82,0,0,1-.638-7.368Z" transform="translate(-321.439 -243.519)" opacity="0.1"/>
      <path id="パス_1588" data-name="パス 1588" d="M422.33,309.053a36.655,36.655,0,0,0-31.252-35.563,25.953,25.953,0,0,0-3.534.594,35.7,35.7,0,0,1,33.818,34.991c.227,11.678-5.484,23.591-15.285,31.853-7.683,6.473-17.888,10.769-29.1,12.316l.733.088c1.012.117,2.023.205,3.035.257a57.055,57.055,0,0,0,25.974-11.928C416.721,333.245,422.564,321.039,422.33,309.053Z" transform="translate(-330.711 -239.166)" fill="#fff"/>
      <path id="パス_1589" data-name="パス 1589" d="M345.59,363.628a35.863,35.863,0,0,1,.623,5.828l1.386-.52a3.563,3.563,0,0,1,3.841.88l.066.066a1.386,1.386,0,0,0,1.921.088h0a1.371,1.371,0,0,0,.477-1l.191-5.865Z" transform="translate(-322.333 -263.083)" fill="#ffa8a7"/>
      <path id="パス_1590" data-name="パス 1590" d="M348.5,389.52c-2.866,3.072-8.152,5.755-11.994,3.138l.433.975c3.841,2.617,9.127-.066,11.994-3.138s1-5.19,3.592-7.918a9.4,9.4,0,0,0,2.2-3.314c-.11-.293-.22-.674-.359-1.114a11.686,11.686,0,0,1-2.3,3.453C349.515,384.323,351.377,386.449,348.5,389.52Z" transform="translate(-319.909 -267.1)" fill="#263238"/>
      <path id="パス_1591" data-name="パス 1591" d="M352.87,372.7a5.543,5.543,0,0,1-.9-2.089,1.225,1.225,0,0,0-.565-.858l-.037.99a1.371,1.371,0,0,1-.477,1,1.386,1.386,0,0,1-1.921-.088l-.066-.066a3.563,3.563,0,0,0-3.841-.88l-1.408.528a1.078,1.078,0,0,0-.733,1.034,24.511,24.511,0,0,1-3.761,12.309c-2.031.843-3.783,3.607-2.888,5.63l.088.205c3.841,2.617,9.127-.066,11.994-3.138s1.012-5.2,3.592-7.918a11.685,11.685,0,0,0,2.3-3.453A12.617,12.617,0,0,0,352.87,372.7Z" transform="translate(-319.782 -264.858)" fill="#37474f"/>
      <path id="パス_1592" data-name="パス 1592" d="M349.38,381.119a.492.492,0,0,0,.455-.872,5.616,5.616,0,0,0-5.513,0c-.088.323-.176.638-.271.946A5.4,5.4,0,0,1,349.38,381.119Z" transform="translate(-321.922 -267.466)" fill="#fff"/>
      <path id="パス_1593" data-name="パス 1593" d="M350.294,378.149a.484.484,0,0,0,.653-.22.491.491,0,0,0-.205-.653,5.865,5.865,0,0,0-5.733.051c-.059.323-.125.652-.2.982a5.469,5.469,0,0,1,5.484-.161Z" transform="translate(-322.125 -266.674)" fill="#fff"/>
      <path id="パス_1594" data-name="パス 1594" d="M348.33,384.071a.487.487,0,0,0,.447-.865,5.586,5.586,0,0,0-5.4-.059c-.117.345-.249.674-.381,1a5.4,5.4,0,0,1,5.33-.081Z" transform="translate(-321.642 -268.256)" fill="#fff"/>
      <path id="パス_1595" data-name="パス 1595" d="M339.191,389.749c-2.031.843-3.783,3.607-2.888,5.63l.088.205c3.783,2.58,8.966,0,11.862-3C345.833,387.828,340.782,389.016,339.191,389.749Z" transform="translate(-319.79 -270.011)" fill="#fff"/>
      <path id="パス_1596" data-name="パス 1596" d="M347.114,386.96a.5.5,0,0,0,.652-.22.491.491,0,0,0-.205-.652,5.6,5.6,0,0,0-5.4-.051c-.169.381-.352.733-.528,1.085a5.447,5.447,0,0,1,5.484-.161Z" transform="translate(-321.276 -269.026)" fill="#fff"/>
      <path id="パス_1597" data-name="パス 1597" d="M336.711,379.78a35.261,35.261,0,0,1-1.781,5.586l1.466.081a3.585,3.585,0,0,1,3.167,2.353v.1a1.393,1.393,0,0,0,1.723.85h0a1.356,1.356,0,0,0,.843-.733l2.544-5.308Z" transform="translate(-319.488 -267.535)" fill="#ffa8a7"/>
      <path id="パス_1598" data-name="パス 1598" d="M327.545,407.077c-3.863,1.649-9.78,1.972-12.236-1.979v1.07c2.456,3.944,8.372,3.622,12.236,1.972s3.02-4.347,6.481-5.8a9.325,9.325,0,0,0,3.38-2.133,9.825,9.825,0,0,1,.125-1.158,11.941,11.941,0,0,1-3.5,2.2C330.551,402.752,331.394,405.443,327.545,407.077Z" transform="translate(-314.251 -272.678)" fill="#263238"/>
      <path id="パス_1599" data-name="パス 1599" d="M337.532,392.445a5.616,5.616,0,0,1,0-2.273,1.2,1.2,0,0,0-.176-1.012l-.411.872a1.393,1.393,0,0,1-2.566-.125v-.1a3.585,3.585,0,0,0-3.167-2.353l-1.466-.081a1.078,1.078,0,0,0-1.056.667,24.622,24.622,0,0,1-8.409,9.743c-2.2-.051-4.912,1.767-4.912,3.981v.22c2.456,3.951,8.372,3.629,12.235,1.979s3.02-4.347,6.481-5.8a11.941,11.941,0,0,0,3.5-2.2,12.954,12.954,0,0,0-.059-3.526Z" transform="translate(-314.267 -269.562)" fill="#37474f"/>
      <path id="パス_1600" data-name="パス 1600" d="M333.6,397.424a.491.491,0,0,0,.689.059.484.484,0,0,0,.073-.674,5.6,5.6,0,0,0-5.044-2.2c-.205.257-.418.513-.63.733a5.4,5.4,0,0,1,4.912,2.082Z" transform="translate(-317.822 -271.485)" fill="#fff"/>
      <path id="パス_1601" data-name="パス 1601" d="M335.62,395.067a.491.491,0,0,0,.689.059.484.484,0,0,0,.073-.674,5.865,5.865,0,0,0-5.264-2.273c-.183.279-.381.55-.579.821a5.454,5.454,0,0,1,5.08,2.067Z" transform="translate(-318.316 -270.835)" fill="#fff"/>
      <path id="パス_1602" data-name="パス 1602" d="M331.442,399.7a.491.491,0,0,0,.733-.616,5.586,5.586,0,0,0-4.912-2.2c-.249.257-.5.513-.733.733A5.4,5.4,0,0,1,331.442,399.7Z" transform="translate(-317.246 -272.095)" fill="#fff"/>
      <path id="パス_1603" data-name="パス 1603" d="M320.212,401.6c-2.2-.051-4.912,1.767-4.912,3.981v.22c2.419,3.893,8.2,3.629,12.06,2.045C327.052,402.538,321.957,401.578,320.212,401.6Z" transform="translate(-314.248 -273.358)" fill="#fff"/>
      <path id="パス_1604" data-name="パス 1604" d="M329.14,401.871a.491.491,0,0,0,.733-.608,5.586,5.586,0,0,0-4.926-2.2c-.308.271-.616.535-.916.777a5.462,5.462,0,0,1,5.11,2.031Z" transform="translate(-316.578 -272.676)" fill="#fff"/>
      <path id="パス_1605" data-name="パス 1605" d="M359.5,311.21l-19.347,10.784a9.6,9.6,0,0,0-4.758,10.124l3.753,20.219-3.079,9.78c2.661,3.563,8.761,3.746,8.761,3.746,3.4-6.825,5.865-9.721,7.83-15.439s3.218-9.662,3.218-9.662l16.062-4.4a19.061,19.061,0,0,0,13.929-16.194c.271-2.434.286-4.091.286-4.091Z" transform="translate(-319.568 -249.234)" fill="#455a64"/>
      <path id="パス_1606" data-name="パス 1606" d="M361.081,318.63a9.142,9.142,0,0,0,2.2,5.865l-13.65,8.541a9.838,9.838,0,0,0-4.179,5.454l-4.831,15.8,4.362-17.594a7.954,7.954,0,0,1,3.548-4.868l12.565-7.793A6.454,6.454,0,0,1,361.081,318.63Z" transform="translate(-321.006 -251.214)" opacity="0.2"/>
      <path id="パス_1607" data-name="パス 1607" d="M339.351,275.648l-2.712,2.624c-2.778-3.548-6.51-5.953-9.772-10.931-.946-1.188-.843-3.563-1.466-4.772-.506-.953-1.378-2.383-1.745-3.174a.528.528,0,0,0-.777-.235c-.931.674-.44,2.28.044,3.981.572,1.979-2.419-.733-2.822-1.166-1.9-1.767-3.534-6.1-4.831-5.667s-.264,2.588-.264,2.588c-1.195.257-.733,2.155-.733,2.155-.733,1.246-.506,3.16.938,4.948,1.056,1.29,3.9,3.064,5.374,3.944a4.7,4.7,0,0,1,1.54,1.466l9.3,13.8a5.63,5.63,0,0,0,8.064,1.371l5.051-3.776Z" transform="translate(-313.866 -234.572)" fill="#ffa8a7"/>
      <path id="パス_1608" data-name="パス 1608" d="M364.23,266.068c-5.132-.227-12.133,8.123-16.07,12.06.3,4.809,5.484,7.976,5.484,7.976a113.019,113.019,0,0,0,10.586-8.277Z" transform="translate(-323.019 -237.184)" fill="#85e1c2"/>
      <path id="パス_1609" data-name="パス 1609" d="M364.23,266.068c-5.132-.227-12.133,8.123-16.07,12.06.3,4.809,5.484,7.976,5.484,7.976a113.019,113.019,0,0,0,10.586-8.277Z" transform="translate(-323.019 -237.184)" opacity="0.5"/>
      <path id="パス_1610" data-name="パス 1610" d="M394.282,305.146c-3.431,3.3-19.911,3.9-28.32-4.105a77.991,77.991,0,0,0,0-17.69c-.535-5.96-4.039-16.465,2.646-17.682,8.922-1.745,14.757-1.605,20.717,1.759C395.675,278.036,394.825,293.907,394.282,305.146Z" transform="translate(-327.398 -236.784)" fill="#85e1c2"/>
      <path id="パス_1611" data-name="パス 1611" d="M394.282,305.146c-3.431,3.3-19.911,3.9-28.32-4.105a77.991,77.991,0,0,0,0-17.69c-.535-5.96-4.039-16.465,2.646-17.682,8.922-1.745,14.757-1.605,20.717,1.759C395.675,278.036,394.825,293.907,394.282,305.146Z" transform="translate(-327.398 -236.784)" fill="#85e1c2"/>
      <path id="パス_1612" data-name="パス 1612" d="M394.282,305.146c-3.431,3.3-19.911,3.9-28.32-4.105a77.991,77.991,0,0,0,0-17.69c-.535-5.96-4.039-16.465,2.646-17.682,8.922-1.745,14.757-1.605,20.717,1.759C395.675,278.036,394.825,293.907,394.282,305.146Z" transform="translate(-327.398 -236.784)" opacity="0.3"/>
      <path id="パス_1613" data-name="パス 1613" d="M387.127,247.164a2.434,2.434,0,0,0-1.195-1.254,1.83,1.83,0,0,0-.352-.132,2.2,2.2,0,0,0-1.987.667,3.841,3.841,0,0,0-.968,1.921,16.506,16.506,0,0,0-.242,2.2,25.858,25.858,0,0,1-.594,3.819,4.861,4.861,0,0,1-2.478,3.233l-.081.044a15.066,15.066,0,0,1-5.777,1.54v2.2c-1.591,2.163-2.038,6.312,2.163,5.073s6.928-4.032,6.928-6.781c0-1.158.059-2.646.088-3.973.037-1.8.073-3.292.073-3.292a2.36,2.36,0,0,0,1.532.8,1.972,1.972,0,0,0,.806-.044,3.013,3.013,0,0,0,1.8-1.532,5.66,5.66,0,0,0,.572-2.331A4.715,4.715,0,0,0,387.127,247.164Z" transform="translate(-329.466 -231.761)" fill="#ffa8a7"/>
      <path id="パス_1614" data-name="パス 1614" d="M382.816,236.7a5.176,5.176,0,0,0-3.3-1.752l-17.243,1.6c-1.994,4.215-.4,7-.4,7-.271,6.429-.491,10.513,2.339,11.862a13.2,13.2,0,0,0,6.3.88,15.065,15.065,0,0,0,5.777-1.54l.088-.044a4.882,4.882,0,0,0,2.471-3.248,25.662,25.662,0,0,0,.594-3.8,16.511,16.511,0,0,1,.242-2.2,3.841,3.841,0,0,1,.968-1.921,2.2,2.2,0,0,1,1.987-.667,1.83,1.83,0,0,1,.352.132C383.476,240.177,383.622,237.7,382.816,236.7Z" transform="translate(-326.518 -228.88)" fill="#37474f"/>
      <path id="パス_1615" data-name="パス 1615" d="M376.916,237.92a5.916,5.916,0,0,0,.227,3.607,26.252,26.252,0,0,1,1.092,3.512,5.711,5.711,0,0,1-.469,3.541,4.171,4.171,0,0,1-2.749,2.2c-1.855.4-3.666-.682-5.52-1.048a7.727,7.727,0,0,0-5.19.924.9.9,0,0,1-1.356-.733c-.22-3.666-.22-9.494.33-12.221Z" transform="translate(-326.929 -229.614)" fill="#ffa8a7"/>
      <path id="パス_1616" data-name="パス 1616" d="M362.995,231.633l-2.148-1.466a4.553,4.553,0,0,0,.821,4.215,6.84,6.84,0,0,0,3.775,2.2,14.368,14.368,0,0,0,4.45.2,32.919,32.919,0,0,0,6.415-1.166,5.219,5.219,0,0,0,2.522-1.327,3.343,3.343,0,0,0,.132-3.929,5,5,0,0,0-3.548-2.053,13.541,13.541,0,0,0-4.267.337,12.91,12.91,0,0,1-4.267.308,4.457,4.457,0,0,1-3.438-2.28C362.232,228.635,362.995,231.633,362.995,231.633Z" transform="translate(-326.351 -226.67)" fill="#37474f"/>
      <path id="パス_1617" data-name="パス 1617" d="M370.085,246.96l-3.145,3.8,2.881,1.019Z" transform="translate(-328.031 -232.085)" fill="#f28f8f"/>
      <path id="パス_1618" data-name="パス 1618" d="M373.587,256.12l-2.427.733a1.466,1.466,0,0,0,1.635.733A1.356,1.356,0,0,0,373.587,256.12Z" transform="translate(-329.157 -234.53)" fill="#f28f8f"/>
      <path id="パス_1619" data-name="パス 1619" d="M373.587,256.12l-2.427.733a1.466,1.466,0,0,0,1.635.733A1.356,1.356,0,0,0,373.587,256.12Z" transform="translate(-329.157 -234.53)" opacity="0.3"/>
      <path id="パス_1620" data-name="パス 1620" d="M372.31,257.712a1.4,1.4,0,0,0,.792.051,1.217,1.217,0,0,0,.792-1.1,1.378,1.378,0,0,0-1.583,1.048Z" transform="translate(-329.464 -234.671)" fill="#f28f8f"/>
      <path id="パス_1621" data-name="パス 1621" d="M376.431,247.758a.865.865,0,1,1-.814-.909A.865.865,0,0,1,376.431,247.758Z" transform="translate(-330.103 -232.055)" fill="#263238"/>
      <path id="パス_1622" data-name="パス 1622" d="M366.571,246.848a.865.865,0,1,1-.814-.909A.865.865,0,0,1,366.571,246.848Z" transform="translate(-327.471 -231.813)" fill="#263238"/>
      <path id="パス_1623" data-name="パス 1623" d="M365.569,242.337l-1.987,1.217a1.246,1.246,0,0,1,.447-1.334A1.466,1.466,0,0,1,365.569,242.337Z" transform="translate(-327.122 -230.776)" fill="#263238"/>
      <path id="パス_1624" data-name="パス 1624" d="M376.39,242.77l1.84,1.422a1.209,1.209,0,0,0-.3-1.371A1.466,1.466,0,0,0,376.39,242.77Z" transform="translate(-330.553 -230.915)" fill="#263238"/>
      <path id="パス_1625" data-name="パス 1625" d="M380.805,261.053a5.419,5.419,0,0,0,1-2.053,4.831,4.831,0,0,1-2.082,2.163l-.081.044a15.066,15.066,0,0,1-5.777,1.54v1.466a14.552,14.552,0,0,0,3.409-.733,7.705,7.705,0,0,0,3.526-2.427Z" transform="translate(-329.881 -235.299)" opacity="0.2"/>
      <path id="パス_1626" data-name="パス 1626" d="M371.845,327.712a.734.734,0,0,1,0,.257.85.85,0,0,1-.1.2h0a1.066,1.066,0,0,1-.176.191h0a1.853,1.853,0,0,1-.264.183l-14.156,8.233a3.351,3.351,0,0,1-.4.176l-.161.044-.205.051a1.469,1.469,0,0,1-.249.044h-.462a2.71,2.71,0,0,1-.345,0h-.051l-.33-.059h-.059a2.137,2.137,0,0,1-.286-.088h-.051l-.315-.147-23.437-13.452a1.519,1.519,0,0,1-.264-.183l-.073-.073a1.075,1.075,0,0,1-.117-.139.108.108,0,0,0-.051-.088,1.111,1.111,0,0,1-.066-.132v-.1a.821.821,0,0,1,0-.132v.828a.821.821,0,0,0,0,.132v.1a1.108,1.108,0,0,0,.066.132.108.108,0,0,0,.051.088,1.084,1.084,0,0,0,.117.139l.073.073a1.52,1.52,0,0,0,.264.183l23.349,13.489.315.147h.051a2.139,2.139,0,0,0,.286.088h.059l.33.059h.051a2.716,2.716,0,0,0,.345,0h.462a1.463,1.463,0,0,0,.249-.044l.205-.051.161-.044a3.342,3.342,0,0,0,.4-.176l14.164-8.174a1.856,1.856,0,0,0,.264-.183h0a1.063,1.063,0,0,0,.176-.191.852.852,0,0,0,.1-.2h0a.78.78,0,0,0,0-.183h0v-.894Z" transform="translate(-318.23 -252.247)" fill="#e0e0e0"/>
      <path id="パス_1627" data-name="パス 1627" d="M371.845,327.712a.734.734,0,0,1,0,.257.85.85,0,0,1-.1.2h0a1.066,1.066,0,0,1-.176.191h0a1.853,1.853,0,0,1-.264.183l-14.156,8.233a3.351,3.351,0,0,1-.4.176l-.161.044-.205.051a1.469,1.469,0,0,1-.249.044h-.462a2.71,2.71,0,0,1-.345,0h-.051l-.33-.059h-.059a2.137,2.137,0,0,1-.286-.088h-.051l-.315-.147-23.437-13.452a1.519,1.519,0,0,1-.264-.183l-.073-.073a1.075,1.075,0,0,1-.117-.139.108.108,0,0,0-.051-.088,1.111,1.111,0,0,1-.066-.132v-.1a.821.821,0,0,1,0-.132v.828a.821.821,0,0,0,0,.132v.1a1.108,1.108,0,0,0,.066.132.108.108,0,0,0,.051.088,1.084,1.084,0,0,0,.117.139l.073.073a1.52,1.52,0,0,0,.264.183l23.349,13.489.315.147h.051a2.139,2.139,0,0,0,.286.088h.059l.33.059h.051a2.716,2.716,0,0,0,.345,0h.462a1.463,1.463,0,0,0,.249-.044l.205-.051.161-.044a3.342,3.342,0,0,0,.4-.176l14.164-8.174a1.856,1.856,0,0,0,.264-.183h0a1.063,1.063,0,0,0,.176-.191.852.852,0,0,0,.1-.2h0a.78.78,0,0,0,0-.183h0v-.894Z" transform="translate(-318.23 -252.247)" opacity="0.2"/>
      <path id="パス_1628" data-name="パス 1628" d="M330.216,319.31a1.106,1.106,0,0,0,.066.132.108.108,0,0,0,.051.088,1.073,1.073,0,0,0,.117.139l.073.073a1.517,1.517,0,0,0,.264.183l23.349,13.489.315.147h.051a2.132,2.132,0,0,0,.286.088h.059l.33.059h.051a2.72,2.72,0,0,0,.344,0h.462a1.466,1.466,0,0,0,.249-.044l.205-.051.161-.044a3.345,3.345,0,0,0,.4-.176l14.156-8.233a1.849,1.849,0,0,0,.264-.183h0a1.062,1.062,0,0,0,.176-.191h0a.854.854,0,0,0,.1-.2h0a.732.732,0,0,0,0-.257,1.078,1.078,0,0,0-.6-.8L347.8,310.051a3.211,3.211,0,0,0-2.932,0L330.78,318.24a1.026,1.026,0,0,0-.6.843.828.828,0,0,0,0,.132A.9.9,0,0,1,330.216,319.31Z" transform="translate(-318.219 -248.83)" fill="#e0e0e0"/>
      <path id="パス_1629" data-name="パス 1629" d="M332.88,320.789l22.726,13.1.088.044h.044l.183.051h.447a1.375,1.375,0,0,0,.235,0h.147l.183-.051a1.062,1.062,0,0,0,.161-.066l7.294-4.245L340.929,316.09Z" transform="translate(-318.94 -250.536)" fill="#e0e0e0"/>
      <path id="パス_1630" data-name="パス 1630" d="M364.89,340.58Z" transform="translate(-327.484 -257.072)" fill="#263238"/>
      <path id="パス_1631" data-name="パス 1631" d="M360.7,317.544l-4.267,2.507a.433.433,0,0,0,0,.733l6.385,3.666a.689.689,0,0,0,.733,0l4.267-2.507a.433.433,0,0,0,0-.733l-6.385-3.666A.733.733,0,0,0,360.7,317.544Z" transform="translate(-325.173 -250.898)" fill="#e0e0e0"/>
      <path id="パス_1632" data-name="パス 1632" d="M332.88,320.789l22.726,13.1.088.044h.044l.183.051h.447a1.375,1.375,0,0,0,.235,0h.147l.183-.051a1.062,1.062,0,0,0,.161-.066l7.294-4.245L340.929,316.09Z" transform="translate(-318.94 -250.536)" opacity="0.4"/>
      <path id="パス_1633" data-name="パス 1633" d="M360.7,317.544l-4.267,2.507a.433.433,0,0,0,0,.733l6.385,3.666a.689.689,0,0,0,.733,0l4.267-2.507a.433.433,0,0,0,0-.733l-6.385-3.666A.733.733,0,0,0,360.7,317.544Z" transform="translate(-325.173 -250.898)" opacity="0.4"/>
      <path id="パス_1634" data-name="パス 1634" d="M354.286,329.558l-2.419-15.4a2.844,2.844,0,0,0-1.378-2.016l-23.511-13.672a.733.733,0,0,0-.63,0h0l-.557.279.191.066a.733.733,0,0,0-.066.418l2.419,15.4a2.844,2.844,0,0,0,1.378,2.016L353.23,330.32a.659.659,0,0,0,.154.059v.227l.542-.264h0A.733.733,0,0,0,354.286,329.558Z" transform="translate(-317.048 -245.815)" fill="#e0e0e0"/>
      <path id="パス_1635" data-name="パス 1635" d="M354.286,329.558l-2.419-15.4a2.844,2.844,0,0,0-1.378-2.016l-23.511-13.672a.733.733,0,0,0-.63,0h0l-.557.279.191.066a.733.733,0,0,0-.066.418l2.419,15.4a2.844,2.844,0,0,0,1.378,2.016L353.23,330.32a.659.659,0,0,0,.154.059v.227l.542-.264h0A.733.733,0,0,0,354.286,329.558Z" transform="translate(-317.048 -245.815)" opacity="0.3"/>
      <path id="パス_1636" data-name="パス 1636" d="M349.892,312.5l-23.518-13.672a.733.733,0,0,0-1.056.733l2.419,15.4a2.83,2.83,0,0,0,1.371,2.009l23.518,13.672a.733.733,0,0,0,1.063-.733l-2.419-15.4a2.815,2.815,0,0,0-1.378-2.009Z" transform="translate(-316.921 -245.909)" fill="#e0e0e0"/>
      <path id="パス_1637" data-name="パス 1637" d="M342.637,317.94a5.2,5.2,0,0,1,2.339,3.365c.147,1.195-.645,1.642-1.781.982a5.2,5.2,0,0,1-2.331-3.358C340.709,317.728,341.508,317.288,342.637,317.94Z" transform="translate(-321.066 -250.949)" fill="#fff"/>
      <path id="パス_1638" data-name="パス 1638" d="M389.021,293.683l2.119,7.272-12.976,9.215-4.362,1.84a6.782,6.782,0,0,0-2.888,2.3l-3.563,4.919c-.4.828,1.466,2.2,2.346,2.4h0a3.2,3.2,0,0,0,2.932-.733l2.742-2.522.733-.264a11.509,11.509,0,0,0,5.513-4.142h0l15.263-5.909a5.865,5.865,0,0,0,3.519-6.942l-2.529-9.376Z" transform="translate(-328.126 -244.037)" fill="#ffa8a7"/>
      <path id="パス_1639" data-name="パス 1639" d="M392,277.6l3.761,11.253c6.121.418,8.973-1.642,9.816-3.46-3.211-14.611-5.33-17.037-9.53-17.345S392,277.6,392,277.6Z" transform="translate(-334.719 -237.712)" fill="#85e1c2"/>
      <path id="パス_1640" data-name="パス 1640" d="M392,277.6l3.761,11.253c6.121.418,8.973-1.642,9.816-3.46-3.211-14.611-5.33-17.037-9.53-17.345S392,277.6,392,277.6Z" transform="translate(-334.719 -237.712)" opacity="0.5"/>
    </g>
    <g id="freepik--character-1--inject-72" transform="translate(100.736 175.258)">
      <path id="パス_1641" data-name="パス 1641" d="M325.976,307.27h-.066l.059.051Z" transform="translate(-181.152 -246.759)" fill="#455a64"/>
      <path id="パス_1642" data-name="パス 1642" d="M185.847,435.536a4.777,4.777,0,0,1-3.424,2.067,15.6,15.6,0,0,1-4.692-.3,31.128,31.128,0,0,0-7.008-.176,37.809,37.809,0,0,1-4.362.308,6.935,6.935,0,0,1-4.1-1.3,4.215,4.215,0,0,1-1.54-2.617,3.951,3.951,0,0,0,1.539,3.526,6.942,6.942,0,0,0,4.1,1.3,37.827,37.827,0,0,0,4.362-.315,30.705,30.705,0,0,1,7.008.183,16.665,16.665,0,0,0,4.8.4,4.772,4.772,0,0,0,3.424-2.06Z" transform="translate(-137.059 -280.455)" fill="#263238"/>
      <path id="パス_1643" data-name="パス 1643" d="M171.593,431.316c1.3,0,.828-1.935,2.067-3.226-.506,0-1.012.037-1.518,0C171.021,429.732,170.706,431.316,171.593,431.316Z" transform="translate(-139.828 -279.006)" fill="#fff"/>
      <path id="パス_1644" data-name="パス 1644" d="M175.295,431.015c1.32,0,.975-2.3,2.265-3.665-.293.1-.594.191-.894.264l-.777.139C174.737,429.4,174.4,431.015,175.295,431.015Z" transform="translate(-140.817 -278.808)" fill="#fff"/>
      <path id="パス_1645" data-name="パス 1645" d="M186,425.869a1.848,1.848,0,0,0-.682-1.063l-7.067-.176a6,6,0,0,1-2.932,2.009c-1.29,1.349-.946,3.666-2.265,3.666-.894,0-.557-1.62.594-3.248-.41.059-.821.1-1.239.125-1.239,1.29-.733,3.226-2.067,3.226-.887,0-.572-1.583.55-3.2h-.99a5.449,5.449,0,0,1-.909-.051c-2.6,2.06-2.815,4.289-2.478,7.785a9.349,9.349,0,0,0,1.349.139,37.816,37.816,0,0,0,4.362-.308,31.126,31.126,0,0,1,7.008.176,15.6,15.6,0,0,0,4.692.3,4.777,4.777,0,0,0,3.424-2.067Z" transform="translate(-138.577 -278.082)" fill="#455a64"/>
      <path id="パス_1646" data-name="パス 1646" d="M167.463,428a11.155,11.155,0,0,0-3.526,0,4.208,4.208,0,0,0-3.182,2.771,3.079,3.079,0,0,0-.059,1.239,4.216,4.216,0,0,0,1.54,2.617,6.121,6.121,0,0,0,2.749,1.158C164.648,432.288,164.868,430.059,167.463,428Z" transform="translate(-137.047 -278.944)" fill="#fff"/>
      <path id="パス_1647" data-name="パス 1647" d="M182.3,421.89v3.4a1.4,1.4,0,0,0,1.393,1.4h3.563a2.3,2.3,0,0,0,2.295-2.2l.088-2.58Z" transform="translate(-142.822 -277.351)" fill="#995c5c"/>
      <path id="パス_1648" data-name="パス 1648" d="M209.488,416.313a2.632,2.632,0,0,1-2.141,1.5,4.516,4.516,0,0,1-2.713-.667c-1.224-.777-1.708-2.009-2.544-3.108a18.331,18.331,0,0,0-2.932-2.888,9.727,9.727,0,0,1-2.822-3.27,4.179,4.179,0,0,1-.33-1.2,4.281,4.281,0,0,0,.33,2.3,9.824,9.824,0,0,0,2.822,3.277,18.329,18.329,0,0,1,2.932,2.881c.836,1.107,1.32,2.331,2.544,3.108a4.516,4.516,0,0,0,2.712.667,2.6,2.6,0,0,0,2.141-1.5,5.865,5.865,0,0,0,.132-1.891,2.478,2.478,0,0,1-.132.792Z" transform="translate(-146.471 -273.292)" fill="#263238"/>
      <path id="パス_1649" data-name="パス 1649" d="M203.4,408.824a.85.85,0,0,0-.169.579.594.594,0,0,0,.381.44.858.858,0,0,0,.8-.205,4.254,4.254,0,0,0,.55-.652,4.149,4.149,0,0,1,1.818-1.327,3.886,3.886,0,0,1,1.085-.242l-.88-.806a4.539,4.539,0,0,0-1.613.4,4.465,4.465,0,0,0-1.972,1.818Z" transform="translate(-148.408 -273.273)" fill="#fff"/>
      <path id="パス_1650" data-name="パス 1650" d="M202.94,405.652a4.4,4.4,0,0,0-1.972,1.818.85.85,0,0,0-.169.579.594.594,0,0,0,.381.44.858.858,0,0,0,.8-.205,3.983,3.983,0,0,0,.55-.66,4.149,4.149,0,0,1,3.6-1.562l-.872-.792A4.4,4.4,0,0,0,202.94,405.652Z" transform="translate(-147.759 -272.909)" fill="#fff"/>
      <path id="パス_1651" data-name="パス 1651" d="M203.4,403.8a9.332,9.332,0,0,0-2.771-1.855,3.666,3.666,0,0,0-3.812.528,3.277,3.277,0,0,0-.843,2.859,4.177,4.177,0,0,0,.33,1.2,6.078,6.078,0,0,0,.88,1.386C197.516,404.879,200.156,403.457,203.4,403.8Z" transform="translate(-146.456 -271.945)" fill="#fff"/>
      <path id="パス_1652" data-name="パス 1652" d="M210.018,412.764a6.356,6.356,0,0,0-.7-2.976l-1.715-1.8-1.224-1.114a3.886,3.886,0,0,0-1.085.242,4.149,4.149,0,0,0-1.818,1.327,4.255,4.255,0,0,1-.55.652.858.858,0,0,1-.8.205.594.594,0,0,1-.381-.44.85.85,0,0,1,.169-.579,4.465,4.465,0,0,1,1.972-1.818,4.539,4.539,0,0,1,1.613-.4l-.205-.183a4.149,4.149,0,0,0-3.6,1.561,3.98,3.98,0,0,1-.55.66.858.858,0,0,1-.8.205.594.594,0,0,1-.381-.44.851.851,0,0,1,.169-.579,4.4,4.4,0,0,1,4.289-2.2h0l-.528-.477c-3.24-.345-5.865,1.078-6.217,4.12a14.311,14.311,0,0,0,1.943,1.884,18.325,18.325,0,0,1,2.932,2.888c.836,1.1,1.32,2.331,2.544,3.108a4.516,4.516,0,0,0,2.712.667,2.632,2.632,0,0,0,2.141-1.5,2.478,2.478,0,0,0,.132-.792,21.725,21.725,0,0,0-.066-2.221Z" transform="translate(-146.927 -272.726)" fill="#455a64"/>
      <path id="パス_1653" data-name="パス 1653" d="M206.05,408.41l.205,3.666a4.853,4.853,0,0,0,5.535-.235l.154-3.416Z" transform="translate(-149.161 -273.753)" fill="#995c5c"/>
      <path id="パス_1654" data-name="パス 1654" d="M203.594,299.1a3.24,3.24,0,0,1-.352-1.254l-.2-3.138-22.338,1.466c-.293,1.569-.594,3.482-.887,5.66a33.246,33.246,0,0,0,23.775-2.734Z" transform="translate(-142.16 -243.407)" fill="#995c5c"/>
      <path id="パス_1655" data-name="パス 1655" d="M211.65,281.576l4.758,9.2-4.318,7.236,4.78,7.558,7.214-11.2a6.312,6.312,0,0,0,.733-5.176,88.463,88.463,0,0,0-4.692-12.763Z" transform="translate(-150.656 -238.528)" fill="#995c5c"/>
      <path id="パス_1656" data-name="パス 1656" d="M206.49,259.132c5.476-1.019,8.607.806,13.24,13.2-1.869,4.237-9.934,5.806-9.934,5.806Z" transform="translate(-149.279 -233.847)" fill="#ebebeb"/>
      <path id="パス_1657" data-name="パス 1657" d="M188.164,260.667l-5.975,1.173c-1.32,2.419-2.668,4.692-3.988,7.111-1,1.818-2.023,3.753-1.943,5.828a5.945,5.945,0,0,0,3.578,5.132l-.689,8.159c9.391,2.874,20.864.352,23.386-1.825.733-3.416,1.393-7.052,2.133-10.476a35.034,35.034,0,0,0,1.012-6.737,11.847,11.847,0,0,0-1.576-6.539l-.037-.059a7.331,7.331,0,0,0-7.331-3.152Z" transform="translate(-141.209 -233.923)" fill="#fff"/>
      <path id="パス_1658" data-name="パス 1658" d="M203.024,301.272a3.043,3.043,0,0,1-.345-.572,33.246,33.246,0,0,1-23.774,2.705c-1.686,12.529-3.13,33.723-2.243,47.754.733,16.3,3.739,39.382,3.739,39.382,3.907,1.173,6.847.455,7.954-.4,1.3-16.128,4.171-27.249,1.957-37.945,1.466-7.47,2.434-16.861,2.434-16.861l1.129,16.517,3.827,29.031a6.855,6.855,0,0,0,6.862-.345c2.786-16.6,3.827-27.858,1.393-36.091C209.673,317.2,209.827,310.23,203.024,301.272Z" transform="translate(-141.246 -245.006)" fill="#455a64"/>
      <path id="パス_1659" data-name="パス 1659" d="M200.342,338.461l2.053-8.6a11.96,11.96,0,0,0,8.064-5.242,16.443,16.443,0,0,1-9.912,3.5L198.7,341.76l.4,5.814.161-2.111a44.713,44.713,0,0,1,1.085-7Z" transform="translate(-147.199 -251.39)" opacity="0.3"/>
      <path id="パス_1660" data-name="パス 1660" d="M130.935,243.036l6.019,15.556a6.224,6.224,0,0,0,4.729,3.878l10.263,1.8a9.245,9.245,0,0,0,2.273-4.281,9.355,9.355,0,0,0-.447-5.374,48.489,48.489,0,0,1-9.266-1.019s-6.5-7.9-9.215-11.979l1.935-6.415a2.2,2.2,0,0,0-.2-1.745l-1.041-1.8a2.2,2.2,0,0,0-1.2-1l-1.5-.506a2.654,2.654,0,0,0-2.075.154l-2.287,1.195a.887.887,0,0,0-.469.792h0a.894.894,0,0,0,.477.77l.858.44,1.18,2.009A6.327,6.327,0,0,0,130.935,243.036Z" transform="translate(-128.45 -226.138)" fill="#995c5c"/>
      <path id="パス_1661" data-name="パス 1661" d="M177.061,262.668c-3.7.169-9.259.784-14.706.674a9.354,9.354,0,0,1,.447,5.374A9.244,9.244,0,0,1,160.53,273l12.844,2.251a5.528,5.528,0,0,0,6.2-4.069c.4-1.628.828-2.991,1.07-4.575a3.438,3.438,0,0,0-3.585-3.937Z" transform="translate(-137.012 -234.854)" fill="#ebebeb"/>
      <path id="パス_1662" data-name="パス 1662" d="M182.135,235.4a10.4,10.4,0,0,1-1.173-5.506,5.953,5.953,0,0,1,2.888-4.655,4.208,4.208,0,0,1,5.168.909,9.6,9.6,0,0,1,14.186,9.193c-.132,1.979-.858,3.922-.63,5.865.125,1.158.586,2.331.279,3.46a3.577,3.577,0,0,1-1.877,2.126c-.865.447-2.888.33-3.841.528-2.932,2.654-6.6,1.657-8.9-.733S182.135,235.4,182.135,235.4Z" transform="translate(-142.46 -224.729)" fill="#37474f"/>
      <path id="パス_1663" data-name="パス 1663" d="M181.085,242.88l-1.825,3.167,1.994.733Z" transform="translate(-142.011 -229.574)" fill="#804040"/>
      <line id="線_11" data-name="線 11" x1="0.176" y1="3.9" transform="translate(39.067 13.306)" opacity="0.3"/>
      <path id="パス_1664" data-name="パス 1664" d="M181.413,238.553c.293-2.778,1.107-5.4,2.932-6.723a14.992,14.992,0,0,0,2.075,9.934,4.4,4.4,0,0,1,1.349-2.383,2.514,2.514,0,0,1,2.588-.55,2.566,2.566,0,0,1,1.3,1.415,3.365,3.365,0,0,1-4.215,4.45,6.481,6.481,0,0,0,4.978,5.044,8.313,8.313,0,0,0,4.824-.462l.733,3.746c-3.042,3.248-8.247,1.063-8.247,1.063l-.689-3.665c-5.982.352-6.547.257-7.206-3.042a32.624,32.624,0,0,1-.418-8.827Z" transform="translate(-142.552 -226.624)" fill="#995c5c"/>
      <path id="パス_1665" data-name="パス 1665" d="M199.28,233.386a10.505,10.505,0,0,1,4.765-5.7,10.08,10.08,0,0,1,3.849,8.445c-.132,1.979-.858,3.922-.63,5.865.125,1.158.587,2.331.279,3.46a3.578,3.578,0,0,1-1.877,2.126c-.865.447-2.888.33-3.841.528-.125.117-.249.213-.381.315a29.1,29.1,0,0,1-2.368-6.077,15.527,15.527,0,0,1,.205-8.966Z" transform="translate(-147.149 -225.52)" opacity="0.3"/>
      <path id="パス_1666" data-name="パス 1666" d="M201.48,230.656a7.632,7.632,0,0,1,14.552-.183c1.8,5.469-2.822,11.282-1.811,16.949.367,2.045,1.466,3.907,1.818,5.945a8.8,8.8,0,0,1-7.6,10.315,5.215,5.215,0,0,0,.586-5.44,25.292,25.292,0,0,0-3.2-4.824C201.223,247.114,199.214,238.119,201.48,230.656Z" transform="translate(-147.692 -224.864)" fill="#37474f"/>
    </g>
  </g>
</svg>
