<svg xmlns="http://www.w3.org/2000/svg" width="824" height="248.737" viewBox="0 0 824 248.737">
  <g id="グループ_63" data-name="グループ 63" transform="translate(-548 -5753.263)">
    <rect id="長方形_13" data-name="長方形 13" width="824" height="153" rx="20" transform="translate(548 5849)" fill="#d74e7f"/>
    <rect id="長方形_12" data-name="長方形 12" width="824" height="153" rx="20" transform="translate(548 5838)" fill="#ff5c97"/>
    <g id="グループ_9" data-name="グループ 9" transform="translate(-47.995)">
      <path id="パス_1804" data-name="パス 1804" d="M11.585-7.42A7.012,7.012,0,0,1,8.26-2.485,17.487,17.487,0,0,1,1.435-.175a10.982,10.982,0,0,1,2.03,3.43c4.025-.91,6.685-2.135,8.89-4.2A10.733,10.733,0,0,0,15.68-7.42h3.15V-.6c0,2.625,1.05,3.115,6.86,3.115,3.955,0,5.46-.28,6.44-1.19.875-.84,1.225-2.135,1.575-6.02A14.5,14.5,0,0,1,30.1-6.16c-.105,2.66-.28,3.99-.63,4.48-.42.6-1.12.735-3.815.735-2.73,0-3.045-.1-3.045-1.085V-7.42h3.01c1.435,0,2.8.035,3.71.105a26.119,26.119,0,0,1-.175-3.71V-23.8a41.651,41.651,0,0,1,.175-4.375A27.036,27.036,0,0,1,25.62-28H9.485a26.791,26.791,0,0,1-3.675-.175A42.64,42.64,0,0,1,5.985-23.8v12.775a27.037,27.037,0,0,1-.175,3.71c.91-.07,2.1-.105,3.78-.105ZM9.66-24.5H25.445v2.275H9.66Zm0,5.565H25.445v2.345H9.66Zm0,5.635H25.445v2.485H9.66ZM44.1-16.59a22.519,22.519,0,0,1,3.255-.175h14.56a22.519,22.519,0,0,1,3.255.175v-3.185a20.819,20.819,0,0,1-3.255.175H56.1v-1.225h4.41c1.5,0,2.065.035,2.9.1v-2.73a21.544,21.544,0,0,1-2.94.14H56.1V-24.5H61.18a19.972,19.972,0,0,1,3.115.175V-27.4a23.8,23.8,0,0,1-3.4.21H56.1a9.636,9.636,0,0,1,.21-2.275H52.36a8.368,8.368,0,0,1,.21,2.275H48.44a22.374,22.374,0,0,1-3.325-.175v3.045a19.228,19.228,0,0,1,3.08-.175H52.57v1.19H48.65a20.821,20.821,0,0,1-2.835-.14v2.73c.84-.07,1.4-.1,2.835-.1h3.92V-19.6H47.355a28.313,28.313,0,0,1-2.87-.1V-20.86a13.232,13.232,0,0,1-2.31.14h-.84v-4.515A31.149,31.149,0,0,0,44.38-26.32c.315-.1.385-.14.6-.21l-2.03-3.08a6.849,6.849,0,0,1-1.435.7,30.785,30.785,0,0,1-8.365,2.065,13.3,13.3,0,0,1,1.33,3.255c1.75-.315,2.275-.42,3.325-.7v3.57H36.155A15.232,15.232,0,0,1,33.39-20.9v3.71a14.691,14.691,0,0,1,2.66-.175h1.47a25.681,25.681,0,0,1-1.33,3.885A19.4,19.4,0,0,1,32.655-7.63a15.059,15.059,0,0,1,1.96,3.29,21.623,21.623,0,0,0,3.43-7.035C37.9-9.7,37.8-7.875,37.8-6.16v4.935a33.35,33.35,0,0,1-.21,4.1h3.955a24.148,24.148,0,0,1-.21-4.13V-8.75c-.1-2.975-.1-2.975-.21-4.165a17.809,17.809,0,0,0,2.66,4.2,11.193,11.193,0,0,1,1.68-2.8,13.417,13.417,0,0,1-2.94-3.605,10.237,10.237,0,0,1-1.085-2.24H42.1a16.764,16.764,0,0,1,1.995.105ZM49.63-2.38A19.181,19.181,0,0,1,42.735.035a14.1,14.1,0,0,1,1.82,3.08A20.54,20.54,0,0,0,52.675-.7l-1.61-1.68h6.4L56-.7a22.09,22.09,0,0,0,8.12,3.815A11.841,11.841,0,0,1,66.045-.14,25.4,25.4,0,0,1,59.08-2.38h1.19c1.12,0,2,.035,2.94.105a22.679,22.679,0,0,1-.14-3.185v-7.28a21.525,21.525,0,0,1,.14-3.115,21.3,21.3,0,0,1-3.01.105H48.65c-1.47,0-2.1,0-2.905-.07a20.44,20.44,0,0,1,.1,2.94v7.455a26.587,26.587,0,0,1-.14,3.15c.77-.07.77-.07,3.01-.105Zm-.315-10.71H59.57v1.155H49.315Zm0,3.395H59.57V-8.54H49.315Zm0,3.36H59.57V-5.11H49.315Zm17.675-4.9a5.928,5.928,0,0,1,1.33.21c1.4.315,2.765.525,4.865.8a23.9,23.9,0,0,0-.175,2.975c0,5.635,3.465,8.68,9.835,8.68a12.575,12.575,0,0,0,7.91-2.31,8.327,8.327,0,0,0,3.36-6.545,10.886,10.886,0,0,0-1.5-5.145,13.451,13.451,0,0,0-1.645-2.2,12.932,12.932,0,0,1-4.34.875c2.1,1.925,3.15,3.885,3.15,5.915,0,3.43-2.555,5.39-7,5.39a6.368,6.368,0,0,1-4.34-1.295A4.376,4.376,0,0,1,77.14-7.49a24.822,24.822,0,0,1,.175-2.485c1.365.07,1.68.07,2.24.07a50.974,50.974,0,0,0,5.25-.315,4.5,4.5,0,0,1,1.05-.1l.105-4.025a27.981,27.981,0,0,1-6.685.7c-.385,0-.665,0-1.715-.035.21-1.68.315-2.38.665-4.935,1.5.035,1.82.035,2.17.035,1.26,0,2.38-.07,4.9-.28.77-.07.945-.1,1.4-.14l.14-4.1a34.77,34.77,0,0,1-7.98.735c.63-4.305.735-4.83,1.12-5.915L75.32-28.7a1.45,1.45,0,0,1,.035.35,41.2,41.2,0,0,1-.7,5.81A26.558,26.558,0,0,1,68.32-23.8l-.35,3.85c.525.1.7.14,1.19.245a45.905,45.905,0,0,0,5.005.875c-.175,1.3-.49,3.64-.63,4.9a22.95,22.95,0,0,1-6.16-1.33Zm36.015-17.6a8.226,8.226,0,0,1-.105,1.19l-.525,4.34c-.28,2.415-.49,6.3-.49,9.135,0,.7.07,3.29.105,4.305V-9.2a2.721,2.721,0,0,1-.035.455l4.2-.07v-.735a16.781,16.781,0,0,1,4.41-11.305,5.209,5.209,0,0,1,3.78-1.855c3.01,0,4.69,2.8,4.69,7.84,0,5.32-1.855,8.645-5.915,10.71a20.431,20.431,0,0,1-7.665,1.995,13.388,13.388,0,0,1,2.065,4.13A29.849,29.849,0,0,0,114.38,0c5.88-2.59,9.03-7.63,9.03-14.385,0-4.13-.77-6.965-2.52-9.31a7.329,7.329,0,0,0-5.985-3.15c-2.555,0-4.725,1.19-6.65,3.57a14.15,14.15,0,0,0-2.205,4.165,7.684,7.684,0,0,1-.21.77h-.105c.07-.84.21-2.03.455-3.5.665-4.655.84-5.565,1.26-6.755ZM144.2-17.465a4.153,4.153,0,0,0-4.165,4.165A4.153,4.153,0,0,0,144.2-9.135a4.153,4.153,0,0,0,4.165-4.165A4.153,4.153,0,0,0,144.2-17.465Zm27.16,11.8a11.384,11.384,0,0,1-2.1-.14v3.255a12.132,12.132,0,0,1,2.1-.14v1.4a34.847,34.847,0,0,1-.175,4.305h3.78a41.253,41.253,0,0,1-.14-4.305v-1.4H186.34v1.61c0,.665-.245.805-1.435.805a23.575,23.575,0,0,1-3.01-.245,9.988,9.988,0,0,1,.665,3.115c1.015.035,2.03.07,2.7.07,3.78,0,4.515-.525,4.515-3.29V-2.695a15.048,15.048,0,0,1,2.345.14v-3.29a10.637,10.637,0,0,1-2.345.175v-5.215a29.066,29.066,0,0,1,.14-3.465,25.922,25.922,0,0,1-3.255.14H182.1v-1.435h6.615a21.652,21.652,0,0,1,3.255.175v-3.29a17.511,17.511,0,0,1-3.22.21H186.27v-1.47h1.54a16.924,16.924,0,0,1,2.66.14v-2.87c-.735.07-1.715.14-2.66.14h-1.54v-1.5h2.275a16.222,16.222,0,0,1,2.9.175v-3.01a18.781,18.781,0,0,1-2.9.175H186.27a9.917,9.917,0,0,1,.21-2.52h-3.85a7.984,7.984,0,0,1,.21,2.52h-4.515a8.546,8.546,0,0,1,.21-2.52H174.72a10.87,10.87,0,0,1,.175,2.52h-1.47a17.71,17.71,0,0,1-2.9-.175v2.975a24.334,24.334,0,0,1,2.94-.14H174.9v1.5h-.84a20.238,20.238,0,0,1-2.695-.14v2.835a26.279,26.279,0,0,1,2.695-.1h.84v1.47h-1.89a17.494,17.494,0,0,1-3.045-.175v2.975a19.377,19.377,0,0,1-2.03-3.815h.56a11.373,11.373,0,0,1,1.995.14v-3.71a11.7,11.7,0,0,1-2.065.14h-.8v-2.87a24.5,24.5,0,0,1,.175-3.6H163.9a22.013,22.013,0,0,1,.21,3.64V-23H162.54a13.426,13.426,0,0,1-2.345-.14v3.71a13.426,13.426,0,0,1,2.345-.14H163.7a32.722,32.722,0,0,1-4.62,10.815,10.7,10.7,0,0,1,2.275,2.975,30.192,30.192,0,0,0,3.08-7.07c-.175,1.68-.28,3.5-.28,4.83V-1.26a28.625,28.625,0,0,1-.245,4.27h3.92a34.488,34.488,0,0,1-.21-4.27V-9.9c0-2.31-.07-3.85-.175-5.04a14.183,14.183,0,0,0,2.03,3.78,9.248,9.248,0,0,1,1.82-2.415c.035.8.07,1.47.07,2.485Zm3.465,0V-7.28h3.955v1.61Zm0-4.165v-1.61h3.955v1.61ZM182.1-5.67V-7.28h4.235v1.61Zm0-4.165v-1.61h4.235v1.61Zm-10.885-4.48a8.434,8.434,0,0,1-1.12-1.19,25.7,25.7,0,0,1,3.08-.14h5.6v1.435h-4.235C173.005-14.21,172.235-14.245,171.22-14.315Zm7.1-4.235v-1.47h4.515v1.47Zm0-4.06v-1.5h4.515v1.5Zm39.445,3.955a24.167,24.167,0,0,1-3.36,8.19A47.438,47.438,0,0,1,212.8-20.93h6.3c1.785,0,3.115.07,4.27.175V-24.6a19.506,19.506,0,0,1-3.71.21h-1.05l1.82-1.26A19.584,19.584,0,0,0,216.9-29.33l-2.7,1.715a16.537,16.537,0,0,1,3.08,3.22h-4.62V-26a28.886,28.886,0,0,1,.175-3.325H208.67a10.844,10.844,0,0,1,.175,2.2c.07,1.54.07,2.45.105,2.73H198.8c-1.82,0-3.255-.07-4.515-.175a34.632,34.632,0,0,1,.21,4.97c0,6.23-.35,10.885-1.05,13.825a16.363,16.363,0,0,1-2.415,5.53,12.847,12.847,0,0,1,3.045,2.975,18.933,18.933,0,0,0,2.87-6.825,54.086,54.086,0,0,0,1.085-8.785h5.11a38.043,38.043,0,0,1-.525,6.335c-.175.875-.49,1.085-1.575,1.085a21.336,21.336,0,0,1-3.4-.28,13.1,13.1,0,0,1,.91,3.71c1.12.07,1.68.105,2.66.105,2.7,0,3.955-.525,4.515-1.925.595-1.47.8-3.325,1.155-9.625.07-1.365.14-2.345.21-2.975a15.292,15.292,0,0,1-2.485.14h-6.44c.035-1.26.035-1.26.07-4.62h10.85c.385,6.16,1.155,10.36,2.625,13.965A26.271,26.271,0,0,1,202.3-.525a11.613,11.613,0,0,1,2.66,3.045,32.209,32.209,0,0,0,8.47-6.125c2.03,3.29,4.795,5.635,6.58,5.635,1.925,0,3.15-2.065,3.955-6.79a10.438,10.438,0,0,1-3.15-2.345,20.38,20.38,0,0,1-.665,4.1c-.175.455-.315.665-.455.665a5.088,5.088,0,0,1-1.575-1.26,15.079,15.079,0,0,1-2.1-3.01,38.053,38.053,0,0,0,4.725-8.75c.56-1.33.56-1.33.77-1.855Zm32.865.175a29.313,29.313,0,0,1,3.85.175v-3.22a22.305,22.305,0,0,1-3.57.175H238.28a3.213,3.213,0,0,0,.385-.525,6.8,6.8,0,0,0,.455-.63,8.713,8.713,0,0,1,.7-.91l-3.745-.875a20.064,20.064,0,0,1-1.82,2.94h-6.72A21.014,21.014,0,0,1,224-21.525v3.22c1.155-.1,2.31-.175,3.85-.175h4.1a25.587,25.587,0,0,1-3.185,3.045c4.83.63,5.46.735,6.72.945a50.023,50.023,0,0,1-10.115,1.12H224.28a8.94,8.94,0,0,1,1.47,3.01c6.72-.35,11.34-1.225,15.12-2.9A77.619,77.619,0,0,1,250.95-9.9l2.275-2.8a76.624,76.624,0,0,0-8.855-2.59,14.33,14.33,0,0,0,3.15-3.185Zm-7.42,0A12.347,12.347,0,0,1,240.17-16.2c-2.17-.455-2.73-.56-5.32-1.015.56-.595.77-.8,1.155-1.26ZM240.7-9.03v-.245a11.338,11.338,0,0,1,.175-2.275h-4.025a11.771,11.771,0,0,1,.175,2.275v.245H227.5a30.5,30.5,0,0,1-3.885-.21V-5.7a30.748,30.748,0,0,1,3.955-.175h6.44A31.8,31.8,0,0,1,222.53-.63a11.133,11.133,0,0,1,2.17,3.36c5.845-2.1,9.24-4.06,12.39-7.07a6.561,6.561,0,0,0-.035.735v.875c-.035.56-.035.7-.035,1.12V-.07a13.856,13.856,0,0,1-.21,2.94h4.06A17.271,17.271,0,0,1,240.7-.07V-1.645c0-.455-.07-1.75-.1-2.765a28.388,28.388,0,0,0,5.25,3.85,32.628,32.628,0,0,0,7.77,3.255,14.666,14.666,0,0,1,1.925-3.5,30.62,30.62,0,0,1-11.9-5.075h7.14a39.6,39.6,0,0,1,3.99.175V-9.24a31.138,31.138,0,0,1-3.99.21ZM228.305-27.4c-1.54,0-2.625-.035-3.85-.14a18.458,18.458,0,0,1,.14,2.45v1.12a11.743,11.743,0,0,1-.14,1.96h3.78V-24.36H250.39v2.38h3.745a17.186,17.186,0,0,1-.105-2.065V-25.06a17.029,17.029,0,0,1,.14-2.485,37.519,37.519,0,0,1-3.78.14h-9.38a10.832,10.832,0,0,1,.175-2.345h-4.27a14.271,14.271,0,0,1,.175,2.345Zm45.325,4.97a7.65,7.65,0,0,1,3.535,1.05,8.671,8.671,0,0,1,4.3,7.77,9.8,9.8,0,0,1-4.865,8.75A18.6,18.6,0,0,1,269.64-2.94a11.165,11.165,0,0,1,2.135,4.1,22.882,22.882,0,0,0,5.495-1.47c5.355-2.17,8.505-7,8.505-13.055,0-7.875-5.46-12.985-13.86-12.985-4.97,0-9.1,1.68-12.04,4.9a15.035,15.035,0,0,0-3.85,10.185c0,5.635,2.87,9.695,6.86,9.695,2.87,0,5.11-2.065,7.105-6.58A50.634,50.634,0,0,0,273.63-22.435Zm-4.27.035a46.126,46.126,0,0,1-2.9,11.83c-1.26,3.01-2.45,4.48-3.6,4.48-1.54,0-2.765-2.275-2.765-5.145a11.718,11.718,0,0,1,4.76-9.45A8.91,8.91,0,0,1,269.36-22.4Z" transform="translate(674 5939)" fill="#fff"/>
      <g id="Icon_ionic-ios-mail" data-name="Icon ionic-ios-mail" transform="translate(1240.95 5892.126)">
        <path id="パス_5" data-name="パス 5" d="M76.437,10.423,57.384,29.83a.342.342,0,0,0,0,.5l13.334,14.2a2.3,2.3,0,0,1,0,3.258,2.309,2.309,0,0,1-3.258,0L54.178,33.638a.363.363,0,0,0-.514,0l-3.241,3.294A14.257,14.257,0,0,1,40.26,41.216a14.543,14.543,0,0,1-10.377-4.409l-3.117-3.17a.363.363,0,0,0-.514,0L12.973,47.786a2.309,2.309,0,0,1-3.258,0,2.3,2.3,0,0,1,0-3.258l13.334-14.2a.377.377,0,0,0,0-.5L3.977,10.423a.349.349,0,0,0-.6.248V49.5A5.683,5.683,0,0,0,9.041,55.17H71.373A5.683,5.683,0,0,0,77.039,49.5V10.671A.354.354,0,0,0,76.437,10.423Z" transform="translate(0 3.703)" fill="#fff"/>
        <path id="パス_6" data-name="パス 6" d="M38.915,40.3a9.627,9.627,0,0,0,6.924-2.9L73.622,9.115a5.565,5.565,0,0,0-3.506-1.24H7.732a5.529,5.529,0,0,0-3.506,1.24L32.009,37.394A9.628,9.628,0,0,0,38.915,40.3Z" transform="translate(1.292)" fill="#fff"/>
      </g>
    </g>
    <g id="グループ_62" data-name="グループ 62">
      <g id="freepik--Device--inject-67" transform="translate(576.768 5753.263)">
        <g id="freepik--device--inject-67-2" data-name="freepik--device--inject-67">
          <path id="パス_103" data-name="パス 103" d="M185.819,325.42l13.753-7.956A3.6,3.6,0,0,0,201.7,314.5v-1.913l-14.265-8.047a3.032,3.032,0,0,1-1.372-2.374V285.21l-24.024,13.9v16.961a3.018,3.018,0,0,0,1.368,2.37l12.151,6.979A11.344,11.344,0,0,0,185.819,325.42Z" transform="translate(-123.513 -187.023)" fill="#93d7d3"/>
          <g id="グループ_14" data-name="グループ 14" transform="translate(38.527 98.187)" opacity="0.6">
            <path id="パス_104" data-name="パス 104" d="M185.819,325.42l13.753-7.956A3.6,3.6,0,0,0,201.7,314.5v-1.913l-14.265-8.047a3.032,3.032,0,0,1-1.372-2.374V285.21l-24.024,13.9v16.961a3.018,3.018,0,0,0,1.368,2.37l12.151,6.979A11.344,11.344,0,0,0,185.819,325.42Z" transform="translate(-162.04 -285.21)"/>
          </g>
          <path id="パス_105" data-name="パス 105" d="M167.827,338.583v1.924l-4.389-2.539a3.036,3.036,0,0,1-1.368-2.37V318.623L166.635,316c.091,1.16.2,2.363.293,3.533l-3.212,1.858V334.64a3,3,0,0,0,1.368,2.37Z" transform="translate(-123.532 -206.551)" opacity="0.3"/>
          <path id="パス_106" data-name="パス 106" d="M166.57,319.867a3.018,3.018,0,0,0,1.368,2.37l10.494,6.039a11.355,11.355,0,0,0,10.271,0l13.761-7.952c2.835-1.635,2.835-4.291,0-5.929l-10.5-6.039a3.029,3.029,0,0,1-1.368-2.374V292.73l-24.024,13.9Z" transform="translate(-126.386 -191.793)" fill="#93d7d3"/>
          <path id="パス_107" data-name="パス 107" d="M166.57,319.867a3.018,3.018,0,0,0,1.368,2.37l10.494,6.039a11.355,11.355,0,0,0,10.271,0l13.761-7.952c2.835-1.635,2.835-4.291,0-5.929l-10.5-6.039a3.029,3.029,0,0,1-1.368-2.374V292.73l-24.024,13.9Z" transform="translate(-126.386 -191.793)" opacity="0.3"/>
          <path id="パス_108" data-name="パス 108" d="M194.76,309.965h0l-2.787-1.609a3.029,3.029,0,0,1-1.368-2.374V292.73l-24.024,13.9v13.252a3.018,3.018,0,0,0,1.368,2.37l2.743,1.584Z" transform="translate(-126.392 -191.793)" opacity="0.5"/>
          <path id="パス_109" data-name="パス 109" d="M234.437,360.06v1.913a3.659,3.659,0,0,1-2.129,2.966l-13.757,7.948a10.3,10.3,0,0,1-4.9,1.218V372.2a10.3,10.3,0,0,0,4.9-1.218l13.757-7.956A3.611,3.611,0,0,0,234.437,360.06Z" transform="translate(-156.245 -234.495)" fill="#93d7d3"/>
          <path id="パス_110" data-name="パス 110" d="M234.437,360.06v1.913a3.659,3.659,0,0,1-2.129,2.966l-13.757,7.948a10.3,10.3,0,0,1-4.9,1.218V372.2a10.3,10.3,0,0,0,4.9-1.218l13.757-7.956A3.611,3.611,0,0,0,234.437,360.06Z" transform="translate(-156.245 -234.495)" opacity="0.5"/>
          <path id="パス_111" data-name="パス 111" d="M58.322,161.342a3.658,3.658,0,0,0,3.318-.062l92.908-53.645a3.782,3.782,0,0,0,1.708-2.963V20.049a3.658,3.658,0,0,0-1.606-2.9,3.658,3.658,0,0,0-3.314.062l-92.9,53.645a3.775,3.775,0,0,0-1.712,2.963v84.6a3.658,3.658,0,0,0,1.6,2.926Z" transform="translate(-56.716 -16.778)" fill="#93d7d3"/>
          <path id="パス_112" data-name="パス 112" d="M67.2,164.807l92.908-53.645a3.786,3.786,0,0,0,1.712-2.966v-84.6c0-1.1-.768-1.533-1.712-.988L67.2,76.248a3.775,3.775,0,0,0-1.712,2.963v84.6C65.49,164.909,66.258,165.352,67.2,164.807Z" transform="translate(-62.278 -20.324)" fill="#93d7d3"/>
          <path id="パス_113" data-name="パス 113" d="M67.2,164.807l92.908-53.645a3.786,3.786,0,0,0,1.712-2.966v-84.6c0-1.1-.768-1.533-1.712-.988L67.2,76.248a3.775,3.775,0,0,0-1.712,2.963v84.6C65.49,164.909,66.258,165.352,67.2,164.807Z" transform="translate(-62.278 -20.324)" opacity="0.5"/>
          <path id="パス_114" data-name="パス 114" d="M61.381,400.1a3.2,3.2,0,0,1-4.671-2.97V390.28l3.212,1.858v6.844C59.922,399.977,60.554,400.419,61.381,400.1Z" transform="translate(-56.71 -253.661)" fill="#93d7d3"/>
          <path id="パス_115" data-name="パス 115" d="M61.381,400.1a3.2,3.2,0,0,1-4.671-2.97V390.28l3.212,1.858v6.844C59.922,399.977,60.554,400.419,61.381,400.1Z" transform="translate(-56.71 -253.661)" opacity="0.5"/>
          <path id="パス_116" data-name="パス 116" d="M65.49,298.895v6.84c0,1.1.768,1.536,1.712.988l92.908-53.641a3.786,3.786,0,0,0,1.712-2.966V243.26Z" transform="translate(-62.278 -160.418)" fill="#93d7d3"/>
          <path id="パス_117" data-name="パス 117" d="M65.49,298.88v6.855c0,1.1.768,1.536,1.712.988l92.908-53.641a3.786,3.786,0,0,0,1.712-2.966V243.26Z" transform="translate(-62.278 -160.418)" opacity="0.3"/>
          <path id="パス_118" data-name="パス 118" d="M74.27,159.339V89.406A2.279,2.279,0,0,1,75.3,87.624L163.158,36.9c.567-.326,1.028-.062,1.028.593v69.951a2.271,2.271,0,0,1-1.028,1.778L75.3,159.935C74.731,160.261,74.27,159.994,74.27,159.339Z" transform="translate(-67.847 -29.45)" fill="#93d7d3"/>
          <path id="パス_119" data-name="パス 119" d="M74.27,159.339V89.406A2.279,2.279,0,0,1,75.3,87.624L163.158,36.9c.567-.326,1.028-.062,1.028.593v69.951a2.271,2.271,0,0,1-1.028,1.778L75.3,159.935C74.731,160.261,74.27,159.994,74.27,159.339Z" transform="translate(-67.847 -29.45)" fill="#263238"/>
          <path id="パス_120" data-name="パス 120" d="M60.426,169.937a3.658,3.658,0,0,0-.5,1.694v79.59l-3.212-1.858V169.78a3.544,3.544,0,0,1,.5-1.69Z" transform="translate(-56.71 -112.743)" opacity="0.7"/>
          <path id="パス_121" data-name="パス 121" d="M157.127,19.794c-.121-.882-.834-1.2-1.7-.706L62.522,72.733a3.475,3.475,0,0,0-1.211,1.273L58.1,72.151a3.533,3.533,0,0,1,1.211-1.273l92.911-53.623a3.658,3.658,0,0,1,3.318-.062A3.694,3.694,0,0,1,157.127,19.794Z" transform="translate(-57.592 -16.808)" opacity="0.3"/>
        </g>
      </g>
      <g id="freepik--Window--inject-67" transform="translate(589.561 5760.776)">
        <g id="freepik--window--inject-67-2" data-name="freepik--window--inject-67" transform="translate(0 0)">
          <path id="パス_122" data-name="パス 122" d="M94.157,274.322a1.463,1.463,0,0,1-.669.2,1.664,1.664,0,0,1-.98-.172,1.829,1.829,0,0,1-.8-1.463V207.56l1.606.925v65.343c0,.388.194.611.472.611A.867.867,0,0,0,94.157,274.322Z" transform="translate(-91.701 -145.29)" fill="#f0f0f0"/>
          <path id="パス_123" data-name="パス 123" d="M185.238,125.132a1.88,1.88,0,0,1-.852,1.463L96.929,177.1c-.468.271-.849.051-.849-.494V105.746l2.345-1.353c.468-.271,1.233-4.389,1.7-4.678l20.337-11.741c.472-.271,1.58,2.784,2.048,2.509L185.238,54.27Z" transform="translate(-94.473 -48.07)" fill="#fafafa"/>
          <path id="パス_124" data-name="パス 124" d="M184.843,54.92v70.193a1.5,1.5,0,0,1-.655,1.134l-87.458,50.5a.413.413,0,0,1-.179.062c-.08,0-.08-.2-.08-.216V105.95l2.151-1.244c.34-.2.552-.86,1.032-2.56a12.726,12.726,0,0,1,.7-2.129L120.51,88.382a7.9,7.9,0,0,1,.64,1.021c.549.966.856,1.463,1.3,1.463a.5.5,0,0,0,.26-.073L184.843,54.92M120.66,88.29h0m64.578-34.05L122.515,90.452a.124.124,0,0,1-.062.018c-.476,0-1.463-2.56-1.924-2.56a.121.121,0,0,0-.062,0L100.129,99.651c-.472.274-1.236,4.389-1.7,4.678l-2.345,1.4v70.862c0,.388.19.611.472.611a.732.732,0,0,0,.366-.117l87.469-50.507a1.88,1.88,0,0,0,.852-1.463Z" transform="translate(-94.473 -48.051)" fill="#e0e0e0"/>
          <path id="パス_125" data-name="パス 125" d="M92.5,97.613a1.829,1.829,0,0,1-.8-1.463V89.511a1.884,1.884,0,0,1,.841-1.463L180,37.57a1.595,1.595,0,0,1,2.447,1.416v6.632a1.873,1.873,0,0,1-.852,1.463l-87.443,50.5A1.829,1.829,0,0,1,92.5,97.613Z" transform="translate(-91.695 -37.321)" fill="#93d7d3"/>
          <path id="パス_126" data-name="パス 126" d="M182.881,38.816c-.059-.443-.417-.6-.841-.366L94.582,88.957a1.855,1.855,0,0,0-.6.64l-1.6-.925a1.778,1.778,0,0,1,.593-.625L180.43,37.568a1.587,1.587,0,0,1,2.44,1.277Z" transform="translate(-92.126 -37.319)" fill="#fff" opacity="0.4"/>
          <path id="パス_127" data-name="パス 127" d="M93.538,178.629a1.726,1.726,0,0,0-.245.838v10.1l-1.606-.925v-10.1a.961.961,0,0,1,0-.1,1.725,1.725,0,0,1,.033-.212,2.037,2.037,0,0,1,.212-.527Z" transform="translate(-91.686 -126.352)" opacity="0.1"/>
          <path id="パス_128" data-name="パス 128" d="M185.235,40.746V45.3L122.511,81.516c-.468.274-.849.051-.849-.49V79.3c0-.541-.366-.764-.856-.49L100.126,90.748a1.884,1.884,0,0,0-.852,1.463v1.723a1.891,1.891,0,0,1-.852,1.463L96.08,96.79V92.229a1.891,1.891,0,0,1,.849-1.463l87.458-50.477C184.854,39.981,185.235,40.2,185.235,40.746Z" transform="translate(-94.473 -39.114)" fill="#93d7d3"/>
          <path id="パス_129" data-name="パス 129" d="M327.035,49.338c.593-.34,1.072-.062,1.072.622a2.374,2.374,0,0,1-1.072,1.858c-.593.34-1.075.062-1.075-.622A2.378,2.378,0,0,1,327.035,49.338Z" transform="translate(-240.268 -44.85)" fill="#fff"/>
          <path id="パス_130" data-name="パス 130" d="M316.482,55.427c.593-.34,1.072-.066,1.072.618a2.367,2.367,0,0,1-1.072,1.858c-.593.344-1.072.066-1.072-.618a2.374,2.374,0,0,1,1.072-1.858Z" transform="translate(-233.577 -48.711)" fill="#fff"/>
          <path id="パス_131" data-name="パス 131" d="M305.922,61.514c.593-.344,1.072-.066,1.072.618a2.374,2.374,0,0,1-1.072,1.858c-.593.34-1.072.066-1.072-.618a2.366,2.366,0,0,1,1.072-1.858Z" transform="translate(-226.879 -52.571)" fill="#fff"/>
          <path id="パス_132" data-name="パス 132" d="M185.238,54.24v5.542L96.08,111.265v-5.538l1.752-1.013c.468-.271.625-.684.849-1.463l.6-2.063c.187-.732.366-1.2.852-1.463l20.337-11.741a.749.749,0,0,1,1.2.293L122.4,89.6c.267.461.4.732.871.461Z" transform="translate(-94.473 -48.051)" fill="#e6e6e6"/>
          <path id="パス_133" data-name="パス 133" d="M93.3,193.388v5.545l-1.606-.925V192.47Z" transform="translate(-91.689 -135.719)" fill="#e0e0e0"/>
          <path id="パス_134" data-name="パス 134" d="M103.75,195.267l-1.339.772.508-.98a.249.249,0,0,0,0-.241c-.04-.048-.106,0-.154.073l-.732,1.394h0a.082.082,0,0,1-.018.051h0a.451.451,0,0,0,0,.069.264.264,0,0,0,0,.062h0a.2.2,0,0,0,.018.029h0l.732.556a.059.059,0,0,0,.073,0,.2.2,0,0,0,.08-.1.24.24,0,0,0,0-.227l-.508-.4,1.339-.772a.282.282,0,0,0,.106-.227A.069.069,0,0,0,103.75,195.267Z" transform="translate(-98.232 -137.196)" fill="#455a64" opacity="0.5"/>
          <path id="パス_135" data-name="パス 135" d="M109.636,191.7l1.339-.772-.512-.391a.216.216,0,0,1,0-.23c.037-.091.106-.135.15-.1l.732.56h0a.066.066,0,0,1,.022.029h0a.172.172,0,0,1,0,.062.253.253,0,0,1,0,.073h0l-.022.055h0l-.732,1.4a.172.172,0,0,1-.069.08.059.059,0,0,1-.08,0,.238.238,0,0,1,0-.238l.512-.98-1.339.772c-.059.033-.106,0-.106-.1a.289.289,0,0,1,.106-.212Z" transform="translate(-103.003 -134.273)" fill="#455a64" opacity="0.5"/>
          <path id="パス_136" data-name="パス 136" d="M119.231,183.68c0-.08-.077-.073-.113,0l-.183.45c-.315-.033-.691.271-.947.812a1.8,1.8,0,0,0,0,1.851.472.472,0,0,0,.6.037,1.668,1.668,0,0,0,.6-.732.238.238,0,0,0,0-.234c-.044-.04-.11,0-.154.088-.249.523-.651.757-.9.519a1.356,1.356,0,0,1,0-1.383c.176-.366.428-.593.647-.607l-.135.34c-.037.088,0,.168.051.132l.545-.366a.157.157,0,0,0,.062-.146Z" transform="translate(-108.209 -130.108)" fill="#455a64" opacity="0.5"/>
          <path id="パス_137" data-name="パス 137" d="M159.5,150.926l.49-1.031a.329.329,0,0,0,0-.322c-.059-.055-.154,0-.208.121l-.49,1.031-.486-.468c-.059-.055-.15,0-.208.121a.311.311,0,0,0,0,.322l.486.479-.486,1.031a.311.311,0,0,0,0,.322.077.077,0,0,0,.1,0,.274.274,0,0,0,.106-.128l.486-1.032.49.468a.077.077,0,0,0,.1,0,.274.274,0,0,0,.106-.128.329.329,0,0,0,0-.322Z" transform="translate(-134.091 -108.5)" fill="#455a64" opacity="0.5"/>
          <path id="パス_138" data-name="パス 138" d="M126.68,109.982v-1.726a1.88,1.88,0,0,1,.852-1.463l71.462-41.256c.472-.274.852-.051.852.49v1.726a1.88,1.88,0,0,1-.852,1.463l-71.466,41.256C127.06,110.746,126.68,110.523,126.68,109.982Z" transform="translate(-113.88 -55.141)" fill="#fafafa"/>
          <path id="パス_139" data-name="パス 139" d="M320.277,70.858a.238.238,0,0,1-.077,0,.23.23,0,0,1-.128-.26l.084-.7-.329-.238a.231.231,0,0,1-.088-.19.366.366,0,0,1,.139-.3l.5-.388a.118.118,0,0,0,.022-.04l.223-.732a.311.311,0,0,1,.252-.238.19.19,0,0,1,.2.117h0l.187.4.424-.161a.19.19,0,0,1,.223.051.3.3,0,0,1,0,.344l-.366.68a.164.164,0,0,0,0,.04l.088.615a.366.366,0,0,1-.11.307.223.223,0,0,1-.2.077l-.391-.062-.443.563A.252.252,0,0,1,320.277,70.858Zm-.241-1.427.329.238a.249.249,0,0,1,.088.234l-.059.468.3-.366a.26.26,0,0,1,.227-.11l.41.051a.14.14,0,0,0,0-.048l-.088-.615a.4.4,0,0,1,.044-.219l.318-.6-.3.121a.2.2,0,0,1-.26-.1l-.146-.315-.2.655a.366.366,0,0,1-.124.187l-.5.366a.106.106,0,0,0-.029.051ZM320.19,69.907ZM320.808,68Z" transform="translate(-236.323 -56.636)" fill="#e0e0e0"/>
          <g id="グループ_15" data-name="グループ 15" transform="translate(86.671 8.2)" opacity="0.5">
            <path id="パス_140" data-name="パス 140" d="M328.938,61.721a.293.293,0,0,1-.15-.549l2.4-1.386a.3.3,0,1,1,.3.512l-2.4,1.383A.267.267,0,0,1,328.938,61.721Z" transform="translate(-328.637 -59.737)" fill="#455a64"/>
            <path id="パス_141" data-name="パス 141" d="M328.947,65.574a.293.293,0,0,1-.256-.146.3.3,0,0,1,.106-.406l2.4-1.383a.3.3,0,0,1,.406.106.293.293,0,0,1-.11.4l-2.4,1.386A.267.267,0,0,1,328.947,65.574Z" transform="translate(-328.646 -62.186)" fill="#455a64"/>
            <path id="パス_142" data-name="パス 142" d="M328.945,69.312a.3.3,0,0,1-.15-.552l2.4-1.386a.3.3,0,0,1,.406.11.293.293,0,0,1-.11.4l-2.4,1.386A.3.3,0,0,1,328.945,69.312Z" transform="translate(-328.643 -64.555)" fill="#455a64"/>
          </g>
          <g id="freepik--Search--inject-67" transform="translate(3.936 17.06)">
            <g id="グループ_16" data-name="グループ 16" transform="translate(0 45.738)" opacity="0.5">
              <path id="パス_143" data-name="パス 143" d="M102.748,210.97a.293.293,0,0,1-.15-.549l2.4-1.386a.3.3,0,0,1,.3.512l-2.4,1.383a.278.278,0,0,1-.146.04Z" transform="translate(-102.447 -209.003)" fill="#455a64"/>
              <path id="パス_144" data-name="パス 144" d="M102.755,214.745a.293.293,0,0,1-.256-.146.3.3,0,0,1,.106-.406l2.4-1.383a.293.293,0,0,1,.4.106.3.3,0,0,1-.106.406l-2.4,1.383A.278.278,0,0,1,102.755,214.745Z" transform="translate(-102.454 -211.391)" fill="#455a64"/>
              <path id="パス_145" data-name="パス 145" d="M102.755,218.572a.3.3,0,0,1-.15-.552l2.4-1.383a.289.289,0,0,1,.4.106.293.293,0,0,1-.106.4l-2.4,1.386A.315.315,0,0,1,102.755,218.572Z" transform="translate(-102.453 -213.818)" fill="#455a64"/>
            </g>
            <path id="パス_146" data-name="パス 146" d="M161.45,150.361v2.125c0,.435.307.611.684.4L190.639,136.4V132.69l-28.5,16.482A1.514,1.514,0,0,0,161.45,150.361Z" transform="translate(-139.868 -114.865)" fill="#e6e6e6"/>
            <path id="パス_147" data-name="パス 147" d="M244.842,126.837c.366-.219.684-.04.684.4v2.125a1.518,1.518,0,0,1-.684,1.185l-3.592,2.074v-3.7Z" transform="translate(-190.479 -111.094)" fill="#93d7d3"/>
            <path id="パス_148" data-name="パス 148" d="M246.714,132.284l-.4-.128a2.235,2.235,0,0,0,.062-.516.94.94,0,0,0-.366-.856.567.567,0,0,0-.582.029,2.048,2.048,0,0,0-.8,1.668.94.94,0,0,0,.366.856.509.509,0,0,0,.252.066.64.64,0,0,0,.329-.1,1.675,1.675,0,0,0,.647-.867l.4.124a.091.091,0,0,0,.044,0,.146.146,0,0,0,.044-.289Zm-1.284.768a.282.282,0,0,1-.289.026.7.7,0,0,1-.216-.6,1.8,1.8,0,0,1,.651-1.412.384.384,0,0,1,.183-.055.187.187,0,0,1,.106.029.7.7,0,0,1,.216.6,1.8,1.8,0,0,1-.651,1.408Z" transform="translate(-192.618 -113.615)" fill="#fafafa"/>
            <path id="パス_149" data-name="パス 149" d="M120.739,197.367l-4.115,2.367a1.5,1.5,0,0,0-.684,1.178v2.118c0,.435.307.611.684.4l4.115-2.381a1.5,1.5,0,0,0,.68-1.181v-2.1C121.419,197.327,121.116,197.148,120.739,197.367Z" transform="translate(-111.004 -155.825)" fill="#93d7d3"/>
            <path id="パス_150" data-name="パス 150" d="M321.932,84.179a3.548,3.548,0,0,0-1.6,2.776c0,1.024.732,1.438,1.6.929a3.552,3.552,0,0,0,1.606-2.78C323.538,84.08,322.817,83.667,321.932,84.179Z" transform="translate(-240.633 -83.959)" fill="#93d7d3"/>
            <path id="パス_151" data-name="パス 151" d="M323.685,86.991a.278.278,0,0,1-.143-.037.366.366,0,0,1-.154-.322.922.922,0,0,1,.421-.732h0a.318.318,0,0,1,.512.3.929.929,0,0,1-.424.732.45.45,0,0,1-.212.062Z" transform="translate(-242.572 -85.147)" fill="#fff"/>
            <path id="パス_152" data-name="パス 152" d="M323.789,89.21a.549.549,0,0,0-.563.044l-.234.135a1.58,1.58,0,0,0-.732,1.247V90.8a.9.9,0,0,0,.885-.1,2.561,2.561,0,0,0,.885-.929v-.04a.582.582,0,0,0-.241-.53Z" transform="translate(-241.857 -87.253)" fill="#fff"/>
            <path id="パス_153" data-name="パス 153" d="M305.522,95.808v-.567c0-.644-.391-.94-.874-.662h0a2.1,2.1,0,0,0-.878,1.675v.508a2.019,2.019,0,0,1-.3.988h0a.541.541,0,0,0-.073.256h0c0,.165.1.238.219.168l2.052-1.181a.538.538,0,0,0,.219-.424h0a.216.216,0,0,0-.066-.172h0a.6.6,0,0,1-.3-.589Z" transform="translate(-229.896 -90.628)" fill="#93d7d3"/>
            <path id="パス_154" data-name="パス 154" d="M306.535,102.8a1.013,1.013,0,0,1-.421.8c-.234.132-.424,0-.424-.318Z" transform="translate(-231.348 -95.908)" fill="#93d7d3"/>
            <path id="パス_155" data-name="パス 155" d="M286.889,105.259a.94.94,0,0,1,.366-.124.483.483,0,0,1,.293.059.49.49,0,0,1,.194.223.929.929,0,0,1,.055.4,1.54,1.54,0,0,1-.04.366,2.258,2.258,0,0,1-.1.315,2.865,2.865,0,0,1-.135.282l-.146.263c-.044.084-.088.172-.124.256a1.169,1.169,0,0,0-.077.252.418.418,0,0,1-.029.121.172.172,0,0,1-.059.073l-.413.238h-.062a.11.11,0,0,1-.029-.084,1.144,1.144,0,0,1,.048-.333,2.421,2.421,0,0,1,.11-.311c.048-.1.1-.2.15-.289s.1-.183.146-.263a2.032,2.032,0,0,0,.113-.241.615.615,0,0,0,.044-.216c0-.1-.026-.168-.073-.194s-.128,0-.23.044a.574.574,0,0,0-.216.2,1.061,1.061,0,0,0-.1.208l-.051.183a.2.2,0,0,1-.084.121l-.413.238a.044.044,0,0,1-.051,0,.1.1,0,0,1-.022-.073,1.794,1.794,0,0,1,.066-.421,2.786,2.786,0,0,1,.183-.472,2.288,2.288,0,0,1,.293-.446A1.514,1.514,0,0,1,286.889,105.259Zm.293,3.38a.267.267,0,0,1-.026.113.176.176,0,0,1-.066.077l-.424.245a.044.044,0,0,1-.062,0,.11.11,0,0,1-.029-.084v-.523a.26.26,0,0,1,.029-.113.161.161,0,0,1,.062-.08l.424-.245a.051.051,0,0,1,.066,0,.1.1,0,0,1,.026.08Z" transform="translate(-218.827 -97.387)" fill="#93d7d3"/>
          </g>
          <path id="パス_156" data-name="パス 156" d="M109.46,209.975l16.244-9.382c.439-.252.794-.048.794.457v50.112a1.748,1.748,0,0,1-.794,1.372l-16.244,9.379c-.435.252-.79.048-.79-.457V211.343A1.756,1.756,0,0,1,109.46,209.975Z" transform="translate(-102.458 -140.802)" fill="#f0f0f0"/>
          <path id="パス_157" data-name="パス 157" d="M117.63,220.6l10.3-5.951c.439-.252.794-.073.794.4a1.7,1.7,0,0,1-.794,1.317l-10.3,5.948c-.435.252-.79.073-.79-.4A1.7,1.7,0,0,1,117.63,220.6Z" transform="translate(-107.639 -149.715)" fill="#fafafa"/>
          <path id="パス_158" data-name="パス 158" d="M116.79,241.172v.618c0,.3.212.424.476.274l.534-.311a1.046,1.046,0,0,0,.476-.823v-.618c0-.3-.212-.424-.476-.274l-.534.311A1.046,1.046,0,0,0,116.79,241.172Z" transform="translate(-107.608 -165.847)" fill="#93d7d3"/>
          <path id="パス_159" data-name="パス 159" d="M124.91,229.587c0,.476.366.655.794.4l7.316-4.232a1.7,1.7,0,0,0,.794-1.317c0-.472-.366-.651-.794-.4l-7.316,4.232A1.7,1.7,0,0,0,124.91,229.587Z" transform="translate(-112.757 -155.67)" fill="#fafafa"/>
          <path id="パス_160" data-name="パス 160" d="M116.79,250.562v.618c0,.3.212.424.476.274l.534-.311a1.046,1.046,0,0,0,.476-.823V249.7c0-.3-.212-.424-.476-.274l-.534.311a1.046,1.046,0,0,0-.476.823Z" transform="translate(-107.608 -171.803)" fill="#93d7d3"/>
          <path id="パス_161" data-name="パス 161" d="M124.91,238.977c0,.476.366.655.794.4l7.316-4.232a1.7,1.7,0,0,0,.794-1.317c0-.472-.366-.651-.794-.4l-7.316,4.232A1.7,1.7,0,0,0,124.91,238.977Z" transform="translate(-112.757 -161.625)" fill="#fafafa"/>
          <path id="パス_162" data-name="パス 162" d="M116.79,259.926v.618c0,.3.212.428.476.274l.534-.307a1.05,1.05,0,0,0,.476-.823v-.618c0-.3-.212-.428-.476-.274l-.534.307A1.05,1.05,0,0,0,116.79,259.926Z" transform="translate(-107.608 -177.743)" fill="#93d7d3"/>
          <path id="パス_163" data-name="パス 163" d="M124.91,248.351c0,.472.366.651.794.4l7.316-4.232a1.7,1.7,0,0,0,.794-1.313c0-.476-.366-.655-.794-.4l-7.316,4.232A1.7,1.7,0,0,0,124.91,248.351Z" transform="translate(-112.757 -167.568)" fill="#fafafa"/>
          <path id="パス_164" data-name="パス 164" d="M116.79,269.281v.618c0,.3.212.428.476.274l.534-.307a1.05,1.05,0,0,0,.476-.823v-.633c0-.3-.212-.428-.476-.274l-.534.307A1.05,1.05,0,0,0,116.79,269.281Z" transform="translate(-107.608 -183.666)" fill="#93d7d3"/>
          <path id="パス_165" data-name="パス 165" d="M124.91,257.721c0,.472.366.651.794.4l7.316-4.232a1.7,1.7,0,0,0,.794-1.313c0-.476-.366-.655-.794-.4L125.7,256.4A1.7,1.7,0,0,0,124.91,257.721Z" transform="translate(-112.757 -173.511)" fill="#fafafa"/>
          <path id="パス_166" data-name="パス 166" d="M117.41,272.293l10.322-5.951c.439-.252.79-.073.79.4a1.69,1.69,0,0,1-.79,1.313l-10.322,5.951c-.435.252-.79.073-.79-.4A1.7,1.7,0,0,1,117.41,272.293Z" transform="translate(-107.5 -182.498)" fill="#fafafa"/>
          <path id="パス_167" data-name="パス 167" d="M116.62,292.862v.618c0,.3.212.424.476.274l.534-.311a1.046,1.046,0,0,0,.476-.823V292c0-.3-.212-.424-.476-.274l-.534.311A1.046,1.046,0,0,0,116.62,292.862Z" transform="translate(-107.5 -198.63)" fill="#93d7d3"/>
          <path id="パス_168" data-name="パス 168" d="M124.74,281.271c0,.475.366.655.794.4l7.316-4.232a1.708,1.708,0,0,0,.79-1.317c0-.475-.366-.655-.79-.4l-7.316,4.236A1.7,1.7,0,0,0,124.74,281.271Z" transform="translate(-112.65 -188.447)" fill="#fafafa"/>
          <path id="パス_169" data-name="パス 169" d="M116.62,302.265v.611c0,.3.212.424.476.274l.534-.311a1.046,1.046,0,0,0,.476-.823v-.6c0-.3-.212-.424-.476-.274l-.534.311A1.046,1.046,0,0,0,116.62,302.265Z" transform="translate(-107.5 -204.598)" fill="#93d7d3"/>
          <path id="パス_170" data-name="パス 170" d="M124.74,290.658c0,.475.366.655.794.4l7.348-4.236a1.7,1.7,0,0,0,.79-1.317c0-.472-.366-.655-.79-.4l-7.316,4.232A1.7,1.7,0,0,0,124.74,290.658Z" transform="translate(-112.65 -194.399)" fill="#fafafa"/>
          <path id="パス_171" data-name="パス 171" d="M116.62,311.626v.618c0,.3.212.428.476.274l.534-.307a1.05,1.05,0,0,0,.476-.823v-.618c0-.3-.212-.428-.476-.274l-.534.307A1.05,1.05,0,0,0,116.62,311.626Z" transform="translate(-107.5 -210.532)" fill="#93d7d3"/>
          <path id="パス_172" data-name="パス 172" d="M124.74,300.04c0,.472.366.651.794.4l7.316-4.232a1.7,1.7,0,0,0,.79-1.317c0-.472-.366-.651-.79-.4l-7.316,4.232A1.7,1.7,0,0,0,124.74,300.04Z" transform="translate(-112.65 -200.351)" fill="#fafafa"/>
          <path id="パス_173" data-name="パス 173" d="M116.62,321v.618c0,.3.212.428.476.274l.534-.307a1.05,1.05,0,0,0,.476-.823v-.618c0-.3-.212-.428-.476-.274l-.534.307A1.05,1.05,0,0,0,116.62,321Z" transform="translate(-107.5 -216.475)" fill="#93d7d3"/>
          <path id="パス_174" data-name="パス 174" d="M124.74,309.411c0,.472.366.651.794.4l7.316-4.232a1.7,1.7,0,0,0,.79-1.313c0-.475-.366-.655-.79-.4l-7.316,4.232A1.7,1.7,0,0,0,124.74,309.411Z" transform="translate(-112.65 -206.294)" fill="#fafafa"/>
          <path id="パス_175" data-name="パス 175" d="M182.611,182.669l7.22-4.17c.366-.2.647-.059.647.329a1.383,1.383,0,0,1-.647,1.075l-7.224,4.17c-.366.208-.647.062-.647-.326A1.4,1.4,0,0,1,182.611,182.669Z" transform="translate(-148.94 -126.8)" fill="#455a64"/>
          <path id="パス_176" data-name="パス 176" d="M182.455,190.115l6.489-3.742c.263-.15.475-.11.475.1a.933.933,0,0,1-.472.651l-6.485,3.848c-.26.154-.472.088-.472-.15A.944.944,0,0,1,182.455,190.115Z" transform="translate(-148.959 -131.795)" fill="#455a64"/>
          <path id="パス_177" data-name="パス 177" d="M172.369,194.511c.83-.457,1.463,0,1.408.973a3.508,3.508,0,0,1-1.595,2.626c-.827.454-1.463.018-1.408-.977A3.5,3.5,0,0,1,172.369,194.511Z" transform="translate(-141.844 -136.901)" fill="#93d7d3"/>
          <path id="パス_178" data-name="パス 178" d="M174.168,196.6c.212-.124.388-.026.388.223a.863.863,0,0,1-.388.669c-.212.124-.388.022-.388-.223a.856.856,0,0,1,.388-.669Z" transform="translate(-143.752 -138.303)" fill="#fff"/>
          <path id="パス_179" data-name="パス 179" d="M174.339,199.74c0-.406-.285-.585-.633-.384l-.219.128a1.4,1.4,0,0,0-.636,1.1v.11s.15.307.732-.044a1.664,1.664,0,0,0,.732-.816Z" transform="translate(-143.162 -140.034)" fill="#fff"/>
          <path id="パス_180" data-name="パス 180" d="M172.48,174c0,.366.285.512.633.311L208.992,153.6a1.35,1.35,0,0,0,.633-1.042c0-.366-.282-.512-.633-.307l-35.876,20.7A1.342,1.342,0,0,0,172.48,174Z" transform="translate(-142.927 -110.151)" fill="#e0e0e0"/>
          <path id="パス_181" data-name="パス 181" d="M172.48,195.441c0,.366.285.508.633.307l21.5-12.407a1.346,1.346,0,0,0,.633-1.042c0-.366-.282-.508-.633-.307L173.131,194.4A1.35,1.35,0,0,0,172.48,195.441Z" transform="translate(-142.927 -129.015)" fill="#e0e0e0"/>
          <path id="パス_182" data-name="パス 182" d="M172.48,189.276l37.145-21.446v22.305L172.48,211.581Z" transform="translate(-142.927 -120.092)" fill="#93d7d3"/>
          <path id="パス_183" data-name="パス 183" d="M172.48,189.276l37.145-21.446v22.305L172.48,211.581Z" transform="translate(-142.927 -120.092)" fill="#fff" opacity="0.7"/>
          <path id="パス_184" data-name="パス 184" d="M172.48,236.867v-6.862l13.373-18.015,11.855,5.165-3.9-2.593,5.417-6.862,10.4,3.91v3.811Z" transform="translate(-142.927 -145.378)" fill="#93d7d3"/>
          <path id="パス_185" data-name="パス 185" d="M255.82,187.5c1.16-.669,2.1-.128,2.1,1.211a4.638,4.638,0,0,1-2.1,3.636c-1.16.669-2.1.128-2.1-1.211A4.638,4.638,0,0,1,255.82,187.5Z" transform="translate(-194.452 -132.387)" fill="#93d7d3"/>
          <path id="パス_186" data-name="パス 186" d="M182.611,283.605l7.22-4.17c.366-.208.647-.062.647.326a1.39,1.39,0,0,1-.647,1.079l-7.224,4.17c-.366.2-.647.059-.647-.329a1.386,1.386,0,0,1,.651-1.075Z" transform="translate(-148.94 -190.814)" fill="#455a64"/>
          <path id="パス_187" data-name="パス 187" d="M182.436,291.049l6.489-3.738c.263-.154.476-.11.476.1a.929.929,0,0,1-.476.647l-6.493,3.841c-.26.157-.472.088-.472-.15A.955.955,0,0,1,182.436,291.049Z" transform="translate(-148.94 -195.811)" fill="#455a64"/>
          <path id="パス_188" data-name="パス 188" d="M172.369,295.439c.83-.454,1.463-.018,1.408.977a3.5,3.5,0,0,1-1.595,2.623c-.827.457-1.463.018-1.408-.973A3.508,3.508,0,0,1,172.369,295.439Z" transform="translate(-141.844 -200.91)" fill="#93d7d3"/>
          <path id="パス_189" data-name="パス 189" d="M174.168,297.531c.212-.121.388-.022.388.223a.852.852,0,0,1-.388.669c-.212.124-.388.026-.388-.223A.863.863,0,0,1,174.168,297.531Z" transform="translate(-143.752 -202.318)" fill="#fff"/>
          <path id="パス_190" data-name="パス 190" d="M174.339,300.682c0-.406-.285-.585-.633-.366l-.219.124a1.408,1.408,0,0,0-.636,1.1v.11s.15.307.732-.044a1.664,1.664,0,0,0,.732-.816Z" transform="translate(-143.162 -204.058)" fill="#fff"/>
          <path id="パス_191" data-name="パス 191" d="M172.48,274.92c0,.366.285.508.633.307L208.992,254.5a1.339,1.339,0,0,0,.633-1.039c0-.366-.282-.512-.633-.311l-35.876,20.736A1.35,1.35,0,0,0,172.48,274.92Z" transform="translate(-142.927 -174.148)" fill="#e0e0e0"/>
          <path id="パス_192" data-name="パス 192" d="M172.48,296.372c0,.366.285.512.633.311l21.5-12.411a1.339,1.339,0,0,0,.633-1.039c0-.366-.282-.512-.633-.311l-21.5,12.407A1.342,1.342,0,0,0,172.48,296.372Z" transform="translate(-142.927 -193.029)" fill="#e0e0e0"/>
          <path id="パス_193" data-name="パス 193" d="M295.693,116.51c1.1-.611,1.964-.026,1.895,1.306a4.7,4.7,0,0,1-2.143,3.522c-1.1.611-1.961.026-1.891-1.306A4.707,4.707,0,0,1,295.693,116.51Z" transform="translate(-219.712 -87.39)" fill="#455a64"/>
          <path id="パス_194" data-name="パス 194" d="M297.915,118.381c.344-.2.625-.037.625.366a1.383,1.383,0,0,1-.625,1.1c-.344.2-.625.037-.625-.366A1.383,1.383,0,0,1,297.915,118.381Z" transform="translate(-222.085 -88.676)" fill="#fff"/>
          <path id="パス_195" data-name="パス 195" d="M298.174,123.455c0-.655-.457-.944-1.024-.618l-.366.2a2.264,2.264,0,0,0-1.024,1.778v.187s.241.5,1.2-.073a2.677,2.677,0,0,0,1.2-1.317Z" transform="translate(-221.114 -91.471)" fill="#fff"/>
          <path id="パス_196" data-name="パス 196" d="M302.154,124.236c.333-.183.585,0,.563.388a1.4,1.4,0,0,1-.636,1.046c-.333.183-.585,0-.563-.388A1.4,1.4,0,0,1,302.154,124.236Z" transform="translate(-224.765 -92.399)" fill="#93d7d3"/>
          <path id="パス_197" data-name="パス 197" d="M308.765,110.974,315.8,106.9c.219-.128.4-.037.4.2a.841.841,0,0,1-.4.655l-7.034,4.064c-.216.124-.395.037-.395-.2A.86.86,0,0,1,308.765,110.974Z" transform="translate(-229.112 -81.412)" fill="#e0e0e0"/>
          <path id="パス_198" data-name="パス 198" d="M295.693,135.27c1.1-.611,1.964-.026,1.895,1.309a4.7,4.7,0,0,1-2.143,3.519c-1.1.615-1.961.026-1.891-1.306A4.707,4.707,0,0,1,295.693,135.27Z" transform="translate(-219.712 -99.289)" fill="#455a64"/>
          <path id="パス_199" data-name="パス 199" d="M297.915,137.144c.344-.2.625-.037.625.366a1.383,1.383,0,0,1-.625,1.079c-.344.2-.625.037-.625-.366A1.383,1.383,0,0,1,297.915,137.144Z" transform="translate(-222.085 -100.577)" fill="#fff"/>
          <path id="パス_200" data-name="パス 200" d="M298.174,142.215c0-.655-.457-.944-1.024-.618l-.366.2a2.268,2.268,0,0,0-1.024,1.778v.176s.241.5,1.2-.07a2.692,2.692,0,0,0,1.2-1.317Z" transform="translate(-221.114 -103.369)" fill="#fff"/>
          <path id="パス_201" data-name="パス 201" d="M302.154,143c.333-.183.585,0,.563.388a1.412,1.412,0,0,1-.636,1.05c-.333.179-.585,0-.563-.391A1.412,1.412,0,0,1,302.154,143Z" transform="translate(-224.765 -104.297)" fill="#93d7d3"/>
          <path id="パス_202" data-name="パス 202" d="M308.765,129.762l7.034-4.06c.219-.124.4-.037.4.2a.848.848,0,0,1-.4.658l-7.034,4.06c-.216.124-.4.037-.4-.2A.86.86,0,0,1,308.765,129.762Z" transform="translate(-229.112 -93.338)" fill="#e0e0e0"/>
          <path id="パス_203" data-name="パス 203" d="M295.693,154.03c1.1-.611,1.964-.026,1.895,1.31a4.711,4.711,0,0,1-2.143,3.522c-1.1.611-1.961.026-1.891-1.309A4.707,4.707,0,0,1,295.693,154.03Z" transform="translate(-219.712 -111.187)" fill="#455a64"/>
          <path id="パス_204" data-name="パス 204" d="M297.915,155.9c.344-.2.625-.037.625.366a1.375,1.375,0,0,1-.625,1.1c-.344.2-.625.04-.625-.366a1.39,1.39,0,0,1,.625-1.1Z" transform="translate(-222.085 -112.475)" fill="#fff"/>
          <path id="パス_205" data-name="パス 205" d="M298.174,160.975c0-.655-.457-.944-1.024-.618l-.366.2a2.268,2.268,0,0,0-1.024,1.778v.176s.241.5,1.2-.07a2.692,2.692,0,0,0,1.2-1.317Z" transform="translate(-221.114 -115.267)" fill="#fff"/>
          <path id="パス_206" data-name="パス 206" d="M302.154,161.756c.333-.183.585,0,.563.388a1.412,1.412,0,0,1-.636,1.05c-.333.183-.585,0-.563-.391A1.412,1.412,0,0,1,302.154,161.756Z" transform="translate(-224.765 -116.195)" fill="#93d7d3"/>
          <path id="パス_207" data-name="パス 207" d="M308.765,148.522l7.034-4.06c.219-.124.4-.037.4.2a.848.848,0,0,1-.4.658l-7.034,4.056c-.216.124-.4.037-.4-.2a.86.86,0,0,1,.4-.655Z" transform="translate(-229.112 -105.236)" fill="#e0e0e0"/>
          <path id="パス_208" data-name="パス 208" d="M295.693,172.79c1.1-.611,1.964-.026,1.895,1.309a4.7,4.7,0,0,1-2.143,3.522c-1.1.611-1.961.026-1.891-1.309A4.711,4.711,0,0,1,295.693,172.79Z" transform="translate(-219.712 -123.085)" fill="#455a64"/>
          <path id="パス_209" data-name="パス 209" d="M297.915,174.664c.344-.2.625-.037.625.366a1.375,1.375,0,0,1-.625,1.079c-.344.2-.625.04-.625-.366A1.39,1.39,0,0,1,297.915,174.664Z" transform="translate(-222.085 -124.373)" fill="#fff"/>
          <path id="パス_210" data-name="パス 210" d="M298.174,179.7c0-.651-.457-.944-1.024-.615l-.366.2a2.257,2.257,0,0,0-1.024,1.774v.176s.241.5,1.2-.069a2.677,2.677,0,0,0,1.2-1.317Z" transform="translate(-221.114 -127.143)" fill="#fff"/>
          <path id="パス_211" data-name="パス 211" d="M302.154,180.519c.333-.179.585,0,.563.391a1.412,1.412,0,0,1-.636,1.046c-.333.183-.585,0-.563-.388A1.412,1.412,0,0,1,302.154,180.519Z" transform="translate(-224.765 -128.096)" fill="#93d7d3"/>
          <path id="パス_212" data-name="パス 212" d="M308.765,167.286l7.034-4.064c.219-.124.4-.037.4.2a.848.848,0,0,1-.4.658l-7.034,4.06c-.216.128-.4.037-.4-.2A.852.852,0,0,1,308.765,167.286Z" transform="translate(-229.112 -117.134)" fill="#e0e0e0"/>
          <path id="パス_213" data-name="パス 213" d="M295.693,191.58c1.1-.611,1.964-.026,1.895,1.309a4.7,4.7,0,0,1-2.143,3.522c-1.1.611-1.961.026-1.891-1.309A4.718,4.718,0,0,1,295.693,191.58Z" transform="translate(-219.712 -135.002)" fill="#455a64"/>
          <path id="パス_214" data-name="パス 214" d="M297.915,193.43c.344-.2.625-.04.625.366a1.39,1.39,0,0,1-.626,1.1c-.344.2-.625.037-.625-.366A1.375,1.375,0,0,1,297.915,193.43Z" transform="translate(-222.085 -136.273)" fill="#fff"/>
          <path id="パス_215" data-name="パス 215" d="M298.174,198.5c0-.655-.457-.947-1.024-.618l-.366.2a2.257,2.257,0,0,0-1.024,1.774v.172s.241.5,1.2-.07a2.677,2.677,0,0,0,1.2-1.317Z" transform="translate(-221.114 -139.067)" fill="#fff"/>
          <path id="パス_216" data-name="パス 216" d="M302.154,199.279c.333-.179.585,0,.563.391a1.412,1.412,0,0,1-.636,1.046c-.333.183-.585,0-.563-.388A1.412,1.412,0,0,1,302.154,199.279Z" transform="translate(-224.765 -139.994)" fill="#93d7d3"/>
          <path id="パス_217" data-name="パス 217" d="M308.765,186.049l7.034-4.06c.219-.128.4-.037.4.2a.845.845,0,0,1-.4.658l-7.034,4.06c-.216.128-.4.037-.4-.2a.852.852,0,0,1,.4-.655Z" transform="translate(-229.112 -129.035)" fill="#e0e0e0"/>
          <path id="パス_218" data-name="パス 218" d="M295.693,210.32c1.1-.611,1.964-.026,1.895,1.306a4.7,4.7,0,0,1-2.143,3.522c-1.1.611-1.961.026-1.891-1.306A4.707,4.707,0,0,1,295.693,210.32Z" transform="translate(-219.712 -146.887)" fill="#455a64"/>
          <path id="パス_219" data-name="パス 219" d="M297.915,212.19c.344-.2.625-.04.625.366a1.39,1.39,0,0,1-.626,1.1c-.344.2-.625.037-.625-.366A1.375,1.375,0,0,1,297.915,212.19Z" transform="translate(-222.085 -148.171)" fill="#fff"/>
          <path id="パス_220" data-name="パス 220" d="M298.174,217.265c0-.655-.457-.944-1.024-.618l-.366.2a2.26,2.26,0,0,0-1.024,1.774v.179s.241.494,1.2-.073a2.678,2.678,0,0,0,1.2-1.317Z" transform="translate(-221.114 -150.968)" fill="#fff"/>
          <path id="パス_221" data-name="パス 221" d="M302.154,218.046c.333-.183.585,0,.563.388a1.4,1.4,0,0,1-.636,1.046c-.333.183-.585,0-.563-.388a1.4,1.4,0,0,1,.636-1.046Z" transform="translate(-224.765 -151.895)" fill="#93d7d3"/>
          <path id="パス_222" data-name="パス 222" d="M308.765,204.86l7.034-4.06c.219-.128.4-.037.4.2a.841.841,0,0,1-.4.655l-7.034,4.06c-.216.128-.4.037-.4-.2A.852.852,0,0,1,308.765,204.86Z" transform="translate(-229.112 -140.965)" fill="#e0e0e0"/>
        </g>
      </g>
      <g id="freepik--dark-window--inject-67" transform="translate(605.236 5780.288)">
        <g id="freepik--dark-window--inject-67-2" data-name="freepik--dark-window--inject-67" transform="translate(0)">
          <path id="パス_223" data-name="パス 223" d="M135.981,297.916v-50.6h0V234.146a2.282,2.282,0,0,1,.337-1.119l-1.437-.827a2.323,2.323,0,0,0-.34,1.127v3.658h0V297.1a.757.757,0,0,0,.432.691l.04.022,1.342.757A.753.753,0,0,1,135.981,297.916Z" transform="translate(-134.54 -180.428)" fill="#37474f" opacity="0.9"/>
          <path id="パス_224" data-name="パス 224" d="M228.74,93.57a.539.539,0,0,0-.018-.106.026.026,0,0,0,0-.022.393.393,0,0,0-.026-.1.505.505,0,0,0-.066-.143.216.216,0,0,0-.037-.062.176.176,0,0,0-.033-.04.366.366,0,0,0-.077-.073h0a.493.493,0,0,0-.1-.055.823.823,0,0,0-.757.1L139.6,143.853a2.5,2.5,0,0,0-1.13,1.953V209.58a.768.768,0,0,0,1.127.677h0l1.829-1.064h0L227.6,159.447a2.491,2.491,0,0,0,1.127-1.953V93.709A.284.284,0,0,0,228.74,93.57Z" transform="translate(-137.032 -92.092)" fill="#455a64" opacity="0.8"/>
          <g id="グループ_17" data-name="グループ 17" transform="translate(0.34)" opacity="0.5">
            <path id="パス_225" data-name="パス 225" d="M225.715,91.626l-88.017,50.8a2.308,2.308,0,0,0-.794.838l-1.434-.83a2.246,2.246,0,0,1,.786-.823l88.021-50.8a.794.794,0,0,1,.819-.066c.2.124,1.138.655,1.375.783A.827.827,0,0,0,225.715,91.626Z" transform="translate(-135.47 -90.66)" fill="#37474f"/>
          </g>
          <path id="パス_226" data-name="パス 226" d="M378.614,99.926l.486-1.031a.311.311,0,0,0,0-.322c-.058-.055-.15,0-.208.121l-.486,1.032-.49-.468c-.055-.055-.15,0-.209.121a.329.329,0,0,0,0,.322l.49.468-.49,1.035a.329.329,0,0,0,0,.322.088.088,0,0,0,.106,0,.3.3,0,0,0,.1-.124l.49-1.035.486.472a.088.088,0,0,0,.106,0,.3.3,0,0,0,.1-.124.311.311,0,0,0,0-.322Z" transform="translate(-288.735 -95.665)" fill="#fafafa"/>
        </g>
        <g id="freepik--Comments--inject-67" transform="translate(67.49 7.795)">
          <path id="パス_227" data-name="パス 227" d="M338.363,111.97,319.05,123.119v56.619l19.313-11.153Z" transform="translate(-319.05 -111.97)" fill="#f5f5f5"/>
          <path id="パス_228" data-name="パス 228" d="M332.188,135.607l5.176-2.992c.26-.146.465-.044.465.238a.991.991,0,0,1-.465.772l-5.176,2.988c-.26.15-.468.044-.468-.234A.991.991,0,0,1,332.188,135.607Z" transform="translate(-327.086 -125.021)" fill="#455a64"/>
          <path id="パス_229" data-name="パス 229" d="M332.084,140.945l4.645-2.685c.187-.106.34-.077.34.07a.68.68,0,0,1-.34.468l-4.649,2.758c-.187.11-.34.062-.34-.106A.673.673,0,0,1,332.084,140.945Z" transform="translate(-327.098 -128.603)" fill="#455a64"/>
          <path id="パス_230" data-name="パス 230" d="M324.868,144.1c.6-.329,1.05,0,1.013.7a2.513,2.513,0,0,1-1.145,1.88c-.6.326-1.046,0-1.01-.7a2.509,2.509,0,0,1,1.141-1.88Z" transform="translate(-322.015 -132.264)" fill="#93d7d3"/>
          <path id="パス_231" data-name="パス 231" d="M326.158,145.6a.169.169,0,0,1,.274.157.607.607,0,0,1-.274.483.172.172,0,0,1-.278-.161A.611.611,0,0,1,326.158,145.6Z" transform="translate(-323.382 -133.277)" fill="#fff"/>
          <path id="パス_232" data-name="パス 232" d="M326.278,147.843c0-.289-.2-.417-.454-.274l-.157.091a1.006,1.006,0,0,0-.457.79v.077s.11.223.534-.029a1.185,1.185,0,0,0,.534-.585Z" transform="translate(-322.957 -134.51)" fill="#fff"/>
          <path id="パス_233" data-name="パス 233" d="M325,142.281c0,.267.2.366.454.223l12.832-7.433a.973.973,0,0,0,.454-.732c0-.267-.2-.366-.454-.223l-12.832,7.433A.966.966,0,0,0,325,142.281Z" transform="translate(-322.824 -125.975)" opacity="0.3"/>
          <path id="パス_234" data-name="パス 234" d="M325,149.363c0,.267.2.366.454.219l10.827-6.258a.969.969,0,0,0,.454-.732c0-.267-.2-.366-.454-.219l-10.827,6.258A.958.958,0,0,0,325,149.363Z" transform="translate(-322.824 -131.209)" opacity="0.3"/>
          <path id="パス_235" data-name="パス 235" d="M326.677,168.624a.274.274,0,0,1-.1.179.235.235,0,0,1,0,.088.26.26,0,0,1-.132.2l-.593.344v-.79h0s.165-.366.179-.424a1.754,1.754,0,0,0,0-.278.143.143,0,0,1,.157-.073h0a.088.088,0,0,1,.037.037.367.367,0,0,1,.033.124.567.567,0,0,1,0,.219l.366-.2a.073.073,0,0,1,.07,0,.088.088,0,0,1,.037.077.241.241,0,0,1-.055.154.071.071,0,0,1,.069.077.249.249,0,0,1-.088.176A.147.147,0,0,1,326.677,168.624Z" transform="translate(-323.363 -147.423)" fill="#e0e0e0"/>
          <path id="パス_236" data-name="パス 236" d="M325.21,170.789v.165a.066.066,0,0,1-.037.059l-.19.113h-.033v-.893l.157-.088h0l.091-.055a.119.119,0,0,1,0,.033Z" transform="translate(-322.792 -148.831)" fill="#e0e0e0"/>
          <path id="パス_237" data-name="パス 237" d="M330.527,165.29l1.032-.6c.194-.11.347-.033.347.172a.732.732,0,0,1-.347.574l-1.032.6c-.194.11-.347.033-.347-.176a.731.731,0,0,1,.347-.571Z" transform="translate(-326.109 -145.377)" fill="#ebebeb"/>
          <path id="パス_238" data-name="パス 238" d="M345.217,156.813l1.031-.593c.19-.113.348-.033.348.172a.732.732,0,0,1-.348.574l-1.031.6c-.194.113-.348.033-.348-.172A.732.732,0,0,1,345.217,156.813Z" transform="translate(-335.426 -140.002)" fill="#ebebeb"/>
          <path id="パス_239" data-name="パス 239" d="M359.4,148.646l1.035-.593c.19-.11.366-.033.366.172a.732.732,0,0,1-.366.574l-1.035.6c-.19.11-.344.033-.344-.176A.731.731,0,0,1,359.4,148.646Z" transform="translate(-344.425 -134.823)" fill="#ebebeb"/>
          <path id="パス_240" data-name="パス 240" d="M340.412,158.871c0-.135-.091-.187-.208-.121l-1.255.732a.454.454,0,0,0-.208.366v.863c0,.132.091.187.208.121l.348-.2v.3a.022.022,0,0,0,.037,0l.512-.622.366-.208a.454.454,0,0,0,.208-.366Z" transform="translate(-331.538 -141.621)" fill="#e0e0e0"/>
          <path id="パス_241" data-name="パス 241" d="M354.841,151.356l-.827-.256v.439a1.931,1.931,0,0,0-.819.658c-.457.684-.128,1.072.026,1.1,0,0-.241-.165.026-.655a1.485,1.485,0,0,1,.768-.574v.5Z" transform="translate(-340.558 -136.787)" fill="#e0e0e0"/>
          <g id="freepik--comments--inject-67-2" data-name="freepik--comments--inject-67" transform="translate(1.958 16.575)">
            <path id="パス_242" data-name="パス 242" d="M325.548,177.4c.6-.329,1.05,0,1.013.7a2.52,2.52,0,0,1-1.145,1.88c-.6.326-1.046,0-1.01-.7A2.509,2.509,0,0,1,325.548,177.4Z" transform="translate(-324.404 -169.959)" fill="#93d7d3"/>
            <path id="パス_243" data-name="パス 243" d="M326.838,178.931c.154-.091.274-.018.274.157a.6.6,0,0,1-.274.479c-.154.091-.278.018-.278-.157A.607.607,0,0,1,326.838,178.931Z" transform="translate(-325.771 -170.988)" fill="#fff"/>
            <path id="パス_244" data-name="パス 244" d="M326.958,181.143c0-.289-.2-.417-.454-.274l-.157.091a1.006,1.006,0,0,0-.457.79v.077s.106.219.534-.033a1.185,1.185,0,0,0,.534-.582Z" transform="translate(-325.347 -172.204)" fill="#fff"/>
            <path id="パス_245" data-name="パス 245" d="M333.2,164.184v2.827c0,.4.282.567.633.366l9.9-5.717a1.4,1.4,0,0,0,.633-1.1v-2.827c0-.406-.285-.567-.633-.366l-9.9,5.717A1.394,1.394,0,0,0,333.2,164.184Z" transform="translate(-329.983 -157.283)" fill="#fff"/>
            <path id="パス_246" data-name="パス 246" d="M335.328,169.92l5.3-3.051c.212-.124.388-.091.388.077a.761.761,0,0,1-.388.534l-5.3,3.135c-.216.128-.388.073-.388-.121A.775.775,0,0,1,335.328,169.92Z" transform="translate(-331.086 -163.316)" fill="#455a64"/>
            <path id="パス_247" data-name="パス 247" d="M335.24,170.89l8.449-4.92c.19-.106.34-.077.34.07a.673.673,0,0,1-.337.468l-8.457,4.993c-.187.11-.337.062-.337-.106A.68.68,0,0,1,335.24,170.89Z" transform="translate(-331.061 -162.752)" fill="#e0e0e0"/>
            <path id="パス_248" data-name="パス 248" d="M325.548,193.87c.6-.326,1.05,0,1.013.7a2.528,2.528,0,0,1-1.145,1.884c-.6.326-1.046,0-1.01-.7A2.524,2.524,0,0,1,325.548,193.87Z" transform="translate(-324.404 -180.407)" fill="#93d7d3"/>
            <path id="パス_249" data-name="パス 249" d="M326.838,195.37a.17.17,0,0,1,.274.161.607.607,0,0,1-.274.479.172.172,0,0,1-.278-.161A.611.611,0,0,1,326.838,195.37Z" transform="translate(-325.771 -181.417)" fill="#fff"/>
            <path id="パス_250" data-name="パス 250" d="M326.958,197.619c0-.293-.2-.421-.454-.274l-.157.091a1,1,0,0,0-.457.786v.08s.106.219.534-.033a1.185,1.185,0,0,0,.534-.585Z" transform="translate(-325.346 -182.653)" fill="#fff"/>
            <path id="パス_251" data-name="パス 251" d="M333.2,180.662v2.831c0,.4.282.567.633.366l9.9-5.717a1.408,1.408,0,0,0,.633-1.1v-2.827c0-.4-.285-.567-.633-.366l-9.9,5.717A1.4,1.4,0,0,0,333.2,180.662Z" transform="translate(-329.983 -167.737)" fill="#fff"/>
            <path id="パス_252" data-name="パス 252" d="M335.328,186.367l5.311-3.065c.212-.124.388-.088.388.08a.757.757,0,0,1-.388.53l-5.311,3.153c-.216.128-.388.073-.388-.121a.79.79,0,0,1,.388-.578Z" transform="translate(-331.086 -173.738)" fill="#455a64"/>
            <path id="パス_253" data-name="パス 253" d="M336.136,195.56h-.026l-.15-.08-.044-.022a.391.391,0,0,1-.274-.435.468.468,0,0,1,.208-.413.187.187,0,0,1,.267.139.666.666,0,0,1,.168-.4.216.216,0,0,1,.227-.04.227.227,0,0,1,.121.2,1.171,1.171,0,0,1-.249.688l-.051.084-.15.252a.047.047,0,0,1-.048.022Z" transform="translate(-331.528 -180.758)" fill="#93d7d3"/>
            <path id="パス_254" data-name="パス 254" d="M340.13,193.28H340.1l-.15-.08-.044-.022a.391.391,0,0,1-.278-.435.486.486,0,0,1,.208-.413.187.187,0,0,1,.271.139.666.666,0,0,1,.165-.4.216.216,0,0,1,.227-.04.223.223,0,0,1,.121.2,1.156,1.156,0,0,1-.249.688l-.048.084-.15.252A.055.055,0,0,1,340.13,193.28Z" transform="translate(-334.059 -179.312)" fill="#93d7d3"/>
            <path id="パス_255" data-name="パス 255" d="M344.01,191.007h-.026l-.15-.08a.243.243,0,0,0-.044-.022.391.391,0,0,1-.278-.435.486.486,0,0,1,.208-.413.183.183,0,0,1,.271.139.666.666,0,0,1,.168-.4.223.223,0,0,1,.227-.044.249.249,0,0,1,.121.2,1.214,1.214,0,0,1-.249.688l-.051.084-.15.252a.055.055,0,0,1-.048.022Z" transform="translate(-336.52 -177.87)" fill="#93d7d3"/>
          </g>
        </g>
      </g>
      <g id="freepik--Characters--inject-67" transform="translate(603.449 5805.606)">
        <g id="freepik--Photo--inject-67">
          <path id="パス_256" data-name="パス 256" d="M137.636,235.981V217.586c-.666-.571-1.353-1.17-2.048-1.789-1.006-.9-1.961-1.829-2.659-2.535-.238-.238-.446-.446-.618-.611v-7.089a2.866,2.866,0,0,1,1.306,1.258,15.661,15.661,0,0,0,1.057,1.364,6.643,6.643,0,0,1,.048-.688,1.328,1.328,0,0,1,1.134-1.192c.406,0,.479.4.549.761a4.8,4.8,0,0,0,.19.75c.08.212.161.4.238.589a5.892,5.892,0,0,1,.516,1.785v.161a1.906,1.906,0,0,0,.271.991V194.779l57.6-33.249v37.946l.062-.1a32.037,32.037,0,0,0,2.491-4.55,5.04,5.04,0,0,0-.091-1.785,6.27,6.27,0,0,1-.329-2c0-.223-.022-.454-.044-.706a4.921,4.921,0,0,0-.161-.83c-.1-.366-.19-.732.1-.94a1.024,1.024,0,0,1,.585-.165,1.335,1.335,0,0,1,1.1.571,5.773,5.773,0,0,1,.366.64,21.215,21.215,0,0,0,.428-2.111c.1-.691.318-2.315,1.43-2.315a3,3,0,0,1,1.829,1.053c.5.476,2.012,1.92.658,5.966-.088.267-.194.6-.318.977-.366,1.1-.838,2.6-1.394,4.075a49.913,49.913,0,0,1-3.486,7.89,3.1,3.1,0,0,1-2.645,1.847h0a3.293,3.293,0,0,1-.578-.055v5.183l-57.6,33.249Z" transform="translate(-131.338 -160.926)" opacity="0.2"/>
          <path id="パス_257" data-name="パス 257" d="M149.68,192.7l56.868-32.825v49.746L149.68,242.451Z" transform="translate(-142.355 -159.88)" fill="#93d7d3"/>
          <path id="パス_258" data-name="パス 258" d="M149.68,192.7l56.868-32.825v49.746L149.68,242.451Z" transform="translate(-142.355 -159.88)" fill="#fff" opacity="0.8"/>
          <path id="パス_259" data-name="パス 259" d="M149.68,287.715l56.868-32.825v14.993L149.68,302.708Z" transform="translate(-142.355 -220.137)" fill="#ffbda7"/>
          <path id="パス_260" data-name="パス 260" d="M149.68,275.215a12.122,12.122,0,0,1,3.383-2.319c1.679-.764,3.6-1.207,5.121-2.195a18.435,18.435,0,0,0,2.015-1.679c2.846-2.458,7.008-4.166,10.992-5.717a34.334,34.334,0,0,0,5.7-2.615c3.585-2.242,5.432-5.52,9.452-7.334,2.092-.944,4.441-1.32,6.584-2.195,3.146-1.284,5.362-3.387,7.659-5.234a17.559,17.559,0,0,1,3.138-2.224c.329-.183,2.838-1.021,2.838-.812V229.27L149.68,262.091Z" transform="translate(-142.355 -203.889)" fill="#93d7d3" opacity="0.5"/>
          <path id="パス_261" data-name="パス 261" d="M149.68,276.807a12.121,12.121,0,0,1,3.383-2.319c1.679-.764,3.6-1.211,5.121-2.195a18.427,18.427,0,0,0,2.015-1.679c2.846-2.458,7.008-4.166,10.992-5.717a34.331,34.331,0,0,0,5.7-2.615c3.585-2.239,5.432-5.52,9.452-7.316,2.092-.944,4.441-1.32,6.584-2.195,3.146-1.284,5.362-3.387,7.659-5.234,1.141-.922.468-.757,1.88-1.518a15.919,15.919,0,0,1,4.1-1.522V229.27L149.68,262.091Z" transform="translate(-142.355 -203.889)" fill="#93d7d3" opacity="0.3"/>
          <path id="パス_262" data-name="パス 262" d="M149.68,275.215a12.122,12.122,0,0,1,3.383-2.319c1.679-.764,3.6-1.207,5.121-2.195a18.435,18.435,0,0,0,2.015-1.679c2.846-2.458,7.008-4.166,10.992-5.717a34.334,34.334,0,0,0,5.7-2.615c3.585-2.242,5.432-5.52,9.452-7.334,2.092-.944,4.441-1.32,6.584-2.195,3.146-1.284,5.362-3.387,7.659-5.234a17.559,17.559,0,0,1,3.138-2.224c.329-.183,2.838-1.021,2.838-.812V229.27L149.68,262.091Z" transform="translate(-142.355 -203.889)" fill="#93d7d3" opacity="0.4"/>
          <path id="パス_263" data-name="パス 263" d="M149.68,273.343a12.121,12.121,0,0,1,3.383-2.319c1.679-.764,3.6-1.211,5.121-2.195a18.432,18.432,0,0,0,2.015-1.679c2.846-2.458,7.008-4.166,10.992-5.717a34.336,34.336,0,0,0,5.7-2.615c3.585-2.239,5.432-5.516,9.452-7.316,2.092-.947,4.441-1.324,6.584-2.195,3.146-1.284,5.362-3.387,7.659-5.234a10.51,10.51,0,0,1,2.4-1.785,12.864,12.864,0,0,1,3.577-1.255V229.27L149.68,262.091Z" transform="translate(-142.355 -203.889)" fill="#93d7d3"/>
          <path id="パス_264" data-name="パス 264" d="M149.68,262.095v5.626l56.868-32.829V229.27Z" transform="translate(-142.355 -203.889)" opacity="0.03"/>
          <path id="パス_265" data-name="パス 265" d="M149.68,262.095v3.749l56.868-32.825V229.27Z" transform="translate(-142.355 -203.889)" opacity="0.03"/>
          <path id="パス_266" data-name="パス 266" d="M188.36,311.453a35.933,35.933,0,0,1,4.623-2.235,62.682,62.682,0,0,0,7.8-3.292,24.208,24.208,0,0,0,3.9-2.926,15.1,15.1,0,0,1-3.921,3.094,59.877,59.877,0,0,1-7.334,3.127,43.822,43.822,0,0,0-5.07,2.231Z" transform="translate(-166.886 -250.65)" fill="#fff"/>
          <path id="パス_267" data-name="パス 267" d="M247.55,281.64a12.93,12.93,0,0,1,2.612-1.163c1.39-.421,3.515-1,4.909-1.573a25.158,25.158,0,0,0,4.675-2.754,16.029,16.029,0,0,1-4.612,2.871c-1.65.666-3.972,1.258-5.037,1.591a14.8,14.8,0,0,0-2.546,1.028Z" transform="translate(-204.426 -233.621)" fill="#fff"/>
          <path id="パス_268" data-name="パス 268" d="M158.57,340.192a27.022,27.022,0,0,1,3.2-1.328,8.293,8.293,0,0,0,2.538-1.416,24.963,24.963,0,0,1,2.776-2.169,15.924,15.924,0,0,0-2.25,2,7.2,7.2,0,0,1-3.138,1.785C160.384,339.523,159.459,339.794,158.57,340.192Z" transform="translate(-147.993 -271.122)" fill="#fff"/>
          <path id="パス_269" data-name="パス 269" d="M186.18,321.808a30.523,30.523,0,0,1,4.448-2.348c1.149-.465,4.722-1.8,6.087-2.389A23.117,23.117,0,0,0,203,313.15c-1.24,1.694-4.576,3.438-6.321,4.122s-5.242,2.045-6.46,2.582A41.026,41.026,0,0,0,186.18,321.808Z" transform="translate(-165.504 -257.087)" fill="#fff" opacity="0.6"/>
          <path id="パス_270" data-name="パス 270" d="M234.8,296.252a23.66,23.66,0,0,1,3.065-2.838,14.515,14.515,0,0,1,3.735-1.876c1.335-.391,3.592-.969,3.961-1.1-1.123.479-3.354,1.046-4.082,1.269A15,15,0,0,0,237.6,293.8a26.3,26.3,0,0,0-2.8,2.454Z" transform="translate(-196.34 -242.684)" fill="#fff"/>
          <path id="パス_271" data-name="パス 271" d="M276,277.776a31.136,31.136,0,0,0,3.939-3.182,18.023,18.023,0,0,1,2.966-2.334,9.16,9.16,0,0,1,3.16-1.05c-1.16.677-1.708.307-3.464,1.54a27.936,27.936,0,0,0-3.658,2.926A16.584,16.584,0,0,1,276,277.776Z" transform="translate(-222.47 -230.488)" fill="#fff"/>
          <path id="パス_272" data-name="パス 272" d="M149.68,262.095v1.876l56.868-32.829V229.27Z" transform="translate(-142.355 -203.889)" opacity="0.03"/>
          <g id="freepik--characters--inject-67-2" data-name="freepik--characters--inject-67" transform="translate(0 16.726)">
            <path id="パス_273" data-name="パス 273" d="M237.164,263.927c-.691-2.078-1.4-1.884-2.491-.172a24.652,24.652,0,0,1-1.807,2.414,7.361,7.361,0,0,0,0-1.609.783.783,0,0,0-.783-.732c-.172.033-.157.644-.406,1.317a9.246,9.246,0,0,0-.764,2.374,3.7,3.7,0,0,1-.677,1.463c-1.5,1.514-6.474,5.578-6.474,5.578-.541-.571-2.257-2.264-4.517-4.572-2.015-2.063-2.7-2.7-4.905-2.813l-.179,6.855c2.3,1.277,3.928,2.345,7.948,4.452,1.961,1.031,2.652.808,3.742-.154s3.742-3.31,6.182-5.783c1.372-1.39,2.652-2.86,3.347-3.618C237.789,266.312,237.413,264.673,237.164,263.927Z" transform="translate(-183.249 -241.639)" fill="#ffa8a7"/>
            <g id="freepik--Arm--inject-67" transform="translate(24.376 17.332)">
              <path id="パス_274" data-name="パス 274" d="M208.122,277.109c-1.73,1.2-3.588,2.586-4.938,3.365-3.219,1.851-4.565,2.3-5.746,1.375-1.884-1.463-1.269-2.224.6-2.78a9.1,9.1,0,0,0,2.264-1,4.022,4.022,0,0,1-1.174-.132.808.808,0,0,1-.593-.966c.055-.187.472-.044,1.2-.2a8,8,0,0,1,2.447-.552c.366.022,1.262-.629,2.421-1.646,1.1-.951,3.058-3.131,4.071-4.2.274-4.594.318-5.823.523-10.523.088-2.012.545-6.1,4.367-6.182,0,0,1.222,1.544.662,8.665,0,0-.278,7.257-.4,7.839l-.121,1.445c-.07.644.08,1.145-1.463,2.3C210.873,274.966,209.852,275.906,208.122,277.109Z" transform="translate(-196.294 -253.421)" fill="#b16668"/>
              <path id="パス_275" data-name="パス 275" d="M230.26,266.974c1.211-.4,4.349-.582,5.585.647,0,0,1.295-13.786-.808-14.631a4.817,4.817,0,0,0-3.292,1.277c-.6.6-1.181,2.326-1.313,4.587C230.315,260.763,230.26,266.974,230.26,266.974Z" transform="translate(-217.836 -252.99)" fill="#37474f"/>
              <path id="パス_276" data-name="パス 276" d="M230.2,297.655l-.037.615a3.676,3.676,0,0,1,2.926.45S232.53,297.589,230.2,297.655Z" transform="translate(-217.773 -281.316)" fill="#9a4a4d"/>
            </g>
            <path id="パス_277" data-name="パス 277" d="M198.031,324.242c.176.841.366,1.712.534,2.6l-16.753,9.675c-.154-1.5-.267-2.948-.293-4.093a20.348,20.348,0,0,1,.7-6.189c.366-1.379.907-2.893,1.631-4.843l4.938-.882,8.047-1.437c.062.234.124.479.187.732C197.34,321.082,197.684,322.6,198.031,324.242Z" transform="translate(-162.537 -277.568)" fill="#93d7d3"/>
            <path id="パス_278" data-name="パス 278" d="M198.031,324.242c.176.841.366,1.712.534,2.6l-16.753,9.675c-.154-1.5-.267-2.948-.293-4.093a20.348,20.348,0,0,1,.7-6.189c.366-1.379.907-2.893,1.631-4.843l4.938-.882,8.047-1.437c.062.234.124.479.187.732C197.34,321.082,197.684,322.6,198.031,324.242Z" transform="translate(-162.537 -277.568)" opacity="0.3"/>
            <path id="パス_279" data-name="パス 279" d="M197.3,284.983l.183,3.848c.45,2.158,1.639,7.422,1.639,7.422-2.195,4.514-15.835,4.9-16.043,1.792.055-.212.11-.421.176-.626.326-1.061.871-2.7,1.236-3.563.929-2.195,1.167-2.838,1.163-3.252l-2.6-6.416a10.71,10.71,0,0,0,.878-7.045l3.757-1.156.384-.128,4.024-.494h.154a14.3,14.3,0,0,1,2.345-.033c.516.128,4.258,3.318,4.108,6.584A4.627,4.627,0,0,1,197.3,284.983Z" transform="translate(-163.519 -249.798)" fill="#455a64"/>
            <path id="パス_280" data-name="パス 280" d="M150.834,279.528c-2.678.413-3.164,1.178-4.634,4.236-1.368,2.842-2.524,5.121-3.04,6.1-1.028-.706-5.351-3.511-6.657-4.583a2.125,2.125,0,0,1-.541-1.525,8.244,8.244,0,0,0-.732-2.286c-.238-.64-.219-1.266-.388-1.269a.966.966,0,0,0-.779.882,7.623,7.623,0,0,0,0,1.631,19.471,19.471,0,0,1-1.759-2.162c-1.053-1.562-1.756-1.646-2.458.574-.252.8-.644,2.52,1.7,4.792.677.655,1.928,1.942,3.266,3.131a61.619,61.619,0,0,0,7.316,5.852c1.855,1.042,2.714.055,3.724-1.266,2.7-3.533,2.688-4.152,4.583-6.921C151.632,284.246,152.177,280.812,150.834,279.528Z" transform="translate(-129.653 -252.415)" fill="#ffa8a7"/>
            <path id="パス_281" data-name="パス 281" d="M166.58,307.163c1.017.475,1.463,2.165,1.463,2.165a3.041,3.041,0,0,0-1.214-2.648Z" transform="translate(-153.073 -269.71)" fill="#f28f8f"/>
            <path id="パス_282" data-name="パス 282" d="M196.874,235.716a1.185,1.185,0,0,0-.311-.893c-.278-.315-.391-.329-.293-.794a2.5,2.5,0,0,0,.055-2.056c-.326-.6-.79-1.328-2.926-2.052a9.46,9.46,0,0,0-6.95.849c-2.268,1.229-3.157,2.476-2.926,4.649a3.018,3.018,0,0,0-1.438,3.53,3.325,3.325,0,0,1,.249,1.057,3.08,3.08,0,0,1-.476,1.178,3.5,3.5,0,0,0-.271,2.8,2.118,2.118,0,0,0,2.195,1.364,1.031,1.031,0,0,1-.45-1.284,3.065,3.065,0,0,0,3.486,1.584c.274-.073.2-.457.366-.68.263-.366.556-.732.834-1.079l2.195-2.86,3.563-4.612c0-.022.11-.117.11-.143l.479.889s.761.944,1.54.867a.808.808,0,0,0,.812-.706.34.34,0,0,1-.626-.219C196.15,236.732,196.827,236.451,196.874,235.716Z" transform="translate(-162.481 -220.809)" fill="#263238"/>
            <path id="パス_283" data-name="パス 283" d="M209.81,249.773c.775-.135,2.25,1.174,2.736,2.677.443,1.368.486,3.329-.845,4a2.27,2.27,0,0,0,.055-1.419,3.354,3.354,0,0,1-1.628,2.25,5.461,5.461,0,0,1-3.453.918C204.375,258.018,209.81,249.773,209.81,249.773Z" transform="translate(-178.142 -233.612)" fill="#263238"/>
            <path id="パス_284" data-name="パス 284" d="M196.744,239.12c1.021.278,2.067,1.646,2.334,5.893.227,3.6-.816,4.675-1.357,5.029a5.873,5.873,0,0,1-2.707.366l.143,2.067s2.195,3.226,1.339,5.07c-3.372-.622-5.918-4.481-5.918-4.481l-.219-4.66a1.328,1.328,0,0,1-1.54.088c-.991-.552-1.6-2.121-.98-2.952s1.4-.775,2.224-.08a12.065,12.065,0,0,0,3.658-1.686A7.148,7.148,0,0,0,196.744,239.12Z" transform="translate(-166.397 -226.862)" fill="#ffa8a7"/>
            <path id="パス_285" data-name="パス 285" d="M194.26,254.889l.146,1.993a1.046,1.046,0,0,0,.9-1.1.933.933,0,0,0-1.042-.9Z" transform="translate(-170.628 -236.858)" fill="#263238"/>
            <path id="パス_286" data-name="パス 286" d="M213.78,251.69a.439.439,0,0,0,.494.439.545.545,0,0,0,.465-.556.439.439,0,0,0-.494-.439A.552.552,0,0,0,213.78,251.69Z" transform="translate(-183.008 -234.479)" fill="#263238"/>
            <path id="パス_287" data-name="パス 287" d="M203.4,253.81a.468.468,0,0,0,.527.472.589.589,0,0,0,.5-.6.472.472,0,0,0-.53-.472A.582.582,0,0,0,203.4,253.81Z" transform="translate(-176.424 -235.798)" fill="#263238"/>
            <path id="パス_288" data-name="パス 288" d="M206.979,262.46l1.792.135a.984.984,0,0,1-1.006.9.9.9,0,0,1-.786-1.039Z" transform="translate(-178.687 -241.664)" fill="#b16668"/>
            <path id="パス_289" data-name="パス 289" d="M208.158,264.011a.783.783,0,0,0-.969-.644.887.887,0,0,0-.139.048.852.852,0,0,0,.753.644A.834.834,0,0,0,208.158,264.011Z" transform="translate(-178.74 -242.224)" fill="#f28f8f"/>
            <path id="パス_290" data-name="パス 290" d="M214.71,246.3l-1.32-.033a.71.71,0,0,1,.732-.655.622.622,0,0,1,.589.688Z" transform="translate(-182.761 -230.977)" fill="#263238"/>
            <path id="パス_291" data-name="パス 291" d="M209.44,252l.366,2.955,1.511-.75Z" transform="translate(-180.256 -235.03)" fill="#f28f8f"/>
            <path id="パス_292" data-name="パス 292" d="M201.307,267.736c-1.123.044-3.362-.432-3.8-1.306a2.348,2.348,0,0,0,.933,1.149,11.347,11.347,0,0,0,2.926.852Z" transform="translate(-172.689 -244.182)" fill="#f28f8f"/>
            <g id="freepik--Character--inject-67" transform="translate(36.839)">
              <path id="パス_293" data-name="パス 293" d="M252.052,311.81l-5.073,2.93h-.007l-4.4,2.546-.625.362-4.576,2.641,1.4-7.392.187-.977Z" transform="translate(-234.808 -272.963)" fill="#37474f"/>
              <path id="パス_294" data-name="パス 294" d="M248.14,323.609l-.625.366a6.361,6.361,0,0,1-1.364-2.195,9.572,9.572,0,0,0,1.99,1.829Z" transform="translate(-240.377 -279.286)" fill="#263238"/>
              <path id="パス_295" data-name="パス 295" d="M254.5,271.223l-2.809,1.62-5.073,2.926h0a16.1,16.1,0,0,1-8.2-1.829l-.139-.1c-.018-.786-.026-1.522-.029-2.235v-.1c0-1.529,0-2.963-.106-4.587-.037-.574-.088-1.171-.154-1.8-.15-1.394-.388-2.963-.768-4.836-.633-3.131-.838-7.081,1.4-8.636a3.291,3.291,0,0,1,.567-.318l.2-.084a7.232,7.232,0,0,1,1.163-.282c.6-.106,1.123-.157,1.123-.157l3.241-.435h.808a41.3,41.3,0,0,1,4.192.238h0l.366.051a1.72,1.72,0,0,1,.2.044c1.434.413,2.235,2.846,2.926,7.55a1.336,1.336,0,0,0,.029.2c.088.6.176,1.236.26,1.909A101.5,101.5,0,0,1,254.5,271.223Z" transform="translate(-234.444 -233.997)" fill="#f0f0f0"/>
              <path id="パス_296" data-name="パス 296" d="M273.8,233.983c2.593-.055,3.782.757,6.5,2.385s3.691,2.067,4.8,2.678a47.56,47.56,0,0,0,3.263-5.852,5.169,5.169,0,0,0-.088-2.037,9.556,9.556,0,0,1-.366-2.612c-.066-.757-.366-1.328-.212-1.441a.9.9,0,0,1,1.163.322,7.286,7.286,0,0,1,.761,1.522,25.265,25.265,0,0,0,.706-3.157c.293-2.14.933-2.67,2.641-1.046.611.582,1.781,1.946.563,5.585-.366,1.046-.962,3.058-1.7,5.037a49.454,49.454,0,0,1-3.46,7.831c-1.31,2.169-2.6,1.829-4.181,1.214-5.059-1.924-5.516-2.026-8.625-3.394C273.875,239.813,273.1,236.05,273.8,233.983Z" transform="translate(-257.75 -217.141)" fill="#b16668"/>
              <path id="パス_297" data-name="パス 297" d="M271.517,250.9a7.242,7.242,0,0,1,4.155.622c1.353.622,6.211,3.7,6.211,3.7s.347,2.385-2.4,5.176l-6.087-2.308S269.3,254.584,271.517,250.9Z" transform="translate(-256.047 -234.3)" fill="#37474f"/>
              <path id="パス_298" data-name="パス 298" d="M303.725,265.084a6.047,6.047,0,0,0-.6,2.926,4.2,4.2,0,0,1,.165-3.16Z" transform="translate(-276.37 -243.18)" fill="#9a4a4d"/>
              <path id="パス_299" data-name="パス 299" d="M231.447,216.456a5.318,5.318,0,0,1,4.828-5.15,4.294,4.294,0,0,1,4.689,3.928l2.162-1.741a1.6,1.6,0,0,1,1.4.391c.593.574.234,2.535-.541,4.488a40.967,40.967,0,0,1-1.075,4.1,1.763,1.763,0,0,1-.907.783l.069-2.1-8.665.154.856-.688A4.3,4.3,0,0,1,231.447,216.456Z" transform="translate(-231.05 -209.209)" fill="#263238"/>
              <path id="パス_300" data-name="パス 300" d="M244.077,219.557c.274.146.523-.457,1.021-.8.421-.293,1.372-.823,2,.176.677,1.075-.545,2.758-1.4,3.16-1.273.593-1.73-.366-1.73-.366l.278,5.3c-2.9,4.755-6.917,4.269-5.121.772l-.216-2.034a15.779,15.779,0,0,1-2.008.088c-1.1-.091-1.577-.71-1.964-1.865a15.954,15.954,0,0,1-.479-3.4,24.789,24.789,0,0,1,.1-3.954c.366-4.225,5.392-4.627,7.985-3.171S244.077,219.557,244.077,219.557Z" transform="translate(-232.938 -210.101)" fill="#b16668"/>
              <path id="パス_301" data-name="パス 301" d="M230.916,208.337a1.858,1.858,0,0,1,1.17-.241,1.566,1.566,0,0,1,.841-1.5,1.606,1.606,0,0,1,1.8.08.933.933,0,0,1,.691-1.013,2.195,2.195,0,0,1,1.277.1c.607.176,1.207.366,1.829.534a14.37,14.37,0,0,1,3.237.874,1.829,1.829,0,0,1,.615.468,1.609,1.609,0,0,1,.282,1.061,2.174,2.174,0,0,1-.051.366,1.019,1.019,0,0,1,.26-.223.867.867,0,0,1,1.258.322l-1.639,1c.04.329.084.655.117.984a8.892,8.892,0,0,1,.066,2.769.7.7,0,0,1-.106.3,6.07,6.07,0,0,0-.849.907c-.128.168-.282.432-.486.512a.454.454,0,0,1-.567-.209.863.863,0,0,1-.018-.388l.154-1.635a.929.929,0,0,0-.026-.428c-.073-.176-.249-.271-.4-.388a1.708,1.708,0,0,1-.647-1.24,1.759,1.759,0,0,0-.044-.461c-.033-.113-.124-.282-.252-.271-.256.022-1.628.446-1.972.523a8.358,8.358,0,0,1-5.315-.113c-.618-.289-1.661-.907-1.77-1.664A1.134,1.134,0,0,1,230.916,208.337Z" transform="translate(-230.366 -205.607)" fill="#263238"/>
              <path id="パス_302" data-name="パス 302" d="M246.67,243.346a14.537,14.537,0,0,0,3-1.028,5.335,5.335,0,0,0,1.39-1.9,4.389,4.389,0,0,1-.867,2.041c-.732.8-3.453,1.555-3.453,1.555Z" transform="translate(-240.706 -227.686)" fill="#9a4a4d"/>
              <path id="パス_303" data-name="パス 303" d="M248.439,229.767a.457.457,0,0,0,.494.479.567.567,0,0,0,.5-.556.457.457,0,0,0-.494-.483A.571.571,0,0,0,248.439,229.767Z" transform="translate(-241.828 -220.574)" fill="#263238"/>
              <path id="パス_304" data-name="パス 304" d="M249.4,224.47l1.17.465a.64.64,0,0,0-.315-.867.684.684,0,0,0-.856.4Z" transform="translate(-242.438 -217.293)" fill="#263238"/>
              <path id="パス_305" data-name="パス 305" d="M246.251,238.93l-2.111.951a1.021,1.021,0,0,0,1.419.593A1.284,1.284,0,0,0,246.251,238.93Z" transform="translate(-239.102 -226.741)" fill="#9a4a4d"/>
              <path id="パス_306" data-name="パス 306" d="M246.28,241.553a1.222,1.222,0,0,1,1.229-1.053.8.8,0,0,1,.135.018,1.3,1.3,0,0,1-.732.951A1.1,1.1,0,0,1,246.28,241.553Z" transform="translate(-240.459 -227.737)" fill="#f28f8f"/>
              <path id="パス_307" data-name="パス 307" d="M235.835,226.1l1.127-.691a.578.578,0,0,0-.841-.19A.691.691,0,0,0,235.835,226.1Z" transform="translate(-233.796 -217.98)" fill="#263238"/>
              <path id="パス_308" data-name="パス 308" d="M237.519,230.543a.457.457,0,0,0,.49.483.571.571,0,0,0,.5-.56.457.457,0,0,0-.49-.468.571.571,0,0,0-.5.545Z" transform="translate(-234.902 -221.075)" fill="#263238"/>
              <path id="パス_309" data-name="パス 309" d="M241.034,229.13l-.077,3.31-1.737-.212Z" transform="translate(-235.981 -220.526)" fill="#9a4a4d"/>
            </g>
          </g>
        </g>
      </g>
    </g>
    <path id="パス_1805" data-name="パス 1805" d="M6.685-18.69H5.11a22.2,22.2,0,0,1-3.43-.175v4.515a22.763,22.763,0,0,1,3.43-.175H6.475v4.06H5.74a21.928,21.928,0,0,1-3.43-.175V-6.2A18.3,18.3,0,0,1,5.32-6.37H28.84l-3.5,1.68A37.652,37.652,0,0,1,29.575,2.8L33.565.315a42.859,42.859,0,0,0-4.48-6.685h.56A20.549,20.549,0,0,1,32.9-6.2V-10.64a19.675,19.675,0,0,1-3.325.175h-.49v-4.06H30.24a22.482,22.482,0,0,1,3.43.175v-4.515a22.2,22.2,0,0,1-3.43.175H29.085v-3.99a27.323,27.323,0,0,1,3.29.21v-4.515a35.181,35.181,0,0,1-4.48.21H11.2c.49-.735.77-1.19,1.155-1.785a7.414,7.414,0,0,1,.6-.945l-4.8-.77a11.312,11.312,0,0,1-.77,1.645A19.939,19.939,0,0,1,1.05-22.365,18.72,18.72,0,0,1,3.92-19.25a22.8,22.8,0,0,0,2.765-2.275Zm3.885-3.99h2.275v3.99H10.57Zm6.09,0h2.2v3.99h-2.2Zm-6.09,8.155h2.275v4.06H10.57Zm6.09,0h2.2v4.06h-2.2Zm6.02,4.06v-4.06h2.31v4.06Zm0-8.225v-3.99h2.31v3.99ZM24.43,1.855A49.352,49.352,0,0,0,22.365-5.6l-4.095.91a43.98,43.98,0,0,1,1.575,7.525ZM16.2,2.59a59.2,59.2,0,0,0-.875-7.91l-4.095.455a57.216,57.216,0,0,1,.42,6.37c0,.315,0,.8-.035,1.435ZM5.11,3.045a23.233,23.233,0,0,0,4.515-7.49l-3.85-1.89A16.457,16.457,0,0,1,1.47.21Zm45.85-5.7a28.979,28.979,0,0,1,3.325-.84l6.86-1.505v3.78a26.814,26.814,0,0,1-.21,4.3H65.9a27.108,27.108,0,0,1-.21-4.27v-4.8c1.715-.35,2.52-.49,3.465-.595l-.56-4.69a26.754,26.754,0,0,1-2.9.8V-25.27A26.612,26.612,0,0,1,65.9-29.5h-4.97a25.833,25.833,0,0,1,.21,4.235V-9.485L53.655-7.91a20.609,20.609,0,0,1-3.325.49c.35-.7.49-.945,1.05-1.925a19.067,19.067,0,0,1-4.41-4.585h1.05a15.417,15.417,0,0,1,2.8.175V-18.13a13.282,13.282,0,0,1-2.73.175H46.655V-20.2l2.835,1.54a41.13,41.13,0,0,0,2.625-7.6l-3.29-1.5a39.1,39.1,0,0,1-2.17,7.315v-5.845a18.776,18.776,0,0,1,.175-3.22H42.1a20.017,20.017,0,0,1,.175,3.255v8.3H40.11a17.588,17.588,0,0,1-3.185-.175v4.375a19.029,19.029,0,0,1,3.22-.175H41.72A23.733,23.733,0,0,1,36.295-5.5a17,17,0,0,1,2.03,4.41c1.68-1.855,2.555-3.325,4.095-6.86-.07.98-.1,2.24-.1,3.57v3.85a26.505,26.505,0,0,1-.21,3.64H46.83A23.741,23.741,0,0,1,46.655-.42V-5.845A29.541,29.541,0,0,0,46.48-9.24a25.662,25.662,0,0,0,2.94,4.095c.385-1.015.49-1.3.84-2.1ZM36.645-26.18a31.292,31.292,0,0,1,2.065,7.49l3.255-1.54a45.068,45.068,0,0,0-2.1-7.525Zm15.505,2a34.2,34.2,0,0,1,6.09,5.32l2.8-3.465a32.771,32.771,0,0,0-6.02-5.005ZM51.065-15.54a33.919,33.919,0,0,1,6.09,5.355l2.765-3.36a35.674,35.674,0,0,0-5.985-5.04ZM95.2-4.76a30.811,30.811,0,0,0,6.44,7.385,25.123,25.123,0,0,1,2.765-4.76,23.136,23.136,0,0,1-7.07-8.225,51.509,51.509,0,0,0,5.88-5.18l-3.185-3.535a18.189,18.189,0,0,1-4.41,4.48,32.8,32.8,0,0,1-1.085-5.915h4.76c1.575,0,2.87.07,4.1.175V-24.85a33.571,33.571,0,0,1-4.13.21H93.59v-2.38a16.325,16.325,0,0,1,.14-2.415h-5A14.258,14.258,0,0,1,88.9-27.02v2.38H84.035a29.068,29.068,0,0,1-3.465-.14,21.056,21.056,0,0,0,.7-2.135c.245-.875.315-1.015.525-1.61l-4.76-1.19a22.645,22.645,0,0,1-1.26,4.69,23.789,23.789,0,0,1-5.25,8.855,23.4,23.4,0,0,1,1.715,5.285,16.709,16.709,0,0,0,2.065-2.765c-.07,1.89-.07,2.66-.07,3.6v9.03a37.948,37.948,0,0,1-.21,4.06H78.82A37.881,37.881,0,0,1,78.645-.98v-9.975a18.317,18.317,0,0,1,2.275,3.85A36.419,36.419,0,0,0,84.1-9.94v7.6a18.772,18.772,0,0,1-3.85.455l.63,4.725a16.183,16.183,0,0,1,1.82-.42c4.165-.8,7.665-1.68,12.53-3.08ZM88.55-15.4a19.63,19.63,0,0,0,2.1-4.2A31.788,31.788,0,0,0,95.06-4.97c-.7.21-1.33.385-1.68.49-.875.245-1.47.42-1.68.49-.875.245-1.715.42-3.15.735ZM86.8-20.51a21.943,21.943,0,0,1-3.955,5.81,24.422,24.422,0,0,1-4.2,3.5v-8.925C79-21,79-21,79.94-23.17a6.673,6.673,0,0,0,.35-.805v3.64a29.886,29.886,0,0,1,3.745-.175Zm35.175-3.955a18.468,18.468,0,0,1,2.205-.07h3.85a13.682,13.682,0,0,1-.805,2.135h-1.54c-1.645,0-2.1,0-2.94-.07.07.875.1,1.61.1,3.29V-7.105c0,1.575-.035,2.24-.1,3.22.665-.035,1.47-.07,2.625-.07h.315a13.236,13.236,0,0,1-6.02,3.64,12.189,12.189,0,0,1,2.66,3.535,18,18,0,0,0,7.1-5.11l-2.555-2.065h5.705L130.235-1.89a21.069,21.069,0,0,0,6.475,5.075A14.459,14.459,0,0,1,139.545-.35a14.854,14.854,0,0,1-5.74-3.6h.63c.98,0,1.89.035,3.01.105-.07-1.05-.105-2.415-.105-3.78V-19.145q0-1.943.105-3.36c-.875.07-1.54.105-3.535.105h-2.205c.385-.84.56-1.365.84-2.135h1.995a28.457,28.457,0,0,1,3.99.175v-4.375a26.95,26.95,0,0,1-3.99.175h-8.995a26.706,26.706,0,0,1-3.85-.21V-26.7a19.355,19.355,0,0,1-2.52.1h-2.66v-.245a14.908,14.908,0,0,1,.14-2.555H112.28a17.732,17.732,0,0,1,.175,2.8h-2.1a27.329,27.329,0,0,1-3.92-.175V-22.4a37.5,37.5,0,0,1,3.92-.14h2.1v1.89h-1.68a29.093,29.093,0,0,1-3.465-.1,23.9,23.9,0,0,1,.14,3.08v4.445a26.643,26.643,0,0,1-.14,3.255,24.1,24.1,0,0,1,2.94-.105h1.12a20.96,20.96,0,0,1-5.845,6.545,12.481,12.481,0,0,1,2.17,4.1,24.759,24.759,0,0,0,4.83-6.125c-.07,1.295-.07,2.03-.07,3.15v1.89a21.114,21.114,0,0,1-.21,3.43h4.445a20.081,20.081,0,0,1-.175-3.43v-2.03c0-1.225-.035-2.065-.14-3.5a22.7,22.7,0,0,0,3.85,4.2A16.86,16.86,0,0,1,122.43-5.74a18.65,18.65,0,0,1-4.97-4.34h1.26c1.365,0,1.855.035,2.73.105-.07-.735-.07-1.33-.07-2.835v-5.18a26.9,26.9,0,0,1,.07-2.765c-.805.07-1.435.1-2.835.1h-2.1v-1.89h2.625a27.991,27.991,0,0,1,2.835.1Zm-9.415,7.42v3.36h-1.54v-3.36Zm3.745,0h1.645v3.36h-1.645Zm10.57-1.82h6.4v1.575h-6.4Zm0,4.795h6.4v1.645h-6.4Zm0,4.935h6.4V-7.56h-6.4Zm25.655-7.77a.616.616,0,0,1,.21-.035c.455,0,.455,0,1.015.035,1.5.105,4.62.21,5.88.21.77,0,1.365,0,2.38-.035.1,3.71.175,5.285.21,6.475a10.5,10.5,0,0,0-2.52-.28c-4.62,0-7.665,2.485-7.665,6.265s2.94,6.09,7.77,6.09c4.445,0,7.245-1.96,7.245-5.04a4.048,4.048,0,0,0-.035-.595,21.093,21.093,0,0,1,4.515,3.6l1.925-5.04c-.385-.245-.49-.315-1.015-.665A28.256,28.256,0,0,0,167.09-8.96c-.28-4.48-.315-5.25-.35-8.085a39.99,39.99,0,0,0,4.445-.7,8.6,8.6,0,0,1,1.365-.21l-.175-4.76a29.652,29.652,0,0,1-5.67,1.155,39.806,39.806,0,0,1,.245-6.405h-5.18a8.934,8.934,0,0,1,.14,1.82c.035,2.345.035,2.345.035,4.935-1.19.035-1.82.035-2.8.035A30.964,30.964,0,0,1,152.6-21.7Zm9.8,11.165a3.257,3.257,0,0,1,.035.735c0,1.75-.875,2.52-2.905,2.52-1.715,0-2.765-.7-2.765-1.82,0-1.19,1.225-1.96,3.08-1.96A6.3,6.3,0,0,1,162.33-5.74ZM145.25-28.1a19.538,19.538,0,0,1-.42,2.975c-.7,3.78-.7,3.78-.84,4.83a62.765,62.765,0,0,0-.665,9.415A70.832,70.832,0,0,0,144.27.6c.1.735.1.945.14,1.4l5-.245c-.035-.63-.07-.98-.07-1.12,0-2.66,1.295-7,3.15-10.675l-2.975-1.19c-.56,1.12-.805,1.75-1.575,3.64,0-.56.035-1.925.035-2.625a67.007,67.007,0,0,1,.455-6.755c.525-4.2,1.575-9.17,2.31-10.64ZM182.1-21.91a6.067,6.067,0,0,1,1.225.1,65.736,65.736,0,0,0,7.245.42,31.13,31.13,0,0,0,3.99-.21c-1.015.595-3.4,2.065-4.62,2.87l3.57,2.66a65.672,65.672,0,0,1,9.555-5.985l-.175-4.62a46.967,46.967,0,0,1-9.17.63,52.519,52.519,0,0,1-11.305-.875Zm2.8,7.42c-3.325,2.66-4.76,5.11-4.76,7.98s1.54,4.9,4.69,6.09c1.96.77,5,1.155,9.205,1.155a55.147,55.147,0,0,0,7.91-.56A30.029,30.029,0,0,1,205.1-.14l-.385-5.74c-2.345.91-7.07,1.54-11.375,1.54-5.46,0-7.875-.91-7.875-2.94,0-1.365,1.015-2.835,3.15-4.55Zm28.385-4.9h.315c.28,0,.63,0,1.155.035,2.94.21,3.15.245,3.5.245h1.54A54.105,54.105,0,0,1,215.25-8.4l5.04,1.68a5.319,5.319,0,0,1,2.415-1.925,16.14,16.14,0,0,1,7.385-1.68c3.43,0,5.39,1.085,5.39,3.01,0,2.555-3.115,4.165-8.015,4.165a28.923,28.923,0,0,1-9.24-1.68,21.283,21.283,0,0,1,.49,5.215,34.177,34.177,0,0,0,8.96,1.19c8.05,0,13.23-3.465,13.23-8.855,0-4.69-3.745-7.42-10.15-7.42a16.562,16.562,0,0,0-8.26,1.925,41.834,41.834,0,0,0,2.38-6.265c3.955-.1,6.72-.28,10.185-.63s3.465-.35,4.445-.42l-.21-5.04c-2.38.7-7.07,1.225-13.23,1.435.8-3.115,1.225-4.76,1.295-5.04l-5.53-.42a31.006,31.006,0,0,1-.91,5.53,37.353,37.353,0,0,1-7.56-.595Zm41.2-5.25a67.778,67.778,0,0,0,14.35,4.48l1.68-4.83c-4.06-.56-11.06-2.59-13.58-3.955Zm-2.7,2.66c-.07.805-.1,1.26-.21,2.1-.7,4.62-1.295,9.03-1.61,11.62-.07.455-.07.49-.14.945l5.075.175a6.723,6.723,0,0,1,1.785-1.575,15.592,15.592,0,0,1,8.295-2.345c3.36,0,5.355,1.26,5.355,3.4,0,2.765-3.29,4.62-8.19,4.62a29.932,29.932,0,0,1-9.2-1.68,20.7,20.7,0,0,1,.63,5.32,36.252,36.252,0,0,0,8.89,1.12c4.06,0,7.07-.77,9.555-2.485a8.6,8.6,0,0,0,3.78-7.07c0-4.725-3.99-7.77-10.22-7.77a16.314,16.314,0,0,0-10.22,3.045c.42-3.185,1.225-7.735,1.61-9.1Z" transform="translate(916 5939)" fill="#fcdd44"/>
  </g>
</svg>
